<svg width="317" height="302" viewBox="0 0 317 302" fill="none" xmlns="http://www.w3.org/2000/svg">
<path d="M91.3187 114.264H63.8912C63.1277 114.264 62.3717 114.13 61.6667 113.872C60.9613 113.613 60.3204 113.233 59.7812 112.755C59.2415 112.277 58.814 111.709 58.5223 111.084C58.2309 110.46 58.0813 109.79 58.0824 109.114V50.7322C58.0824 50.0569 58.2328 49.3882 58.5245 48.7644C58.8167 48.1409 59.2445 47.5742 59.7842 47.0968C60.3234 46.6193 60.9639 46.2409 61.6685 45.9829C62.3732 45.7249 63.1284 45.5921 63.8912 45.5928H109.172C109.937 45.5905 110.693 45.7219 111.4 45.9789C112.107 46.2362 112.749 46.6144 113.291 47.0918C113.832 47.5692 114.262 48.1366 114.555 48.7611C114.848 49.3859 115 50.0555 115 50.7322V66.4789" stroke="#CCDDE2" stroke-width="4.5" stroke-miterlimit="10"/>
<path d="M107.796 52.667H65.86C64.255 52.667 62.9537 53.819 62.9537 55.24V62.1721C62.9537 63.5931 64.255 64.7451 65.86 64.7451H107.796C109.401 64.7451 110.702 63.5931 110.702 62.1721V55.24C110.702 53.819 109.401 52.667 107.796 52.667Z" stroke="#CCDDE2" stroke-width="4.5" stroke-miterlimit="10"/>
<path d="M86.5337 57.7535C87.3125 57.7535 87.9437 57.1944 87.9437 56.5052C87.9437 55.8156 87.3125 55.2568 86.5337 55.2568C85.7548 55.2568 85.1237 55.8156 85.1237 56.5052C85.1237 57.1944 85.7548 57.7535 86.5337 57.7535Z" fill="#D7E8F0"/>
<path d="M82.5924 62.1589C82.5594 61.6832 82.6363 61.2064 82.8193 60.7579C83.0023 60.3094 83.2869 59.8987 83.6559 59.5514C84.0245 59.2041 84.47 58.9273 84.9643 58.738C85.4585 58.5488 85.9914 58.4512 86.5299 58.4512C87.0684 58.4512 87.6013 58.5488 88.0955 58.738C88.5898 58.9273 89.0353 59.2041 89.4043 59.5514C89.7729 59.8987 90.0575 60.3094 90.2405 60.7579C90.4235 61.2064 90.5008 61.6832 90.4674 62.1589H82.5924Z" fill="#D7E8F0"/>
<path d="M86.8224 77.6904C85.319 77.6904 83.8494 78.0852 82.5995 78.8245C81.3493 79.5642 80.375 80.615 79.7998 81.8447C79.2245 83.0745 79.0738 84.4277 79.367 85.7331C79.6607 87.0386 80.3844 88.2374 81.4475 89.1786C82.5107 90.1198 83.8648 90.7609 85.3393 91.0206C86.8138 91.2802 88.3423 91.1467 89.7313 90.6374C91.1203 90.1281 92.3075 89.2656 93.1427 88.159C93.9778 87.0522 94.4237 85.7511 94.4237 84.4201C94.424 83.5363 94.2279 82.6611 93.8462 81.8444C93.464 81.0277 92.9042 80.2857 92.1984 79.6605C91.4923 79.0357 90.6542 78.54 89.732 78.202C88.8095 77.8637 87.8207 77.6901 86.8224 77.6904ZM86.8224 89.5229C86.5592 89.4844 86.3203 89.3645 86.1478 89.1846C85.9753 89.0047 85.8804 88.7762 85.8804 88.5402C85.8804 88.3041 85.9753 88.0757 86.1478 87.8958C86.3203 87.7158 86.5592 87.596 86.8224 87.5575C86.9833 87.5339 87.1483 87.5419 87.3058 87.5804C87.4629 87.6189 87.6088 87.6873 87.7333 87.7809C87.8578 87.8742 87.9579 87.9907 88.0265 88.1219C88.0952 88.253 88.1304 88.3958 88.1304 88.5402C88.1304 88.6846 88.0952 88.8277 88.0265 88.9588C87.9579 89.09 87.8578 89.2062 87.7333 89.2998C87.6088 89.3931 87.4629 89.4615 87.3058 89.5C87.1483 89.5388 86.9833 89.5465 86.8224 89.5229ZM88.2287 81.9566C88.0475 83.445 87.7382 84.9191 87.3024 86.3656C87.2567 86.4429 87.188 86.5074 87.1037 86.5525C87.0193 86.5977 86.9229 86.6216 86.8243 86.6216C86.7257 86.6216 86.6293 86.5977 86.5449 86.5525C86.4605 86.5074 86.3919 86.4429 86.3462 86.3656C85.9993 85.2992 85.7334 84.2132 85.5512 83.1153C85.3974 82.3185 84.8724 81.0237 85.3749 80.2468C85.8174 79.5529 87.0699 79.4699 87.7937 79.8318C88.6824 80.28 88.3337 81.2296 88.2287 81.9566Z" fill="#D7E8F0"/>
<path d="M67.7274 70.1372H104.856" stroke="#CCDDE2" stroke-width="4.5" stroke-miterlimit="10"/>
<path d="M67.7274 73.374H104.856" stroke="#CCDDE2" stroke-width="4.5" stroke-miterlimit="10"/>
<path d="M67.7274 94.207H104.856" stroke="#CCDDE2" stroke-width="4.5" stroke-miterlimit="10"/>
<path d="M76.3524 97.269H96.2312" stroke="#CCDDE2" stroke-width="4.5" stroke-miterlimit="10"/>
<path d="M297.104 101.788H240.19C235.451 101.788 231.61 105.189 231.61 109.384V195.441C231.61 199.637 235.451 203.038 240.19 203.038H297.104C301.842 203.038 305.684 199.637 305.684 195.441V109.384C305.684 105.189 301.842 101.788 297.104 101.788Z" fill="#DB00FF"/>
<path d="M219.306 101.788H179.676C174.938 101.788 171.096 105.189 171.096 109.384V195.441C171.096 199.637 174.938 203.038 179.676 203.038H219.306C224.045 203.038 227.886 199.637 227.886 195.441V109.384C227.886 105.189 224.045 101.788 219.306 101.788Z" fill="#DB00FF"/>
<path d="M174.377 254.524H305.275C307.537 254.523 309.706 253.727 311.305 252.312C312.905 250.896 313.804 248.976 313.806 246.974V103.122C313.807 102.13 313.586 101.147 313.158 100.231C312.729 99.3141 312.101 98.4815 311.309 97.78C310.516 97.0785 309.575 96.5224 308.54 96.1429C307.505 95.7634 306.395 95.5682 305.275 95.5688H216.317L193.067 95.6917H193L181.244 96.0967H181.206L178.112 96.203H177.839L177.61 97.8331L177.16 100.864C177.165 100.87 177.167 100.877 177.167 100.884C177.167 100.891 177.165 100.898 177.16 100.904L173.5 105.705L172.75 106.678L170.684 118.384V118.44C170.639 118.424 170.594 118.4 170.537 118.374C170.492 118.351 170.45 118.324 170.41 118.294C169.715 117.831 169.192 117.194 168.91 116.465C168.224 114.924 168.059 112.883 168.051 111.262L167.601 120.157V120.19L166.975 132.072L166.821 135.263C167.114 134.801 167.534 134.137 168.021 133.344L166.465 142.148L166.142 148.493L165.34 164.525L165.31 165.123V165.352L165.1 169.256V169.346C165.1 169.346 164.5 180.803 164.5 180.82L164.444 181.882L163.75 186.52L161.725 199.498V246.974C161.725 248.327 162.137 249.654 162.917 250.817C163.697 251.98 164.816 252.936 166.157 253.584C168.696 254.803 171.505 254.64 174.295 254.557C175.045 254.537 175.795 254.507 176.545 254.471" fill="#DB00FF"/>
<path d="M169.409 252.047C169.356 252.047 169.3 252.004 169.236 251.988C168.523 251.762 167.849 251.449 167.234 251.058C166.153 250.379 165.273 249.479 164.667 248.436C164.061 247.393 163.746 246.235 163.75 245.062V181.703L161.725 182.563L161.597 182.62L161.324 182.019L159.97 179.031L159.595 178.204L156.171 170.638C156.171 170.638 162.674 147.345 166.975 132.073C168.55 126.465 169.832 121.937 170.372 120.034C170.537 119.467 170.635 119.135 170.654 119.078C170.655 119.065 170.655 119.052 170.654 119.038C170.665 118.925 170.645 118.812 170.597 118.706C170.544 118.584 170.48 118.465 170.406 118.351C170.398 118.328 170.385 118.305 170.369 118.285C169.923 117.613 169.421 116.972 168.869 116.366L168.156 108.554L168.272 108.474L168.812 108.092L172.502 105.503L173.361 103.491L175.045 99.5798L175.795 97.8368H177.58H178.037H181.266L193.199 97.8036H194.222L216.861 97.6841H303.482C304.573 97.6841 305.653 97.8743 306.661 98.2442C307.669 98.614 308.584 99.1562 309.354 99.8394C310.125 100.523 310.736 101.334 311.153 102.227C311.569 103.119 311.783 104.075 311.781 105.041V245.062C311.783 246.028 311.569 246.984 311.153 247.877C310.736 248.769 310.125 249.58 309.354 250.264C308.584 250.947 307.669 251.489 306.661 251.859C305.653 252.229 304.573 252.419 303.482 252.419H174.535" fill="#DB00FF"/>
<path d="M178.075 95.7647L181.142 95.7481H181.206L192.981 95.6917H193.064L216.314 95.5688H305.275C307.537 95.5695 309.707 96.3657 311.306 97.782C312.906 99.1983 313.805 101.119 313.806 103.122V246.974C313.804 248.976 312.905 250.896 311.305 252.312C309.706 253.727 307.537 254.523 305.275 254.524H170.024C167.82 254.524 165.706 253.749 164.148 252.369C162.589 250.989 161.714 249.118 161.714 247.167V231.46" stroke="#5B5B5B" stroke-width="4.5" stroke-miterlimit="10"/>
<path d="M297.104 210.473H179.676C174.938 210.473 171.096 213.874 171.096 218.069V239.188C171.096 243.383 174.938 246.784 179.676 246.784H297.104C301.842 246.784 305.684 243.383 305.684 239.188V218.069C305.684 213.874 301.842 210.473 297.104 210.473Z" fill="white"/>
<path d="M258.28 218.562H182.425C180.82 218.562 179.519 219.714 179.519 221.135V236.646C179.519 238.067 180.82 239.219 182.425 239.219H258.28C259.885 239.219 261.186 238.067 261.186 236.646V221.135C261.186 219.714 259.885 218.562 258.28 218.562Z" fill="#DB00FF"/>
<path d="M244.671 227.263C246.005 227.263 247.086 226.306 247.086 225.125C247.086 223.944 246.005 222.987 244.671 222.987C243.337 222.987 242.256 223.944 242.256 225.125C242.256 226.306 243.337 227.263 244.671 227.263Z" fill="white"/>
<path d="M237.929 234.792C237.929 233.208 238.64 231.688 239.906 230.567C241.172 229.446 242.888 228.816 244.679 228.816C246.469 228.816 248.186 229.446 249.452 230.567C250.718 231.688 251.429 233.208 251.429 234.792H237.929Z" fill="white"/>
<path d="M281.789 218.565C279.437 218.563 277.137 219.178 275.181 220.334C273.224 221.489 271.699 223.132 270.798 225.056C269.896 226.978 269.66 229.095 270.117 231.137C270.575 233.18 271.707 235.056 273.369 236.529C275.031 238.002 277.15 239.005 279.456 239.411C281.763 239.818 284.154 239.609 286.326 238.812C288.499 238.016 290.356 236.666 291.662 234.935C292.969 233.203 293.666 231.168 293.665 229.086C293.665 227.705 293.358 226.337 292.762 225.061C292.166 223.784 291.291 222.625 290.188 221.648C289.085 220.671 287.776 219.896 286.335 219.367C284.894 218.838 283.349 218.565 281.789 218.565ZM281.789 237.067C281.553 237.077 281.319 237.044 281.098 236.971C280.878 236.898 280.677 236.786 280.506 236.643C280.336 236.499 280.201 236.326 280.108 236.134C280.016 235.943 279.968 235.737 279.968 235.528C279.968 235.32 280.016 235.114 280.108 234.922C280.201 234.731 280.336 234.558 280.506 234.414C280.677 234.27 280.878 234.158 281.098 234.086C281.319 234.013 281.553 233.98 281.789 233.99C282.236 234.008 282.657 234.178 282.966 234.465C283.275 234.751 283.448 235.132 283.448 235.528C283.448 235.925 283.275 236.305 282.966 236.592C282.657 236.879 282.236 237.049 281.789 237.067ZM283.975 225.231C283.6 227.516 283.296 229.913 282.527 232.124C282.355 232.658 281.219 232.658 281.027 232.124C280.482 230.458 280.066 228.76 279.782 227.044C279.542 225.799 278.721 223.774 279.509 222.566C280.202 221.48 282.16 221.35 283.285 221.902C284.687 222.605 284.125 224.096 283.975 225.231Z" fill="#DB00FF"/>
<path d="M294.411 174.98C293.835 179.379 291.778 183.523 288.508 186.874C285.238 190.225 280.905 192.627 276.072 193.77C271.24 194.913 266.131 194.743 261.409 193.282C256.687 191.822 252.57 189.137 249.593 185.579C246.616 182.02 244.916 177.751 244.715 173.326C244.513 168.901 245.819 164.525 248.463 160.766C251.107 157.006 254.967 154.038 259.541 152.245C264.115 150.453 269.192 149.919 274.112 150.714C274.329 150.751 274.534 150.827 274.716 150.937C274.898 151.047 275.053 151.188 275.171 151.353C275.288 151.518 275.367 151.703 275.401 151.895C275.435 152.088 275.424 152.285 275.369 152.474L274.877 154.17L270.475 169.389C270.405 169.632 270.408 169.887 270.484 170.128C270.56 170.369 270.707 170.589 270.909 170.764C271.111 170.939 271.361 171.064 271.636 171.126C271.91 171.189 272.197 171.186 272.47 171.119L289.559 166.889L291.895 166.311C292.103 166.26 292.321 166.245 292.535 166.27C292.75 166.294 292.957 166.356 293.143 166.452C293.33 166.548 293.493 166.677 293.623 166.83C293.752 166.983 293.846 167.158 293.897 167.344C294.57 169.844 294.744 172.428 294.411 174.98Z" fill="white"/>
<path d="M295 159.296C295.081 159.481 295.117 159.68 295.105 159.879C295.094 160.077 295.036 160.271 294.934 160.449C294.833 160.626 294.691 160.783 294.517 160.908C294.343 161.034 294.14 161.126 293.924 161.178L292.315 161.577L278.399 165.02C278.126 165.087 277.838 165.089 277.564 165.027C277.29 164.964 277.04 164.84 276.838 164.664C276.635 164.489 276.489 164.27 276.413 164.029C276.337 163.787 276.334 163.533 276.404 163.29L280 150.9L280.345 149.711C280.399 149.522 280.497 149.345 280.632 149.191C280.766 149.037 280.936 148.909 281.129 148.816C281.323 148.722 281.535 148.665 281.755 148.648C281.974 148.63 282.195 148.653 282.404 148.715C285.235 149.58 287.824 150.972 289.997 152.797C292.169 154.622 293.875 156.838 295 159.296Z" fill="white"/>
<path d="M269.29 121.587C273.076 121.587 276.145 118.87 276.145 115.518C276.145 112.167 273.076 109.449 269.29 109.449C265.504 109.449 262.435 112.167 262.435 115.518C262.435 118.87 265.504 121.587 269.29 121.587Z" fill="#D7E8F0"/>
<path d="M294.576 128.931H244.675V130.146H294.576V128.931Z" fill="#D7E8F0"/>
<path d="M294.576 133.426H244.675V134.641H294.576V133.426Z" fill="#D7E8F0"/>
<path d="M294.576 137.524H244.675V138.74H294.576V137.524Z" fill="#D7E8F0"/>
<path d="M219.149 154.316H180.059V155.531H219.149V154.316Z" fill="#D7E8F0"/>
<path d="M219.149 159.22H180.059V160.435H219.149V159.22Z" fill="#D7E8F0"/>
<path d="M219.149 164.121H180.059V165.336H219.149V164.121Z" fill="#D7E8F0"/>
<path d="M219.149 169.024H180.059V170.239H219.149V169.024Z" fill="#D7E8F0"/>
<path d="M219.149 173.927H180.059V175.142H219.149V173.927Z" fill="#D7E8F0"/>
<path d="M174.696 119.789C174.696 119.789 186.576 136.352 200.114 141.558C213.651 146.764 217.881 149.064 223.06 147.202C228.239 145.339 238.18 142.73 245.185 124.294C252.19 105.858 255.527 96.1536 255.775 91.6882C256.022 87.2228 242.095 90.8914 242.095 90.8914C242.095 90.8914 234.595 110.463 218.162 119.198L194.759 97.3123L174.696 119.789Z" fill="white"/>
<path d="M160.814 145.243L170.376 147.541C170.376 147.541 159.272 161.096 169.146 175.289C179.02 189.482 199.352 218.117 199.352 218.117L238.27 272.897L201.872 268.405L174.696 242.051L160.821 229.804L143.432 181.747L160.814 145.243Z" fill="white"/>
<path d="M4.67873 215.295C5.53853 215.707 6.53378 215.84 7.49243 215.67C8.45108 215.501 9.31294 215.041 9.92869 214.369L24.0812 199.007L35.4999 186.318L26.1512 181.67C25.1829 181.186 24.0369 181.062 22.9656 181.325C21.8938 181.589 20.9841 182.218 20.4362 183.075L3.01373 210.166C2.7362 210.598 2.55901 211.075 2.49259 211.569C2.42618 212.062 2.47186 212.563 2.62696 213.041C2.78206 213.518 3.04347 213.964 3.39582 214.351C3.74817 214.738 4.18433 215.059 4.67873 215.295Z" fill="#2E2E2E"/>
<path d="M220.101 287.754L231.88 298.013C232.897 298.901 234.266 299.399 235.694 299.401H265.15C266.064 299.404 266.959 299.172 267.726 298.733C268.493 298.293 269.099 297.665 269.47 296.926C269.841 296.187 269.961 295.368 269.815 294.569C269.669 293.771 269.264 293.027 268.649 292.429C267.874 291.662 266.804 291.179 265.649 291.074L249.31 289.59L220.101 287.754Z" fill="#2E2E2E"/>
<path d="M112.536 159.441C112.536 159.441 135.317 165.052 150.505 166.725C165.692 168.399 164.627 162.821 164.627 162.821L166.484 155.776C171.359 148.744 174.19 133.784 174.19 133.784L176.147 122.081L179.005 126.534L188.241 134.77L188.354 134.85C188.072 130.916 188.286 125.388 189.321 117.858C191.706 100.428 199.604 102.45 199.604 102.45L198.445 101.325C192.989 93.287 175.57 84.7912 170.005 82.7593C164.44 80.7275 166.821 83.6059 167.53 85.7473C168.239 87.8887 166.214 93.9145 158.102 90.8468C149.991 87.7792 149.582 81.106 149.582 81.106H145.814C122.695 83.5661 110.939 94.4822 110.939 94.4822C135.497 99.6116 129.861 118.054 129.861 118.054L127.634 119.857C118.915 126.55 118.307 133.004 119.061 135.693C119.815 138.383 125.192 142.001 134.901 144.1C144.61 146.198 146.376 146.201 148.57 142.486C150.764 138.771 153.321 138.313 156.82 137.755C160.319 137.197 164.605 139.399 163.626 141.132C162.647 142.865 161.939 141.351 164.376 146.032C166.814 150.713 165.681 153.094 159.126 157.406C152.571 161.719 123.426 159.299 123.426 159.299C109.487 155.886 112.536 159.441 112.536 159.441Z" fill="#2E2E2E"/>
<path d="M165.82 81.2168V81.9239V82.1032C172.336 83.5448 178.472 86.0955 183.887 89.613C184.765 90.1808 185.62 90.7584 186.464 91.366C186.486 88.9258 186.25 86.4756 185.361 84.1649C184.641 82.1819 183.285 80.4276 181.457 79.1152C179.849 77.9798 177.947 77.2527 176.035 76.5953C174.122 75.938 172.244 75.3603 170.489 74.4738C169.01 73.7577 167.718 72.7733 166.697 71.5855C166.34 71.1558 166.117 70.6502 166.051 70.1197C165.985 69.5891 166.079 69.0526 166.322 68.5643C166.15 68.5536 165.98 68.5237 165.816 68.4746L165.82 81.2168Z" fill="#DB00FF"/>
<path d="M165.82 81.2168V81.9239V82.1032C172.336 83.5448 178.472 86.0955 183.887 89.613C184.765 90.1808 185.62 90.7584 186.464 91.366C186.486 88.9258 186.25 86.4756 185.361 84.1649C184.641 82.1819 183.285 80.4276 181.457 79.1152C179.849 77.9798 177.947 77.2527 176.035 76.5953C174.122 75.938 172.244 75.3603 170.489 74.4738C169.01 73.7577 167.718 72.7733 166.697 71.5855C166.34 71.1558 166.117 70.6502 166.051 70.1197C165.985 69.5891 166.079 69.0526 166.322 68.5643C166.15 68.5536 165.98 68.5237 165.816 68.4746L165.82 81.2168Z" fill="#DB00FF"/>
<path d="M75.7937 136.336C78.2421 137.887 80.9638 139.068 83.8487 139.832C85.0896 140.17 86.3503 140.45 87.625 140.668C82.5887 130.161 86.3575 116.336 102.25 101.595C104.971 99.0671 107.868 96.6919 110.924 94.4838C115.862 90.9281 120.25 88.2787 125.425 86.1473C127.742 85.2008 130.121 84.3794 132.55 83.6872C136.857 82.4179 141.302 81.5531 145.814 81.1075C146.837 80.998 147.85 80.9183 148.874 80.8685C148.624 79.3117 148.673 77.7291 149.02 76.1873C149.965 71.9543 151.611 69.5207 154.604 66.1841C156.479 64.0826 159.407 59.0627 155.504 57.3297C153.04 56.244 152.815 54.0097 153.974 52.6817C154.952 51.5263 156.932 50.9984 159.374 52.3497C161.061 53.3058 163.064 53.3656 164.999 52.8975C166.502 52.1223 167.804 51.0775 168.824 49.8298C171.659 46.2342 171.76 40.7861 167.324 38.1467C164.905 36.7025 161.822 36.3539 158.931 36.6328C157.637 36.7586 156.361 37.0056 155.125 37.3698C155.12 37.3675 155.114 37.3665 155.108 37.3665C155.102 37.3665 155.096 37.3675 155.091 37.3698C149.841 39.8698 146.11 44.4912 144.31 49.7003C143.252 52.778 142.06 55.8257 140.665 58.8137C139.517 61.2639 138.719 64.2419 136.165 65.9152C135.098 66.6141 133.886 67.1217 132.599 67.4092C127.772 70.1183 121.079 68.5546 115.802 67.9769C111.584 67.4663 107.289 67.8484 103.27 69.0924C98.77 71.1077 94.9 74.3248 91.7612 78.508C86.575 85.4302 92.065 95.4101 83.3912 100.868C80.7662 102.512 77.7662 103.508 74.8975 104.782C70.8025 106.625 67.495 109.245 66.2725 113.278C63.8575 121.416 68.155 131.425 75.7937 136.336Z" fill="#DB00FF"/>
<path d="M287.875 299.4H82.6599" stroke="#5B5B5B" stroke-width="4.5" stroke-miterlimit="10"/>
<path d="M173.346 46.552C173.873 47.5195 174.324 48.5178 174.696 49.54C175.236 51.2 174.651 52.2292 175.472 53.8129C175.754 54.3607 176.159 55.2869 176.597 56.2232C176.721 56.0041 176.834 55.8248 176.901 55.6853C180.119 49.3408 175.889 46.2831 173.852 45.2373C173.723 45.6868 173.554 46.1264 173.346 46.552Z" fill="#DB00FF"/>
<path d="M173.346 46.552C173.873 47.5195 174.324 48.5178 174.696 49.54C175.236 51.2 174.651 52.2292 175.472 53.8129C175.754 54.3607 176.159 55.2869 176.597 56.2232C176.721 56.0041 176.834 55.8248 176.901 55.6853C180.119 49.3408 175.889 46.2831 173.852 45.2373C173.723 45.6868 173.554 46.1264 173.346 46.552Z" fill="#DB00FF"/>
<path d="M102.051 153.586C100.086 167.304 101.676 191.102 133.409 209.309C139.12 212.586 144.261 217.214 149.297 221.214C163.033 232.204 176.101 243.831 188.444 256.048C196 263.465 203.714 271.26 211.375 278.77C215.302 282.608 219.272 286.41 223.285 290.177C226.24 292.936 230.927 299.397 235.679 299.397H264.876C267.501 299.397 269.886 297.495 269.849 295.161C269.827 294.152 269.396 293.184 268.634 292.435C267.859 291.668 266.789 291.185 265.634 291.08L249.295 289.596L170.354 178.449C166.281 172.712 162.67 163.27 165.82 157.085C177.82 133.56 176.789 110.758 176.789 110.758" stroke="#5B5B5B" stroke-width="4.5" stroke-miterlimit="10"/>
<path d="M142.922 216.46C139.48 227.167 133.922 238.04 129.332 244.886C127.669 247.385 125.477 249.577 122.875 251.34C113.47 257.718 100.176 257.037 91.1575 250.241L46.3037 216.44L24.085 199.007L9.93245 214.368C9.26345 215.089 8.3132 215.562 7.26977 215.692C6.22637 215.823 5.16545 215.603 4.2965 215.075C3.42755 214.547 2.81372 213.75 2.57623 212.841C2.33874 211.932 2.49485 210.977 3.0137 210.165L20.44 183.081C20.9878 182.224 21.8976 181.595 22.9693 181.331C24.0407 181.068 25.1867 181.192 26.155 181.676L35.5037 186.324L89.0687 212.884C89.9597 213.325 90.9565 213.573 91.9768 213.607C92.9976 213.641 94.0123 213.46 94.9382 213.079C95.8641 212.698 96.6748 212.127 97.303 211.415C97.9315 210.702 98.3597 209.868 98.5525 208.98L104.897 179.525" stroke="#5B5B5B" stroke-width="4.5" stroke-miterlimit="10"/>
<path d="M165.82 66.5017V81.1097V81.8169V81.9962C167.519 84.1874 168.374 87.3082 166.754 89.6322C164.582 92.7497 159.79 92.2317 156.752 90.4887C155.858 89.9768 155.005 89.4111 154.199 88.7955C151.495 86.7159 149.745 83.8318 149.279 80.6881C149.029 79.1314 149.078 77.5487 149.425 76.0069C150.377 71.7772 152.02 69.347 155.016 66.0004C156.891 63.9088 159.816 58.8823 155.909 57.1493C151.33 55.1274 154.502 49.2112 159.779 52.1693C163.874 54.4701 169.757 51.6016 172.187 48.5173C175.022 44.9217 175.124 39.4736 170.687 36.8342C168.269 35.39 165.186 35.0414 162.295 35.3203C153.486 36.1769 147.216 42.2724 144.707 49.5233C143.65 52.6009 142.457 55.6487 141.062 58.6367C139.915 61.0868 139.116 64.0649 136.562 65.7382C131.687 68.9552 124.66 67.272 119.159 66.6744C107.706 65.4294 98.47 69.9213 92.1587 78.3309C86.9725 85.2531 92.4625 95.233 83.7887 100.691C81.1637 102.335 78.1637 103.331 75.295 104.605C71.2 106.448 67.8925 109.067 66.6887 113.101C64.2587 121.229 68.5637 131.238 76.195 136.149C79.6937 138.4 83.7887 139.744 88.0412 140.481" stroke="#5B5B5B" stroke-width="4.5" stroke-miterlimit="10"/>
<path d="M188.429 93.2579C188.451 93.072 188.459 92.8927 188.47 92.7168C188.661 89.5063 188.639 86.1797 187.457 83.0888C186.733 81.1081 185.375 79.3551 183.55 78.0424C181.937 76.9102 180.036 76.1765 178.131 75.5192C176.226 74.8618 174.336 74.2908 172.585 73.401C171.103 72.6879 169.81 71.7018 168.794 70.5093C168.438 70.081 168.215 69.577 168.15 69.0482C168.084 68.5196 168.177 67.9848 168.419 67.498" stroke="#5B5B5B" stroke-width="4.5" stroke-miterlimit="10"/>
<path d="M162.269 63.2082C163.596 64.8881 165.396 66.7008 167.665 67.3549C170.601 68.2015 172.577 65.9937 173.631 63.8456C174.261 62.5674 174.696 61.2062 175.206 59.8849C175.371 59.45 175.472 59.2408 176.035 59.2209C176.597 59.201 177.19 59.3006 177.767 59.3006C177.809 59.2996 177.849 59.2889 177.884 59.27C177.919 59.2511 177.947 59.2242 177.967 59.192C177.986 59.1598 177.996 59.1239 177.994 59.0874C177.993 59.0512 177.98 59.0157 177.959 58.9852C177.182 57.9394 176.024 55.0875 175.439 53.9454C174.625 52.3618 175.214 51.3359 174.666 49.6726C174.293 48.6513 173.845 47.653 173.324 46.6846" stroke="#5B5B5B" stroke-width="4.5" stroke-miterlimit="10"/>
<path d="M174.19 43.6138C174.19 43.6138 182.196 46.3328 178.06 54.5034C177.805 54.998 177.179 56.0306 176.882 56.4954" stroke="#5B5B5B" stroke-width="4.5" stroke-miterlimit="10"/>
<path d="M260.549 20.3179C260.549 20.3179 260.594 20.3378 260.684 20.3677L260.549 20.3179Z" fill="#DB00FF"/>
<path d="M173.747 63.6099C173.107 63.6879 172.456 63.5561 171.916 63.2397C171.377 62.923 170.987 62.4432 170.819 61.8901" stroke="#5B5B5B" stroke-width="4.5" stroke-miterlimit="10"/>
<path d="M175.101 52.6678C173.444 51.4726 171.625 52.9998 170.515 54.1087" stroke="#5B5B5B" stroke-width="4.5" stroke-miterlimit="10"/>
<path d="M149.29 80.6909C143.731 81.0027 138.241 81.9475 132.955 83.503C124.33 86.0062 118.39 89.2366 111.344 94.2996C108.289 96.512 105.392 98.8905 102.67 101.421C86.7625 116.162 83.0012 129.993 88.045 140.497C92.1437 149.056 101.594 154.365 111.276 157.071C117.61 158.837 124.21 159.597 130.832 159.767C138.726 159.966 146.687 159.7 154.457 158.372C157.731 157.815 161.504 157.356 163.457 154.664C165.411 151.971 165.576 148.339 164.125 145.454C162.764 142.768 159.089 139.88 155.766 141.988C155.398 142.223 155.095 142.53 154.88 142.884C154.665 143.239 154.543 143.631 154.525 144.033" stroke="#5B5B5B" stroke-width="4.5" stroke-miterlimit="10"/>
<path d="M143.286 98.4531C143.699 109.462 133.161 115.601 133.161 115.601C129.666 118.108 126.269 120.8 123.411 123.884C121.585 125.853 119.89 128.058 119.05 130.524C118.422 132.207 118.433 134.024 119.08 135.7C119.796 137.25 120.979 138.596 122.5 139.591C125.342 141.56 128.8 142.579 132.227 143.462C136.004 144.419 139.851 145.145 143.74 145.634C145.99 145.919 146.939 145.302 147.966 143.579C148.896 142.018 149.657 140.212 151.379 139.193C153.764 137.775 156.966 137.447 159.726 138.031C163.982 138.927 165.07 141.915 161.601 142.519" stroke="#5B5B5B" stroke-width="4.5" stroke-miterlimit="10"/>
<path d="M140.687 173.144L76.0187 159.309L60.6287 215.696L123.505 229.534L125.522 228.714L140.687 173.144Z" fill="white"/>
<path d="M110.849 165.216C113.916 146.206 120.565 141.504 124.892 140.565L124.607 140.425C111.542 135.924 102.482 158.197 100.559 163.407L110.849 165.216Z" fill="#D7E8F0"/>
<path d="M110.669 166.723C113.736 147.712 120.565 141.491 124.892 140.564L124.607 140.425C111.542 135.923 102.107 159.269 100.176 164.475L110.669 166.723Z" fill="#D7E8F0"/>
<path d="M124.607 140.425C109.832 135.338 100.176 164.475 100.176 164.475L110.676 166.722C116.777 137.506 129.869 142.818 129.869 142.818C129.407 142.696 124.607 140.425 124.607 140.425Z" stroke="#5B5B5B" stroke-width="4.5" stroke-miterlimit="10"/>
<path d="M75.2984 161.997L60.631 215.714L111.65 226.633L126.317 172.916L75.2984 161.997Z" fill="#DB00FF"/>
<path d="M76.0768 159.153L60.6321 215.716L114.352 227.214L129.797 170.65L76.0768 159.153Z" fill="white"/>
<path d="M76.33 163.455L63.028 212.17C62.6511 213.551 63.61 214.942 65.17 215.276L110.54 224.986C112.1 225.32 113.67 224.471 114.047 223.089L127.349 174.374C127.726 172.993 126.767 171.602 125.207 171.269L79.8377 161.559C78.2777 161.225 76.7072 162.073 76.33 163.455Z" fill="#DB00FF"/>
<path d="M76.0292 159.329L60.6328 215.715L114.353 227.212L129.749 170.826L76.0292 159.329Z" stroke="#5B5B5B" stroke-width="4.5" stroke-miterlimit="10"/>
<path d="M129.975 170.871L114.578 227.257L125.302 229.552L140.698 173.166L129.975 170.871Z" fill="white"/>
<path d="M129.975 170.871L114.578 227.257L125.302 229.552L140.698 173.166L129.975 170.871Z" stroke="#5B5B5B" stroke-width="4.5" stroke-miterlimit="10"/>
<path d="M125.297 229.535L121.844 221.669L114.572 227.24" stroke="#5B5B5B" stroke-width="4.5" stroke-miterlimit="10"/>
<path d="M135.329 171.999L121.844 221.67" stroke="#5B5B5B" stroke-width="4.5" stroke-miterlimit="10"/>
<path d="M253.626 80.5293C253.424 80.5592 253.251 80.5891 253.03 80.6289C251.001 80.9423 249.078 81.6574 247.405 82.7205C245.571 83.9755 243.906 86.1567 243.096 88.0325C241.871 90.8811 240.525 93.6831 239.057 96.4387C236.842 100.687 234.206 104.753 231.182 108.59C228.044 112.494 224.275 116.452 219.527 118.882C218.932 119.201 218.304 119.471 217.652 119.689C216.854 119.987 205.615 108.54 204.377 107.265C199.416 102.156 194.286 97.0961 188.47 92.7237C186.996 91.6081 185.47 90.5325 183.902 89.5265C178.484 86.006 172.343 83.4519 165.824 82.0067" stroke="#5B5B5B" stroke-width="4.5" stroke-miterlimit="10"/>
<path d="M273.846 80.1104C273.868 80.1153 273.892 80.1153 273.914 80.1104C279.111 80.6482 277.075 85.6083 273.419 85.4489C269.38 85.2696 265.352 85.4489 261.325 85.5087C260.215 85.4765 259.109 85.6564 258.085 86.0366C256.06 86.8931 255.869 88.8054 255.565 90.5385C255.16 92.8094 254.699 95.0802 254.155 97.3312C253.097 101.793 251.792 106.196 250.296 110.558C249.329 113.387 248.26 116.202 247.135 118.988C243.85 127.195 239.71 135.9 232.746 142.228C228.899 145.733 223.859 148.323 218.177 147.945C210.179 147.417 202.484 143.861 195.7 139.817C195.671 139.8 195.645 139.78 195.621 139.757C193.089 138.249 190.662 136.605 188.354 134.837C188.354 134.837 179.005 127.467 176.147 122.069" stroke="#5B5B5B" stroke-width="4.5" stroke-miterlimit="10"/>
<path d="M288.625 75.6493V76.1141C288.625 79.3212 285.707 79.8723 283.187 79.9254L234.411 80.9214C232.274 80.9712 230.477 79.3146 230.432 77.2462V77.1599C230.432 75.1314 232.112 73.4448 234.224 73.3983C234.224 73.3983 261.509 72.7177 282.64 72.2031C283.041 73.3352 284.024 74.2117 285.242 74.8957C286.261 75.4378 287.438 75.7001 288.625 75.6493Z" stroke="#5B5B5B" stroke-width="4.5" stroke-miterlimit="10"/>
<path d="M314.537 29.9553C314.537 30.4839 314.396 31.0048 314.125 31.4759L292.326 71.0669C292.07 71.5244 291.705 71.9274 291.257 72.2482C290.808 72.5692 290.287 72.8003 289.727 72.9261C288.827 73.128 287.874 73.0406 287.039 72.6804C286.371 72.3896 285.809 71.9391 285.416 71.38C285.022 70.8206 284.815 70.1752 284.815 69.5165C284.818 68.9896 284.954 68.4703 285.212 67.9959L307.022 28.4016C307.419 27.6944 308.073 27.1267 308.88 26.7901C309.686 26.4537 310.598 26.3684 311.466 26.5477C312.334 26.7273 313.108 27.1612 313.663 27.7791C314.218 28.3969 314.521 29.1625 314.522 29.952L314.537 29.9553Z" stroke="#5B5B5B" stroke-width="4.5" stroke-miterlimit="10"/>
<path d="M255.22 21.8123C261.835 21.8123 267.197 17.0646 267.197 11.2081C267.197 5.3516 261.835 0.604004 255.22 0.604004C248.605 0.604004 243.242 5.3516 243.242 11.2081C243.242 17.0646 248.605 21.8123 255.22 21.8123Z" fill="#DB00FF"/>
<path d="M251.414 14.8566C251.017 14.725 250.645 14.5402 250.311 14.3088C249.724 13.9164 249.319 13.3464 249.175 12.7073C249.032 12.0682 249.158 11.4046 249.531 10.8427C249.774 10.4779 250.11 10.168 250.511 9.93756C250.913 9.70709 251.369 9.56233 251.845 9.51473C251.581 8.96649 251.527 8.35721 251.689 7.779C251.851 7.20079 252.222 6.68512 252.745 6.31C253.268 5.93487 253.914 5.72073 254.587 5.69991C255.259 5.67913 255.921 5.8528 256.472 6.19473C257.631 6.90853 258.434 8.16681 258.925 9.31553C259.178 9.91874 259.364 10.5426 259.48 11.178C259.536 11.51 259.919 13.336 259.619 13.522C257.639 14.7371 253.952 15.7132 251.414 14.8566Z" fill="white"/>
<g opacity="0.72">
<path opacity="0.72" d="M245.114 43.9324C248.755 43.9324 251.706 41.3196 251.706 38.0958C251.706 34.8725 248.755 32.2593 245.114 32.2593C241.473 32.2593 238.521 34.8725 238.521 38.0958C238.521 41.3196 241.473 43.9324 245.114 43.9324Z" fill="#DB00FF"/>
<path opacity="0.72" d="M246.419 40.5726C246.26 40.7253 246.075 40.8551 245.871 40.9577C245.522 41.1383 245.11 41.2001 244.713 41.131C244.316 41.0619 243.961 40.8671 243.715 40.5825C243.554 40.3963 243.444 40.1795 243.394 39.9487C243.343 39.7183 243.355 39.4806 243.426 39.2545C243.057 39.2565 242.697 39.1526 242.401 38.9584C242.104 38.7638 241.887 38.4896 241.781 38.1765C241.675 37.8631 241.687 37.5281 241.815 37.2217C241.942 36.9149 242.179 36.6533 242.489 36.4757C243.192 36.1311 243.993 35.9744 244.795 36.0242C245.196 36.0341 245.594 36.0809 245.984 36.1636C246.183 36.2035 247.315 36.4159 247.36 36.5886C247.649 37.7406 247.443 39.6098 246.419 40.5726Z" fill="white"/>
</g>
<path d="M282.227 25.3582L275.757 28.4116C273.411 29.5188 272.523 32.1011 273.773 34.1784L277.222 39.9061C278.473 41.9838 281.389 42.7703 283.736 41.6627L290.205 38.6096C292.552 37.5021 293.441 34.9201 292.19 32.8425L288.741 27.1148C287.49 25.0375 284.574 24.251 282.227 25.3582Z" fill="#DB00FF"/>
<path d="M284.819 40.0351L289.502 37.824C290.479 37.3598 291.209 36.5727 291.531 35.6341C291.855 34.6952 291.746 33.6816 291.227 32.8141L288.227 27.8341C287.704 26.9689 286.815 26.3225 285.754 26.0363C284.694 25.7501 283.548 25.8474 282.569 26.3069L282.254 26.4563C281.084 27.8938 279.527 30.354 281.879 31.1275C285.254 32.2464 284.267 33.923 283.004 36.071C281.931 37.8738 281.657 39.982 284.819 40.0351Z" fill="white"/>
<path d="M277.525 34.0062C278.503 34.0062 279.295 33.3043 279.295 32.4391C279.295 31.5736 278.503 30.8721 277.525 30.8721C276.547 30.8721 275.755 31.5736 275.755 32.4391C275.755 33.3043 276.547 34.0062 277.525 34.0062Z" fill="white"/>
<path d="M255.723 60.1608C256.378 60.443 257.077 60.6399 257.796 60.7451C259.117 60.9244 260.468 60.7973 261.717 60.3759C262.966 59.9546 264.07 59.2538 264.921 58.3415C265.578 57.6177 266.069 56.7113 266.759 55.9809C267.231 55.4481 267.862 55.0434 268.581 54.8123C268.828 54.7658 269.058 54.6665 269.253 54.5235C269.725 54.0919 268.923 53.7266 268.761 53.378C268.519 52.8156 268.519 52.1941 268.761 51.6317C269.377 50.1533 269.394 48.5315 268.81 47.0428C268.226 45.5541 267.077 44.2909 265.559 43.4685C264.041 42.6458 262.247 42.3151 260.484 42.5323C258.721 42.7497 257.098 43.5017 255.891 44.6597C254.699 45.7985 253.983 47.2526 253.24 48.6437C252.58 49.8821 251.879 51.1138 251.515 52.4451C250.671 55.5991 252.576 58.8029 255.723 60.1608Z" fill="#DB00FF"/>
<path d="M262.42 48.9558C263.342 48.9558 264.089 48.2944 264.089 47.4784C264.089 46.6623 263.342 46.001 262.42 46.001C261.498 46.001 260.751 46.6623 260.751 47.4784C260.751 48.2944 261.498 48.9558 262.42 48.9558Z" fill="white"/>
<path d="M260.234 53.0334C261.155 53.0334 261.902 52.3721 261.902 51.556C261.902 50.7403 261.155 50.0786 260.234 50.0786C259.312 50.0786 258.565 50.7403 258.565 51.556C258.565 52.3721 259.312 53.0334 260.234 53.0334Z" fill="white"/>
<path d="M258.182 56.8576C259.104 56.8576 259.851 56.196 259.851 55.3802C259.851 54.5642 259.104 53.9028 258.182 53.9028C257.261 53.9028 256.514 54.5642 256.514 55.3802C256.514 56.196 257.261 56.8576 258.182 56.8576Z" fill="white"/>
<g opacity="0.54">
<path opacity="0.54" d="M218.125 66.1797C218.632 66.1203 219.133 66.0283 219.625 65.9042L225.272 64.4965C227.001 64.0649 228.82 63.5868 230.046 62.4215C232.319 60.2602 231.584 56.8273 230.702 53.9787C229.985 51.6481 229.266 49.3174 228.546 46.9868C228.051 45.3799 227.541 43.7465 226.555 42.3388C225.569 40.9311 224.009 39.7226 222.149 39.4637C220.78 39.2744 219.392 39.5998 218.054 39.9218L212.635 41.2498C210.857 41.6781 208.982 42.1595 207.737 43.3647C205.525 45.5061 206.237 48.8659 207.085 51.6647L209.249 58.8193C210.576 63.1187 213.062 66.7441 218.125 66.1797Z" fill="#DB00FF"/>
<path opacity="0.54" d="M217.75 56.4225C218.084 56.7117 218.499 56.9175 218.952 57.0198C219.405 57.122 219.88 57.1167 220.331 57.0049C220.781 56.8926 221.189 56.6778 221.516 56.3814C221.842 56.0852 222.075 55.718 222.19 55.317L222.82 53.1324L223.446 50.9445C223.561 50.5435 223.555 50.1225 223.428 49.7244C223.301 49.326 223.058 48.9645 222.723 48.676C222.388 48.3871 221.974 48.1816 221.521 48.0797C221.068 47.9781 220.592 47.9834 220.142 48.096L217.694 48.7068L215.241 49.3177C214.792 49.4309 214.385 49.6471 214.06 49.9439C213.734 50.2407 213.503 50.6082 213.389 51.0093C213.275 51.41 213.283 51.8306 213.41 52.2284C213.538 52.6261 213.781 52.987 214.116 53.2752L215.942 54.8488L217.75 56.4225Z" fill="white"/>
</g>
</svg>
