<svg width="320" height="387" viewBox="0 0 320 387" fill="none" xmlns="http://www.w3.org/2000/svg">
<g clip-path="url(#clip0_232_1169)">
<mask id="mask0_232_1169" style="mask-type:luminance" maskUnits="userSpaceOnUse" x="0" y="0" width="320" height="387">
<path d="M320 0H0V387H320V0Z" fill="white"/>
</mask>
<g mask="url(#mask0_232_1169)">
<path d="M48.4353 157.246V201.182H50.6881H302.522H304.79V157.246" stroke="#CCDDE2" stroke-width="5.77" stroke-miterlimit="10"/>
<path d="M291.418 250.535C288.378 256.371 284.525 261.468 279.578 265.032C276.67 267.124 273.471 268.554 270.138 269.254C262.605 270.853 254.672 268.836 247.699 264.61C245.411 263.228 243.226 261.609 241.168 259.773C239.589 258.355 238.079 256.826 236.646 255.195C236.006 254.456 235.382 253.697 234.781 252.908C233.056 250.669 231.528 248.22 230.221 245.601C228.399 242.01 227.113 238.059 226.422 233.929L291.418 250.535ZM302.522 367.649V201.181H50.6816V366.902L133.12 367.386L138.813 367.417L175.293 367.641L302.522 367.649ZM50.688 423.223H51.2608L50.688 422.383V423.223Z" stroke="#CCDDE2" stroke-width="5.77" stroke-miterlimit="10"/>
<path d="M50.6881 201.178C50.6881 201.178 47.1009 268.965 98.0961 270.741" stroke="#CCDDE2" stroke-width="5.77" stroke-miterlimit="10"/>
<path d="M226.422 233.93C227.113 238.06 228.399 242.011 230.221 245.602C231.528 248.221 233.056 250.67 234.781 252.909C235.382 253.683 236.006 254.456 236.646 255.195C238.079 256.827 239.589 258.355 241.168 259.774C243.226 261.61 245.411 263.229 247.699 264.611C254.672 268.837 262.605 270.854 270.138 269.255C273.471 268.555 276.67 267.124 279.578 265.033C284.525 261.469 288.378 256.372 291.418 250.536C295.043 243.57 297.498 235.54 299.27 227.865C301.136 219.692 302.522 211.306 302.522 202.796" stroke="#CCDDE2" stroke-width="5.77" stroke-miterlimit="10"/>
<path d="M36.0417 157.246H316.899C317.434 157.248 317.957 157.058 318.402 156.7C318.847 156.342 319.194 155.832 319.4 155.236C319.606 154.639 319.66 153.982 319.557 153.348C319.454 152.713 319.197 152.131 318.819 151.673L291.36 118.464H58.0993L34.0097 151.835C33.6686 152.308 33.4468 152.888 33.3713 153.508C33.2958 154.128 33.3697 154.762 33.5841 155.333C33.7985 155.903 34.1441 156.387 34.5799 156.727C35.0158 157.066 35.5233 157.246 36.0417 157.246Z" stroke="#CCDDE2" stroke-width="5.77" stroke-miterlimit="10"/>
<path d="M259.52 319.692C260.768 318.059 262.218 316.546 263.219 314.743C266.026 309.657 264.947 303.167 266.739 297.595C268.931 290.787 275.83 286.039 282.605 286.662C281.958 289.907 281.519 293.208 281.293 296.534C281.094 299.514 281.574 302.831 281.046 305.718C280.182 310.362 275.581 313.179 275.021 317.947C274.525 322.161 277.581 326.101 277.069 330.389C276.534 334.99 272.163 337.533 270.557 341.612C269.245 344.921 269.859 348.706 269.181 352.227C268.355 356.484 265.501 360.23 261.757 361.995C261.635 362.057 261.507 362.119 261.386 362.169C260.25 360.741 258.954 358.23 257.891 355.513" stroke="#CCDDE2" stroke-width="5.77" stroke-miterlimit="10"/>
<path d="M278.461 292.007C268.355 308.683 263.603 343.865 261.754 361.992C261.6 363.524 261.465 364.923 261.347 366.187" stroke="#CCDDE2" stroke-width="5.77" stroke-miterlimit="10"/>
<path d="M236.288 367.65C236.58 367.196 236.954 366.829 237.382 366.578C237.81 366.327 238.28 366.199 238.755 366.202H280.659C281.136 366.2 281.608 366.328 282.038 366.579C282.468 366.83 282.844 367.196 283.139 367.65" stroke="#CCDDE2" stroke-width="5.77" stroke-miterlimit="10"/>
<path d="M255.149 361.411C256.947 358.671 259.152 352.572 260.125 347.587C260.931 343.481 259.514 339.251 259.19 335.037C258.685 328.438 260.819 321.341 258.57 315.365C257.312 312.03 254.867 309.657 253.402 306.464C250.701 300.582 251.738 293.059 250.013 286.604C247.901 278.717 241.277 273.213 234.768 273.941C235.393 277.715 235.814 281.533 236.029 285.373C236.221 288.821 235.757 292.664 236.269 296.012C237.094 301.399 241.514 304.661 242.054 310.184C242.531 315.06 239.606 319.63 240.086 324.595C240.605 329.928 244.797 332.869 246.346 337.591C247.603 341.426 247.011 345.818 247.667 349.89C248.483 354.971 251.382 359.441 255.149 361.411Z" stroke="#CCDDE2" stroke-width="5.77" stroke-miterlimit="10"/>
<path d="M238.742 280.119C248.442 299.438 253.008 340.169 254.79 361.199C254.944 363.022 255.082 364.682 255.187 366.187" stroke="#CCDDE2" stroke-width="5.77" stroke-miterlimit="10"/>
<path d="M253.402 306.461C253.402 306.461 254.071 289.673 259.667 284.568C265.264 279.464 265.143 308.086 265.143 308.086" stroke="#CCDDE2" stroke-width="5.77" stroke-miterlimit="10"/>
<path d="M259.52 319.693C259.52 319.693 258.378 310.087 260.384 300.645" stroke="#CCDDE2" stroke-width="5.77" stroke-miterlimit="10"/>
<path d="M247.699 308.308H247.526" stroke="#CCDDE2" stroke-width="5.77" stroke-miterlimit="10"/>
<path d="M291.418 250.536V279.495V308.307H280.138" stroke="#CCDDE2" stroke-width="5.77" stroke-miterlimit="10"/>
<path d="M226.422 233.93V245.602V279.495V308.307H241.715" stroke="#CCDDE2" stroke-width="5.77" stroke-miterlimit="10"/>
<path d="M270.138 291.814V279.495V269.255" stroke="#CCDDE2" stroke-width="5.77" stroke-miterlimit="10"/>
<path d="M247.699 264.611V279.495V281.268" stroke="#CCDDE2" stroke-width="5.77" stroke-miterlimit="10"/>
<path d="M235.542 279.495H226.422V245.602H230.221" stroke="#CCDDE2" stroke-width="5.77" stroke-miterlimit="10"/>
<path d="M291.418 250.536V279.495H270.138H247.699H246.435" stroke="#CCDDE2" stroke-width="5.77" stroke-miterlimit="10"/>
<path d="M61.8466 249.909V279.495V308.307H83.1138H105.565H126.842V279.495V245.601V216.805H105.565" stroke="#CCDDE2" stroke-width="5.77" stroke-miterlimit="10"/>
<path d="M105.565 216.805V245.601V279.495V308.307H83.1136V279.495V267.9V245.601" stroke="#CCDDE2" stroke-width="5.77" stroke-miterlimit="10"/>
<path d="M83.1138 245.602H105.565H126.842V279.495H105.565H83.1138H61.8466V249.909" stroke="#CCDDE2" stroke-width="5.77" stroke-miterlimit="10"/>
<path d="M217.463 252.776V367.646H175.28L138.8 367.417L133.107 367.386V252.776H217.463Z" stroke="#CCDDE2" stroke-width="5.77" stroke-miterlimit="10"/>
<path d="M211.757 262.406V367.647H175.28L138.8 367.418V262.406H211.757Z" stroke="#CCDDE2" stroke-width="5.77" stroke-miterlimit="10"/>
<path d="M33.3377 367.65C33.3377 367.65 4.88322 333.261 20.88 305.315C36.8769 277.37 74.2113 253.388 58.6561 207.869C43.1009 162.35 70.9217 138.851 98.0961 141.107C125.27 143.364 198.499 163.701 217.459 130.806C236.419 97.9105 315.741 136.839 302.522 252.796C289.302 368.752 217.459 367.65 217.459 367.65H33.3377Z" stroke="#CCDDE2" stroke-width="5.77" stroke-miterlimit="10"/>
<path d="M229.12 170.354V170.319C228.867 169.545 222.64 151.309 203.574 140.202C203.389 140.09 203.216 139.974 203.03 139.877C193.711 134.153 183.346 131.369 172.899 131.785H172.778C170.245 131.898 167.722 132.217 165.226 132.741H165.2C163.946 132.981 162.72 133.287 161.494 133.643C161.268 133.707 161.03 133.69 160.812 133.592C160.593 133.495 160.403 133.321 160.266 133.093L155.293 124.691L154.922 124.065C154.888 124.005 154.861 123.94 154.842 123.871C154.573 122.888 155.002 119.823 155.002 119.034C155.002 115.968 154.547 110.585 152.813 106.456C152.922 106.232 153.693 104.44 153.107 101.266C153.082 101.119 153.053 100.957 153.014 100.798C152.867 100.085 152.67 99.389 152.426 98.716C152.374 98.538 152.307 98.3638 152.24 98.1703C151.907 97.3186 151.529 96.4935 151.107 95.7013C151.002 95.4768 150.88 95.2678 150.762 95.0395C150.643 94.8112 150.509 94.5906 150.362 94.3623C150.106 93.9133 149.802 93.4296 149.482 92.9458C149.242 92.5898 148.986 92.2338 148.733 91.9125C148.577 91.6935 148.408 91.4892 148.227 91.3011C148.005 91.0259 147.768 90.7674 147.52 90.5271C147.331 90.3131 147.131 90.113 146.922 89.9272C146.851 89.8537 146.775 89.7891 146.694 89.7337C146.493 89.5224 146.279 89.3282 146.054 89.1532C145.827 88.9597 145.6 88.7662 145.373 88.623L145.254 88.5263C145.04 88.3638 144.813 88.2206 144.586 88.0735C144.424 87.9512 144.255 87.844 144.08 87.7523C143.907 87.6246 143.722 87.5278 143.533 87.4156L143.174 87.2221C142.947 87.0905 142.72 86.9783 142.48 86.8661C142.408 86.8177 142.332 86.7802 142.253 86.7538C141.97 86.6064 141.68 86.4771 141.386 86.3668C139.098 85.4407 136.717 84.8974 134.307 84.753C132.285 84.6064 130.256 84.7739 128.269 85.2523C128.067 85.3026 127.882 85.349 127.709 85.4148C127.536 85.4806 127.28 85.5271 127.069 85.6083C117.894 88.7043 113.469 101.619 114.976 112.358C111.498 110.922 107.75 110.036 104.125 110.891C93.5648 113.437 88.032 130.852 84.8448 141.851C72.4448 184.758 89.072 215.958 90.6432 218.763C87.6349 218.669 84.642 219.316 81.8464 220.664C72.6176 225.277 69.1136 236.465 69.6576 249.302C69.6576 249.302 69.2448 290.142 88.0448 356.35H72.32C71.1658 356.345 70.0573 356.895 69.2384 357.879C68.4196 358.862 67.9575 360.2 67.9536 361.595C67.9498 362.991 68.4048 364.332 69.2183 365.322C70.0317 366.313 71.137 366.871 72.2912 366.876L77.68 366.926L77.7184 366.876H117.216L115.616 356.299L104.883 284.689L141.44 308.149C142.965 309.027 144.309 310.302 145.379 311.882C146.448 313.462 147.215 315.309 147.626 317.29V317.34C147.771 317.996 147.869 318.665 147.92 319.341L151.76 366.892H197.84C201.718 338.463 204.88 312.39 205.613 298.006C205.916 292.889 207.886 288.127 211.091 284.766C223.824 271.256 237.597 249.843 239.837 231.043C242.074 212.161 237.581 188.442 229.12 170.354ZM136.96 151.634C136.96 151.634 111.11 183.415 108.07 171.112C105.03 158.809 110.4 150.744 110.4 150.744C110.4 150.744 126.426 140.589 135.638 141.394C137.318 141.541 138.426 141.975 139.117 142.586L140.077 145.199C139.997 146.538 139.344 147.989 138.653 149.165C138.141 150.039 137.575 150.865 136.96 151.634Z" fill="white"/>
<path d="M139.965 204.8C141.402 182.672 122.365 171.108 122.365 171.108L139.674 148.039C138.208 151.611 144.154 157.501 150.029 158.039C155.904 158.577 163.251 150.38 164.806 143.797C166.362 137.215 165.402 133.472 165.402 133.472L173.024 132.547C217.35 134.061 229.318 171.108 229.318 171.108C203.616 160.396 198.918 187.335 198.918 187.335C203.478 195.899 205.61 209.173 205.61 209.173C209.875 231.689 192.109 262.192 192.109 262.192C182.88 250.668 136.022 243.423 134.992 245.28C134.992 245.28 143.078 231.403 139.965 204.8Z" fill="#2E2E2E"/>
<path d="M153.008 107.199C151.754 103.445 148.592 100.686 146.288 99.0916C145.414 98.4724 144.505 97.9283 143.568 97.4623C143.222 104.703 135.664 108.798 131.798 110.407C130.451 110.973 129.558 111.247 129.558 111.247C129.558 111.247 129.158 110.717 128.464 109.862C127.504 108.701 126.01 106.909 124.278 105.055C124.397 105.396 126.266 110.829 126.384 116.665C126.409 117.397 126.4 118.129 126.358 118.86L119.792 118.713C120.432 115.392 118.08 113.07 118.08 113.07C116.573 102.331 120.998 89.4011 130.17 86.3206C130.384 86.2393 130.598 86.1929 130.81 86.1271C132.021 85.7668 133.257 85.5451 134.502 85.4653H134.518C139.664 85.7904 145.862 87.9189 149.69 93.6736C152.25 97.5436 153.21 100.64 153.45 102.88C153.754 105.702 153.008 107.199 153.008 107.199Z" fill="#DB00FF"/>
<path d="M88.2241 357.074H115.821L117.421 367.651L72.4865 367.597C72.4865 367.597 64.3425 362.217 72.5217 357.074H88.2241Z" fill="#DB00FF"/>
<path d="M115.155 113.069C113.648 102.33 118.077 89.4004 127.248 86.3199C127.462 86.2386 127.674 86.1922 127.888 86.1264C128.102 86.0606 128.25 86.0142 128.448 85.9639" stroke="#343434" stroke-width="5.77" stroke-miterlimit="10"/>
<path d="M127.888 86.1267C132.726 84.5787 143.888 84.9657 149.674 93.6732C155.459 102.381 153.005 107.199 153.005 107.199C150.925 100.945 143.558 97.4503 143.558 97.4503C143.091 107.203 129.542 111.239 129.542 111.239C129.542 111.239 127.235 108.24 124.262 105.047C124.381 105.388 126.25 110.821 126.368 116.657C126.391 117.389 126.383 118.121 126.342 118.851" stroke="#343434" stroke-width="5.77" stroke-miterlimit="10"/>
<path d="M189.296 171.108C198.966 184.421 206.605 201.426 206.288 219.584C205.968 239.035 195.389 254.476 187.962 270.769" stroke="#343434" stroke-width="5.77" stroke-miterlimit="10"/>
<path d="M187.962 259.434C187.962 259.434 182.269 277.479 205.942 295.111" stroke="#343434" stroke-width="5.77" stroke-miterlimit="10"/>
<path d="M151.274 104.153C154.474 108.185 155.194 115.875 155.194 119.776C155.194 120.631 154.701 124.13 155.114 124.807L160.454 133.828C160.59 134.057 160.78 134.233 160.999 134.331C161.218 134.429 161.456 134.445 161.683 134.378C182.95 128.259 207.104 137.191 222.202 158.67C235.082 176.955 242.838 208.206 240.013 231.813C237.773 250.613 224.013 272.026 211.27 285.54C209.683 287.2 208.382 289.222 207.441 291.492C206.501 293.761 205.939 296.232 205.789 298.764C205.043 313.148 201.898 339.22 198.016 367.649" stroke="#343434" stroke-width="5.77" stroke-miterlimit="10"/>
<path d="M166.035 133.562C166.035 133.562 164.685 154.615 153.686 157.034C142.688 159.452 138.608 149.236 138.608 149.236C138.221 149.623 137.846 150.01 137.475 150.431C131.117 157.338 125.338 164.986 120.221 173.264C117.433 177.778 114.856 182.477 112.502 187.34" stroke="#343434" stroke-width="5.77" stroke-miterlimit="10"/>
<path d="M117.408 367.651L105.075 285.452L141.619 308.912C143.405 309.942 144.941 311.514 146.076 313.475C147.212 315.435 147.909 317.718 148.099 320.1L151.939 367.651" stroke="#343434" stroke-width="5.77" stroke-miterlimit="10"/>
<path d="M77.8592 367.65L72.4736 367.596C71.3402 367.554 70.265 366.978 69.4775 365.991C68.6896 365.005 68.2512 363.685 68.256 362.314C68.2605 360.943 68.7075 359.628 69.5018 358.648C70.2963 357.67 71.3751 357.105 72.5088 357.073H88.224C69.44 290.869 69.84 250.025 69.84 250.025C69.2928 237.177 72.8 225.985 82.0256 221.387C89.6704 217.564 98.8128 220.068 106.122 223.849C112.202 226.995 117.885 231.128 123.357 235.598C126.042 237.792 128.682 240.068 131.312 242.355C132.013 242.962 134.115 245.505 134.992 245.292C134.992 245.292 142.672 229.65 140.342 208.461" stroke="#343434" stroke-width="5.77" stroke-miterlimit="10"/>
<path d="M143.661 200.257C140.963 208.319 127.68 230.196 120.566 233.361" stroke="#343434" stroke-width="5.77" stroke-miterlimit="10"/>
<path d="M118.355 204.801L112.502 187.336C109.475 179.29 106.995 170.261 107.664 161.298C107.942 157.622 108.717 153.88 110.41 150.753C111.782 148.187 113.984 146.755 116.09 145.238C117.155 144.464 118.768 143.303 118.928 141.674C119.21 138.756 115.677 137.722 113.93 137.773C111.408 137.819 109.475 139.321 106.957 138.45C105.815 138.093 104.783 137.342 103.988 136.289C103.192 135.235 102.667 133.925 102.477 132.517C102.24 130.714 102.442 128.875 102.678 127.076C103.05 124.282 103.638 120.245 106.118 119.069C106.206 119.011 106.3 118.968 106.397 118.941C106.414 118.934 106.434 118.934 106.451 118.941C106.497 118.913 106.548 118.901 106.598 118.906C107.584 118.677 108.596 118.666 109.584 118.875" stroke="#343434" stroke-width="5.77" stroke-miterlimit="10"/>
<path d="M90.9441 219.681C90.9441 219.681 72.0257 187.56 85.0241 142.56C88.2113 131.581 93.76 114.166 104.32 111.604C108.438 110.621 112.733 111.91 116.586 113.701C117.757 114.247 119.917 115.571 119.786 117.409C119.725 117.982 119.48 118.503 119.104 118.86" stroke="#343434" stroke-width="5.77" stroke-miterlimit="10"/>
<path d="M25.472 367.65H217.459" stroke="#343434" stroke-width="5.77" stroke-miterlimit="10"/>
<path d="M131.648 118.851H106.73C105.926 118.851 105.274 119.639 105.274 120.612V135.585C105.274 136.557 105.926 137.346 106.73 137.346H131.648C132.452 137.346 133.104 136.557 133.104 135.585V120.612C133.104 119.639 132.452 118.851 131.648 118.851Z" fill="#D7E8F0"/>
<path d="M131.648 118.851H106.73C105.926 118.851 105.274 119.639 105.274 120.612V135.585C105.274 136.557 105.926 137.346 106.73 137.346H131.648C132.452 137.346 133.104 136.557 133.104 135.585V120.612C133.104 119.639 132.452 118.851 131.648 118.851Z" stroke="#343434" stroke-width="5.77" stroke-miterlimit="10"/>
<path d="M154.986 122.416C154.986 122.416 154.96 122.966 154.842 123.852C154.454 126.882 153.066 133.863 148.349 136.557C143.84 139.123 139.216 137.896 137.094 137.091L139.12 142.586L140.08 145.199L140.122 145.295C140.289 145.754 140.335 146.263 140.254 146.754C140.173 147.246 139.967 147.694 139.667 148.039L138.656 149.165L138.602 149.231" stroke="#343434" stroke-width="5.77" stroke-miterlimit="10"/>
<path d="M145.578 117.714C148.842 117.714 151.488 114.514 151.488 110.566C151.488 106.618 148.842 103.418 145.578 103.418C142.313 103.418 139.667 106.618 139.667 110.566C139.667 114.514 142.313 117.714 145.578 117.714Z" stroke="#343434" stroke-width="5.77" stroke-miterlimit="10"/>
<path d="M125.421 118.86C125.639 118.069 125.963 117.328 126.381 116.665C126.939 115.785 127.658 115.073 128.483 114.587C129.308 114.101 130.214 113.853 131.132 113.865C132.049 113.875 132.952 114.145 133.768 114.651C134.585 115.157 135.293 115.886 135.836 116.78C136.379 117.673 136.743 118.708 136.898 119.802C137.054 120.895 136.996 122.018 136.731 123.079C136.465 124.141 135.999 125.114 135.369 125.921C134.739 126.727 133.963 127.345 133.101 127.726" stroke="#343434" stroke-width="5.77" stroke-miterlimit="10"/>
<path d="M136.045 117.207C136.045 117.207 136.832 113.554 140.343 113.879" stroke="#343434" stroke-width="5.77" stroke-miterlimit="10"/>
<path d="M144.688 115.969C145.679 115.969 146.483 114.997 146.483 113.798C146.483 112.599 145.679 111.627 144.688 111.627C143.697 111.627 142.893 112.599 142.893 113.798C142.893 114.997 143.697 115.969 144.688 115.969Z" fill="#343434"/>
<path d="M138.24 130.128C138.24 130.128 141.44 131.734 143.555 129.923" stroke="#343434" stroke-width="5.77" stroke-miterlimit="10"/>
<path d="M128.438 126.463C129.252 126.463 129.91 125.666 129.91 124.683C129.91 123.7 129.252 122.903 128.438 122.903C127.626 122.903 126.966 123.7 126.966 124.683C126.966 125.666 127.626 126.463 128.438 126.463Z" fill="#343434"/>
<path d="M148.099 320.1C147.693 317.558 144.8 296.366 145.578 285.452" stroke="#343434" stroke-width="5.77" stroke-miterlimit="10"/>
<path d="M263.011 224.615C272.38 224.615 279.974 215.43 279.974 204.1C279.974 192.77 272.38 183.585 263.011 183.585C253.643 183.585 246.048 192.77 246.048 204.1C246.048 215.43 253.643 224.615 263.011 224.615Z" fill="#DB00FF"/>
<path d="M256.573 198.472C256.715 197.766 256.946 197.09 257.258 196.468C257.787 195.383 258.624 194.569 259.614 194.178C260.604 193.787 261.677 193.845 262.634 194.343C263.258 194.67 263.811 195.167 264.249 195.797C264.687 196.426 264.998 197.17 265.158 197.969C265.985 197.403 266.941 197.175 267.882 197.322C268.824 197.468 269.702 197.981 270.382 198.781C271.063 199.583 271.51 200.629 271.657 201.764C271.804 202.898 271.643 204.06 271.197 205.074C270.259 207.207 268.397 208.863 266.653 209.962C265.739 210.536 264.78 210.995 263.789 211.332C263.286 211.506 260.438 212.578 260.093 212.106C257.814 209.026 255.642 202.981 256.573 198.472Z" fill="white"/>
<path d="M80.7937 331.028C98.4174 331.028 112.704 313.75 112.704 292.436C112.704 271.123 98.4174 253.845 80.7937 253.845C63.17 253.845 48.8833 271.123 48.8833 292.436C48.8833 313.75 63.17 331.028 80.7937 331.028Z" fill="#DB00FF"/>
<path d="M68.6785 281.844C68.9428 280.517 69.3745 279.247 69.9585 278.079C72.0929 273.868 76.3105 272.111 80.0737 274.081C81.2477 274.696 82.2877 275.633 83.1117 276.817C83.9357 278.001 84.5213 279.4 84.8225 280.904C86.3761 279.835 88.1748 279.405 89.9479 279.679C91.721 279.953 93.3725 280.917 94.6538 282.424C95.9351 283.931 96.777 285.901 97.0525 288.037C97.3284 290.173 97.0231 292.359 96.1825 294.267C94.4193 298.284 90.9185 301.399 87.6321 303.466C85.9137 304.543 84.1092 305.407 82.2465 306.043C81.2865 306.368 75.9425 308.385 75.2929 307.502C71.0145 301.701 66.9249 290.331 68.6785 281.844Z" fill="white"/>
<path d="M182.282 120.21C187.886 120.21 192.429 114.715 192.429 107.938C192.429 101.16 187.886 95.666 182.282 95.666C176.678 95.666 172.135 101.16 172.135 107.938C172.135 114.715 176.678 120.21 182.282 120.21Z" fill="#DB00FF"/>
<path d="M178.429 104.571C178.513 104.148 178.651 103.743 178.838 103.371C179.155 102.727 179.653 102.244 180.242 102.011C180.83 101.777 181.468 101.809 182.038 102.102C182.412 102.297 182.743 102.594 183.005 102.97C183.267 103.346 183.453 103.791 183.549 104.269C184.044 103.928 184.617 103.79 185.182 103.877C185.747 103.964 186.273 104.272 186.681 104.752C187.089 105.233 187.356 105.861 187.443 106.542C187.53 107.223 187.431 107.919 187.162 108.526C186.602 109.803 185.488 110.794 184.442 111.452C183.895 111.795 183.322 112.07 182.73 112.272C182.429 112.377 180.723 113.015 180.518 112.737C179.171 110.883 177.872 107.269 178.429 104.571Z" fill="white"/>
</g>
</g>
<defs>
<clipPath id="clip0_232_1169">
<rect width="320" height="387" fill="white"/>
</clipPath>
</defs>
</svg>
