<svg width="40" height="50" viewBox="0 0 40 50" fill="none" xmlns="http://www.w3.org/2000/svg">
<path opacity="0.12" d="M0.613428 12.5486C0.6373 11.0912 0.976148 9.65618 1.60673 8.34203C2.23731 7.02788 3.1447 5.86569 4.26665 4.93517C6.56909 3.16075 9.97672 2.7678 12.4265 4.32119C13.1633 4.79396 13.8019 5.40794 14.5448 5.89299C16.8902 7.36656 19.9479 7.05956 22.588 6.2184C25.2281 5.37724 27.7271 4.05717 30.4654 3.60282C33.2038 3.14847 36.3843 3.82386 37.8885 6.15701C39.3928 8.49015 38.5639 11.9285 36.4088 13.7336C34.5669 15.2686 31.9022 15.9808 30.8829 18.142C30.5127 19.1087 30.3435 20.1408 30.3856 21.1751C30.3119 24.0977 30.3058 27.2658 32.0372 29.6236C32.9078 30.6551 33.8831 31.5933 34.9475 32.4233C37.2009 34.4433 39.0674 37.0589 39.1472 40.2087C39.169 41.2131 38.9589 42.209 38.5332 43.119C36.943 46.5327 33.3205 46.9257 30.1155 46.6924C27.6595 46.5082 25.136 46.0415 22.7476 46.6924C21.0162 47.1529 19.4874 48.1659 17.8357 48.8413C15.3608 49.8405 12.6453 50.0841 10.032 49.5413C8.42338 49.2657 6.92989 48.5275 5.73407 47.4169C3.38865 44.9855 3.42548 41.1174 4.00877 37.7773C4.59206 34.4372 5.56216 30.9498 4.49996 27.7325C4.23188 26.9567 3.88198 26.2116 3.45618 25.5098C1.20906 21.7435 0.201788 17.3665 0.576589 12.9968L0.613428 12.5486Z" fill="#AAAAAA"/>
<path d="M15.3491 45.317L22.6617 22.4952L15.1219 20.076L7.80321 42.8611C7.45323 43.954 8.47245 44.8443 9.36273 44.2241L12.1564 42.3146L13.2922 45.5135C13.6484 46.545 14.993 46.4038 15.3491 45.317Z" fill="#EBF0F9"/>
<path d="M24.4361 45.317L17.0682 22.4952L24.6141 20.076L31.9574 42.8611C32.3074 43.954 31.2882 44.8443 30.3979 44.2241L27.6104 42.2839L26.4745 45.4828C26.1123 46.545 24.7615 46.4038 24.4361 45.317Z" fill="#EBF0F9"/>
<path d="M29.1637 33.6513C27.1416 35.474 24.6328 36.6686 21.9432 37.0896L19.2662 28.7394L22.0476 20.0577L19.2662 19.1674L24.0246 17.6385L29.1637 33.6513Z" fill="white"/>
<path d="M17.6822 19.4252L20.4943 28.1254L17.8664 36.2914C15.1774 35.6926 12.7253 34.3128 10.8179 32.3251L15.7298 17.0061L20.4943 18.5349L17.6822 19.4252Z" fill="white"/>
<path d="M14.2193 46.2134C13.8812 46.2135 13.5519 46.1058 13.2792 45.9059C13.0065 45.7061 12.8046 45.4245 12.7028 45.1021L11.837 42.6462L9.70037 44.1443C9.42611 44.3482 9.09348 44.4582 8.75176 44.4582C8.41004 44.4582 8.07742 44.3482 7.80315 44.1443C7.49868 43.9086 7.27571 43.5835 7.16558 43.2146C7.05545 42.8456 7.0637 42.4515 7.18917 42.0875L14.7228 18.6946L23.4352 21.4882L15.9323 44.8872C15.8249 45.2571 15.6042 45.5839 15.3013 45.8218C14.9984 46.0597 14.6286 46.1966 14.2439 46.2134H14.2193ZM12.4572 40.7367L13.8632 44.703C13.88 44.7854 13.9245 44.8596 13.9893 44.9132C14.0541 44.9668 14.1352 44.9966 14.2193 44.9978C14.3465 44.9844 14.4663 44.9317 14.5621 44.8469C14.6579 44.7621 14.7248 44.6496 14.7535 44.525L21.8941 22.2803L15.5148 20.2357L8.38644 42.462C8.33766 42.5799 8.32683 42.71 8.35544 42.8344C8.38405 42.9587 8.45068 43.0711 8.54608 43.1558C8.61238 43.2086 8.69463 43.2373 8.77939 43.2373C8.86415 43.2373 8.9464 43.2086 9.01271 43.1558L12.4572 40.7367Z" fill="#606060"/>
<path d="M25.5412 46.2134C25.1512 46.203 24.7745 46.0689 24.4655 45.8306C24.1565 45.5922 23.9312 45.2619 23.8221 44.8872L16.3253 21.4882L25.0501 18.6946L32.5407 42.0875C32.6662 42.4515 32.6744 42.8456 32.5643 43.2146C32.4541 43.5835 32.2312 43.9086 31.9267 44.1443C31.6524 44.3482 31.3198 44.4582 30.9781 44.4582C30.6364 44.4582 30.3038 44.3482 30.0295 44.1443L27.9051 42.6646L27.0394 45.1205C26.9354 45.4365 26.7349 45.7119 26.4661 45.908C26.1974 46.104 25.8739 46.2109 25.5412 46.2134ZM25.0009 44.5127C25.0297 44.6373 25.0966 44.7499 25.1923 44.8346C25.2881 44.9194 25.4079 44.9721 25.5351 44.9855C25.6202 44.9858 25.7029 44.9566 25.7689 44.9028C25.8349 44.8491 25.8803 44.7742 25.8974 44.6908L27.3034 40.7305L30.7479 43.1312C30.8137 43.1851 30.8961 43.2145 30.9812 43.2145C31.0662 43.2145 31.1487 43.1851 31.2145 43.1312C31.3099 43.0465 31.3765 42.9342 31.4051 42.8098C31.4337 42.6855 31.4229 42.5553 31.3741 42.4374L24.2396 20.2357L17.8664 22.2803L25.0009 44.5127Z" fill="#606060"/>
<path d="M4.91746 30.8884L4.74554 32.1409L4.91746 30.8884Z" fill="#C2D0E1"/>
<path d="M4.86216 32.4233C4.9109 32.4027 4.95347 32.3698 4.98575 32.3278C5.01802 32.2858 5.0389 32.2363 5.04635 32.1838L5.21827 30.9559C5.22391 30.9156 5.22156 30.8745 5.21135 30.8351C5.20113 30.7957 5.18326 30.7587 5.15874 30.7262C5.13423 30.6937 5.10355 30.6664 5.06846 30.6457C5.03338 30.6251 4.99457 30.6115 4.95425 30.6059C4.91394 30.6003 4.87291 30.6026 4.8335 30.6128C4.79409 30.623 4.75709 30.6409 4.72459 30.6654C4.69209 30.6899 4.66474 30.7206 4.6441 30.7557C4.62346 30.7908 4.60993 30.8296 4.60428 30.8699L4.43237 32.0979C4.42481 32.1517 4.43166 32.2065 4.45222 32.2568C4.47277 32.307 4.5063 32.351 4.54937 32.384C4.59244 32.4171 4.64352 32.4382 4.69739 32.4451C4.75126 32.452 4.806 32.4445 4.85602 32.4233H4.86216Z" fill="#C2D0E1"/>
<path d="M4.2052 31.4286L5.45773 31.6006L4.2052 31.4286Z" fill="#C2D0E1"/>
<path d="M5.58056 31.883C5.66198 31.8724 5.73586 31.8299 5.78595 31.7649C5.83603 31.6998 5.85823 31.6175 5.84764 31.5361C5.83706 31.4547 5.79456 31.3808 5.72951 31.3307C5.66445 31.2806 5.58216 31.2584 5.50074 31.269L4.27277 31.0971C4.23245 31.0915 4.19142 31.0938 4.15201 31.104C4.11261 31.1142 4.0756 31.1321 4.0431 31.1566C3.97747 31.2061 3.93419 31.2797 3.92279 31.3611C3.9114 31.4425 3.93281 31.5252 3.98232 31.5908C4.03183 31.6564 4.10539 31.6997 4.18681 31.7111L5.41478 31.883C5.46895 31.8985 5.52639 31.8985 5.58056 31.883Z" fill="#C2D0E1"/>
<path d="M2.40006 24.816C2.33414 24.6635 2.31484 24.495 2.3446 24.3315C2.37436 24.1681 2.45184 24.0171 2.56727 23.8977C2.6827 23.7782 2.83092 23.6956 2.99323 23.6603C3.15554 23.625 3.32468 23.6385 3.47933 23.6991C3.63397 23.7598 3.76719 23.8649 3.86219 24.0012C3.95718 24.1374 4.00971 24.2988 4.01314 24.4649C4.01656 24.6309 3.97074 24.7943 3.88145 24.9344C3.79215 25.0745 3.66338 25.185 3.51138 25.2519C3.3061 25.3406 3.07409 25.3446 2.86591 25.2629C2.65774 25.1813 2.49029 25.0206 2.40006 24.816ZM2.82371 24.6318C2.85417 24.7005 2.90429 24.7587 2.96775 24.799C3.03121 24.8392 3.10518 24.8598 3.18032 24.8581C3.25547 24.8564 3.32843 24.8325 3.39 24.7894C3.45158 24.7463 3.49903 24.686 3.52635 24.6159C3.55368 24.5459 3.55966 24.4694 3.54355 24.396C3.52744 24.3226 3.48996 24.2555 3.43583 24.2034C3.38169 24.1513 3.31334 24.1163 3.23937 24.1029C3.1654 24.0896 3.08914 24.0984 3.02019 24.1283C2.92709 24.1689 2.85367 24.2444 2.81577 24.3386C2.77786 24.4328 2.77851 24.5381 2.81757 24.6318H2.82371Z" fill="#C2D0E1"/>
<path d="M4.45839 36.2987C4.69168 36.1975 4.79873 35.9263 4.69749 35.693C4.59624 35.4597 4.32503 35.3526 4.09174 35.4539C3.85844 35.5551 3.75139 35.8263 3.85264 36.0596C3.95388 36.2929 4.22509 36.4 4.45839 36.2987Z" fill="#C2D0E1"/>
<path d="M37.0597 23.9135L36.1694 24.816L37.0597 23.9135Z" fill="#C2D0E1"/>
<path d="M36.1019 25.1108C36.1533 25.1224 36.2069 25.1206 36.2574 25.1056C36.308 25.0905 36.3538 25.0627 36.3905 25.0248L37.2808 24.1222C37.3127 24.0945 37.3385 24.0604 37.3567 24.0222C37.3748 23.984 37.3849 23.9425 37.3862 23.9002C37.3875 23.8579 37.3801 23.8158 37.3644 23.7765C37.3487 23.7372 37.325 23.7016 37.2949 23.6719C37.2648 23.6422 37.2288 23.6191 37.1893 23.6039C37.1498 23.5888 37.1076 23.5819 37.0654 23.5839C37.0231 23.5858 36.9817 23.5964 36.9438 23.6151C36.9058 23.6338 36.8721 23.6601 36.8448 23.6924L35.9545 24.595C35.9159 24.6337 35.8883 24.6821 35.8746 24.735C35.861 24.7879 35.8617 24.8436 35.8767 24.8962C35.8917 24.9488 35.9205 24.9964 35.9601 25.0341C35.9997 25.0718 36.0486 25.0983 36.1019 25.1108Z" fill="#C2D0E1"/>
<path d="M36.1633 23.9196L37.0659 24.8038L36.1633 23.9196Z" fill="#C2D0E1"/>
<path d="M36.9922 25.1046C37.0567 25.1183 37.124 25.1108 37.184 25.0833C37.244 25.0557 37.2935 25.0096 37.3252 24.9517C37.3569 24.8938 37.3691 24.8273 37.36 24.7619C37.3509 24.6965 37.3209 24.6358 37.2746 24.5888L36.3721 23.6985C36.3443 23.6666 36.3103 23.6408 36.272 23.6226C36.2338 23.6045 36.1923 23.5944 36.15 23.5931C36.1077 23.5918 36.0656 23.5992 36.0263 23.6149C35.9871 23.6306 35.9515 23.6543 35.9218 23.6844C35.8921 23.7145 35.8689 23.7505 35.8538 23.79C35.8386 23.8295 35.8318 23.8717 35.8337 23.9139C35.8356 23.9562 35.8463 23.9976 35.8649 24.0355C35.8836 24.0735 35.91 24.1072 35.9423 24.1345L36.851 25.0554C36.8932 25.0834 36.9417 25.1003 36.9922 25.1046Z" fill="#C2D0E1"/>
<path d="M36.5806 18.3017C36.6197 18.1396 36.7059 17.9928 36.8285 17.8799C36.9511 17.767 37.1045 17.6931 37.2692 17.6675C37.4339 17.6419 37.6024 17.6657 37.7535 17.7361C37.9046 17.8065 38.0314 17.9201 38.1178 18.0627C38.2041 18.2052 38.2462 18.3702 38.2387 18.5367C38.2312 18.7032 38.1743 18.8637 38.0754 18.9978C37.9765 19.132 37.84 19.2337 37.6832 19.2901C37.5264 19.3465 37.3563 19.3551 37.1946 19.3147C36.9802 19.2596 36.7959 19.1227 36.6812 18.9333C36.5664 18.744 36.5303 18.5173 36.5806 18.3017ZM37.0288 18.406C37.0128 18.4793 37.0187 18.5556 37.0458 18.6255C37.073 18.6954 37.1202 18.7557 37.1815 18.7989C37.2428 18.8421 37.3155 18.8662 37.3904 18.8682C37.4654 18.8702 37.5393 18.85 37.6028 18.8102C37.6663 18.7704 37.7167 18.7127 37.7476 18.6444C37.7784 18.5761 37.7884 18.5001 37.7763 18.4261C37.7642 18.3521 37.7305 18.2834 37.6794 18.2285C37.6284 18.1735 37.5623 18.1349 37.4893 18.1175C37.4393 18.1067 37.3877 18.1059 37.3374 18.1153C37.2871 18.1246 37.2391 18.1438 37.1963 18.1718C37.1535 18.1997 37.1166 18.2359 37.0879 18.2783C37.0591 18.3206 37.0391 18.3682 37.0288 18.4183V18.406Z" fill="#C2D0E1"/>
<path d="M35.8428 30.5969C35.9007 30.3492 35.7469 30.1015 35.4993 30.0436C35.2516 29.9857 35.0039 30.1395 34.946 30.3872C34.8881 30.6348 35.0419 30.8825 35.2896 30.9404C35.5372 30.9983 35.7849 30.8445 35.8428 30.5969Z" fill="#C2D0E1"/>
<path d="M36.2 34.9713C36.1845 34.9077 36.1515 34.8497 36.1047 34.8039C36.0579 34.7581 35.9991 34.7263 35.9352 34.7123C35.8712 34.6982 35.8046 34.7024 35.7428 34.7243C35.6811 34.7462 35.6268 34.785 35.586 34.8363L35.322 35.1187L35.058 35.4011C35.0168 35.4462 34.988 35.5012 34.9746 35.5608C34.9612 35.6203 34.9636 35.6824 34.9816 35.7407C34.9996 35.7991 35.0326 35.8517 35.0772 35.8934C35.1219 35.9351 35.1766 35.9643 35.2361 35.9783L35.6106 36.0642L35.9851 36.1502C36.0447 36.1635 36.1067 36.1609 36.165 36.1428C36.2233 36.1247 36.2759 36.0917 36.3175 36.047C36.359 36.0023 36.3882 35.9475 36.4021 35.8881C36.416 35.8286 36.414 35.7666 36.3965 35.7081L36.286 35.3397L36.2 34.9713Z" fill="#C2D0E1"/>
<path d="M16.1902 2.92125L17.2708 2.26428L16.1902 2.92125Z" fill="#C2D0E1"/>
<path d="M17.5778 2.26432C17.5781 2.3173 17.5647 2.36946 17.5389 2.41572C17.5131 2.46199 17.4757 2.50078 17.4305 2.52833L16.3498 3.1853C16.2811 3.21978 16.2018 3.22717 16.1279 3.20601C16.0539 3.18486 15.9905 3.13669 15.9504 3.07106C15.9102 3.00543 15.8962 2.92711 15.911 2.85161C15.9259 2.77612 15.9685 2.70895 16.0306 2.66341L17.1112 2.00644C17.1579 1.97803 17.2113 1.96258 17.2659 1.96171C17.3206 1.96084 17.3744 1.97456 17.422 2.00147C17.4696 2.02838 17.5091 2.0675 17.5365 2.11479C17.5639 2.16207 17.5781 2.21581 17.5778 2.27046V2.26432Z" fill="#C2D0E1"/>
<path d="M16.399 2.05554L17.056 3.13616L16.399 2.05554Z" fill="#C2D0E1"/>
<path d="M17.363 3.13618C17.3636 3.2037 17.342 3.26956 17.3014 3.32355C17.2609 3.37754 17.2037 3.41666 17.1386 3.43484C17.0736 3.45302 17.0044 3.44925 16.9417 3.42412C16.879 3.39898 16.8264 3.35389 16.792 3.29581L16.135 2.2152C16.1098 2.18094 16.0921 2.14184 16.0828 2.10037C16.0736 2.05889 16.073 2.01595 16.0812 1.97425C16.0894 1.93256 16.1062 1.89302 16.1305 1.85814C16.1547 1.82326 16.186 1.7938 16.2222 1.77162C16.2585 1.74944 16.2989 1.73503 16.341 1.7293C16.3831 1.72358 16.426 1.72665 16.4668 1.73833C16.5077 1.75002 16.5457 1.77006 16.5784 1.79719C16.6111 1.82431 16.6378 1.85793 16.6569 1.89592L17.32 2.95198C17.3537 3.00716 17.3688 3.07175 17.363 3.13618Z" fill="#C2D0E1"/>
<path d="M7.39178 2.64499C7.393 2.81283 7.34434 2.97725 7.25198 3.11739C7.15962 3.25753 7.02772 3.36709 6.87301 3.43216C6.7183 3.49723 6.54774 3.51489 6.38298 3.4829C6.21822 3.4509 6.06667 3.37069 5.94756 3.25244C5.82844 3.13419 5.74713 2.98323 5.71394 2.81871C5.68075 2.65418 5.69716 2.4835 5.76111 2.32832C5.82506 2.17314 5.93365 2.04044 6.07312 1.94707C6.21258 1.85369 6.37664 1.80384 6.54448 1.80383C6.76814 1.80383 6.98273 1.89225 7.14146 2.04983C7.30018 2.2074 7.39016 2.42134 7.39178 2.64499ZM6.16381 2.64499C6.16259 2.72175 6.18424 2.79713 6.226 2.86154C6.26775 2.92596 6.32773 2.97649 6.39829 3.00671C6.46886 3.03693 6.54682 3.04547 6.62225 3.03125C6.69769 3.01702 6.76718 2.98067 6.82189 2.92683C6.87661 2.87299 6.91406 2.80408 6.92949 2.72888C6.94492 2.65369 6.93763 2.5756 6.90854 2.50456C6.87945 2.43352 6.82989 2.37274 6.76615 2.32996C6.70241 2.28718 6.62739 2.26433 6.55062 2.26432C6.44909 2.26431 6.35162 2.30422 6.27925 2.37544C6.20689 2.44666 6.16542 2.54347 6.16381 2.64499Z" fill="#C2D0E1"/>
<path d="M26.6526 3.25899C26.9069 3.25899 27.1131 3.05282 27.1131 2.7985C27.1131 2.54418 26.9069 2.33801 26.6526 2.33801C26.3983 2.33801 26.1921 2.54418 26.1921 2.7985C26.1921 3.05282 26.3983 3.25899 26.6526 3.25899Z" fill="#C2D0E1"/>
<path d="M33.9037 1.53367C33.8487 1.50352 33.8027 1.45911 33.7707 1.4051C33.7387 1.35109 33.7218 1.28946 33.7218 1.22667C33.7218 1.16389 33.7387 1.10226 33.7707 1.04825C33.8027 0.994232 33.8487 0.949826 33.9037 0.91968L34.2599 0.735484L34.5914 0.545148C34.6444 0.515278 34.7042 0.499719 34.765 0.500004C34.8258 0.500289 34.8855 0.516407 34.9381 0.546772C34.9908 0.577137 35.0347 0.6207 35.0654 0.67317C35.0961 0.72564 35.1126 0.785206 35.1133 0.846001V1.61348C35.1126 1.67428 35.0961 1.73385 35.0654 1.78632C35.0347 1.83879 34.9908 1.88235 34.9381 1.91271C34.8855 1.94308 34.8258 1.9592 34.765 1.95948C34.7042 1.95977 34.6444 1.94421 34.5914 1.91434L34.2599 1.724L33.9037 1.53367Z" fill="#C2D0E1"/>
<path d="M20.3592 33.5715C28.1584 33.5715 34.4809 27.249 34.4809 19.4498C34.4809 11.6506 28.1584 5.32812 20.3592 5.32812C12.56 5.32812 6.23755 11.6506 6.23755 19.4498C6.23755 27.249 12.56 33.5715 20.3592 33.5715Z" fill="#EBF0F9"/>
<path d="M31.8346 10.4364C29.1256 8.2057 25.683 7.06357 22.1778 7.23261C18.6725 7.40165 15.3558 8.86975 12.874 11.3508C10.3922 13.8319 8.92304 17.1481 8.75291 20.6533C8.58279 24.1585 9.72386 27.6014 11.9538 30.3112C10.4334 29.0593 9.19175 27.5032 8.3085 25.7429C7.42526 23.9827 6.91998 22.0571 6.82511 20.0899C6.73024 18.1228 7.04789 16.1575 7.75765 14.3204C8.46741 12.4833 9.55358 10.815 10.9464 9.42263C12.3392 8.03024 14.0079 6.94458 15.8452 6.23539C17.6825 5.5262 19.6479 5.20916 21.615 5.30463C23.5821 5.4001 25.5075 5.90598 27.2675 6.78977C29.0275 7.67356 30.5832 8.91571 31.8346 10.4364Z" fill="white"/>
<path d="M34.4808 19.4559C34.477 22.3764 33.5678 25.2238 31.8785 27.6061C30.1891 29.9884 27.8027 31.7883 25.0479 32.7579C22.2931 33.7276 19.3055 33.8193 16.4964 33.0205C13.6873 32.2216 11.195 30.5715 9.36267 28.2973C12.077 30.4382 15.4822 31.509 18.9333 31.307C22.3843 31.105 25.6414 29.6441 28.0874 27.2012C30.5333 24.7582 31.9982 21.503 32.2045 18.0522C32.4108 14.6014 31.3442 11.1948 29.2067 8.47784C30.8526 9.79524 32.1812 11.4659 33.0941 13.3662C34.0071 15.2665 34.481 17.3477 34.4808 19.4559Z" fill="#C2D0E1"/>
<path d="M20.3592 34.1854C16.8215 34.1787 13.4043 32.8994 10.7319 30.5813C10.4617 30.348 10.2018 30.1065 9.95212 29.8568C7.88398 27.7959 6.4747 25.167 5.90312 22.3038C5.33153 19.4406 5.62341 16.4721 6.7417 13.775C7.85999 11.078 9.75429 8.77392 12.1842 7.15524C14.6142 5.53656 17.4702 4.67622 20.3899 4.68339C22.6601 4.69209 24.897 5.23029 26.9227 6.2552C27.0633 6.33061 27.1691 6.4578 27.2175 6.60982C27.266 6.76185 27.2533 6.92677 27.1823 7.06964C27.1113 7.21252 26.9874 7.32213 26.8369 7.37525C26.6865 7.42837 26.5212 7.42084 26.3762 7.35423C24.5083 6.42012 22.4476 5.93648 20.3592 5.94207C17.6855 5.94117 15.0716 6.73378 12.8487 8.2195C10.6258 9.70522 8.89384 11.8172 7.87212 14.288C6.85041 16.7588 6.58493 19.4772 7.10932 22.099C7.63371 24.7208 8.92437 27.128 10.8178 29.0157C11.0471 29.2449 11.2865 29.4659 11.5362 29.6788C14.2131 31.9672 17.6779 33.1198 21.1922 32.8907C24.7065 32.6616 27.9924 31.0691 30.3495 28.4525C32.7067 25.8359 33.9487 22.4022 33.811 18.8832C33.6732 15.3641 32.1665 12.038 29.612 9.6137C29.5531 9.55847 29.5057 9.49219 29.4724 9.41864C29.4392 9.34508 29.4208 9.2657 29.4182 9.18503C29.413 9.0221 29.4728 8.86379 29.5843 8.74491C29.6959 8.62604 29.8501 8.55635 30.013 8.55117C30.0937 8.5486 30.1741 8.56195 30.2496 8.59045C30.3251 8.61895 30.3943 8.66205 30.4531 8.71728C32.6035 10.7404 34.0965 13.3627 34.7387 16.2445C35.3809 19.1262 35.1427 22.1344 34.0549 24.8792C32.967 27.6239 31.0798 29.9785 28.6378 31.6379C26.1958 33.2972 23.3116 34.1848 20.3592 34.1854Z" fill="#606060"/>
<path d="M23.0239 24.2204L21.0038 23.3424C20.8976 23.2961 20.7818 23.2763 20.6662 23.2849C20.5506 23.2934 20.4389 23.33 20.3407 23.3916L18.4988 24.5581C18.3857 24.6307 18.2545 24.6698 18.1201 24.671C17.9858 24.6721 17.8539 24.6353 17.7396 24.5646C17.6253 24.494 17.5334 24.3925 17.4743 24.2719C17.4153 24.1512 17.3915 24.0163 17.4059 23.8827L17.6146 21.6908C17.6257 21.5757 17.6085 21.4597 17.5646 21.3527C17.5208 21.2457 17.4515 21.1511 17.3629 21.0768L15.6499 19.6524C15.5517 19.566 15.4792 19.4544 15.4403 19.3296C15.4015 19.2048 15.3976 19.0717 15.4293 18.9449C15.461 18.8181 15.527 18.7024 15.6201 18.6106C15.7131 18.5188 15.8296 18.4544 15.9569 18.4244L18.1058 17.9455C18.2194 17.9209 18.3252 17.8688 18.414 17.7939C18.5028 17.719 18.572 17.6235 18.6154 17.5157L19.4443 15.4711C19.4877 15.3379 19.5694 15.2205 19.6792 15.1335C19.789 15.0465 19.922 14.9938 20.0615 14.982C20.2011 14.9702 20.3411 14.9999 20.4639 15.0672C20.5867 15.1345 20.687 15.2366 20.7521 15.3606L21.8696 17.2578C21.9282 17.3577 22.0102 17.4418 22.1087 17.5027C22.2071 17.5637 22.3189 17.5998 22.4344 17.6078L24.6325 17.7613C24.7657 17.77 24.8938 17.8159 25.0021 17.8939C25.1105 17.9718 25.1948 18.0787 25.2453 18.2022C25.2959 18.3258 25.3107 18.461 25.2881 18.5926C25.2655 18.7241 25.2064 18.8467 25.1175 18.9463L23.6563 20.5979C23.5793 20.6843 23.5245 20.7882 23.4967 20.9005C23.4689 21.0128 23.4689 21.1303 23.4966 21.2426L24.0308 23.3793C24.0716 23.5132 24.0721 23.6561 24.0321 23.7903C23.9922 23.9245 23.9136 24.0439 23.8062 24.1336C23.6987 24.2234 23.5672 24.2795 23.4281 24.2949C23.2889 24.3104 23.1483 24.2845 23.0239 24.2204Z" fill="#ED4245"/>
<path d="M23.6317 20.6041C23.5602 20.6874 23.509 20.7863 23.4824 20.8929C23.4557 20.9995 23.4543 21.1108 23.4782 21.2181L24.0063 23.3547C24.0402 23.4848 24.0367 23.6219 23.996 23.75C23.9553 23.8782 23.8792 23.9922 23.7764 24.0789C23.6737 24.1656 23.5485 24.2214 23.4153 24.24C23.2821 24.2585 23.1464 24.239 23.0239 24.1836L21.0039 23.3363C20.8976 23.2905 20.7818 23.271 20.6663 23.2795C20.5508 23.2881 20.4392 23.3244 20.3408 23.3854L18.4988 24.552C18.3858 24.6246 18.2545 24.6637 18.1202 24.6648C17.9859 24.666 17.8539 24.6291 17.7397 24.5585C17.6254 24.4879 17.5334 24.3864 17.4744 24.2657C17.4153 24.1451 17.3916 24.0102 17.4059 23.8766L17.5164 22.7223L18.8611 21.8873C18.959 21.8253 19.0704 21.7879 19.1858 21.7783C19.3013 21.7686 19.4174 21.7871 19.5242 21.832L21.5442 22.71C21.6667 22.7654 21.8024 22.7849 21.9356 22.7664C22.0687 22.7479 22.194 22.692 22.2967 22.6053C22.3995 22.5186 22.4756 22.4046 22.5163 22.2765C22.5569 22.1483 22.5605 22.0113 22.5266 21.8812L21.9801 19.7445C21.9562 19.6373 21.9576 19.5259 21.9842 19.4193C22.0109 19.3127 22.062 19.2138 22.1336 19.1305L23.3616 17.7061L24.5896 17.792C24.7228 17.8007 24.8509 17.8466 24.9592 17.9246C25.0676 18.0025 25.1518 18.1094 25.2024 18.2329C25.253 18.3565 25.2678 18.4917 25.2452 18.6233C25.2226 18.7549 25.1635 18.8774 25.0746 18.977L23.6317 20.6041Z" fill="#C13038"/>
<path d="M18.0937 25.2826C17.9084 25.2826 17.7252 25.2439 17.5557 25.169C17.3862 25.0941 17.2342 24.9847 17.1094 24.8478C16.9846 24.7108 16.8897 24.5494 16.8309 24.3737C16.772 24.198 16.7504 24.012 16.7675 23.8275L16.9762 21.6356C16.9772 21.6193 16.9744 21.6031 16.968 21.5882C16.9616 21.5733 16.9518 21.5601 16.9394 21.5496L15.2571 20.1436C15.0612 19.9838 14.9148 19.7715 14.835 19.5317C14.7553 19.2918 14.7454 19.0342 14.8065 18.7889C14.8677 18.5436 14.9974 18.3208 15.1804 18.1464C15.3635 17.9721 15.5924 17.8534 15.8403 17.8043L17.9893 17.3254C18.0058 17.3223 18.0212 17.315 18.0341 17.3043C18.047 17.2935 18.057 17.2796 18.063 17.264L18.8734 15.2317C18.9655 15.0011 19.1205 14.801 19.3207 14.6542C19.5209 14.5073 19.7583 14.4197 20.0059 14.4011C20.2535 14.3826 20.5013 14.4339 20.7212 14.5492C20.9411 14.6646 21.1241 14.8393 21.2496 15.0536L22.367 16.9508C22.3756 16.9647 22.3872 16.9763 22.4011 16.9849C22.415 16.9934 22.4306 16.9986 22.4468 17L24.6449 17.1535C24.8913 17.1723 25.1276 17.2593 25.3275 17.4047C25.5273 17.5502 25.6827 17.7483 25.7763 17.9771C25.87 18.2058 25.8982 18.456 25.8578 18.6998C25.8173 18.9436 25.7099 19.1714 25.5475 19.3577L24.0862 21.0093C24.0786 21.0235 24.0747 21.0393 24.0747 21.0553C24.0747 21.0714 24.0786 21.0872 24.0862 21.1014L24.6019 23.2135C24.6637 23.4567 24.6555 23.7125 24.5783 23.9513C24.501 24.19 24.358 24.4022 24.1655 24.5632C23.973 24.7242 23.739 24.8276 23.4903 24.8615C23.2417 24.8954 22.9885 24.8583 22.76 24.7546L20.7522 23.9012C20.7379 23.8941 20.7221 23.8905 20.7062 23.8905C20.6902 23.8905 20.6745 23.8941 20.6601 23.9012L18.8182 25.0677C18.6026 25.2081 18.3509 25.2828 18.0937 25.2826ZM20.1382 15.6246C20.1193 15.6248 20.101 15.6308 20.0856 15.6418C20.0702 15.6528 20.0586 15.6682 20.0523 15.686L19.2234 17.7306C19.1426 17.9305 19.0142 18.1076 18.8494 18.2467C18.6847 18.3858 18.4885 18.4826 18.2779 18.5288L16.1289 19.0077C16.1106 19.0111 16.0938 19.02 16.0807 19.0331C16.0675 19.0463 16.0586 19.0631 16.0552 19.0814C16.0486 19.0998 16.048 19.1198 16.0535 19.1386C16.059 19.1573 16.0704 19.1739 16.0859 19.1857L17.7744 20.6041C17.9398 20.743 18.0688 20.9202 18.1501 21.1203C18.2314 21.3204 18.2626 21.5373 18.241 21.7522L18.0323 23.9441C18.0288 23.9636 18.0317 23.9837 18.0406 24.0014C18.0494 24.0191 18.0637 24.0334 18.0814 24.0424C18.0967 24.0529 18.1149 24.0586 18.1336 24.0586C18.1522 24.0586 18.1704 24.0529 18.1858 24.0424L20.0277 22.8758C20.2097 22.7623 20.4165 22.6946 20.6304 22.6786C20.8442 22.6625 21.0588 22.6986 21.2557 22.7837L23.2757 23.6617C23.2914 23.6715 23.3094 23.6767 23.3279 23.6767C23.3464 23.6767 23.3644 23.6715 23.3801 23.6617C23.3956 23.6498 23.407 23.6333 23.4125 23.6145C23.418 23.5958 23.4174 23.5757 23.4108 23.5573L22.8766 21.3715C22.8198 21.1585 22.817 20.9346 22.8684 20.7202C22.9199 20.5058 23.024 20.3076 23.1713 20.1436L24.6326 18.4919C24.6432 18.4766 24.6488 18.4584 24.6488 18.4398C24.6488 18.4211 24.6432 18.4029 24.6326 18.3876C24.6263 18.3697 24.6147 18.3543 24.5993 18.3433C24.5839 18.3323 24.5656 18.3263 24.5467 18.3262L22.3486 18.1727C22.134 18.157 21.9265 18.0896 21.7437 17.9763C21.5608 17.8629 21.4081 17.707 21.2987 17.5218L20.1812 15.6246C20.1671 15.6212 20.1524 15.6212 20.1382 15.6246Z" fill="#606060"/>
<path d="M6.42174 18.4244C6.2774 18.4242 6.13774 18.3732 6.02728 18.2803C5.91681 18.1874 5.84261 18.0586 5.81769 17.9164C5.79277 17.7742 5.81874 17.6278 5.89103 17.5029C5.96332 17.378 6.07731 17.2825 6.21298 17.2333L15.2263 13.9607C15.3027 13.9306 15.3843 13.9161 15.4664 13.9182C15.5484 13.9202 15.6293 13.9386 15.7041 13.9724C15.7789 14.0062 15.8462 14.0546 15.902 14.1149C15.9577 14.1751 16.0008 14.2459 16.0288 14.3231C16.0567 14.4003 16.0688 14.4823 16.0645 14.5643C16.0602 14.6463 16.0395 14.7266 16.0036 14.8004C15.9677 14.8742 15.9174 14.9401 15.8556 14.9941C15.7938 15.0482 15.7218 15.0893 15.6438 15.115L6.63049 18.3876C6.56357 18.4118 6.49293 18.4243 6.42174 18.4244Z" fill="#606060"/>
<path d="M7.46547 15.1519C7.32295 15.1508 7.18525 15.1002 7.07596 15.0087C6.96668 14.9172 6.89262 14.7906 6.86649 14.6505C6.84036 14.5104 6.86378 14.3656 6.93273 14.2408C7.00169 14.1161 7.11189 14.0193 7.24443 13.9669L12.1563 12.1249C12.2328 12.0912 12.3154 12.0734 12.3989 12.0727C12.4825 12.072 12.5654 12.0884 12.6424 12.1208C12.7195 12.1533 12.7891 12.2011 12.847 12.2614C12.9049 12.3217 12.9498 12.3931 12.9791 12.4714C13.0084 12.5497 13.0215 12.6332 13.0174 12.7166C13.0133 12.8001 12.9922 12.8819 12.9554 12.957C12.9186 13.032 12.8669 13.0988 12.8034 13.1531C12.7399 13.2075 12.6659 13.2483 12.5861 13.2731L7.67422 15.115C7.6073 15.1393 7.53666 15.1518 7.46547 15.1519Z" fill="#606060"/>
</svg>
