<svg width="306" height="214" viewBox="0 0 306 214" fill="none" xmlns="http://www.w3.org/2000/svg">
<path d="M74.4199 97.108C74.4199 97.108 69.2963 55.352 104.173 49.7292C139.049 44.1065 145.532 48.8226 169.824 34.5455C194.115 20.2684 270.865 62.4105 255.328 121.687C253.495 128.717 251.17 135.646 248.364 142.436" stroke="#CCDDE2" stroke-width="3.7" stroke-miterlimit="10"/>
<path d="M224.833 69.4658H212.148V211.319H224.833V69.4658Z" stroke="#CCDDE2" stroke-width="3.7" stroke-miterlimit="10"/>
<path d="M111.344 178.641V69.4658H212.148V211.322H195.164V167.755C195.16 166.009 194.346 164.335 192.902 163.102C191.458 161.869 189.502 161.177 187.462 161.177H136.761C134.722 161.177 132.766 161.87 131.322 163.103C129.878 164.336 129.064 166.009 129.059 167.755V211.322H112.529M111.344 194.9V187.507M123.438 143.308C123.331 143.308 123.226 143.289 123.128 143.254C123.03 143.219 122.941 143.167 122.866 143.102C122.791 143.038 122.732 142.961 122.692 142.876C122.652 142.792 122.632 142.701 122.633 142.61V137.028C122.633 136.845 122.718 136.67 122.869 136.54C123.019 136.411 123.224 136.338 123.438 136.338H136.584C136.69 136.337 136.796 136.355 136.895 136.389C136.993 136.423 137.083 136.474 137.159 136.538C137.234 136.602 137.295 136.678 137.336 136.762C137.377 136.846 137.399 136.936 137.399 137.028V142.61C137.399 142.702 137.378 142.793 137.338 142.878C137.297 142.963 137.237 143.04 137.161 143.105C137.085 143.169 136.995 143.221 136.896 143.256C136.797 143.291 136.691 143.308 136.584 143.308H123.438ZM146.547 152.369C146.545 152.553 146.459 152.729 146.306 152.858C146.153 152.988 145.947 153.061 145.732 153.061H132.586C132.371 153.061 132.165 152.988 132.012 152.858C131.859 152.729 131.773 152.553 131.771 152.369V146.78C131.774 146.597 131.86 146.421 132.013 146.292C132.166 146.163 132.371 146.091 132.586 146.091H145.732C145.947 146.091 146.152 146.163 146.305 146.292C146.458 146.421 146.544 146.597 146.547 146.78V152.369ZM139.974 142.61V137.028C139.974 136.936 139.996 136.846 140.037 136.762C140.078 136.678 140.139 136.602 140.214 136.538C140.29 136.474 140.38 136.423 140.478 136.389C140.577 136.355 140.682 136.337 140.789 136.338H153.935C154.15 136.338 154.355 136.411 154.508 136.54C154.661 136.669 154.747 136.844 154.75 137.028V142.61C154.749 142.795 154.663 142.972 154.51 143.103C154.358 143.234 154.151 143.307 153.935 143.308H140.786C140.679 143.308 140.573 143.29 140.474 143.255C140.375 143.22 140.286 143.168 140.21 143.103C140.135 143.039 140.076 142.962 140.035 142.877C139.994 142.792 139.974 142.702 139.974 142.61ZM163.828 152.369C163.829 152.459 163.808 152.549 163.768 152.633C163.728 152.717 163.669 152.793 163.594 152.858C163.519 152.922 163.43 152.973 163.332 153.008C163.234 153.043 163.129 153.061 163.023 153.061H149.864C149.758 153.061 149.653 153.043 149.555 153.008C149.457 152.973 149.368 152.922 149.293 152.858C149.218 152.793 149.159 152.717 149.119 152.633C149.079 152.549 149.058 152.459 149.059 152.369V146.78C149.059 146.597 149.144 146.422 149.295 146.293C149.446 146.164 149.65 146.091 149.864 146.091H163.02C163.233 146.091 163.438 146.164 163.589 146.293C163.74 146.422 163.825 146.597 163.825 146.78L163.828 152.369ZM172.085 142.61C172.085 142.702 172.064 142.793 172.024 142.878C171.983 142.963 171.923 143.04 171.847 143.105C171.771 143.169 171.681 143.221 171.582 143.256C171.483 143.291 171.377 143.308 171.27 143.308H158.124C158.017 143.308 157.911 143.289 157.813 143.254C157.715 143.219 157.626 143.167 157.551 143.103C157.476 143.038 157.416 142.961 157.376 142.876C157.335 142.792 157.315 142.702 157.315 142.61V137.028C157.315 136.937 157.336 136.847 157.377 136.763C157.417 136.679 157.477 136.603 157.552 136.539C157.627 136.475 157.716 136.424 157.815 136.39C157.912 136.355 158.018 136.338 158.124 136.338H171.266C171.373 136.337 171.479 136.355 171.577 136.389C171.676 136.423 171.765 136.474 171.841 136.538C171.917 136.602 171.977 136.678 172.018 136.762C172.06 136.846 172.081 136.936 172.081 137.028L172.085 142.61ZM189.423 142.61C189.424 142.701 189.403 142.792 189.364 142.876C189.323 142.961 189.264 143.038 189.19 143.102C189.115 143.167 189.026 143.219 188.928 143.254C188.829 143.289 188.724 143.308 188.618 143.308H175.468C175.361 143.308 175.255 143.291 175.156 143.256C175.057 143.221 174.967 143.169 174.891 143.105C174.815 143.04 174.755 142.963 174.714 142.878C174.674 142.793 174.653 142.702 174.653 142.61V137.028C174.654 136.936 174.675 136.846 174.716 136.762C174.757 136.678 174.818 136.602 174.893 136.538C174.969 136.474 175.059 136.423 175.158 136.389C175.256 136.355 175.362 136.337 175.468 136.338H188.614C188.828 136.338 189.033 136.411 189.184 136.54C189.335 136.67 189.419 136.845 189.419 137.028L189.423 142.61ZM201.594 121.649C201.596 122.515 201.4 123.372 201.015 124.172C200.63 124.972 200.064 125.699 199.351 126.312C198.637 126.924 197.789 127.411 196.856 127.742C195.923 128.074 194.922 128.245 193.912 128.245H129.73C127.688 128.244 125.729 127.549 124.285 126.312C122.841 125.075 122.029 123.398 122.028 121.649V98.3947C122.028 96.6455 122.84 94.9679 124.284 93.7312C125.729 92.4943 127.687 91.7996 129.73 91.7996H193.898C194.909 91.7996 195.909 91.9703 196.843 92.3018C197.776 92.6335 198.624 93.1194 199.337 93.7321C200.051 94.345 200.616 95.072 201.001 95.8722C201.386 96.6721 201.583 97.5293 201.58 98.3947L201.594 121.649ZM200.468 84.0976C200.115 84.4042 199.693 84.6473 199.229 84.8129C198.764 84.9782 198.266 85.0628 197.763 85.0614H126.464C125.448 85.0605 124.474 84.7148 123.756 84.0996C123.038 83.4847 122.634 82.6507 122.633 81.781C122.636 80.9118 123.041 80.0793 123.759 79.4647C124.476 78.8501 125.449 78.5034 126.464 78.5006H197.756C198.259 78.5 198.758 78.5847 199.223 78.7494C199.688 78.9141 200.11 79.1558 200.466 79.4604C200.822 79.7653 201.104 80.127 201.296 80.5252C201.489 80.9233 201.587 81.35 201.587 81.781C201.589 82.2114 201.491 82.6381 201.298 83.0359C201.106 83.4338 200.822 83.7947 200.465 84.0976H200.468Z" stroke="#CCDDE2" stroke-width="3.7" stroke-miterlimit="10"/>
<path d="M136.584 143.308H123.438C123.331 143.307 123.226 143.289 123.128 143.254C123.03 143.219 122.941 143.167 122.866 143.102C122.791 143.037 122.732 142.96 122.692 142.876C122.652 142.792 122.632 142.701 122.633 142.61V137.027C122.633 136.844 122.718 136.669 122.869 136.54C123.02 136.411 123.224 136.338 123.438 136.338H136.584C136.69 136.337 136.796 136.355 136.895 136.389C136.993 136.423 137.083 136.473 137.159 136.538C137.234 136.602 137.294 136.678 137.336 136.762C137.377 136.846 137.399 136.936 137.399 137.027V142.61C137.399 142.702 137.378 142.793 137.338 142.877C137.297 142.962 137.237 143.039 137.161 143.104C137.085 143.169 136.995 143.221 136.896 143.255C136.797 143.29 136.691 143.308 136.584 143.308Z" stroke="#CCDDE2" stroke-width="3.7" stroke-miterlimit="10"/>
<path d="M132.586 146.091H145.732C145.947 146.091 146.152 146.163 146.305 146.293C146.458 146.422 146.544 146.597 146.547 146.781V152.369C146.545 152.553 146.459 152.729 146.306 152.859C146.153 152.988 145.947 153.061 145.732 153.061H132.586C132.371 153.061 132.165 152.988 132.012 152.859C131.86 152.729 131.773 152.553 131.771 152.369V146.781C131.774 146.597 131.861 146.422 132.013 146.293C132.166 146.163 132.372 146.091 132.586 146.091Z" stroke="#CCDDE2" stroke-width="3.7" stroke-miterlimit="10"/>
<path d="M154.747 137.027V142.61C154.746 142.795 154.66 142.972 154.507 143.102C154.354 143.233 154.148 143.307 153.932 143.308H140.786C140.678 143.308 140.572 143.29 140.473 143.255C140.374 143.221 140.284 143.169 140.209 143.104C140.133 143.039 140.073 142.962 140.032 142.877C139.991 142.793 139.97 142.702 139.971 142.61V137.027C139.971 136.936 139.993 136.846 140.034 136.762C140.075 136.678 140.135 136.602 140.211 136.538C140.287 136.473 140.377 136.423 140.475 136.389C140.574 136.355 140.679 136.337 140.786 136.338H153.932C154.146 136.338 154.352 136.41 154.505 136.539C154.657 136.668 154.744 136.844 154.747 137.027Z" stroke="#CCDDE2" stroke-width="3.7" stroke-miterlimit="10"/>
<path d="M163.02 146.091H149.864C149.419 146.091 149.059 146.4 149.059 146.781V152.372C149.059 152.753 149.419 153.061 149.864 153.061H163.02C163.465 153.061 163.825 152.753 163.825 152.372V146.781C163.825 146.4 163.465 146.091 163.02 146.091Z" stroke="#CCDDE2" stroke-width="3.7" stroke-miterlimit="10"/>
<path d="M158.124 143.308C158.017 143.307 157.912 143.289 157.813 143.254C157.715 143.219 157.626 143.167 157.551 143.102C157.476 143.037 157.416 142.961 157.376 142.876C157.335 142.792 157.315 142.701 157.315 142.61V137.027C157.315 136.937 157.336 136.847 157.377 136.763C157.418 136.679 157.477 136.603 157.552 136.539C157.627 136.475 157.716 136.424 157.815 136.39C157.913 136.355 158.018 136.338 158.124 136.338H171.266C171.373 136.337 171.479 136.355 171.577 136.389C171.676 136.423 171.765 136.473 171.841 136.538C171.917 136.602 171.977 136.678 172.018 136.762C172.059 136.846 172.081 136.936 172.081 137.027V142.61C172.082 142.702 172.061 142.793 172.02 142.877C171.98 142.962 171.919 143.039 171.844 143.104C171.768 143.169 171.678 143.221 171.579 143.255C171.48 143.29 171.374 143.308 171.266 143.308H158.124Z" stroke="#CCDDE2" stroke-width="3.7" stroke-miterlimit="10"/>
<path d="M175.468 143.308C175.361 143.308 175.255 143.29 175.156 143.255C175.057 143.221 174.967 143.169 174.891 143.104C174.815 143.039 174.755 142.962 174.714 142.877C174.674 142.793 174.653 142.702 174.653 142.61V137.027C174.654 136.936 174.675 136.846 174.716 136.762C174.758 136.678 174.818 136.602 174.893 136.538C174.969 136.473 175.059 136.423 175.158 136.389C175.256 136.355 175.362 136.337 175.468 136.338H188.614C188.828 136.338 189.033 136.411 189.184 136.54C189.334 136.669 189.419 136.844 189.419 137.027V142.61C189.42 142.701 189.4 142.792 189.36 142.876C189.32 142.96 189.261 143.037 189.186 143.102C189.111 143.167 189.023 143.219 188.924 143.254C188.826 143.289 188.721 143.307 188.614 143.308H175.468Z" stroke="#CCDDE2" stroke-width="3.7" stroke-miterlimit="10"/>
<path d="M195.164 167.756V211.322H129.059V167.756C129.064 166.009 129.878 164.336 131.322 163.103C132.766 161.87 134.722 161.178 136.761 161.178H187.462C189.501 161.177 191.458 161.869 192.902 163.103C194.346 164.336 195.16 166.009 195.164 167.756Z" stroke="#CCDDE2" stroke-width="3.7" stroke-miterlimit="10"/>
<path d="M122.633 81.7809C122.636 80.9118 123.041 80.0789 123.759 79.4646C124.476 78.85 125.449 78.5034 126.464 78.5005H197.756C198.259 78.4999 198.758 78.5846 199.223 78.7493C199.687 78.9141 200.11 79.1557 200.466 79.4603C200.822 79.7649 201.104 80.1267 201.296 80.5251C201.489 80.9232 201.587 81.3499 201.587 81.7809C201.584 82.6498 201.179 83.4826 200.461 84.0969C199.743 84.7116 198.771 85.0582 197.756 85.0613H126.464C125.448 85.0605 124.474 84.7147 123.756 84.0995C123.038 83.4846 122.634 82.6506 122.633 81.7809Z" stroke="#CCDDE2" stroke-width="3.7" stroke-miterlimit="10"/>
<path d="M157.97 101.647V118.426C157.971 119.036 157.831 119.64 157.559 120.204C157.288 120.767 156.889 121.28 156.386 121.711C155.883 122.143 155.285 122.485 154.628 122.719C153.97 122.953 153.265 123.073 152.552 123.074H133.551C132.113 123.072 130.735 122.582 129.719 121.71C128.703 120.839 128.133 119.657 128.134 118.426V101.647C128.133 101.037 128.273 100.433 128.545 99.87C128.817 99.3068 129.216 98.7949 129.719 98.3636C130.222 97.9323 130.819 97.59 131.477 97.3563C132.134 97.1226 132.839 97.0022 133.551 97.002H152.552C153.265 97.002 153.97 97.1221 154.627 97.3557C155.285 97.5891 155.882 97.9312 156.385 98.3627C156.889 98.794 157.288 99.306 157.559 99.8697C157.831 100.433 157.971 101.037 157.97 101.647Z" stroke="#CCDDE2" stroke-width="3.7" stroke-miterlimit="10"/>
<path d="M195.281 101.626V118.449C195.282 119.058 195.142 119.662 194.871 120.226C194.599 120.789 194.2 121.302 193.697 121.734C193.194 122.165 192.596 122.507 191.939 122.741C191.281 122.975 190.576 123.096 189.864 123.096H170.826C170.113 123.096 169.408 122.975 168.75 122.741C168.092 122.508 167.495 122.165 166.991 121.734C166.488 121.302 166.088 120.79 165.817 120.226C165.544 119.663 165.404 119.059 165.405 118.449V101.626C165.404 101.016 165.544 100.412 165.817 99.8482C166.088 99.2848 166.488 98.7726 166.991 98.341C167.495 97.9094 168.092 97.5668 168.75 97.3332C169.408 97.0995 170.113 96.9788 170.826 96.9785H189.864C190.576 96.9788 191.281 97.0995 191.939 97.3332C192.596 97.5671 193.194 97.9094 193.697 98.341C194.2 98.7726 194.599 99.2848 194.871 99.8485C195.142 100.412 195.282 101.016 195.281 101.626Z" stroke="#CCDDE2" stroke-width="3.7" stroke-miterlimit="10"/>
<path d="M193.898 91.7993H129.73C127.687 91.7993 125.729 92.494 124.284 93.731C122.84 94.9676 122.028 96.6453 122.028 98.3945V121.649C122.029 123.398 122.841 125.075 124.285 126.312C125.729 127.548 127.688 128.243 129.73 128.244H193.898C194.909 128.244 195.909 128.074 196.843 127.742C197.776 127.41 198.624 126.924 199.338 126.312C200.051 125.699 200.616 124.972 201.001 124.172C201.386 123.371 201.583 122.514 201.58 121.649V98.3945C201.583 97.529 201.386 96.6719 201.001 95.8717C200.616 95.0717 200.051 94.3444 199.338 93.7318C198.624 93.1192 197.776 92.6333 196.843 92.3015C195.909 91.9698 194.909 91.7993 193.898 91.7993ZM157.97 118.426C157.971 119.036 157.831 119.64 157.559 120.203C157.288 120.767 156.889 121.279 156.386 121.711C155.883 122.142 155.285 122.485 154.628 122.718C153.97 122.952 153.265 123.073 152.552 123.073H133.551C132.113 123.072 130.735 122.581 129.719 121.71C128.703 120.838 128.133 119.657 128.134 118.426V101.646C128.133 101.037 128.273 100.433 128.545 99.8697C128.817 99.3062 129.216 98.7943 129.719 98.363C130.222 97.9317 130.819 97.5897 131.477 97.356C132.134 97.1223 132.839 97.0019 133.551 97.0017H152.552C153.265 97.0017 153.97 97.1218 154.627 97.3551C155.285 97.5885 155.882 97.9309 156.385 98.3621C156.889 98.7937 157.288 99.3057 157.559 99.8691C157.831 100.433 157.971 101.037 157.97 101.646V118.426ZM195.281 118.449C195.282 119.059 195.142 119.663 194.871 120.226C194.599 120.79 194.2 121.302 193.697 121.733C193.194 122.165 192.596 122.508 191.939 122.741C191.281 122.975 190.576 123.096 189.864 123.096H170.826C170.113 123.096 169.408 122.975 168.75 122.741C168.092 122.508 167.495 122.165 166.991 121.734C166.488 121.302 166.088 120.79 165.816 120.226C165.544 119.663 165.404 119.059 165.405 118.449V101.626C165.404 101.016 165.544 100.412 165.816 99.8485C166.088 99.2848 166.488 98.7726 166.991 98.341C167.495 97.9094 168.092 97.5671 168.75 97.3334C169.408 97.0995 170.113 96.9791 170.826 96.9788H189.864C190.576 96.9791 191.281 97.0995 191.939 97.3334C192.596 97.5671 193.194 97.9097 193.697 98.3413C194.2 98.7728 194.599 99.2851 194.871 99.8488C195.142 100.412 195.282 101.016 195.281 101.626V118.449Z" stroke="#CCDDE2" stroke-width="3.7" stroke-miterlimit="10"/>
<path d="M157.97 101.647V118.426C157.971 119.036 157.831 119.64 157.559 120.204C157.288 120.767 156.889 121.28 156.386 121.711C155.883 122.143 155.285 122.485 154.628 122.719C153.97 122.953 153.265 123.073 152.552 123.074H133.551C132.113 123.072 130.735 122.582 129.719 121.71C128.703 120.839 128.133 119.657 128.134 118.426V101.647C128.133 101.037 128.273 100.433 128.545 99.87C128.817 99.3068 129.216 98.7949 129.719 98.3636C130.222 97.9323 130.819 97.59 131.477 97.3563C132.134 97.1226 132.839 97.0022 133.551 97.002H152.552C153.265 97.002 153.97 97.1221 154.627 97.3557C155.285 97.5891 155.882 97.9312 156.385 98.3627C156.889 98.794 157.288 99.306 157.559 99.8697C157.831 100.433 157.971 101.037 157.97 101.647Z" stroke="#CCDDE2" stroke-width="3.7" stroke-miterlimit="10"/>
<path d="M195.281 101.626V118.449C195.282 119.058 195.142 119.662 194.871 120.226C194.599 120.789 194.2 121.302 193.697 121.734C193.194 122.165 192.596 122.507 191.939 122.741C191.281 122.975 190.576 123.096 189.864 123.096H170.826C170.113 123.096 169.408 122.975 168.75 122.741C168.092 122.508 167.495 122.165 166.991 121.734C166.488 121.302 166.088 120.79 165.817 120.226C165.544 119.663 165.404 119.059 165.405 118.449V101.626C165.404 101.016 165.544 100.412 165.817 99.8482C166.088 99.2848 166.488 98.7726 166.991 98.341C167.495 97.9094 168.092 97.5668 168.75 97.3332C169.408 97.0995 170.113 96.9788 170.826 96.9785H189.864C190.576 96.9788 191.281 97.0995 191.939 97.3332C192.596 97.5671 193.194 97.9094 193.697 98.341C194.2 98.7726 194.599 99.2848 194.871 99.8485C195.142 100.412 195.282 101.016 195.281 101.626Z" stroke="#CCDDE2" stroke-width="3.7" stroke-miterlimit="10"/>
<path d="M195.281 101.626V118.449C195.282 119.058 195.142 119.662 194.871 120.226C194.599 120.789 194.2 121.302 193.697 121.734C193.194 122.165 192.596 122.507 191.939 122.741C191.281 122.975 190.576 123.096 189.864 123.096H170.826C170.113 123.096 169.408 122.975 168.75 122.741C168.092 122.508 167.495 122.165 166.991 121.734C166.488 121.302 166.088 120.79 165.817 120.226C165.544 119.663 165.404 119.059 165.405 118.449V101.626C165.404 101.016 165.544 100.412 165.817 99.8482C166.088 99.2848 166.488 98.7726 166.991 98.341C167.495 97.9094 168.092 97.5668 168.75 97.3332C169.408 97.0995 170.113 96.9788 170.826 96.9785H189.864C190.576 96.9788 191.281 97.0995 191.939 97.3332C192.596 97.5671 193.194 97.9094 193.697 98.341C194.2 98.7726 194.599 99.2848 194.871 99.8485C195.142 100.412 195.282 101.016 195.281 101.626Z" stroke="#CCDDE2" stroke-width="3.7" stroke-miterlimit="10"/>
<path d="M157.97 101.647V118.426C157.971 119.036 157.831 119.64 157.559 120.204C157.288 120.767 156.889 121.28 156.386 121.711C155.883 122.143 155.285 122.485 154.628 122.719C153.97 122.953 153.265 123.073 152.552 123.074H133.551C132.113 123.072 130.735 122.582 129.719 121.71C128.703 120.839 128.133 119.657 128.134 118.426V101.647C128.133 101.037 128.273 100.433 128.545 99.87C128.817 99.3068 129.216 98.7949 129.719 98.3636C130.222 97.9323 130.819 97.59 131.477 97.3563C132.134 97.1226 132.839 97.0022 133.551 97.002H152.552C153.265 97.002 153.97 97.1221 154.627 97.3557C155.285 97.5891 155.882 97.9312 156.385 98.3627C156.889 98.794 157.288 99.306 157.559 99.8697C157.831 100.433 157.971 101.037 157.97 101.647Z" stroke="#CCDDE2" stroke-width="3.7" stroke-miterlimit="10"/>
<path d="M195.164 167.756V211.322H129.059V167.756C129.064 166.009 129.878 164.336 131.322 163.103C132.766 161.87 134.722 161.178 136.761 161.178H187.462C189.501 161.177 191.458 161.869 192.902 163.103C194.346 164.336 195.16 166.009 195.164 167.756Z" stroke="#CCDDE2" stroke-width="3.7" stroke-miterlimit="10"/>
<path d="M137.399 137.027V142.61C137.399 142.702 137.378 142.793 137.338 142.877C137.297 142.962 137.237 143.039 137.161 143.104C137.085 143.169 136.995 143.221 136.896 143.255C136.797 143.29 136.691 143.308 136.584 143.308H123.438C123.331 143.307 123.226 143.289 123.128 143.254C123.03 143.219 122.941 143.167 122.866 143.102C122.791 143.037 122.732 142.96 122.692 142.876C122.652 142.792 122.632 142.701 122.633 142.61V137.027C122.633 136.844 122.718 136.669 122.869 136.54C123.02 136.411 123.224 136.338 123.438 136.338H136.584C136.69 136.337 136.796 136.355 136.895 136.389C136.993 136.423 137.083 136.473 137.159 136.538C137.234 136.602 137.294 136.678 137.336 136.762C137.377 136.846 137.399 136.936 137.399 137.027Z" stroke="#CCDDE2" stroke-width="3.7" stroke-miterlimit="10"/>
<path d="M154.747 137.027V142.61C154.746 142.795 154.66 142.972 154.507 143.102C154.354 143.233 154.148 143.307 153.932 143.308H140.786C140.678 143.308 140.572 143.29 140.473 143.255C140.374 143.221 140.284 143.169 140.209 143.104C140.133 143.039 140.073 142.962 140.032 142.877C139.991 142.793 139.97 142.702 139.971 142.61V137.027C139.971 136.936 139.993 136.846 140.034 136.762C140.075 136.678 140.135 136.602 140.211 136.538C140.287 136.473 140.377 136.423 140.475 136.389C140.574 136.355 140.679 136.337 140.786 136.338H153.932C154.146 136.338 154.352 136.41 154.505 136.539C154.657 136.668 154.744 136.844 154.747 137.027Z" stroke="#CCDDE2" stroke-width="3.7" stroke-miterlimit="10"/>
<path d="M172.081 137.027V142.61C172.082 142.702 172.061 142.793 172.02 142.877C171.98 142.962 171.919 143.039 171.844 143.104C171.768 143.169 171.678 143.221 171.579 143.255C171.48 143.29 171.374 143.308 171.266 143.308H158.124C158.017 143.307 157.912 143.289 157.813 143.254C157.715 143.219 157.626 143.167 157.551 143.102C157.476 143.037 157.416 142.961 157.376 142.876C157.335 142.792 157.315 142.701 157.315 142.61V137.027C157.315 136.937 157.336 136.847 157.377 136.763C157.418 136.679 157.477 136.603 157.552 136.539C157.627 136.475 157.716 136.424 157.815 136.39C157.913 136.355 158.018 136.338 158.124 136.338H171.266C171.373 136.337 171.479 136.355 171.577 136.389C171.676 136.423 171.765 136.473 171.841 136.538C171.917 136.602 171.977 136.678 172.018 136.762C172.059 136.846 172.081 136.936 172.081 137.027Z" stroke="#CCDDE2" stroke-width="3.7" stroke-miterlimit="10"/>
<path d="M189.406 137.027V142.61C189.407 142.701 189.387 142.792 189.347 142.876C189.307 142.96 189.248 143.037 189.173 143.102C189.098 143.167 189.009 143.219 188.911 143.254C188.813 143.289 188.708 143.307 188.601 143.308H175.468C175.361 143.308 175.255 143.29 175.156 143.255C175.057 143.221 174.967 143.169 174.891 143.104C174.815 143.039 174.755 142.962 174.714 142.877C174.674 142.793 174.653 142.702 174.653 142.61V137.027C174.654 136.936 174.675 136.846 174.716 136.762C174.758 136.678 174.818 136.602 174.893 136.538C174.969 136.473 175.059 136.423 175.158 136.389C175.256 136.355 175.362 136.337 175.468 136.338H188.614C188.825 136.341 189.027 136.415 189.175 136.544C189.323 136.673 189.406 136.846 189.406 137.027Z" stroke="#CCDDE2" stroke-width="3.7" stroke-miterlimit="10"/>
<path d="M146.547 146.781V152.369C146.545 152.553 146.459 152.729 146.306 152.859C146.153 152.988 145.947 153.061 145.732 153.061H132.586C132.371 153.061 132.165 152.988 132.012 152.859C131.86 152.729 131.773 152.553 131.771 152.369V146.781C131.774 146.597 131.861 146.422 132.013 146.293C132.166 146.163 132.372 146.091 132.586 146.091H145.732C145.947 146.091 146.152 146.163 146.305 146.293C146.458 146.422 146.544 146.597 146.547 146.781Z" stroke="#CCDDE2" stroke-width="3.7" stroke-miterlimit="10"/>
<path d="M163.02 146.091H149.864C149.419 146.091 149.059 146.4 149.059 146.781V152.372C149.059 152.753 149.419 153.061 149.864 153.061H163.02C163.465 153.061 163.825 152.753 163.825 152.372V146.781C163.825 146.4 163.465 146.091 163.02 146.091Z" stroke="#CCDDE2" stroke-width="3.7" stroke-miterlimit="10"/>
<path d="M201.59 81.7809C201.587 82.6504 201.181 83.4835 200.463 84.0981C199.745 84.7127 198.772 85.059 197.756 85.0613H126.464C125.448 85.0605 124.474 84.7147 123.756 84.0995C123.038 83.4846 122.634 82.6506 122.633 81.7809C122.636 80.9118 123.041 80.0789 123.759 79.4646C124.476 78.85 125.449 78.5034 126.464 78.5005H197.756C198.26 78.4996 198.758 78.584 199.224 78.7485C199.689 78.9129 200.112 79.1546 200.468 79.4595C200.824 79.764 201.107 80.1258 201.299 80.5242C201.492 80.9226 201.591 81.3496 201.59 81.7809Z" stroke="#CCDDE2" stroke-width="3.7" stroke-miterlimit="10"/>
<path d="M187.255 166.216H136.771C135.574 166.216 134.603 167.047 134.603 168.072V168.144C134.603 169.169 135.574 170 136.771 170H187.255C188.452 170 189.423 169.169 189.423 168.144V168.072C189.423 167.047 188.452 166.216 187.255 166.216Z" stroke="#CCDDE2" stroke-width="3.7" stroke-miterlimit="10"/>
<path d="M187.255 174.024H136.771C135.574 174.024 134.603 174.855 134.603 175.881V175.952C134.603 176.977 135.574 177.808 136.771 177.808H187.255C188.452 177.808 189.423 176.977 189.423 175.952V175.881C189.423 174.855 188.452 174.024 187.255 174.024Z" stroke="#CCDDE2" stroke-width="3.7" stroke-miterlimit="10"/>
<path d="M187.255 181.832H136.771C135.574 181.832 134.603 182.663 134.603 183.688V183.76C134.603 184.785 135.574 185.616 136.771 185.616H187.255C188.452 185.616 189.423 184.785 189.423 183.76V183.688C189.423 182.663 188.452 181.832 187.255 181.832Z" stroke="#CCDDE2" stroke-width="3.7" stroke-miterlimit="10"/>
<path d="M187.255 189.643H136.771C135.574 189.643 134.603 190.474 134.603 191.499V191.57C134.603 192.595 135.574 193.426 136.771 193.426H187.255C188.452 193.426 189.423 192.595 189.423 191.57V191.499C189.423 190.474 188.452 189.643 187.255 189.643Z" stroke="#CCDDE2" stroke-width="3.7" stroke-miterlimit="10"/>
<path d="M187.255 197.451H136.771C135.574 197.451 134.603 198.282 134.603 199.307V199.378C134.603 200.403 135.574 201.234 136.771 201.234H187.255C188.452 201.234 189.423 200.403 189.423 199.378V199.307C189.423 198.282 188.452 197.451 187.255 197.451Z" stroke="#CCDDE2" stroke-width="3.7" stroke-miterlimit="10"/>
<path d="M102.022 56.5439H230.972C232.994 56.5439 234.933 57.2315 236.362 58.4556C237.791 59.6794 238.594 61.3396 238.594 63.0705V69.3625H94.3997V63.0705C94.3997 61.3396 95.2027 59.6794 96.6322 58.4556C98.0614 57.2315 100 56.5439 102.022 56.5439Z" stroke="#CCDDE2" stroke-width="3.7" stroke-miterlimit="10"/>
<path d="M224.83 158.449H238.694V169.251H251.851V181.658H264.663V191.373H277.271V199.922H303.3V211.316H224.83V158.449Z" stroke="#CCDDE2" stroke-width="3.7" stroke-miterlimit="10"/>
<path d="M227.445 134.531H238.785H239.129L251.871 145.445L264.716 156.441L277.275 167.195L283.213 172.28" stroke="#CCDDE2" stroke-width="3.7" stroke-miterlimit="10"/>
<path d="M238.785 169.251V134.531" stroke="#CCDDE2" stroke-width="3.7" stroke-miterlimit="10"/>
<path d="M277.275 191.376V167.195" stroke="#CCDDE2" stroke-width="3.7" stroke-miterlimit="10"/>
<path d="M251.871 174.112V145.441" stroke="#CCDDE2" stroke-width="3.7" stroke-miterlimit="10"/>
<path d="M264.663 156.441V182.607" stroke="#CCDDE2" stroke-width="3.7" stroke-miterlimit="10"/>
<path d="M111.293 187.569V194.899" stroke="#CCDDE2" stroke-width="3.7" stroke-miterlimit="10"/>
<path d="M98.6081 194.9V190.393C99.1458 191.714 100.592 192.866 102.456 193.436C101.851 189.66 100.669 183.712 98.6081 178.389" stroke="#CCDDE2" stroke-width="3.7" stroke-miterlimit="10"/>
<path d="M111.293 172.889V110.026H98.6081V170.063" stroke="#CCDDE2" stroke-width="3.7" stroke-miterlimit="10"/>
<path d="M98.6081 190.398V194.9" stroke="#CCDDE2" stroke-width="3.7" stroke-miterlimit="10"/>
<path d="M98.6081 170.063V110.026H19.6439V211.322H97.5828H98.6081" stroke="#CCDDE2" stroke-width="3.7" stroke-miterlimit="10"/>
<path d="M43.6617 124.861V164.441C43.6617 168.012 47.0428 170.907 51.2135 170.907H68.9155C73.0861 170.907 76.4672 168.012 76.4672 164.441V124.861C76.4672 121.29 73.0861 118.395 68.9155 118.395H51.2135C47.0428 118.395 43.6617 121.29 43.6617 124.861Z" stroke="#CCDDE2" stroke-width="3.7" stroke-miterlimit="10"/>
<path d="M48.3278 127.115V137.731C48.3278 140.248 50.7098 142.287 53.6484 142.287H66.5141C69.4526 142.287 71.8347 140.248 71.8347 137.731V127.115C71.8347 124.599 69.4526 122.559 66.5141 122.559H53.6484C50.7098 122.559 48.3278 124.599 48.3278 127.115Z" stroke="#CCDDE2" stroke-width="3.7" stroke-miterlimit="10"/>
<path d="M48.3478 151.737V162.322C48.3478 164.838 50.7299 166.877 53.6684 166.877H66.494C69.4325 166.877 71.8146 164.838 71.8146 162.322V151.737C71.8146 149.22 69.4325 147.181 66.494 147.181H53.6684C50.7299 147.181 48.3478 149.22 48.3478 151.737Z" stroke="#CCDDE2" stroke-width="3.7" stroke-miterlimit="10"/>
<path d="M44.9009 176.898H31.7279C31.2871 176.898 30.9297 177.204 30.9297 177.582V183.188C30.9297 183.565 31.2871 183.871 31.7279 183.871H44.9009C45.3418 183.871 45.6992 183.565 45.6992 183.188V177.582C45.6992 177.204 45.3418 176.898 44.9009 176.898Z" stroke="#CCDDE2" stroke-width="3.7" stroke-miterlimit="10"/>
<path d="M62.2422 176.898H49.0693C48.6284 176.898 48.271 177.204 48.271 177.582V183.188C48.271 183.565 48.6284 183.871 49.0693 183.871H62.2422C62.6831 183.871 63.0405 183.565 63.0405 183.188V177.582C63.0405 177.204 62.6831 176.898 62.2422 176.898Z" stroke="#CCDDE2" stroke-width="3.7" stroke-miterlimit="10"/>
<path d="M79.5835 176.898H66.4105C65.9696 176.898 65.6122 177.204 65.6122 177.582V183.188C65.6122 183.565 65.9696 183.871 66.4105 183.871H79.5835C80.0243 183.871 80.3817 183.565 80.3817 183.188V177.582C80.3817 177.204 80.0243 176.898 79.5835 176.898Z" stroke="#CCDDE2" stroke-width="3.7" stroke-miterlimit="10"/>
<path d="M54.0458 186.654H40.8728C40.432 186.654 40.0746 186.96 40.0746 187.338V192.943C40.0746 193.321 40.432 193.627 40.8728 193.627H54.0458C54.4867 193.627 54.8441 193.321 54.8441 192.943V187.338C54.8441 186.96 54.4867 186.654 54.0458 186.654Z" stroke="#CCDDE2" stroke-width="3.7" stroke-miterlimit="10"/>
<path d="M71.327 186.654H58.154C57.7132 186.654 57.3558 186.96 57.3558 187.338V192.943C57.3558 193.321 57.7132 193.627 58.154 193.627H71.327C71.7679 193.627 72.1252 193.321 72.1252 192.943V187.338C72.1252 186.96 71.7679 186.654 71.327 186.654Z" stroke="#CCDDE2" stroke-width="3.7" stroke-miterlimit="10"/>
<path d="M10.4689 97.1069H111.337V109.917H2.70001V103.762C2.70088 101.998 3.51958 100.306 4.97622 99.058C6.43286 97.8102 8.40841 97.1084 10.4689 97.1069Z" stroke="#CCDDE2" stroke-width="3.7" stroke-miterlimit="10"/>
<path d="M105.071 181.258C105.762 180.777 106.564 180.334 107.118 179.805C108.675 178.315 108.077 176.41 109.076 174.774C110.291 172.772 114.112 171.385 117.87 171.568C117.514 172.509 117.27 173.479 117.142 174.462C117.032 175.337 117.299 176.31 117.005 177.159C116.527 178.521 113.975 179.347 113.665 180.746C113.391 181.981 115.081 183.137 114.8 184.395C114.503 185.745 112.082 186.491 111.19 187.684C110.462 188.656 110.806 189.766 110.428 190.799C109.971 192.046 108.388 193.147 106.313 193.659L106.106 193.71C105.345 193.15 104.691 192.491 104.169 191.757" stroke="#CCDDE2" stroke-width="3.7" stroke-miterlimit="10"/>
<path d="M115.592 173.135C109.991 178.028 107.356 188.344 106.33 193.664C106.247 194.113 106.17 194.522 106.106 194.897" stroke="#CCDDE2" stroke-width="3.7" stroke-miterlimit="10"/>
<path d="M116.093 197.894L113.515 210.232C113.443 210.578 113.232 210.892 112.917 211.118C112.602 211.344 112.205 211.468 111.794 211.468H98.3242C97.9097 211.468 97.5086 211.341 97.1929 211.111C96.8773 210.881 96.6672 210.562 96.6008 210.212L94.216 197.894H116.093Z" stroke="#CCDDE2" stroke-width="3.7" stroke-miterlimit="10"/>
<path d="M118.541 196.518C118.505 196.893 118.306 197.243 117.983 197.497C117.66 197.752 117.237 197.894 116.798 197.894H93.548C93.1128 197.894 92.6933 197.755 92.3713 197.505C92.0497 197.254 91.8486 196.909 91.8079 196.538C91.7845 196.331 91.8122 196.121 91.889 195.923C91.9658 195.725 92.0904 195.543 92.2541 195.388C92.4181 195.233 92.6175 195.11 92.8406 195.025C93.0634 194.941 93.3042 194.897 93.548 194.897H116.784C117.028 194.895 117.268 194.937 117.491 195.019C117.714 195.102 117.915 195.223 118.08 195.376C118.245 195.529 118.372 195.709 118.451 195.906C118.531 196.102 118.561 196.311 118.541 196.518Z" stroke="#CCDDE2" stroke-width="3.7" stroke-miterlimit="10"/>
<path d="M98.6081 190.393C98.5687 190.299 98.5353 190.204 98.5079 190.107C98.1372 188.911 98.4678 187.616 97.7698 186.494C96.9114 185.113 94.5934 184.249 94.2995 182.682C94.039 181.229 95.6622 179.885 95.3917 178.452C95.0978 176.836 92.6462 175.878 92.1819 174.297C91.9047 173.318 92.1586 172.189 92.0584 171.173C91.9338 170.041 91.697 168.92 91.3503 167.821C94.1225 167.658 96.9281 168.571 98.6081 170.052C99.1118 170.48 99.5162 170.986 99.8005 171.542C100.759 173.433 100.188 175.641 101.684 177.368C102.499 178.303 103.852 179.001 104.547 179.979C104.779 180.299 104.942 180.651 105.028 181.02C105.031 181.048 105.037 181.074 105.044 181.1C105.061 181.152 105.068 181.201 105.078 181.243C105.328 182.691 104.684 184.258 104.891 185.748C105.078 186.983 105.859 188.222 105.412 189.429C105.098 190.24 104.682 191.02 104.169 191.754C103.754 192.386 103.243 192.969 102.649 193.487C102.583 193.473 102.523 193.45 102.456 193.43C101.851 189.655 100.669 183.706 98.6081 178.383" stroke="#CCDDE2" stroke-width="3.7" stroke-miterlimit="10"/>
<path d="M102.676 194.893C102.616 194.453 102.539 193.972 102.456 193.44C101.851 189.665 100.669 183.716 98.6081 178.394C97.3089 175.005 95.6522 171.856 93.5614 169.654" stroke="#CCDDE2" stroke-width="3.7" stroke-miterlimit="10"/>
<path d="M101.684 177.376C101.684 177.376 102.055 172.451 105.158 170.953C108.261 169.454 108.194 177.851 108.194 177.851" stroke="#CCDDE2" stroke-width="3.7" stroke-miterlimit="10"/>
<path d="M105.071 181.257C104.721 179.388 104.884 177.474 105.549 175.669" stroke="#CCDDE2" stroke-width="3.7" stroke-miterlimit="10"/>
<path d="M151.804 89.1167C152.235 89.5166 152.484 90.0356 152.505 90.5796C152.527 91.1233 152.319 91.6558 151.921 92.0797L144.202 103.448L143.932 105.736L141.53 126.4L137.716 159.218C137.693 159.427 137.643 159.636 137.599 159.845C137.576 160.01 137.549 160.176 137.516 160.342C137.466 160.557 137.406 160.76 137.349 160.966C137.292 161.172 137.255 161.306 137.195 161.472C137.135 161.638 137.055 161.867 136.971 162.061L136.768 162.55C136.677 162.745 136.584 162.93 136.49 163.122C136.397 163.314 136.313 163.434 136.223 163.591C136.133 163.748 136.013 163.951 135.889 164.123C135.766 164.295 135.685 164.426 135.579 164.569C135.472 164.712 135.335 164.907 135.198 165.073C135.061 165.238 134.964 165.359 134.847 165.49C134.593 165.776 134.343 166.045 134.066 166.302C133.922 166.445 133.772 166.588 133.621 166.726C133.471 166.863 133.287 166.992 133.134 167.123C132.98 167.255 132.83 167.366 132.669 167.481C132.509 167.595 132.335 167.727 132.152 167.841C131.968 167.955 131.818 168.064 131.647 168.164C131.477 168.264 131.283 168.382 131.1 168.49C130.916 168.599 130.739 168.682 130.555 168.776C130.372 168.871 130.174 168.965 129.984 169.062C129.794 169.16 129.597 169.228 129.396 169.305C129.196 169.383 129.009 169.471 128.808 169.543C128.608 169.614 128.378 169.689 128.16 169.752C127.943 169.814 127.773 169.88 127.579 169.932C127.212 170.032 126.834 170.118 126.454 170.192C126.237 170.235 126.026 170.269 125.809 170.298C125.592 170.326 125.388 170.369 125.171 170.401H125.205L128.184 175.835L130.973 175.858C130.073 175.967 129.162 176.001 128.254 175.958L132.669 184.02C133.379 185.313 133.695 186.738 133.589 188.164C133.483 189.589 132.96 190.968 132.066 192.174C131.172 193.38 129.937 194.373 128.475 195.062C127.013 195.75 125.373 196.111 123.705 196.112H118.361C118.154 196.112 117.949 196.148 117.758 196.216C117.567 196.284 117.394 196.384 117.248 196.51C117.102 196.635 116.987 196.784 116.909 196.948C116.83 197.112 116.79 197.288 116.791 197.465V198.134C118.615 198.664 120.16 199.731 121.151 201.145C122.142 202.559 122.514 204.229 122.201 205.856C121.887 207.484 120.909 208.963 119.441 210.03C117.972 211.097 116.109 211.683 114.183 211.683C112.256 211.683 110.393 211.097 108.924 210.03C107.456 208.963 106.478 207.484 106.165 205.856C105.851 204.229 106.223 202.559 107.214 201.145C108.205 199.731 109.75 198.664 111.574 198.134V197.465C111.574 197.287 111.534 197.111 111.455 196.948C111.376 196.783 111.26 196.634 111.113 196.509C110.967 196.383 110.793 196.283 110.602 196.215C110.41 196.147 110.205 196.112 109.998 196.112H51.0298C50.8224 196.112 50.6173 196.147 50.4256 196.215C50.2342 196.283 50.0602 196.383 49.9139 196.509C49.7673 196.634 49.6514 196.783 49.5723 196.948C49.4934 197.111 49.453 197.287 49.4533 197.465V198.134C51.2803 198.664 52.8281 199.732 53.8207 201.148C54.8134 202.564 55.1865 204.236 54.8728 205.865C54.5595 207.495 53.5803 208.976 52.11 210.045C50.6394 211.114 48.7737 211.7 46.8448 211.7C44.916 211.7 43.0502 211.114 41.5796 210.045C40.1094 208.976 39.1301 207.495 38.8168 205.865C38.5032 204.236 38.8762 202.564 39.8689 201.148C40.8615 199.732 42.4093 198.664 44.2363 198.134V197.465C44.2363 197.106 44.0699 196.762 43.7737 196.508C43.4774 196.255 43.0753 196.112 42.6564 196.112H33.4915C33.0696 196.111 32.6578 196.003 32.3078 195.802C31.9574 195.601 31.6849 195.315 31.5242 194.981C31.3632 194.648 31.3215 194.281 31.4043 193.926C31.4868 193.572 31.6902 193.247 31.9885 192.992C32.1855 192.823 32.4197 192.688 32.6779 192.597C32.9357 192.506 33.2123 192.459 33.4915 192.46H121.784C122.899 192.459 123.995 192.218 124.972 191.758C125.949 191.299 126.775 190.636 127.374 189.832C127.973 189.027 128.325 188.106 128.399 187.154C128.473 186.201 128.266 185.249 127.796 184.383L120.205 170.355L44.116 165.087C44.0579 165.075 43.9985 165.068 43.939 165.064C43.605 165.035 43.271 164.998 42.937 164.95C42.8248 164.937 42.7132 164.92 42.603 164.898C42.2256 164.841 41.8649 164.769 41.5008 164.689L41.1902 164.612C40.8562 164.523 40.5222 164.432 40.1882 164.326L39.9277 164.24C39.6237 164.14 39.3231 164.026 39.0292 163.903C38.9046 163.858 38.783 163.808 38.6651 163.751C38.3979 163.637 38.1307 163.514 37.8702 163.377C35.6779 162.274 33.8602 160.699 32.5974 158.81C31.3342 156.92 30.6695 154.78 30.6692 152.603V124.361C30.6699 121.348 31.9391 118.436 34.2437 116.16C36.5486 113.884 39.7346 112.395 43.2176 111.968L138.524 100.242L147.913 89.1082C148.164 88.8814 148.466 88.7009 148.801 88.5779C149.136 88.4549 149.496 88.392 149.861 88.3926C150.225 88.3934 150.586 88.4581 150.92 88.5828C151.254 88.7072 151.555 88.8888 151.804 89.1167Z" fill="white"/>
<path d="M260.271 185.404C254.108 174.456 241.423 154.914 224.002 143.111L222.305 116.887C223.591 116.833 224.863 116.641 226.093 116.315C227.489 116.121 228.431 115.818 228.765 115.371C229.021 115 229.201 114.594 229.296 114.17C229.575 113.648 229.708 113.077 229.683 112.503C229.683 112.217 229.656 111.876 229.65 111.53C229.773 108.648 229.446 104.503 229.052 99.5842C228.648 92.4914 228.197 85.5702 228.187 85.5073V85.493C228.187 85.3929 228.237 79.1781 228.574 72.317C229.008 76.2094 230.892 78.6462 233.36 80.1419C236.032 82.0267 239.536 82.5386 242.542 82.5386C244.74 82.5346 246.928 82.2875 249.052 81.8036C252.629 80.8484 255.571 79.324 257.756 77.1504C259.76 75.4973 261.43 73.3895 261.887 70.7983C262.304 68.7022 262.172 66.5532 261.5 64.5063C260.91 62.1257 259.333 60.0084 257.061 58.5461C256.527 58.1594 255.938 57.8328 255.308 57.5737C254.249 57.0474 253.157 56.5384 252.121 55.9549C250.724 55.1181 249.507 54.0796 248.524 52.8861C247.877 51.866 247.483 50.7423 247.365 49.5857C247.47 47.6535 247.439 45.7175 247.272 43.7885C247.272 43.3852 247.221 42.982 247.171 42.5873C247.044 41.2059 246.927 40.2507 246.927 40.2507C245.557 37.2285 243.215 34.5999 240.174 32.6688C239.987 32.5401 239.797 32.4171 239.61 32.2941C236.94 30.6251 233.84 29.5322 230.572 29.1081C230.271 29.0709 229.967 29.0423 229.673 29.0223C228.709 28.8876 227.734 28.8132 226.757 28.7992C225.509 28.3516 224.437 27.6075 223.668 26.6542C222.992 25.6023 222.513 24.4666 222.248 23.288C221.871 21.3604 221.837 19.0466 221.65 16.3782C221.679 13.6987 220.865 11.0618 219.292 8.7449C219.285 8.72689 219.274 8.7103 219.259 8.69628C218.588 7.73075 217.774 6.84357 216.837 6.0565C214.142 3.32234 210.388 1.61206 205.719 2.6102C205.675 2.6102 205.632 2.63308 205.582 2.64738C205.388 2.64738 205.198 2.64738 205.004 2.67598C204.998 2.67455 204.992 2.67455 204.987 2.67598C203.16 2.80611 201.389 3.28288 199.803 4.07167C199.22 4.36138 198.669 4.69629 198.157 5.07267C195.067 7.36067 193.294 10.8985 192.813 14.402C192.789 14.545 192.779 14.688 192.773 14.831C192.232 15.3895 191.911 16.0802 191.858 16.8044C191.805 17.5085 191.992 18.2109 192.395 18.8261C192.799 19.4413 193.402 19.9432 194.132 20.2707V20.4509C194.184 21.6878 194.5 22.9065 195.064 24.0459C196.013 25.9735 197.709 28.1672 200.582 28.5189C200.685 28.5189 200.785 28.5332 200.876 28.5475L202.976 31.7565L203.481 33.6183L204.65 37.9341L205.051 37.7396C205.515 37.5165 205.976 37.2963 206.453 37.0789L206.757 37.5537C204.962 38.4323 203.249 39.4264 201.63 40.5281C197.499 43.1965 192.425 47.2748 188.855 52.8547C186.754 55.9778 185.268 59.3726 184.807 62.9762C184.804 63.0243 184.798 63.0718 184.79 63.1192C184.73 63.4424 184.68 63.7656 184.64 64.0973V62.5215C184.566 62.5215 184.496 62.4929 184.423 62.4872V62.4586C184.165 62.4265 183.91 62.3828 183.658 62.327L164.406 52.5115C163.542 51.848 162.917 50.9865 162.606 50.029C162.072 48.1829 160.866 46.5301 159.162 45.31C157.707 44.3402 155.994 43.6955 154.176 43.4338C154.065 43.411 153.949 43.3967 153.842 43.3824C153.915 43.2445 153.953 43.0949 153.954 42.9434C153.955 42.7918 153.917 42.6419 153.845 42.5038C153.773 42.3654 153.667 42.2418 153.534 42.1414C153.402 42.041 153.246 41.9658 153.077 41.9209L138.848 38.0742C138.552 37.9933 138.23 38.0104 137.947 38.122C137.664 38.2338 137.44 38.432 137.319 38.6777L134.042 45.3157C133.975 45.453 133.943 45.6006 133.946 45.7493C133.95 45.8977 133.99 46.0442 134.064 46.1789C134.137 46.3136 134.243 46.4334 134.374 46.5309C134.504 46.6288 134.658 46.702 134.824 46.7457L135.194 46.8458V46.8744L143.605 49.1081L143.758 49.151C143.758 49.294 143.758 49.437 143.775 49.58C143.798 50.2632 143.882 50.9439 144.025 51.6163C144.086 51.9023 144.159 52.1883 144.243 52.4743C144.293 52.6316 144.336 52.7832 144.403 52.9348L144.43 53.0148C144.48 53.1493 144.53 53.3008 144.597 53.4295C144.613 53.483 144.633 53.5354 144.657 53.5868C144.662 53.5886 144.668 53.5886 144.673 53.5868C144.882 54.0493 145.144 54.4929 145.455 54.911C146.188 55.892 147.26 56.6536 148.521 57.0903C149.713 57.4907 150.989 57.4135 152.195 57.8225C153.123 58.1548 153.974 58.6276 154.707 59.2182L155.161 59.6415C154.917 59.9532 152.726 62.8504 154.306 63.7627L154.246 63.7856L155.842 64.6436L175.431 75.7204C175.625 75.8491 175.826 75.9721 176.019 76.0922L174.61 77.4221C170.722 78.6004 166.133 79.8874 162.496 80.7797C160.315 81.2545 158.114 81.672 155.896 82.0095C152.492 82.5129 149.022 82.5358 145.639 83.0305C143.177 83.3766 141.093 85.3414 140.629 87.5408C140.241 89.3311 140.148 91.2588 142.459 92.1797C145.104 93.2322 146.424 90.0089 148.027 88.8649C150.498 87.0746 152.957 89.211 155.528 90.4265C155.762 91.6048 156.166 92.7402 156.477 93.8985C156.559 94.3092 156.745 94.6996 157.021 95.0425C157.492 95.5602 157.987 95.6146 158.424 95.4229L158.314 95.503C159.156 95.3122 160.004 95.1218 160.859 94.931C161.661 94.8243 162.451 94.6607 163.22 94.4419C168.959 93.2751 175.074 92.1883 181.19 90.8727H181.213C181.5 90.8097 181.794 90.744 182.078 90.6868C182.174 90.6842 182.269 90.6976 182.358 90.7265C182.447 90.7554 182.529 90.7992 182.599 90.8552C182.668 90.9116 182.724 90.9788 182.763 91.0534C182.802 91.1281 182.824 91.2084 182.826 91.2902C182.793 91.6649 182.749 92.0453 182.709 92.4342C182.265 94.1102 181.534 98.6347 180.705 102.287C180.251 103.906 179.78 105.416 179.326 106.754C178.588 108.184 177.866 109.594 178.093 110.758C178.118 111.277 178.353 111.773 178.758 112.16C179.162 112.547 179.711 112.802 180.311 112.88L181.367 113.018C182.091 113.166 183.317 113.347 184.854 113.535C185.064 114.814 185.291 116.109 185.542 117.368L185.602 117.685C185.779 118.517 185.962 119.367 186.146 120.208V120.231V120.259L186.296 120.948L186.457 121.692L185.238 130.941L184.874 133.764L175.602 203.774L165.849 205.996L158.541 207.666C158.275 207.715 158.021 207.805 157.793 207.932C157.454 208.114 157.174 208.367 156.982 208.668C156.79 208.968 156.69 209.306 156.694 209.648C156.695 209.984 156.796 210.314 156.988 210.607C157.093 210.78 157.226 210.939 157.382 211.081C157.705 211.354 158.113 211.542 158.558 211.622C158.723 211.655 158.892 211.672 159.062 211.67H187.546L189.884 203.78L203.845 156.475L204.576 157.047C204.576 157.047 204.576 157.07 204.603 157.076V157.09L226.012 174.519L226.266 174.711L226.6 174.997L231.059 178.62L231.393 178.886L231.527 179.001C248.177 192.774 248.771 194.573 248.4 194.762H248.19L240.508 208.41C240.269 208.839 240.211 209.326 240.346 209.787C240.481 210.248 240.799 210.654 241.246 210.935L241.784 211.273C242.267 211.572 242.864 211.704 243.456 211.642C244.048 211.581 244.591 211.331 244.977 210.941L264.479 191.422C264.479 191.422 263.033 190.281 260.271 185.404ZM159.012 94.9939C159.113 94.889 159.206 94.778 159.289 94.6622C159.293 94.6982 159.308 94.7328 159.333 94.7623L159.012 94.9939ZM175.542 77.1361C175.652 77.0932 175.759 77.056 175.876 77.0188L177.028 76.6327L177.078 76.6527C176.584 76.81 176.069 76.9759 175.542 77.1361ZM183.361 62.2641C182.364 61.9967 181.445 61.5499 180.665 60.9542L179.6 60.4079L183.548 62.2927C183.481 62.2955 183.421 62.2955 183.361 62.2812V62.2641Z" fill="white"/>
<path d="M178.103 76.8246L177.522 76.6387C177.481 76.6199 177.44 76.5987 177.402 76.5758C174.366 74.8941 171.995 72.5203 169.967 69.9978C167.83 67.3352 160.495 64.5953 158.124 62.0728C156.604 60.4769 155.014 58.6408 152.686 57.8457C151.487 57.4424 150.204 57.5196 149.012 57.1135C147.75 56.6794 146.679 55.9169 145.949 54.9342C145.633 54.5152 145.367 54.0696 145.158 53.6043C145.132 53.5511 145.111 53.4968 145.094 53.4413C145.016 53.2797 144.952 53.1132 144.904 52.9436C144.84 52.7892 144.794 52.6405 144.747 52.4832C144.655 52.2009 144.583 51.9143 144.53 51.6252C144.405 50.9785 144.326 50.3262 144.293 49.6718V49.6403C144.266 48.9768 144.276 48.3247 144.313 47.687V47.6698H144.276L140.866 46.6431C140.395 46.5098 139.975 46.2701 139.651 45.9495C139.326 45.6289 139.109 45.2388 139.022 44.8212C138.976 44.5884 138.985 44.3499 139.049 44.1205C139.127 43.8171 139.281 43.5319 139.501 43.2851C139.72 43.038 140 42.8352 140.321 42.6905C140.618 42.5558 140.943 42.4752 141.278 42.4537C141.612 42.432 141.949 42.4697 142.265 42.5647L149.129 44.6983L150.538 45.133L150.575 45.1501C150.575 45.1501 150.575 43.3598 152.579 43.397C154.433 43.437 161.15 43.9032 163.14 50.1923C163.451 51.1484 164.076 52.0081 164.941 52.6691L181.166 60.9888C182.269 61.8448 183.654 62.3891 185.131 62.5475V64.3121C185.129 64.3136 185.127 64.3156 185.126 64.3179C185.124 64.3201 185.124 64.3224 185.124 64.325C185.124 64.3273 185.124 64.3296 185.126 64.3319C185.127 64.3342 185.129 64.3362 185.131 64.3379V65.622L186.42 73.3583L187.329 78.7666C186.143 78.8492 184.95 78.8126 183.775 78.6579L183.003 78.4091H182.983L178.103 76.8246Z" fill="white"/>
<path d="M184.917 64.2203V64.2432C184.533 67.1403 184.152 70.5037 183.852 74.2246C181.687 75.0826 179.48 75.8262 177.309 76.5669C177.267 76.548 177.227 76.5271 177.188 76.504C175.713 75.6743 174.359 74.697 173.154 73.5925L154.737 63.8056C155.876 63.3119 156.892 62.6318 157.726 61.8036L157.783 61.755C161.253 58.5632 164.263 53.175 164.637 52.5L164.717 52.5715L180.942 60.8912C182.046 61.7467 183.43 62.2901 184.907 62.4471L184.917 64.2203Z" fill="#2E2E2E"/>
<path d="M152.248 47.8036L151.878 48.6616L151.524 49.4939L151.33 49.9658L151.303 50.0373L151.267 50.1231C151.179 50.3376 150.996 50.5138 150.758 50.613C150.519 50.712 150.245 50.7262 149.994 50.6522L144.122 49.1078H144.096L135.659 46.8884L137.85 42.4526L138.815 40.4992C138.938 40.2535 139.164 40.0559 139.448 39.9449C139.732 39.8337 140.054 39.8174 140.351 39.8986L151.978 43.0446C151.601 42.9711 151.218 42.9242 150.832 42.9044C150.558 42.8904 150.284 42.9288 150.029 43.0163C149.775 43.1038 149.546 43.2385 149.359 43.4107C149.183 43.5825 149.055 43.7876 148.988 44.009C148.92 44.2303 148.913 44.4623 148.969 44.6862C149.143 45.2611 149.488 45.7873 149.971 46.2135C150.017 46.2592 150.064 46.2993 150.118 46.345C150.549 46.7551 151.049 47.1086 151.601 47.3946C151.601 47.3946 151.617 47.3946 151.637 47.4175C151.83 47.5582 152.035 47.6872 152.248 47.8036Z" fill="#DB00FF"/>
<path d="M144.249 49.1079C144.249 49.2624 144.249 49.4282 144.269 49.5827C144.293 50.2671 144.378 50.9486 144.523 51.6219C144.577 51.911 144.649 52.1976 144.74 52.4799C144.787 52.6343 144.83 52.783 144.894 52.9375C144.957 53.0919 145.024 53.2807 145.104 53.4523C145.13 53.5157 145.16 53.5778 145.194 53.6381" stroke="#343434" stroke-width="3.7" stroke-miterlimit="10"/>
<path d="M154.921 48.379C154.587 48.3332 154.253 48.2789 153.919 48.2074C153.585 48.1359 153.337 48.0586 153.057 47.9671C152.61 47.8178 152.18 47.6322 151.774 47.4123C151.774 47.4123 151.748 47.4123 151.738 47.3894C151.127 47.0702 150.579 46.6715 150.111 46.2082C149.628 45.7824 149.282 45.2558 149.109 44.681C149.048 44.4571 149.051 44.224 149.12 44.0015C149.187 43.7792 149.318 43.5745 149.5 43.4054C149.687 43.2333 149.916 43.0988 150.17 43.0113C150.425 42.9238 150.699 42.8855 150.973 42.8992C151.487 42.9338 151.997 43.0019 152.499 43.1023C153.217 43.211 153.935 43.311 154.647 43.4369C156.465 43.7023 158.178 44.3464 159.637 45.313C161.337 46.5343 162.542 48.1854 163.08 50.0292C163.387 50.9861 164.009 51.8476 164.87 52.5117L185.121 62.8363" stroke="#343434" stroke-width="3.7" stroke-miterlimit="10"/>
<path d="M144.273 49.5796C144.273 49.5796 144.921 52.6998 149.987 52.614C150.38 52.6017 150.759 52.4868 151.073 52.2849C151.387 52.0827 151.621 51.8029 151.744 51.4835C151.867 51.1637 151.873 50.8197 151.761 50.4974C151.648 50.1748 151.424 49.8896 151.116 49.6797L151.049 49.6368" stroke="#343434" stroke-width="3.7" stroke-miterlimit="10"/>
<path d="M145.088 53.4268C145.088 53.4268 147.569 55.6376 150.044 54.6823C152.232 53.8243 150.735 52.1455 150.735 52.1455" stroke="#343434" stroke-width="3.7" stroke-miterlimit="10"/>
<path d="M151.858 49.537L151.677 49.4912" stroke="#343434" stroke-width="3.7" stroke-miterlimit="10"/>
<path d="M125.659 170.395C124.606 170.524 123.539 170.55 122.479 170.472L120.809 170.357L125.659 170.395Z" fill="#D7E8F0"/>
<path d="M144.43 105.751L138.2 159.233C137.874 162.028 136.459 164.647 134.184 166.67C131.909 168.693 128.905 170.002 125.655 170.387C124.602 170.516 123.535 170.542 122.476 170.464L120.806 170.35L44.5969 165.079C42.3885 164.931 40.2493 164.351 38.3445 163.383C37.4233 161.725 36.9473 159.911 36.9517 158.075V156.831L106.968 161.693L108.638 161.81C109.698 161.885 110.764 161.859 111.818 161.733C115.066 161.347 118.069 160.037 120.344 158.014C122.619 155.991 124.035 153.373 124.363 150.579L129.373 107.636L144.43 105.751Z" fill="#DB00FF"/>
<path d="M129.366 107.604L124.356 150.547C124.028 153.341 122.613 155.96 120.337 157.983C118.063 160.005 115.06 161.315 111.811 161.701C110.758 161.827 109.692 161.853 108.631 161.778L106.961 161.661L36.945 156.799V129.826C36.9467 126.813 38.2155 123.902 40.5191 121.624C42.8231 119.347 46.0078 117.856 49.49 117.425L129.366 107.604Z" fill="#D7E8F0"/>
<path d="M131.47 175.86C130.416 175.989 129.348 176.015 128.287 175.938L126.617 175.823L131.47 175.86Z" fill="#D7E8F0"/>
<path d="M125.699 170.395L133.167 184.026C133.875 185.318 134.19 186.743 134.083 188.168C133.977 189.593 133.452 190.972 132.558 192.177C131.664 193.382 130.429 194.375 128.968 195.062C127.507 195.75 125.867 196.111 124.199 196.112H118.855C118.648 196.112 118.443 196.146 118.252 196.214C118.061 196.281 117.887 196.38 117.741 196.506C117.594 196.631 117.478 196.779 117.399 196.943C117.319 197.107 117.279 197.282 117.279 197.459V204.106C117.279 204.698 117.004 205.266 116.515 205.685C116.026 206.104 115.362 206.339 114.67 206.339C113.978 206.339 113.315 206.104 112.826 205.685C112.337 205.266 112.062 204.698 112.062 204.106V197.456C112.062 197.279 112.022 197.103 111.942 196.94C111.863 196.776 111.747 196.627 111.601 196.502C111.454 196.377 111.28 196.278 111.089 196.21C110.897 196.143 110.692 196.108 110.485 196.109H51.5208C51.314 196.109 51.1093 196.144 50.9183 196.211C50.7272 196.279 50.5535 196.378 50.4076 196.503C50.2613 196.628 50.1454 196.777 50.0666 196.94C49.9877 197.104 49.9473 197.279 49.9477 197.456V204.103C49.9236 204.682 49.638 205.23 49.1511 205.632C48.6641 206.035 48.0141 206.259 47.3374 206.259C46.6608 206.259 46.0108 206.035 45.5238 205.632C45.0372 205.23 44.7513 204.682 44.7272 204.103V197.456C44.7276 197.279 44.6872 197.104 44.6083 196.94C44.5295 196.777 44.4136 196.628 44.2673 196.503C44.1214 196.378 43.9477 196.279 43.7566 196.211C43.5656 196.144 43.3608 196.109 43.1541 196.109H33.9891C33.4374 196.091 32.9153 195.89 32.5326 195.549C32.1498 195.208 31.936 194.753 31.936 194.28C31.936 193.807 32.1498 193.353 32.5326 193.012C32.9153 192.671 33.4374 192.47 33.9891 192.451H122.272C123.385 192.45 124.48 192.209 125.455 191.751C126.431 191.292 127.257 190.631 127.855 189.827C128.454 189.024 128.807 188.105 128.882 187.154C128.957 186.203 128.751 185.251 128.284 184.386L120.692 170.372" fill="#2E2E2E"/>
<path d="M122.476 170.472L44.597 165.081C40.934 164.828 37.5169 163.404 35.0252 161.091C32.5336 158.778 31.1498 155.747 31.1501 152.6V124.361C31.1511 121.348 32.42 118.437 34.724 116.16C37.0282 113.884 40.2129 112.395 43.6952 111.965L138.999 100.239L148.394 89.0997C148.646 88.872 148.949 88.691 149.286 88.5677C149.623 88.4445 149.985 88.3821 150.351 88.3838C150.717 88.3858 151.079 88.4522 151.414 88.5786C151.749 88.7053 152.05 88.8895 152.299 89.1197C152.726 89.521 152.973 90.0395 152.995 90.5823C153.017 91.1251 152.813 91.6571 152.419 92.0827L144.69 103.463L138.207 159.233C137.827 162.497 135.966 165.503 133.024 167.605C130.082 169.707 126.295 170.737 122.476 170.472Z" stroke="#343434" stroke-width="3.7" stroke-miterlimit="10"/>
<path d="M122.816 204.712C122.819 205.992 122.41 207.249 121.633 208.343C120.856 209.437 119.741 210.326 118.412 210.913C117.083 211.5 115.59 211.761 114.099 211.669C112.607 211.576 111.174 211.133 109.958 210.388C108.741 209.643 107.788 208.625 107.204 207.446C106.619 206.268 106.426 204.974 106.645 203.707C106.864 202.44 107.486 201.25 108.444 200.266C109.402 199.283 110.659 198.545 112.075 198.134V204.105C112.075 204.698 112.35 205.266 112.839 205.685C113.328 206.104 113.992 206.339 114.684 206.339C115.375 206.339 116.039 206.104 116.528 205.685C117.017 205.266 117.292 204.698 117.292 204.105V198.131C118.902 198.594 120.302 199.478 121.293 200.659C122.284 201.84 122.817 203.257 122.816 204.712Z" stroke="#343434" stroke-width="3.7" stroke-miterlimit="10"/>
<path d="M55.472 204.712C55.4747 205.992 55.0652 207.248 54.288 208.342C53.5108 209.435 52.3966 210.324 51.0672 210.91C49.7383 211.497 48.246 211.758 46.755 211.665C45.2637 211.571 43.8315 211.128 42.6157 210.383C41.4 209.637 40.4481 208.62 39.8642 207.441C39.2807 206.262 39.088 204.969 39.3078 203.702C39.5276 202.436 40.1508 201.246 41.1094 200.264C42.068 199.281 43.3245 198.544 44.7406 198.134V204.105C44.7416 204.698 45.0172 205.266 45.5068 205.685C45.9965 206.104 46.6605 206.339 47.3525 206.339C48.0442 206.339 48.7079 206.104 49.1972 205.685C49.6862 205.266 49.961 204.698 49.961 204.105V198.131C51.5696 198.594 52.967 199.479 53.956 200.66C54.945 201.841 55.4754 203.258 55.472 204.712Z" stroke="#343434" stroke-width="3.7" stroke-miterlimit="10"/>
<path d="M125.699 170.395L133.167 184.026C133.875 185.318 134.19 186.743 134.083 188.168C133.977 189.593 133.452 190.972 132.558 192.177C131.664 193.382 130.429 194.375 128.968 195.062C127.507 195.75 125.867 196.111 124.199 196.112H118.855C118.648 196.112 118.443 196.146 118.252 196.214C118.061 196.281 117.887 196.38 117.741 196.506C117.594 196.631 117.478 196.779 117.399 196.943C117.319 197.107 117.279 197.282 117.279 197.459V204.106C117.279 204.698 117.004 205.266 116.515 205.685C116.026 206.104 115.362 206.339 114.67 206.339C113.978 206.339 113.315 206.104 112.826 205.685C112.337 205.266 112.062 204.698 112.062 204.106V197.456C112.062 197.279 112.022 197.103 111.942 196.94C111.863 196.776 111.747 196.627 111.601 196.502C111.454 196.377 111.28 196.278 111.089 196.21C110.897 196.143 110.692 196.108 110.485 196.109H51.5208C51.314 196.109 51.1093 196.144 50.9183 196.211C50.7272 196.279 50.5535 196.378 50.4076 196.503C50.2613 196.628 50.1454 196.777 50.0666 196.94C49.9877 197.104 49.9473 197.279 49.9477 197.456V204.103C49.9236 204.682 49.638 205.23 49.1511 205.632C48.6641 206.035 48.0141 206.259 47.3374 206.259C46.6608 206.259 46.0108 206.035 45.5238 205.632C45.0372 205.23 44.7513 204.682 44.7272 204.103V197.456C44.7276 197.279 44.6872 197.104 44.6083 196.94C44.5295 196.777 44.4136 196.628 44.2673 196.503C44.1214 196.378 43.9477 196.279 43.7566 196.211C43.5656 196.144 43.3608 196.109 43.1541 196.109H33.9891C33.4374 196.091 32.9153 195.89 32.5326 195.549C32.1498 195.208 31.936 194.753 31.936 194.28C31.936 193.807 32.1498 193.353 32.5326 193.012C32.9153 192.671 33.4374 192.47 33.9891 192.451H122.272C123.385 192.45 124.48 192.209 125.455 191.751C126.431 191.292 127.257 190.631 127.855 189.827C128.454 189.024 128.807 188.105 128.882 187.154C128.957 186.203 128.751 185.251 128.284 184.386L120.692 170.372" stroke="#343434" stroke-width="3.7" stroke-miterlimit="10"/>
<path d="M152.439 47.7246L151.664 49.4921L151.454 49.9668L151.39 50.1241C151.303 50.3343 151.123 50.5074 150.889 50.6063C150.655 50.705 150.386 50.7219 150.138 50.6532L144.249 49.1088L135.298 46.7522C135.132 46.7081 134.979 46.6349 134.848 46.5374C134.717 46.4399 134.611 46.3197 134.538 46.185C134.464 46.0506 134.424 45.9042 134.421 45.7555C134.417 45.607 134.45 45.4592 134.516 45.3222L137.79 38.6813C137.913 38.4359 138.139 38.2385 138.423 38.1276C138.707 38.0166 139.028 38 139.326 38.0806L153.551 41.9274C153.721 41.9714 153.878 42.046 154.012 42.1459C154.146 42.2457 154.253 42.3689 154.327 42.5068C154.401 42.6449 154.441 42.7951 154.442 42.9469C154.444 43.0991 154.407 43.2495 154.336 43.3888" stroke="#343434" stroke-width="3.7" stroke-miterlimit="10"/>
<path d="M149.493 44.1347L136.831 40.6255" stroke="#343434" stroke-width="3.7" stroke-miterlimit="10"/>
<path d="M164.884 52.5107C164.884 52.5107 160.014 61.5798 155.295 63.7334C155.26 63.7483 155.231 63.7703 155.21 63.798C155.189 63.8255 155.177 63.8572 155.174 63.8901C155.172 63.923 155.181 63.9556 155.198 63.9851C155.216 64.0142 155.242 64.0391 155.275 64.0566L177.402 76.5633" stroke="#343434" stroke-width="3.7" stroke-miterlimit="10"/>
<path d="M155.672 59.6333C155.672 59.6333 152.94 63.0424 154.957 63.8775" stroke="#343434" stroke-width="3.7" stroke-miterlimit="10"/>
<path d="M157.185 81.884C157.185 81.884 156.066 81.9269 158.311 84.3465C160.555 86.766 161.317 91.3706 159.79 94.6625C159.79 94.6625 159.723 95.5205 163.718 94.4509C167.713 93.3812 181.724 90.8787 181.724 90.8787C181.724 90.8787 183.912 89.892 183.234 92.3917C182.556 94.8913 181.23 104.086 179.844 106.737C178.457 109.389 177.108 112.017 181.878 113.012C186.647 114.008 212.666 116.101 212.666 116.101C212.666 116.101 230.368 119.462 230.181 112.5C229.994 105.539 228.694 85.499 228.694 85.499C228.694 85.499 228.801 70.0293 229.994 60.883C229.994 60.883 233.107 37.6455 223.851 35.4977C214.596 33.3498 211.453 35.6349 209.105 36.7189C206.757 37.8028 186.059 47.0664 184.93 66.1769C184.93 66.1769 184.854 73.5614 183.107 74.6625C181.36 75.7636 160.919 81.8182 157.185 81.884Z" fill="#2E2E2E"/>
<path d="M190.365 203.774L188.027 211.665H159.56C158.935 211.661 158.336 211.45 157.89 211.075C157.591 210.819 157.378 210.498 157.273 210.147C157.168 209.796 157.175 209.427 157.293 209.079C157.411 208.731 157.636 208.416 157.944 208.168C158.252 207.919 158.633 207.746 159.045 207.666L176.106 203.774C176.106 203.774 185.982 206.745 190.365 203.774Z" fill="#2E2E2E"/>
<path d="M223.444 116.538C223.227 116.538 223 116.555 222.776 116.555C221.885 121.48 220.895 126.389 219.803 131.281C207.051 128.836 189.433 133.172 189.433 133.172L189.803 134.888C186.898 135.022 186.006 134.104 186.006 134.104L185.365 133.764L186.964 121.675L186.657 120.245V120.199C186.467 119.358 186.286 118.509 186.113 117.668L186.049 117.359C185.795 116.058 185.558 114.751 185.348 113.449L185.558 113.475C185.632 113.475 185.702 113.498 185.785 113.504L185.966 113.529C186.123 113.544 186.276 113.566 186.43 113.584C186.764 113.621 187.195 113.675 187.676 113.738C187.866 113.738 188.067 113.778 188.277 113.81C195.518 114.67 214.383 116.773 223.444 116.538Z" fill="#DB00FF"/>
<path d="M204.373 156.321L204.329 156.47L190.365 203.774L188.027 211.665H159.56C158.935 211.661 158.336 211.45 157.89 211.076C157.591 210.819 157.378 210.498 157.274 210.147C157.169 209.795 157.176 209.426 157.294 209.078C157.411 208.73 157.636 208.415 157.944 208.166C158.252 207.918 158.633 207.744 159.045 207.664L176.106 203.774L185.365 133.764L186.964 121.675" stroke="#343434" stroke-width="3.7" stroke-miterlimit="10"/>
<path d="M160.522 91.0844C159.52 91.1245 158.959 91.133 158.959 91.133C157.957 91.1931 156.985 90.8671 156.023 90.4238C153.451 89.2083 150.986 87.0776 148.514 88.8679C146.915 90.0119 145.595 93.2323 142.95 92.1827C140.642 91.2646 140.732 89.3227 141.113 87.5437C141.587 85.3415 143.668 83.3796 146.123 83.0278C149.503 82.5388 152.977 82.5159 156.377 82.0096C163.225 80.9371 169.928 79.2678 176.38 77.0275C183.544 74.5822 191.36 72.0626 196.65 67.0404C202.933 61.0945 206.924 53.3124 209.105 45.5732" stroke="#343434" stroke-width="3.7" stroke-miterlimit="10"/>
<path d="M195.896 13.5978C195.896 13.5978 196.52 4.69463 206.226 2.60969C215.932 0.524748 221.724 10.1801 222.161 16.3777C222.599 22.5754 222.161 26.851 227.262 28.8016C227.262 28.8016 242.001 28.6471 247.432 40.2416C247.432 40.2416 248.167 45.9244 247.866 49.5823C247.565 53.2403 252.896 56.4463 255.799 57.5732C258.701 58.7 263.751 63.2932 262.378 70.7949C261.006 78.2967 249.546 81.7945 249.546 81.7945C249.546 81.7945 239.753 84.277 233.848 80.1328C227.579 75.737 229.352 67.6976 229.352 67.6976C229.352 67.6976 232.736 41.5515 226.577 37.2557C223.187 34.8905 221.647 35.105 219.252 33.858C216.731 32.5453 215.829 32.142 214.984 31.2183C213.34 29.4079 210.428 26.6737 212.536 20.2244C214.643 13.7751 212.536 17.0269 210.532 16.1175C210.532 16.1175 208.073 12.8685 204.363 15.1651C200.652 17.4617 201.557 11.8589 201.557 11.8589L199.927 13.7351C199.927 13.7351 197.379 14.1727 195.896 13.5978Z" fill="#DB00FF"/>
<path d="M193.611 16.676C193.521 12.5204 195.331 7.8529 199.102 5.08442C199.614 4.7069 200.164 4.36913 200.745 4.07484C204.82 2.01278 210.481 2.19868 214.536 4.20354C216.693 5.30035 218.491 6.84446 219.767 8.69374L219.8 8.74522C221.371 11.0627 222.187 13.699 222.161 16.3786C222.181 19.862 222.205 24.5896 224.817 27.4811C226.467 29.3115 228.661 28.7967 231.076 29.1084C234.346 29.5291 237.447 30.6234 240.114 32.2973C243.714 34.5653 246.714 37.9487 247.542 41.7696C248.34 45.4476 246.781 49.5946 249.095 52.9951C250.792 55.4805 254.018 56.6159 256.75 58.0659C262.235 61.0117 263.364 66.7203 261.627 71.7424C259.817 76.9791 255.561 80.1966 249.546 81.8011C249.546 81.8011 229.219 86.0911 228.968 70.8358" stroke="#343434" stroke-width="3.7" stroke-miterlimit="10"/>
<path d="M201.273 11.5962C201.063 12.8203 200.194 13.95 198.648 14.2875C196.904 14.6678 195.976 16.1207 195.488 17.5822C194.79 19.7263 194.971 22.01 195.999 24.0544C196.951 25.9763 198.651 28.1728 201.524 28.5245C206.781 29.1652 209.396 27.269 209.396 27.269" stroke="#343434" stroke-width="3.7" stroke-miterlimit="10"/>
<path d="M205.652 18.137C206.152 18.137 206.557 17.7901 206.557 17.362C206.557 16.9338 206.152 16.5869 205.652 16.5869C205.152 16.5869 204.747 16.9338 204.747 17.362C204.747 17.7901 205.152 18.137 205.652 18.137Z" fill="#343434"/>
<path d="M197.713 17.6287C198.213 17.6287 198.618 17.2815 198.618 16.8537C198.618 16.4255 198.213 16.0786 197.713 16.0786C197.213 16.0786 196.807 16.4255 196.807 16.8537C196.807 17.2815 197.213 17.6287 197.713 17.6287Z" fill="#343434"/>
<path d="M201.273 11.5962C201.074 12.3318 201.105 13.0991 201.363 13.8213C201.403 13.9382 201.454 14.0521 201.517 14.1616C202.145 15.4229 203.604 16.4296 206.193 16.3037C211.814 16.0378 213.818 15.7318 213.361 17.9425C213.171 18.7247 212.898 19.4906 212.546 20.2305C211.928 21.6348 211.497 24.0458 212.131 26.6712C212.863 29.74 214.6 32.8746 220.455 34.6192" stroke="#343434" stroke-width="3.7" stroke-miterlimit="10"/>
<path d="M201.764 17.5508C201.764 17.5508 200.815 20.5195 200.912 20.957C201.009 21.3946 202.222 21.0543 202.222 21.0543" stroke="#343434" stroke-width="3.7" stroke-miterlimit="10"/>
<path d="M202.432 23.7747C204.246 24.6126 206.35 24.0835 207.171 22.6821" stroke="#343434" stroke-width="3.7" stroke-miterlimit="10"/>
<path d="M210.096 20.4433C211.656 19.0282 211.549 16.7717 209.856 15.4034C208.163 14.0349 205.526 14.073 203.966 15.4878C202.406 16.9029 202.514 19.1595 204.207 20.5277C205.899 21.8962 208.536 21.8582 210.096 20.4433Z" stroke="#343434" stroke-width="3.7" stroke-miterlimit="10"/>
<path d="M199.566 19.6156C201.126 18.2004 201.018 15.9442 199.325 14.5757C197.632 13.2074 194.996 13.2452 193.435 14.6603C191.876 16.0755 191.983 18.3317 193.676 19.7002C195.369 21.0684 198.006 21.0307 199.566 19.6156Z" stroke="#343434" stroke-width="3.7" stroke-miterlimit="10"/>
<path d="M196.42 14.6683C196.51 14.664 196.6 14.664 196.691 14.6683C197.461 14.7292 198.174 15.045 198.678 15.5486C199.182 16.052 199.437 16.7035 199.389 17.3653C199.347 17.9727 199.033 18.5427 198.513 18.958C197.994 19.373 197.308 19.6015 196.597 19.5961C196.507 19.5961 196.417 19.5961 196.327 19.5961C195.556 19.5334 194.845 19.2171 194.341 18.7141C193.838 18.211 193.582 17.5603 193.628 16.8991C193.671 16.2916 193.984 15.7214 194.504 15.3064C195.024 14.8911 195.709 14.6626 196.42 14.6683ZM196.42 14.1392C195.554 14.1352 194.718 14.4152 194.084 14.9211C193.45 15.4271 193.066 16.1215 193.01 16.8619C192.953 17.6613 193.261 18.4484 193.87 19.0567C194.478 19.6653 195.339 20.0471 196.27 20.1223C196.38 20.1223 196.49 20.1366 196.604 20.1366C197.471 20.1395 198.306 19.8592 198.94 19.3527C199.574 18.8462 199.958 18.1518 200.014 17.411C200.07 16.6117 199.761 15.8249 199.154 15.2166C198.545 14.6085 197.685 14.2261 196.754 14.1506C196.644 14.1506 196.534 14.1506 196.42 14.1506V14.1392Z" fill="white"/>
<path d="M202.87 17.6374L200.658 17.4629" stroke="#343434" stroke-width="3.7" stroke-miterlimit="10"/>
<path d="M206.938 15.4203H207.215C208.009 15.4844 208.743 15.8098 209.262 16.3286C209.781 16.8471 210.045 17.5184 209.997 18.2002C209.949 18.8243 209.624 19.4091 209.089 19.8344C208.554 20.26 207.849 20.4939 207.118 20.4882C207.025 20.4882 206.934 20.4882 206.841 20.4882C206.047 20.4241 205.312 20.0984 204.793 19.5796C204.274 19.0611 204.011 18.3901 204.059 17.7083C204.106 17.084 204.43 16.4985 204.966 16.0729C205.502 15.6474 206.207 15.4137 206.938 15.4203ZM206.938 14.8912C206.048 14.8858 205.19 15.172 204.538 15.6909C203.887 16.2097 203.492 16.9224 203.434 17.6826C203.376 18.5014 203.692 19.3076 204.315 19.9311C204.938 20.5543 205.82 20.9458 206.774 21.023C206.888 21.023 206.998 21.0373 207.108 21.0373C207.996 21.0402 208.853 20.7528 209.502 20.2334C210.151 19.7143 210.545 19.0022 210.602 18.2431C210.665 17.4229 210.351 16.6143 209.727 15.99C209.102 15.3657 208.218 14.9756 207.262 14.9026C207.148 14.9026 207.038 14.9026 206.928 14.9026L206.938 14.8912Z" fill="white"/>
<path d="M199.131 19.2644C200.469 18.0504 200.377 16.1141 198.924 14.9401C197.471 13.7658 195.209 13.7981 193.87 15.0122C192.532 16.2263 192.624 18.1622 194.077 19.3365C195.53 20.5108 197.792 20.4785 199.131 19.2644Z" fill="#DB00FF"/>
<path d="M209.677 20.1002C211.022 18.8804 210.929 16.9353 209.469 15.7555C208.01 14.5758 205.737 14.6084 204.392 15.8282C203.047 17.048 203.14 18.9931 204.599 20.1728C206.059 21.3526 208.332 21.32 209.677 20.1002Z" fill="#DB00FF"/>
<path d="M205.652 38.1796L204.423 33.6264L203.087 28.7158" stroke="#343434" stroke-width="3.7" stroke-miterlimit="10"/>
<path d="M264.98 191.433L245.481 210.953C245.095 211.342 244.552 211.592 243.96 211.653C243.368 211.714 242.771 211.581 242.288 211.282L241.754 210.947C241.306 210.667 240.986 210.262 240.85 209.801C240.713 209.34 240.77 208.854 241.009 208.425L248.671 194.771C248.671 194.771 260.862 195.071 260.762 185.396C263.524 190.284 264.98 191.433 264.98 191.433Z" fill="#2E2E2E"/>
<path d="M232.028 179.012L231.891 178.894L226.764 174.722L226.517 174.527L205.101 157.081V157.064L205.071 157.041L204.346 156.469L197.836 151.17C194.271 148.263 191.872 144.465 190.982 140.319L189.803 134.908L189.429 133.192L186.964 121.703L186.657 120.273V120.227C186.467 119.386 186.286 118.537 186.113 117.696L186.049 117.387" stroke="#343434" stroke-width="3.7" stroke-miterlimit="10"/>
<path d="M185.338 113.458C185.548 114.759 185.785 116.066 186.039 117.368L186.103 117.677C186.276 118.517 186.457 119.367 186.647 120.208V120.253" stroke="#343434" stroke-width="3.7" stroke-linejoin="round"/>
<path d="M205.051 157.053L205.078 157.076L205.098 157.093" stroke="#343434" stroke-width="3.7" stroke-linejoin="round"/>
<path d="M226.513 174.528L226.761 174.722C228.613 176.209 230.322 177.6 231.887 178.895L232.021 179.012C252.559 196.003 248.668 194.771 248.668 194.771L241.002 208.424C240.764 208.854 240.709 209.341 240.845 209.801C240.982 210.262 241.302 210.667 241.75 210.947L242.285 211.281C242.768 211.581 243.365 211.713 243.957 211.652C244.548 211.591 245.092 211.342 245.478 210.953L264.973 191.433C264.973 191.433 263.521 190.289 260.758 185.396C254.122 173.618 239.95 151.885 220.441 140.559C219.715 140.142 219.15 139.55 218.816 138.858C218.483 138.166 218.396 137.404 218.567 136.67C218.942 135.12 219.296 133.57 219.643 132.014C219.696 131.773 219.75 131.53 219.797 131.29C220.885 126.394 221.876 121.485 222.769 116.564" stroke="#343434" stroke-width="3.7" stroke-linejoin="round"/>
<path d="M184.062 74.296C184.363 70.578 184.73 67.2118 185.127 64.286C185.181 63.8427 185.244 63.4051 185.298 62.9761C186.113 56.6012 190.151 50.8468 195.117 46.1822C200.027 41.5719 206.276 37.0902 213.367 35.2741C215.651 34.6578 218.056 34.4353 220.441 34.6192C222.079 34.7879 223.643 35.2947 225.001 36.0964C226.358 36.898 227.468 37.9705 228.234 39.2209C229.184 40.8197 229.791 42.5517 230.024 44.3346C230.024 44.3575 230.024 44.3804 230.024 44.4061C230.441 47.2661 230.204 50.2663 230.241 53.1062C230.304 59.0322 229.713 64.9466 228.948 70.8382" stroke="#343434" stroke-width="3.7" stroke-linejoin="round"/>
<path d="M183.468 89.1172V89.1079" stroke="#343434" stroke-width="3.7" stroke-linejoin="round"/>
<path d="M156.387 81.998C159.55 85.1669 161.52 89.7916 160.164 93.9271C159.83 94.9081 158.621 96.238 157.522 95.0282C157.244 94.6859 157.058 94.2952 156.978 93.8842C156.667 92.7202 156.26 91.5762 156.023 90.395" stroke="#343434" stroke-width="3.7" stroke-miterlimit="10"/>
<path d="M158.815 95.4972C184.65 89.6514 221.233 87.6723 229.112 56.83C230.143 52.7234 230.452 48.5077 230.027 44.3232" stroke="#343434" stroke-width="3.7" stroke-miterlimit="10"/>
<path d="M183.394 90.5098C182.883 97.8886 180.184 105.954 178.695 109.958C178.578 110.268 178.542 110.597 178.588 110.92C178.634 111.244 178.762 111.555 178.962 111.833C179.163 112.11 179.431 112.347 179.748 112.527C180.066 112.707 180.426 112.826 180.802 112.875C182.021 113.038 183.564 113.233 185.338 113.447L185.548 113.473C185.622 113.473 185.692 113.496 185.775 113.501L185.956 113.527C186.113 113.541 186.266 113.564 186.42 113.581C186.821 113.636 187.238 113.682 187.666 113.736C187.856 113.736 188.057 113.776 188.267 113.807C198.621 115.066 214.045 116.71 222.773 116.547C223 116.547 223.227 116.547 223.441 116.53L224.109 116.507L224.757 116.476C227.141 116.327 228.765 115.978 229.229 115.363C232.235 111.471 226.657 89.0998 229.329 67.687" stroke="#343434" stroke-width="3.7" stroke-miterlimit="10"/>
<path d="M252.876 211.668H8.31122" stroke="#343434" stroke-width="3.7" stroke-linejoin="round"/>
<path d="M19.6438 146.091C19.6438 146.091 -13.4723 179.35 19.6438 211.322" stroke="#CCDDE2" stroke-width="3.7" stroke-miterlimit="10"/>
</svg>
