<svg width="59" height="48" viewBox="0 0 59 48" fill="none" xmlns="http://www.w3.org/2000/svg">
<path d="M24.4611 23.7613C30.775 23.7613 35.8934 18.6429 35.8934 12.329C35.8934 6.01509 30.775 0.896667 24.4611 0.896667C18.1472 0.896667 13.0288 6.01509 13.0288 12.329C13.0288 18.6429 18.1472 23.7613 24.4611 23.7613Z" fill="#F5E48F"/>
<path opacity="0.6" d="M35.6073 12.3262C35.6073 14.9716 34.6901 17.5351 33.0119 19.5801C31.3336 21.625 28.9982 23.0247 26.4036 23.5407C23.8091 24.0566 21.1158 23.657 18.7829 22.4097C16.45 21.1625 14.6217 19.1449 13.6096 16.7008C14.3632 16.2769 15.1989 16.0197 16.0603 15.9464C16.9218 15.873 17.7889 15.9854 18.6033 16.2758C19.8117 16.7163 20.8543 17.5408 22.0712 17.9602C24.7048 18.8682 27.8795 17.5224 29.1785 15.0589C30.4776 12.5953 29.8869 9.31862 27.888 7.36932C26.8694 6.37767 25.5675 5.71751 24.2344 5.21885C21.7237 4.28724 19.0537 3.86069 16.3777 3.96371C18.0064 2.44485 20.0431 1.43473 22.2379 1.0574C24.4326 0.680067 26.6898 0.951962 28.7322 1.83969C30.7746 2.72741 32.5132 4.19231 33.7345 6.05447C34.9559 7.91663 35.6068 10.095 35.6073 12.3219V12.3262Z" fill="#DEC378"/>
<path opacity="0.5" d="M24.1806 2.09229C27.1031 2.09214 29.9147 3.21125 32.0377 5.21968C34.1608 7.22811 35.434 9.97334 35.5959 12.8914C35.6072 12.6817 35.6143 12.4664 35.6143 12.2581C35.6143 9.22608 34.4099 6.31823 32.2659 4.17425C30.1219 2.03028 27.2141 0.825806 24.182 0.825806C21.15 0.825806 18.2421 2.03028 16.0981 4.17425C13.9542 6.31823 12.7497 9.22608 12.7497 12.2581C12.7497 12.4706 12.7497 12.6831 12.7681 12.8914C12.93 9.97383 14.2028 7.22901 16.3253 5.22065C18.4477 3.2123 21.2586 2.09287 24.1806 2.09229Z" fill="#E1D2D5"/>
<path opacity="0.3" d="M24.1807 22.1761C21.2586 22.1762 18.4474 21.0575 16.3245 19.0497C14.2015 17.0419 12.9279 14.2973 12.7654 11.3798C12.754 11.5895 12.7469 11.8048 12.7469 12.0131C12.7469 15.0451 13.9514 17.953 16.0954 20.0969C18.2394 22.2409 21.1472 23.4454 24.1793 23.4454C27.2113 23.4454 30.1192 22.2409 32.2631 20.0969C34.4071 17.953 35.6116 15.0451 35.6116 12.0131C35.6116 11.8006 35.6116 11.5881 35.5932 11.3798C35.4306 14.2969 34.1575 17.041 32.0351 19.0487C29.9127 21.0565 27.1022 22.1755 24.1807 22.1761Z" fill="white"/>
<path d="M16.3904 13.9043H13.1166V13.0599H15.5461V11.1928H16.3904V13.9043Z" fill="#426572"/>
<path d="M15.9414 11.7014C15.6845 11.7014 15.4333 11.6252 15.2197 11.4825C15.006 11.3397 14.8395 11.1368 14.7412 10.8995C14.6429 10.6621 14.6172 10.4009 14.6673 10.1489C14.7174 9.89691 14.8411 9.66544 15.0228 9.48376C15.2045 9.30208 15.436 9.17836 15.688 9.12823C15.94 9.07811 16.2012 9.10383 16.4385 9.20216C16.6759 9.30048 16.8788 9.46698 17.0215 9.68061C17.1643 9.89424 17.2405 10.1454 17.2405 10.4023C17.2401 10.7468 17.1031 11.077 16.8596 11.3205C16.616 11.564 16.2858 11.701 15.9414 11.7014ZM15.9414 9.94901C15.8515 9.94901 15.7635 9.97568 15.6888 10.0256C15.614 10.0756 15.5557 10.1466 15.5213 10.2297C15.4869 10.3128 15.4778 10.4043 15.4954 10.4925C15.5129 10.5807 15.5562 10.6617 15.6198 10.7253C15.6834 10.7889 15.7645 10.8322 15.8527 10.8498C15.9409 10.8673 16.0323 10.8583 16.1154 10.8239C16.1985 10.7895 16.2695 10.7312 16.3195 10.6564C16.3695 10.5816 16.3961 10.4937 16.3961 10.4038C16.3963 10.3439 16.3847 10.2846 16.3619 10.2293C16.3392 10.174 16.3057 10.1237 16.2635 10.0813C16.2212 10.0389 16.171 10.0053 16.1157 9.98234C16.0605 9.9594 16.0012 9.94759 15.9414 9.94759V9.94901Z" fill="#426572"/>
<path d="M26.0902 4.54592H23.0147V0.818726H23.859V3.7016H26.0902V4.54592Z" fill="#426572"/>
<path d="M27.0068 5.53759C26.7225 5.53731 26.4446 5.45274 26.2083 5.29457C25.9721 5.13641 25.788 4.91174 25.6794 4.64897C25.5707 4.38621 25.5425 4.09714 25.5981 3.81831C25.6538 3.53948 25.7908 3.2834 25.992 3.08245C26.1931 2.8815 26.4493 2.7447 26.7282 2.68933C27.0071 2.63396 27.2961 2.66252 27.5588 2.77139C27.8215 2.88027 28.0459 3.06456 28.2039 3.30099C28.3618 3.53742 28.4461 3.81537 28.4461 4.0997C28.4457 4.48118 28.2939 4.84691 28.024 5.11653C27.7542 5.38614 27.3883 5.53759 27.0068 5.53759ZM27.0068 3.50471C26.8894 3.50471 26.7746 3.53952 26.677 3.60474C26.5794 3.66997 26.5033 3.76267 26.4584 3.87113C26.4135 3.97959 26.4017 4.09894 26.4246 4.21408C26.4475 4.32922 26.5041 4.43499 26.5871 4.518C26.6701 4.60101 26.7758 4.65755 26.891 4.68045C27.0061 4.70335 27.1255 4.6916 27.2339 4.64667C27.3424 4.60175 27.4351 4.52567 27.5003 4.42805C27.5656 4.33044 27.6004 4.21568 27.6004 4.09828C27.6 3.94097 27.5373 3.79021 27.4261 3.67897C27.3149 3.56774 27.1641 3.50508 27.0068 3.50471Z" fill="#426572"/>
<path d="M32.7684 15.2331H31.9241V12.4749H35.256V13.3192H32.7684V15.2331Z" fill="#426572"/>
<path d="M32.3745 17.3595C32.1142 17.3595 31.8597 17.2823 31.6433 17.1377C31.4269 16.9931 31.2582 16.7875 31.1586 16.5471C31.059 16.3066 31.0329 16.042 31.0837 15.7867C31.1345 15.5314 31.2598 15.2969 31.4439 15.1128C31.6279 14.9288 31.8624 14.8034 32.1177 14.7526C32.373 14.7019 32.6376 14.7279 32.8781 14.8275C33.1186 14.9271 33.3241 15.0958 33.4687 15.3123C33.6134 15.5287 33.6905 15.7831 33.6905 16.0434C33.6902 16.3923 33.5514 16.7269 33.3047 16.9736C33.0579 17.2203 32.7234 17.3591 32.3745 17.3595ZM32.3745 15.5703C32.2812 15.5705 32.1902 15.5984 32.1128 15.6505C32.0354 15.7025 31.9751 15.7762 31.9397 15.8625C31.9042 15.9487 31.895 16.0435 31.9134 16.1349C31.9317 16.2263 31.9768 16.3102 32.0428 16.3761C32.1088 16.4419 32.1929 16.4867 32.2844 16.5048C32.3758 16.5229 32.4706 16.5134 32.5567 16.4777C32.6429 16.442 32.7165 16.3815 32.7682 16.3039C32.82 16.2264 32.8476 16.1352 32.8476 16.042C32.8478 15.9797 32.8357 15.9181 32.812 15.8605C32.7883 15.8029 32.7535 15.7506 32.7095 15.7065C32.6656 15.6624 32.6134 15.6274 32.5559 15.6036C32.4984 15.5797 32.4367 15.5674 32.3745 15.5674V15.5703Z" fill="#426572"/>
<path d="M25.0419 23.7669H24.1976V21.3686H22.356V20.5242H25.0419V23.7669Z" fill="#426572"/>
<path d="M21.5726 22.2568C21.3176 22.2568 21.0684 22.1812 20.8564 22.0396C20.6444 21.8979 20.4792 21.6966 20.3816 21.461C20.284 21.2254 20.2585 20.9662 20.3082 20.7162C20.358 20.4661 20.4807 20.2364 20.661 20.0561C20.8413 19.8758 21.071 19.753 21.3211 19.7033C21.5712 19.6536 21.8304 19.6791 22.0659 19.7767C22.3015 19.8742 22.5028 20.0395 22.6445 20.2515C22.7861 20.4635 22.8617 20.7127 22.8617 20.9677C22.8614 21.3095 22.7254 21.6371 22.4837 21.8788C22.2421 22.1205 21.9144 22.2564 21.5726 22.2568ZM21.5726 20.5228C21.4846 20.5228 21.3986 20.5489 21.3255 20.5978C21.2523 20.6467 21.1953 20.7162 21.1616 20.7974C21.128 20.8787 21.1192 20.9682 21.1363 21.0545C21.1535 21.1407 21.1958 21.22 21.2581 21.2822C21.3203 21.3444 21.3995 21.3868 21.4858 21.404C21.5721 21.4211 21.6615 21.4123 21.7428 21.3786C21.8241 21.345 21.8936 21.288 21.9425 21.2148C21.9913 21.1417 22.0174 21.0557 22.0174 20.9677C22.0174 20.8497 21.9706 20.7366 21.8871 20.6531C21.8037 20.5697 21.6906 20.5228 21.5726 20.5228Z" fill="#426572"/>
<path d="M27.9489 12.2595C27.6689 12.0688 27.3556 11.9323 27.0252 11.8572C27.2693 11.717 27.4881 11.537 27.6726 11.3245C27.8406 11.0545 27.9425 10.7488 27.9701 10.432C27.9857 10.2181 28.0226 9.31998 27.3227 8.80291C26.7816 8.40341 26.1611 8.24475 25.3295 8.19233V6.37903H24.2118V8.16967H23.3618V6.37903H22.2455V8.16967H20.0497V9.3299H20.6957C20.8713 9.3299 21.1844 9.34973 21.3176 9.49848C21.4507 9.64723 21.4748 9.72514 21.4748 10.0156C21.4748 10.306 21.4748 14.5276 21.4748 14.6381C21.4791 14.6986 21.4712 14.7595 21.4515 14.8169C21.4318 14.8744 21.4007 14.9272 21.3601 14.9724C21.2666 15.0616 21.1717 15.0815 20.9478 15.0815H20.2792L20.0497 16.423H22.2469V18.2094H23.3632V16.4245H24.2132V18.2094H25.3309V16.3933C25.6143 16.3763 25.8891 16.355 26.0393 16.3338C26.6505 16.28 27.239 16.0756 27.752 15.7388C28.4249 15.2685 28.5765 14.5332 28.592 13.7923C28.6076 13.0514 28.3286 12.5428 27.9489 12.2595ZM23.3604 9.42623C23.3604 9.42623 23.716 9.39506 24.0687 9.40073C24.4464 9.39694 24.8223 9.45336 25.1822 9.56789C25.6412 9.70956 25.9132 10.0538 25.9231 10.4604C25.9365 10.6337 25.898 10.8071 25.8124 10.9585C25.7269 11.1099 25.5983 11.2324 25.4428 11.3104C25.084 11.4885 24.6902 11.5853 24.2897 11.5937C23.8831 11.6093 23.3604 11.5937 23.3604 11.5937V9.42623ZM25.8579 14.7726C25.459 14.9508 25.0306 15.0536 24.5943 15.0758C24.0985 15.1126 23.3575 15.0971 23.3575 15.0971V12.7001C23.3575 12.7001 24.0659 12.6633 24.6212 12.7001C25.0437 12.7213 25.459 12.8172 25.848 12.9834C26.0177 13.0631 26.1613 13.1891 26.2622 13.347C26.3631 13.5049 26.4172 13.6882 26.4183 13.8756C26.4193 14.063 26.3672 14.2469 26.2681 14.4059C26.1689 14.5649 26.0267 14.6926 25.8579 14.7741V14.7726Z" fill="#426572"/>
<path d="M31.7143 6.42727C32.6906 7.66145 33.3544 9.11308 33.6494 10.6588C33.6976 10.9251 34.1056 10.8132 34.056 10.5469C33.7425 8.93101 33.0426 7.41502 32.0161 6.12836C31.8503 5.91444 31.5528 6.21477 31.7171 6.42727H31.7143Z" fill="white"/>
<path d="M29.7707 4.49211C30.2403 4.84537 30.6731 5.24499 31.0627 5.68492C31.2497 5.88325 31.5472 5.58434 31.3616 5.38601C30.946 4.92148 30.4847 4.50003 29.9846 4.12803C29.7622 3.97078 29.5511 4.3377 29.7721 4.49211H29.7707Z" fill="white"/>
<path d="M24.0659 24.4725C21.6954 24.4713 19.3785 23.7674 17.4081 22.4496C15.4377 21.1318 13.9023 19.2593 12.996 17.0689C12.0897 14.8785 11.8532 12.4686 12.3164 10.1438C12.7797 7.81907 13.9219 5.68387 15.5985 4.00819C17.2752 2.33251 19.4111 1.1916 21.7361 0.729731C24.0612 0.267859 26.4709 0.505759 28.6608 1.41335C30.8506 2.32094 32.7222 3.85747 34.0388 5.82866C35.3555 7.79985 36.0581 10.1172 36.0578 12.4876C36.054 15.6663 34.7892 18.7136 32.5409 20.9605C30.2926 23.2075 27.2445 24.4706 24.0659 24.4725ZM24.0659 1.60782C21.9141 1.60782 19.8106 2.24591 18.0214 3.4414C16.2322 4.63689 14.8377 6.33609 14.0142 8.32412C13.1908 10.3121 12.9753 12.4997 13.3951 14.6102C13.8149 16.7207 14.8511 18.6593 16.3727 20.1808C17.8943 21.7024 19.8329 22.7386 21.9433 23.1584C24.0538 23.5782 26.2414 23.3628 28.2294 22.5393C30.2174 21.7158 31.9166 20.3213 33.1121 18.5322C34.3076 16.743 34.9457 14.6395 34.9457 12.4876C34.9427 9.60306 33.7955 6.83747 31.7558 4.79776C29.7161 2.75805 26.9505 1.61082 24.0659 1.60782Z" fill="#426572"/>
<path d="M33.0729 23.9185C39.3868 23.9185 44.5052 18.8001 44.5052 12.4862C44.5052 6.17232 39.3868 1.05389 33.0729 1.05389C26.759 1.05389 21.6406 6.17232 21.6406 12.4862C21.6406 18.8001 26.759 23.9185 33.0729 23.9185Z" fill="#F5E48F"/>
<path opacity="0.6" d="M44.219 12.4848C44.2191 15.1302 43.3019 17.6938 41.6236 19.7387C39.9454 21.7836 37.61 23.1833 35.0154 23.6993C32.4208 24.2153 29.7276 23.8156 27.3946 22.5684C25.0617 21.3211 23.2334 19.3035 22.2214 16.8594C22.9749 16.4356 23.8106 16.1783 24.6721 16.105C25.5335 16.0317 26.4007 16.144 27.215 16.4344C28.4234 16.875 29.4661 17.6995 30.683 18.1188C33.3165 19.0269 36.4912 17.681 37.7903 15.2175C39.0894 12.754 38.4986 9.47725 36.4997 7.52795C35.4812 6.5363 34.1793 5.87614 32.8462 5.37748C30.3355 4.44587 27.6655 4.01932 24.9895 4.12234C26.6181 2.60348 28.6549 1.59336 30.8496 1.21603C33.0444 0.838697 35.3016 1.11059 37.3439 1.99832C39.3863 2.88604 41.1249 4.35094 42.3463 6.2131C43.5676 8.07526 44.2185 10.2536 44.219 12.4805V12.4848Z" fill="#DEC378"/>
<path opacity="0.5" d="M32.7924 2.25098C35.7149 2.25084 38.5265 3.36994 40.6496 5.37837C42.7726 7.3868 44.0459 10.132 44.2077 13.0501C44.2191 12.8404 44.2261 12.6251 44.2261 12.4168C44.2261 9.38478 43.0217 6.47692 40.8777 4.33295C38.7337 2.18897 35.8259 0.984497 32.7938 0.984497C29.7618 0.984497 26.8539 2.18897 24.71 4.33295C22.566 6.47692 21.3615 9.38478 21.3615 12.4168C21.3615 12.6293 21.3615 12.8418 21.3799 13.0501C21.5418 10.1325 22.8146 7.3877 24.9371 5.37934C27.0595 3.37099 29.8704 2.25156 32.7924 2.25098Z" fill="#E1D2D5"/>
<path opacity="0.3" d="M32.7924 22.3362C29.8699 22.3363 27.0583 21.2172 24.9353 19.2088C22.8123 17.2004 21.539 14.4551 21.3771 11.5371C21.3658 11.7468 21.3587 11.9621 21.3587 12.1703C21.3587 13.6717 21.6544 15.1583 22.2289 16.5453C22.8035 17.9323 23.6456 19.1926 24.7072 20.2542C25.7687 21.3158 27.029 22.1579 28.4161 22.7324C29.8031 23.307 31.2897 23.6027 32.791 23.6027C34.2923 23.6027 35.7789 23.307 37.166 22.7324C38.553 22.1579 39.8133 21.3158 40.8749 20.2542C41.9365 19.1926 42.7786 17.9323 43.3531 16.5453C43.9276 15.1583 44.2233 13.6717 44.2233 12.1703C44.2233 11.9579 44.2233 11.7454 44.2049 11.5371C44.0431 14.4546 42.7702 17.1995 40.6478 19.2078C38.5253 21.2162 35.7145 22.3356 32.7924 22.3362Z" fill="white"/>
<path d="M25.0008 14.0615H21.7284V13.2186H24.1579V11.3515H25.0008V14.0615Z" fill="#426572"/>
<path d="M24.5574 11.8587C24.3005 11.8584 24.0495 11.782 23.8361 11.6391C23.6226 11.4962 23.4564 11.2932 23.3582 11.0558C23.2601 10.8184 23.2346 10.5572 23.2849 10.3053C23.3352 10.0534 23.459 9.82208 23.6408 9.64055C23.8225 9.45901 24.054 9.33543 24.3059 9.28542C24.5579 9.23541 24.819 9.26122 25.0563 9.35958C25.2936 9.45794 25.4964 9.62445 25.6391 9.83805C25.7817 10.0516 25.8579 10.3028 25.8579 10.5596C25.8575 10.9043 25.7203 11.2347 25.4765 11.4783C25.2326 11.7219 24.9021 11.8587 24.5574 11.8587ZM24.5574 10.1063C24.4672 10.1055 24.3788 10.1314 24.3035 10.181C24.2281 10.2305 24.1692 10.3013 24.1341 10.3844C24.0991 10.4675 24.0896 10.5591 24.1067 10.6476C24.1239 10.7362 24.167 10.8176 24.2306 10.8816C24.2942 10.9455 24.3753 10.9891 24.4637 11.0069C24.5522 11.0246 24.6439 11.0157 24.7272 10.9812C24.8105 10.9466 24.8817 10.8881 24.9317 10.8131C24.9816 10.738 25.0082 10.6498 25.0079 10.5596C25.0075 10.44 24.96 10.3253 24.8757 10.2405C24.7914 10.1556 24.677 10.1074 24.5574 10.1063Z" fill="#426572"/>
<path d="M34.702 4.70461H31.6265V0.977417H32.4708V3.86029H34.702V4.70461Z" fill="#426572"/>
<path d="M35.6186 5.69628C35.3342 5.69628 35.0562 5.61195 34.8198 5.45395C34.5833 5.29596 34.399 5.07139 34.2902 4.80865C34.1813 4.54591 34.1529 4.2568 34.2084 3.97787C34.2638 3.69895 34.4008 3.44274 34.6019 3.24165C34.803 3.04055 35.0592 2.90361 35.3381 2.84812C35.617 2.79264 35.9061 2.82112 36.1689 2.92995C36.4316 3.03878 36.6562 3.22308 36.8142 3.45954C36.9722 3.696 37.0565 3.974 37.0565 4.25839C37.0561 4.63963 36.9045 5.00514 36.6349 5.27472C36.3654 5.5443 35.9999 5.69591 35.6186 5.69628ZM35.6186 3.6634C35.5012 3.6634 35.3865 3.69821 35.2888 3.76343C35.1912 3.82866 35.1152 3.92136 35.0702 4.02982C35.0253 4.13828 35.0135 4.25763 35.0365 4.37277C35.0594 4.48792 35.1159 4.59368 35.1989 4.67669C35.2819 4.75971 35.3877 4.81624 35.5028 4.83914C35.618 4.86205 35.7373 4.85029 35.8458 4.80536C35.9542 4.76044 36.0469 4.68436 36.1122 4.58675C36.1774 4.48913 36.2122 4.37437 36.2122 4.25697C36.2118 4.09966 36.1492 3.9489 36.0379 3.83767C35.9267 3.72643 35.7759 3.66377 35.6186 3.6634Z" fill="#426572"/>
<path d="M41.3802 15.3918H40.5358V12.6335H43.8678V13.4779H41.3802V15.3918Z" fill="#426572"/>
<path d="M40.9792 17.5153C40.7188 17.5161 40.464 17.4397 40.247 17.2957C40.0301 17.1516 39.8607 16.9465 39.7604 16.7061C39.6601 16.4658 39.6334 16.2012 39.6835 15.9456C39.7337 15.6901 39.8586 15.4552 40.0423 15.2707C40.2261 15.0861 40.4604 14.9602 40.7158 14.909C40.9711 14.8577 41.2359 14.8833 41.4766 14.9825C41.7174 15.0818 41.9232 15.2503 42.0682 15.4666C42.2132 15.6829 42.2907 15.9374 42.291 16.1978C42.291 16.5463 42.153 16.8805 41.9071 17.1274C41.6613 17.3743 41.3276 17.5138 40.9792 17.5153ZM40.9792 15.7261C40.8859 15.7264 40.7949 15.7543 40.7175 15.8063C40.6401 15.8583 40.5799 15.932 40.5444 16.0183C40.5089 16.1045 40.4997 16.1993 40.5181 16.2907C40.5365 16.3821 40.5815 16.4661 40.6475 16.5319C40.7136 16.5977 40.7976 16.6425 40.8891 16.6606C40.9806 16.6787 41.0753 16.6693 41.1615 16.6335C41.2476 16.5978 41.3212 16.5373 41.3729 16.4598C41.4247 16.3822 41.4523 16.2911 41.4523 16.1978C41.452 16.0726 41.402 15.9526 41.3133 15.8642C41.2246 15.7757 41.1044 15.7261 40.9792 15.7261Z" fill="#426572"/>
<path d="M33.6537 23.9242H32.8094V21.5272H30.9678V20.6829H33.6537V23.9242Z" fill="#426572"/>
<path d="M30.1843 22.4155C29.9294 22.4155 29.6801 22.3399 29.4681 22.1983C29.2561 22.0566 29.0909 21.8553 28.9933 21.6197C28.8958 21.3841 28.8702 21.1249 28.92 20.8749C28.9697 20.6248 29.0925 20.3951 29.2728 20.2148C29.4531 20.0345 29.6828 19.9117 29.9328 19.862C30.1829 19.8122 30.4421 19.8378 30.6777 19.9353C30.9132 20.0329 31.1146 20.1982 31.2562 20.4102C31.3979 20.6222 31.4735 20.8714 31.4735 21.1264C31.4731 21.4682 31.3372 21.7958 31.0955 22.0375C30.8538 22.2792 30.5261 22.4151 30.1843 22.4155ZM30.1843 20.6815C30.0964 20.6815 30.0104 20.7076 29.9372 20.7565C29.8641 20.8054 29.8071 20.8749 29.7734 20.9561C29.7397 21.0374 29.7309 21.1269 29.7481 21.2131C29.7652 21.2994 29.8076 21.3787 29.8698 21.4409C29.932 21.5031 30.0113 21.5455 30.0976 21.5626C30.1839 21.5798 30.2733 21.571 30.3546 21.5373C30.4359 21.5037 30.5053 21.4466 30.5542 21.3735C30.6031 21.3003 30.6292 21.2143 30.6292 21.1264C30.6292 21.0084 30.5823 20.8952 30.4989 20.8118C30.4155 20.7284 30.3023 20.6815 30.1843 20.6815Z" fill="#426572"/>
<path d="M36.5607 12.4154C36.2794 12.2241 35.9646 12.0876 35.6328 12.0131C35.8768 11.8729 36.0956 11.6928 36.2802 11.4804C36.4481 11.2104 36.55 10.9046 36.5777 10.5879C36.5933 10.374 36.6301 9.47584 35.9303 8.95876C35.3891 8.55927 34.7686 8.40061 33.9371 8.34819V6.53772H32.8193V8.32836H31.9693V6.53772H30.853V8.32836H28.6572V9.48859H29.3032C29.4789 9.48859 29.792 9.50842 29.9251 9.65717C30.0583 9.80592 30.0824 9.88383 30.0824 10.1742C30.0824 10.4647 30.0824 14.6863 30.0824 14.7968C30.0867 14.8573 30.0788 14.9182 30.059 14.9756C30.0393 15.033 30.0082 15.0859 29.9676 15.1311C29.8741 15.2203 29.7792 15.2402 29.5554 15.2402H28.8867L28.6572 16.5817H30.8544V18.3667H31.9708V16.5803H32.8207V18.3653H33.9328V16.5506C34.2161 16.5336 34.491 16.5123 34.6411 16.4911C35.2524 16.4373 35.8409 16.2328 36.3539 15.8961C37.0268 15.4257 37.1783 14.6905 37.1939 13.9496C37.2095 13.2087 36.9403 12.7015 36.5607 12.4154ZM31.9722 9.59059C31.9722 9.59059 32.3278 9.55942 32.6805 9.56509C33.0567 9.55839 33.4316 9.61146 33.7911 9.72234C34.2501 9.864 34.5221 10.2082 34.5321 10.6148C34.5455 10.7882 34.5069 10.9616 34.4214 11.113C34.3359 11.2643 34.2072 11.3868 34.0518 11.4648C33.693 11.643 33.2992 11.7397 32.8987 11.7481C32.4921 11.7637 31.9693 11.7481 31.9693 11.7481L31.9722 9.59059ZM34.4726 14.9299C34.0736 15.108 33.6452 15.2108 33.2089 15.2331C32.7131 15.2699 31.9722 15.2543 31.9722 15.2543V12.8588C31.9722 12.8588 32.6805 12.822 33.2358 12.8588C33.6583 12.8799 34.0737 12.9759 34.4626 13.1421C34.6323 13.2217 34.7759 13.3478 34.8768 13.5057C34.9778 13.6636 35.0319 13.8469 35.0329 14.0343C35.034 14.2217 34.9819 14.4056 34.8827 14.5646C34.7835 14.7236 34.6413 14.8513 34.4726 14.9328V14.9299Z" fill="#426572"/>
<path d="M40.3261 6.58448C41.301 7.81949 41.9634 9.2716 42.257 10.8174C42.3052 11.0837 42.7131 10.9718 42.6636 10.7055C42.3501 9.08964 41.6501 7.57365 40.6236 6.28699C40.4579 6.07307 40.1604 6.3734 40.3247 6.5859L40.3261 6.58448Z" fill="white"/>
<path d="M38.3825 4.65074C38.852 5.004 39.2849 5.40362 39.6744 5.84355C39.8614 6.04188 40.1589 5.74297 39.9734 5.54464C39.5578 5.08011 39.0965 4.65866 38.5964 4.28666C38.374 4.12941 38.1629 4.49633 38.3839 4.65074H38.3825Z" fill="white"/>
<path d="M32.6777 24.6311C30.3069 24.6314 27.9894 23.9287 26.0181 22.6118C24.0468 21.2949 22.5102 19.423 21.6028 17.2328C20.6954 15.0427 20.4578 12.6326 20.9201 10.3074C21.3825 7.9822 22.5239 5.84633 24.2002 4.16988C25.8764 2.49344 28.0122 1.35172 30.3373 0.889112C32.6625 0.426506 35.0726 0.663791 37.2628 1.57096C39.4531 2.47813 41.3252 4.01443 42.6423 5.98559C43.9594 7.95674 44.6625 10.2742 44.6625 12.6449C44.6591 15.8226 43.3954 18.8692 41.1485 21.1162C38.9017 23.3633 35.8553 24.6274 32.6777 24.6311ZM32.6777 1.76651C30.5258 1.76651 28.4223 2.4046 26.6331 3.60009C24.844 4.79558 23.4495 6.49478 22.626 8.48281C21.8025 10.4708 21.5871 12.6584 22.0069 14.7689C22.4267 16.8794 23.4629 18.818 24.9845 20.3395C26.506 21.8611 28.4446 22.8973 30.5551 23.3171C32.6656 23.7369 34.8532 23.5215 36.8412 22.698C38.8292 21.8745 40.5284 20.48 41.7239 18.6908C42.9194 16.9017 43.5575 14.7982 43.5575 12.6463C43.5549 9.76151 42.4078 6.99556 40.368 4.95554C38.3283 2.91552 35.5625 1.7681 32.6777 1.7651V1.76651Z" fill="#426572"/>
<path d="M46.0622 11.3303H7.70085C4.19339 11.3303 1.35004 14.1736 1.35004 17.6811V39.7949C1.35004 43.3023 4.19339 46.1457 7.70085 46.1457H46.0622C49.5696 46.1457 52.413 43.3023 52.413 39.7949V17.6811C52.413 14.1736 49.5696 11.3303 46.0622 11.3303Z" fill="#B0DFEA"/>
<path d="M52.413 36.8837V40.7525C52.4132 41.5118 52.2637 42.2637 51.9733 42.9652C51.6828 43.6667 51.257 44.3041 50.7201 44.8409C50.1832 45.3778 49.5458 45.8037 48.8443 46.0941C48.1428 46.3846 47.3909 46.534 46.6317 46.5338H7.13136C6.37198 46.534 5.62 46.3846 4.9184 46.094C4.2168 45.8034 3.57933 45.3775 3.04243 44.8404C2.50553 44.3034 2.07972 43.6658 1.78933 42.9642C1.49894 42.2625 1.34967 41.5105 1.35004 40.7511V36.8837C1.34985 37.6429 1.49926 38.3948 1.78974 39.0963C2.08021 39.7978 2.50605 40.4352 3.04293 40.9721C3.57982 41.509 4.21722 41.9348 4.91872 42.2253C5.62023 42.5158 6.3721 42.6652 7.13136 42.665H46.6331C47.3922 42.665 48.1439 42.5154 48.8453 42.2249C49.5466 41.9343 50.1838 41.5085 50.7206 40.9716C51.2573 40.4347 51.683 39.7974 51.9734 39.096C52.2638 38.3946 52.4132 37.6428 52.413 36.8837Z" fill="#95BCC9"/>
<path d="M46.0621 47.5H7.7008C5.79172 47.4977 3.96148 46.7383 2.61155 45.3884C1.26163 44.0385 0.50225 42.2083 0.5 40.2992L0.5 18.1854C0.50225 16.2763 1.26163 14.446 2.61155 13.0961C3.96148 11.7462 5.79172 10.9868 7.7008 10.9846H46.0621C47.9712 10.9868 49.8014 11.7462 51.1514 13.0961C52.5013 14.446 53.2607 16.2763 53.2629 18.1854V40.2992C53.2607 42.2083 52.5013 44.0385 51.1514 45.3884C49.8014 46.7383 47.9712 47.4977 46.0621 47.5ZM7.7008 12.6845C6.24235 12.686 4.84407 13.2661 3.81279 14.2973C2.7815 15.3286 2.20147 16.7269 2.19997 18.1854V40.2992C2.20147 41.7576 2.7815 43.1559 3.81279 44.1872C4.84407 45.2185 6.24235 45.7985 7.7008 45.8H46.0621C47.5206 45.7985 48.9188 45.2185 49.9501 44.1872C50.9814 43.1559 51.5614 41.7576 51.5629 40.2992V18.1854C51.5614 16.7269 50.9814 15.3286 49.9501 14.2973C48.9188 13.2661 47.5206 12.686 46.0621 12.6845H7.7008Z" fill="#426572"/>
<path d="M45.8624 43.8791H44.1624V42.8874H45.8624V43.8791ZM42.4823 43.8791H40.8007V42.8874H42.4823V43.8791ZM39.1191 43.8791H37.4376V42.8874H39.1191V43.8791ZM35.756 43.8791H34.0745V42.8874H35.756V43.8791ZM32.3929 43.8791H30.7114V42.8874H32.3929V43.8791ZM29.0298 43.8791H27.3497V42.8874H29.0312L29.0298 43.8791ZM25.6667 43.8791H23.9865V42.8874H25.6681L25.6667 43.8791ZM22.3036 43.8791H20.6164V42.8874H22.2979L22.3036 43.8791ZM18.9405 43.8791H17.2603V42.8874H18.9419L18.9405 43.8791ZM15.5773 43.8791H13.8972V42.8874H15.5788L15.5773 43.8791ZM12.2142 43.8791H10.5341V42.8874H12.2157L12.2142 43.8791ZM8.85821 43.8791H8.30571C7.87803 43.8796 7.45265 43.8165 7.04348 43.6921L7.32681 42.7429C7.64243 42.838 7.97041 42.8858 8.30005 42.8846H8.85821V43.8791ZM47.7054 43.4612L47.2804 42.5658C47.7225 42.3547 48.1131 42.0496 48.4251 41.6719L49.1901 42.3024C48.7842 42.7925 48.276 43.188 47.7012 43.4612H47.7054ZM5.40584 42.7613C4.93552 42.3344 4.5642 41.8098 4.31786 41.2243L5.23301 40.8404C5.42297 41.2915 5.70919 41.6957 6.07167 42.0247L5.40584 42.7613ZM50.0301 40.6208L49.0682 40.3771C49.1361 40.1085 49.1703 39.8325 49.1702 39.5555V38.8273H50.1619V39.5555C50.1641 39.9144 50.1217 40.2723 50.0358 40.6208H50.0301ZM4.97377 39.3911H3.98212V37.7096H4.97377V39.3911ZM50.1647 37.1458H49.1731V35.4642H50.1647V37.1458ZM4.97377 36.028H3.98212V34.3465H4.97377V36.028ZM50.1647 33.7827H49.1731V32.1011H50.1647V33.7827ZM4.97377 32.6593H3.98212V30.9848H4.97377V32.6593ZM50.1647 30.4139H49.1731V28.738H50.1647V30.4139ZM4.97377 29.2961H3.98212V27.6217H4.97377V29.2961ZM50.1647 27.0508H49.1731V25.3763H50.1647V27.0508ZM4.97377 25.933H3.98212V24.2586H4.97377V25.933ZM50.1647 23.6877H49.1731V22.0132H50.1647V23.6877ZM4.97377 22.5699H3.98212V20.9011H4.97377V22.5699ZM50.1647 20.3245H49.1731V18.6501H50.1647V20.3245ZM4.97377 19.2068H3.98212V18.4928C3.98422 18.1299 4.03181 17.7687 4.12378 17.4176L5.08427 17.6641C5.01532 17.9349 4.98058 18.2133 4.98085 18.4928L4.97377 19.2068ZM48.9166 17.1938C48.7256 16.7429 48.4384 16.3392 48.0752 16.0109L48.7396 15.2742C49.2111 15.6999 49.5839 16.2235 49.8318 16.8084L48.9166 17.1938ZM5.74159 16.3678L4.97802 15.736C5.38331 15.2471 5.89048 14.8526 6.46408 14.58L6.88907 15.4768C6.44625 15.6867 6.05462 15.9908 5.74159 16.3678ZM46.8158 15.2997C46.5024 15.2053 46.1769 15.1576 45.8496 15.158H45.2943V14.1664H45.8496C46.2743 14.1659 46.6967 14.228 47.1033 14.3505L46.8158 15.2997ZM43.6127 15.158H41.9269V14.1664H43.6085L43.6127 15.158ZM40.2496 15.158H38.5638V14.1664H40.2454L40.2496 15.158ZM36.8865 15.158H35.2078V14.1664H36.8893L36.8865 15.158ZM33.5234 15.158H31.8376V14.1664H33.5191L33.5234 15.158ZM30.1603 15.158H28.4745V14.1664H30.156L30.1603 15.158ZM26.7972 15.158H25.1128V14.1664H26.7943L26.7972 15.158ZM23.4341 15.158H21.7497V14.1664H23.4312L23.4341 15.158ZM20.0709 15.158H18.3866V14.1664H20.0681L20.0709 15.158ZM16.7078 15.158H15.0234V14.1664H16.705L16.7078 15.158ZM13.3447 15.158H11.6603V14.1664H13.3419L13.3447 15.158ZM9.9816 15.158H8.30571L8.29721 14.1664H9.97877L9.9816 15.158Z" fill="#426572"/>
<path d="M51.5331 35.926L42.1833 36.5465C41.8265 36.5739 41.4679 36.5677 41.1123 36.5281C39.7124 36.3552 38.4239 35.6766 37.4895 34.6198C36.5552 33.5631 36.0394 32.2012 36.0393 30.7907C36.0393 29.2579 36.648 27.7878 37.7316 26.7036C38.8152 25.6195 40.285 25.0101 41.8178 25.0093H49.8558C51.3891 25.0093 52.8596 25.6184 53.9439 26.7026C55.0281 27.7869 55.6372 29.2574 55.6372 30.7907C55.6372 33.9824 54.7248 35.926 51.5331 35.926Z" fill="#95BCC9"/>
<path d="M51.5332 22.9467H43.4951C40.3022 22.9467 37.7138 25.5348 37.7138 28.7273C37.7138 31.9199 40.3022 34.5079 43.4951 34.5079H51.5332C54.7261 34.5079 57.3145 31.9199 57.3145 28.7273C57.3145 25.5348 54.7261 22.9467 51.5332 22.9467Z" fill="#D9F4F9"/>
<path d="M52.1778 35.8736H44.1327C43.2538 35.8865 42.3811 35.7244 41.5653 35.397C40.7496 35.0695 40.0071 34.5832 39.3811 33.9662C38.755 33.3492 38.2579 32.6139 37.9185 31.8031C37.5792 30.9922 37.4044 30.122 37.4044 29.243C37.4044 28.364 37.5792 27.4938 37.9185 26.6829C38.2579 25.8721 38.755 25.1368 39.3811 24.5198C40.0071 23.9028 40.7496 23.4165 41.5653 23.089C42.3811 22.7616 43.2538 22.5996 44.1327 22.6124H52.1721C53.051 22.5996 53.9237 22.7616 54.7394 23.089C55.5551 23.4165 56.2976 23.9028 56.9237 24.5198C57.5497 25.1368 58.0469 25.8721 58.3862 26.6829C58.7256 27.4938 58.9003 28.364 58.9003 29.243C58.9003 30.122 58.7256 30.9922 58.3862 31.8031C58.0469 32.6139 57.5497 33.3492 56.9237 33.9662C56.2976 34.5832 55.5551 35.0695 54.7394 35.397C53.9237 35.7244 53.051 35.8865 52.1721 35.8736H52.1778ZM44.1327 24.3124C43.4781 24.3013 42.8279 24.4206 42.22 24.6634C41.6121 24.9062 41.0586 25.2676 40.5918 25.7266C40.125 26.1855 39.7542 26.7328 39.5012 27.3366C39.2481 27.9403 39.1177 28.5884 39.1177 29.243C39.1177 29.8976 39.2481 30.5457 39.5012 31.1494C39.7542 31.7532 40.125 32.3005 40.5918 32.7594C41.0586 33.2184 41.6121 33.5798 42.22 33.8226C42.8279 34.0654 43.4781 34.1847 44.1327 34.1736H52.1721C52.8266 34.1847 53.4768 34.0654 54.0848 33.8226C54.6927 33.5798 55.2462 33.2184 55.713 32.7594C56.1798 32.3005 56.5505 31.7532 56.8036 31.1494C57.0567 30.5457 57.187 29.8976 57.187 29.243C57.187 28.5884 57.0567 27.9403 56.8036 27.3366C56.5505 26.7328 56.1798 26.1855 55.713 25.7266C55.2462 25.2676 54.6927 24.9062 54.0848 24.6634C53.4768 24.4206 52.8266 24.3013 52.1721 24.3124H44.1327Z" fill="#426572"/>
<path d="M7.31837 17.5805C7.20826 17.5975 7.10626 17.6486 7.02672 17.7266C6.94718 17.8046 6.8941 17.9056 6.87496 18.0154V18.072V18.1783L6.86505 18.3879C6.83813 18.939 6.79847 19.4363 6.74888 19.8528C6.65113 20.6872 6.51514 21.2028 6.36497 21.2028C6.21481 21.2028 6.08164 20.6872 5.98106 19.8528C5.93148 19.4363 5.89181 18.939 5.8649 18.3879L5.85498 18.1783V18.072C5.85498 18.0239 5.85498 17.9658 5.85498 17.9134C5.87143 17.6908 5.93672 17.4746 6.04623 17.2801C6.16102 17.0758 6.32079 16.9002 6.51345 16.7667C6.70612 16.6331 6.92662 16.5452 7.15829 16.5095C7.21784 16.5002 7.27795 16.495 7.33821 16.4939H7.71078L8.16836 16.5024C8.46869 16.5095 8.75768 16.5208 9.03393 16.5336C9.585 16.5605 10.0822 16.6001 10.4987 16.6497C11.3331 16.7475 11.8488 16.8835 11.8488 17.0336C11.8488 17.1838 11.3331 17.317 10.4987 17.4175C10.0822 17.4671 9.585 17.5068 9.03393 17.5337C8.75768 17.5479 8.46727 17.5578 8.16836 17.5649L7.71078 17.5734H7.37504C7.35598 17.5741 7.33702 17.5764 7.31837 17.5805Z" fill="white"/>
<path d="M15.2203 17.5734C16.0841 17.5734 16.7843 17.3305 16.7843 17.0308C16.7843 16.7311 16.0841 16.4882 15.2203 16.4882C14.3566 16.4882 13.6564 16.7311 13.6564 17.0308C13.6564 17.3305 14.3566 17.5734 15.2203 17.5734Z" fill="white"/>
</svg>
