<svg width="50" height="45" viewBox="0 0 50 45" fill="none" xmlns="http://www.w3.org/2000/svg">
<path d="M31.9806 23.9109C31.981 24.594 31.9401 25.2765 31.8582 25.954C31.7583 26.9464 31.5705 27.9266 31.2972 28.8815L31.237 28.8649C30.2534 32.037 28.352 34.7983 25.8038 36.7554C23.2556 38.7125 20.1907 39.7655 17.0459 39.7642H16.9339H16.8634C15.2692 39.766 13.685 39.4961 12.1714 38.9646L6.32922 43.0562C6.09686 43.2207 5.82351 43.3076 5.54428 43.3058C5.26505 43.304 4.99271 43.2135 4.76225 43.0461C4.53178 42.8787 4.35372 42.6419 4.25094 42.3662C4.14816 42.0905 4.12536 41.7884 4.18547 41.4989L5.64472 34.3685C3.75095 32.0779 2.51922 29.2561 2.09712 26.241C1.67501 23.226 2.08041 20.1456 3.26476 17.369C4.44912 14.5924 6.36219 12.2373 8.77478 10.5858C11.1874 8.93438 13.9972 8.05661 16.8675 8.05768H16.937H17.0511C19.0116 8.05753 20.953 8.46748 22.7643 9.26412C24.5756 10.0608 26.2215 11.2285 27.6078 12.7006C28.9942 14.1727 30.0939 15.9204 30.8442 17.8439C31.5945 19.7674 31.9806 21.829 31.9806 23.9109Z" fill="white"/>
<path d="M16.3968 8.05658C15.7818 8.05634 15.1673 8.09606 14.5569 8.17553C18.1701 8.65241 21.4948 10.5146 23.9059 13.4119C26.317 16.3093 27.6484 20.0422 27.6496 23.9087C27.6497 24.5922 27.6084 25.275 27.5262 25.9529C27.4267 26.945 27.2389 27.9248 26.9651 28.8793L26.905 28.8616C26.0195 31.7147 24.3896 34.2422 22.2048 36.1503C20.02 38.0585 17.3701 39.2689 14.5631 39.6408C17.9949 40.0922 21.4678 39.2642 24.3885 37.2982C27.3092 35.3321 29.4964 32.3501 30.5764 28.8616L30.6366 28.8793C30.9103 27.9248 31.0982 26.945 31.1977 25.9529C31.4702 23.7178 31.291 21.4466 30.672 19.2908C30.053 17.135 29.0084 15.144 27.6079 13.4506C26.2074 11.7572 24.4831 10.4002 22.5499 9.4701C20.6167 8.53999 18.5191 8.05811 16.3968 8.05658Z" fill="#C5C6EF"/>
<path d="M5.21332 44.0772C4.89587 44.0758 4.58272 43.9991 4.29674 43.8528C4.01077 43.7064 3.7592 43.4941 3.5604 43.2312C3.3616 42.9684 3.22061 42.6617 3.14771 42.3336C3.07481 42.0055 3.07186 41.6642 3.13906 41.3348L4.52155 34.58C2.16105 31.5899 0.867131 27.8128 0.866699 23.9109C0.866699 14.743 7.89016 7.28009 16.5274 7.28009H16.711C25.3441 7.28009 32.3717 14.7386 32.3717 23.9109C32.3718 24.6242 32.3292 25.3368 32.2441 26.0443C32.1387 27.0822 31.9418 28.1073 31.6561 29.1061L31.4486 29.8132L31.3594 29.789C30.2389 32.9515 28.2358 35.6752 25.6181 37.596C23.0004 39.5168 19.8928 40.543 16.711 40.5374H16.599H16.5284C14.9757 40.5392 13.4314 40.2953 11.9464 39.8137L6.38424 43.7016C6.03708 43.9461 5.62987 44.0767 5.21332 44.0772ZM16.5274 8.83083C8.68979 8.83083 2.31868 15.5955 2.31868 23.9109C2.31692 27.5717 3.57042 31.1078 5.84494 33.8586L6.08762 34.1516L4.55059 41.663C4.52245 41.8017 4.53381 41.9461 4.58323 42.078C4.63266 42.2098 4.71791 42.323 4.82814 42.4032C4.93836 42.4834 5.06857 42.527 5.20218 42.5283C5.33579 42.5297 5.46675 42.4888 5.57839 42.4108L11.7193 38.1154L12.0542 38.2333C13.4929 38.7384 14.9986 38.9949 16.5139 38.9932H16.6581H16.6965C19.6882 38.9987 22.6049 37.9986 25.0287 36.1361C27.4525 34.2737 29.259 31.6443 30.1896 28.6248L30.397 27.9376L30.426 27.9453C30.5873 27.2638 30.7037 26.5712 30.7745 25.8725V25.856C30.8521 25.2113 30.8909 24.562 30.8906 23.912C30.8906 15.5966 24.5206 8.83193 16.6902 8.83193H16.6498C16.6207 8.83304 16.5761 8.83304 16.5274 8.83083Z" fill="#385868"/>
<path d="M18.1804 17.0626C18.176 17.7454 18.2127 18.4278 18.2904 19.1056C18.3867 20.0984 18.5711 21.0793 18.8411 22.0353L18.9012 22.0188C19.8727 25.1937 21.7627 27.9622 24.3022 29.9298C26.8417 31.8975 29.901 32.964 33.0446 32.9775H33.1566H33.2271C34.8214 32.9861 36.4066 32.7228 37.9222 32.1977L43.753 36.3136C43.9848 36.4777 44.2573 36.5647 44.5359 36.5634C44.8145 36.5621 45.0863 36.4726 45.3167 36.3063C45.5471 36.14 45.7256 35.9046 45.8293 35.63C45.933 35.3555 45.9572 35.0543 45.8988 34.765L44.4655 27.6281C46.3671 25.346 47.609 22.5303 48.0426 19.518C48.4761 16.5057 48.0829 13.4245 46.91 10.6435C45.737 7.86238 43.8342 5.49924 41.4292 3.837C39.0242 2.17476 36.219 1.28386 33.3495 1.27099H33.28H33.1659C29.2068 1.25489 25.4038 2.90957 22.5935 5.87105C19.7832 8.83252 18.1958 12.8582 18.1804 17.0626Z" fill="#6AE184"/>
<path d="M46.0079 35.427C46.0657 35.7161 46.0411 36.0169 45.9372 36.2912C45.8334 36.5654 45.655 36.8006 45.4248 36.9667C45.1946 37.1328 44.923 37.2224 44.6447 37.224C44.3663 37.2255 44.0939 37.139 43.862 36.9755L43.693 36.8566C43.8835 36.684 44.026 36.4593 44.1049 36.207C44.1839 35.9546 44.1964 35.6841 44.141 35.4248L42.7077 28.2878C44.5645 26.0588 45.7929 23.3198 46.2524 20.3841C46.7119 17.4484 46.384 14.4347 45.3062 11.6876C44.2283 8.94057 42.4441 6.57121 40.1576 4.85061C37.8711 3.13001 35.1747 2.12765 32.3768 1.95823C32.6724 1.93951 32.9701 1.9318 33.2708 1.9329H33.3839H33.4534C36.3233 1.94472 39.1292 2.83486 41.5349 4.49669C43.9407 6.15852 45.8444 8.5216 47.0179 11.3029C48.1915 14.0842 48.5851 17.1658 48.1518 20.1785C47.7184 23.1913 46.4764 26.0076 44.5745 28.29L46.0079 35.427Z" fill="#A8FF8C"/>
<path d="M33.8216 1.27097C34.4358 1.27378 35.0492 1.31645 35.6584 1.39873C33.705 1.64913 31.8173 2.30684 30.1039 3.33408C28.3905 4.36133 26.8851 5.73788 25.674 7.3847C24.4629 9.03152 23.5701 10.9162 23.0469 12.9304C22.5236 14.9447 22.3801 17.0488 22.6247 19.1221C22.7203 20.115 22.9044 21.0959 23.1744 22.0518L23.2346 22.0353C24.1092 24.8915 25.7291 27.4255 27.9062 29.3428C30.0832 31.2601 32.7279 32.4819 35.5329 32.8663C32.0998 33.303 28.6304 32.4604 25.7173 30.4823C22.8043 28.5043 20.6283 25.5135 19.561 22.021L19.5009 22.0375C19.2308 21.0816 19.0468 20.1006 18.9512 19.1078C18.6866 16.8711 18.874 14.6001 19.501 12.4463C20.128 10.2926 21.1802 8.3055 22.5874 6.61762C23.9946 4.92973 25.7244 3.5798 27.6616 2.65785C29.5988 1.73589 31.6988 1.26309 33.8216 1.27097Z" fill="#389D9C"/>
<path d="M44.8804 37.339C44.4599 37.3381 44.0492 37.2047 43.7001 36.9557L38.1598 33.0447C36.6729 33.5203 35.1275 33.7579 33.5746 33.7496H33.5124H33.4647C33.4408 33.7496 33.418 33.7496 33.3921 33.7496C30.2104 33.7421 27.1066 32.7032 24.4959 30.7718C21.8853 28.8404 19.8921 26.1086 18.783 22.9417L18.6938 22.9659L18.4978 22.2589C18.2158 21.2589 18.0228 20.2331 17.9212 19.1948C17.8389 18.4867 17.799 17.7738 17.8019 17.0603C17.832 7.91559 24.8492 0.5 33.4522 0.5H33.6991C42.3311 0.536346 49.3266 8.02463 49.2924 17.1914C49.2789 21.0925 47.9729 24.8641 45.6033 27.8451L46.9609 34.6064C47.0268 34.9358 47.0226 35.2767 46.9487 35.6042C46.8748 35.9317 46.733 36.2375 46.5337 36.4994C46.3344 36.7613 46.0825 36.9727 45.7965 37.1181C45.5105 37.2636 45.1975 37.3394 44.8804 37.3401V37.339ZM38.3828 31.3486L44.507 35.6715C44.6183 35.7499 44.749 35.7914 44.8826 35.7906C45.0161 35.7899 45.1464 35.7471 45.2569 35.6675C45.3674 35.5879 45.4532 35.4752 45.5032 35.3437C45.5533 35.2122 45.5653 35.0679 45.5379 34.9291L44.0279 27.41L44.2716 27.1182C46.5571 24.3775 47.8246 20.8468 47.8373 17.1859C47.8684 8.87049 41.5222 2.07828 33.6929 2.04193H33.4533C29.6961 2.04191 26.092 3.62313 23.4303 6.4393C20.7687 9.25547 19.2666 13.077 19.2529 17.067C19.2505 17.7171 19.2872 18.3668 19.3628 19.012V19.0285C19.4314 19.7252 19.5455 20.4159 19.704 21.0958L19.733 21.0881L19.9405 21.7776C20.8599 24.8009 22.6567 27.4378 25.0736 29.3104C27.4905 31.1829 30.4034 32.1952 33.3952 32.2021H33.4325H33.5051H33.5674C35.0868 32.211 36.5978 31.9608 38.0426 31.4609L38.3828 31.3486Z" fill="#385868"/>
<path d="M9.82227 18.0208H18.6089V19.566H9.82227V18.0208Z" fill="#385868"/>
<path d="M12.884 26.2205H21.6717V27.7658H12.884V26.2205Z" fill="#385868"/>
<path d="M5.16235 21.9791H19.2746V23.5244H5.16235V21.9791Z" fill="#385868"/>
<path d="M26.5275 12.2936H35.3141V13.8388H26.5275V12.2936Z" fill="#385868"/>
<path d="M26.5275 20.4933H35.3151V22.0386H26.5275V20.4933Z" fill="#385868"/>
<path d="M26.5275 16.252H40.6397V17.7972H26.5275V16.252Z" fill="#385868"/>
</svg>
