<svg width="332" height="283" viewBox="0 0 332 283" fill="none" xmlns="http://www.w3.org/2000/svg">
<g clip-path="url(#clip0_267_676)">
<path opacity="0.1" d="M330.478 195.121C321.41 149.401 268.285 112.861 257.923 65.2184C239.091 4.60391 177.019 -4.97935 136.683 21.3455C72.7705 63.0575 140.952 73.4087 15.6406 172.097C-15.3016 196.465 -5.44201 304.031 91.9001 279.345C144.285 266.06 160.21 264.196 183.773 262.008C243.165 256.495 345.699 271.866 330.478 195.121Z" fill="#367CFF"/>
<path d="M259.527 206.58L167.731 255.055L76.0732 206.58V133.379H259.527V206.58Z" fill="white"/>
<path d="M167.731 255.798C167.609 255.798 167.49 255.768 167.383 255.711L75.7282 207.236C75.6091 207.173 75.5092 207.079 75.4394 206.964C75.3697 206.849 75.3325 206.717 75.332 206.582V133.379C75.332 133.182 75.4104 132.992 75.5498 132.853C75.6893 132.714 75.8784 132.635 76.0756 132.635H259.527C259.724 132.635 259.913 132.714 260.053 132.853C260.192 132.992 260.27 133.182 260.27 133.379V206.58C260.27 206.714 260.233 206.846 260.163 206.962C260.093 207.077 259.993 207.171 259.874 207.234L168.078 255.709C167.971 255.767 167.852 255.797 167.731 255.798ZM76.8169 206.133L167.731 254.214L258.783 206.132V134.122H76.8169V206.133Z" fill="#C15DFF"/>
<path d="M259.527 117.671L167.731 69.1961L208.98 49.3164L300.776 97.7918L259.527 117.671Z" fill="white"/>
<path d="M259.527 118.414C259.406 118.414 259.287 118.385 259.179 118.329L167.383 69.8532C167.262 69.7888 167.16 69.692 167.09 69.5735C167.021 69.455 166.985 69.3195 166.987 69.1819C166.99 69.0444 167.031 68.9102 167.105 68.7944C167.179 68.6785 167.284 68.5855 167.408 68.5256L208.657 48.6459C208.762 48.5951 208.878 48.5697 208.994 48.5719C209.111 48.5741 209.225 48.6037 209.328 48.6584L301.124 97.1338C301.245 97.1981 301.347 97.2948 301.417 97.4133C301.487 97.5318 301.522 97.6673 301.52 97.8048C301.517 97.9423 301.477 98.0765 301.402 98.1923C301.328 98.3081 301.223 98.401 301.099 98.4608L259.85 118.34C259.749 118.389 259.639 118.414 259.527 118.414ZM169.38 69.2251L259.542 116.837L299.127 97.7601L208.965 50.1496L169.38 69.2251Z" fill="#C15DFF"/>
<path d="M76.0734 117.671L167.869 69.1961L126.62 49.3164L34.8237 97.7918L76.0734 117.671Z" fill="white"/>
<path d="M76.0733 118.414C75.9615 118.414 75.851 118.389 75.7503 118.34L34.503 98.4608C34.3791 98.401 34.2742 98.3081 34.2 98.1923C34.1258 98.0765 34.0852 97.9423 34.0826 97.8048C34.0801 97.6673 34.1158 97.5318 34.1857 97.4133C34.2556 97.2948 34.357 97.1981 34.4787 97.1338L126.275 48.6584C126.378 48.6037 126.492 48.5741 126.608 48.5719C126.725 48.5697 126.84 48.5951 126.945 48.6459L168.195 68.5256C168.319 68.5855 168.424 68.6785 168.498 68.7944C168.572 68.9102 168.613 69.0444 168.615 69.1819C168.618 69.3194 168.582 69.455 168.512 69.5735C168.442 69.692 168.341 69.7888 168.219 69.8532L76.4231 118.329C76.3153 118.385 76.1952 118.415 76.0733 118.414ZM36.4733 97.7613L76.0578 116.838L166.22 69.2263L126.635 50.1496L36.4733 97.7613Z" fill="#C15DFF"/>
<path d="M76.0733 117.67L167.869 166.146L120.671 191.973L28.8749 143.498L76.0733 117.67Z" fill="white"/>
<path d="M120.671 192.716C120.55 192.717 120.43 192.687 120.323 192.63L28.5274 144.155C28.4089 144.092 28.3096 143.998 28.24 143.883C28.1704 143.769 28.1332 143.637 28.1322 143.503C28.1312 143.369 28.1666 143.237 28.2345 143.122C28.3024 143.006 28.4003 142.911 28.5179 142.846L75.7163 117.019C75.8241 116.959 75.9449 116.928 76.0679 116.927C76.1909 116.926 76.3121 116.956 76.4207 117.014L168.217 165.489C168.335 165.552 168.435 165.646 168.504 165.761C168.574 165.875 168.611 166.007 168.612 166.141C168.613 166.275 168.578 166.407 168.51 166.522C168.442 166.638 168.344 166.733 168.226 166.798L121.028 192.625C120.918 192.685 120.796 192.716 120.671 192.716ZM30.4453 143.486L120.664 191.129L166.299 166.157L76.0798 118.515L30.4453 143.486Z" fill="#C15DFF"/>
<path d="M259.527 117.67L167.731 166.146L214.929 191.973L306.725 143.498L259.527 117.67Z" fill="white"/>
<path d="M214.93 192.716C214.806 192.716 214.683 192.685 214.573 192.625L167.375 166.798C167.257 166.733 167.159 166.638 167.092 166.522C167.024 166.407 166.988 166.275 166.989 166.141C166.99 166.007 167.027 165.875 167.097 165.761C167.167 165.646 167.266 165.552 167.384 165.489L259.181 117.014C259.289 116.956 259.41 116.926 259.533 116.927C259.656 116.928 259.777 116.959 259.885 117.019L307.083 142.846C307.201 142.911 307.299 143.006 307.367 143.122C307.435 143.237 307.47 143.369 307.469 143.503C307.468 143.637 307.431 143.769 307.361 143.883C307.292 143.998 307.192 144.092 307.074 144.155L215.278 192.63C215.171 192.687 215.051 192.717 214.93 192.716ZM169.303 166.157L214.937 191.129L305.157 143.486L259.522 118.515L169.303 166.157Z" fill="#C15DFF"/>
<path d="M167.869 69.1958L76.0732 117.671L167.731 166.146L259.527 117.671L167.869 69.1958Z" fill="#C15DFF"/>
<path d="M168.474 166.146H166.987V255.054H168.474V166.146Z" fill="#C15DFF"/>
<path d="M116.299 113.27C116.176 113.27 116.056 113.231 115.956 113.16C115.827 113.069 115.74 112.93 115.713 112.775C115.687 112.619 115.723 112.459 115.814 112.331C115.924 112.175 126.676 96.6347 114.673 82.4668C112.549 79.9462 109.899 77.9205 106.909 76.5318C103.919 75.1431 100.662 74.4249 97.3653 74.4277H97.2035C98.3433 78.3866 98.1398 81.9065 96.5259 84.6069C95.8382 85.8271 94.8234 86.8311 93.5958 87.5058C92.3682 88.1804 90.9766 88.4989 89.5777 88.4254C88.4197 88.3306 87.3145 87.9002 86.3975 87.1869C85.4805 86.4736 84.7914 85.5083 84.4147 84.4094C83.0947 80.9668 84.4742 77.6288 88.1101 75.4775C90.4135 74.2075 92.9729 73.4714 95.5991 73.3237C94.7447 71.059 93.6338 68.8995 92.288 66.8875C87.9543 60.2699 80.056 55.6888 70.6177 54.319C62.6189 53.1585 54.9533 54.5254 51.0859 57.8003C50.9655 57.9022 50.8095 57.9521 50.6522 57.939C50.495 57.9259 50.3494 57.8508 50.2475 57.7304C50.1455 57.61 50.0956 57.454 50.1087 57.2967C50.1219 57.1395 50.1969 56.994 50.3174 56.892C54.4327 53.4072 62.4678 51.9339 70.7884 53.1449C80.5641 54.564 88.7627 59.336 93.2838 66.2386C94.7495 68.4277 95.9418 70.7879 96.8341 73.2666C100.39 73.1812 103.921 73.8946 107.165 75.3543C110.409 76.8139 113.284 78.9827 115.578 81.7007C128.185 96.5818 116.897 112.859 116.782 113.022C116.727 113.098 116.654 113.161 116.57 113.204C116.486 113.247 116.393 113.27 116.299 113.27ZM95.9852 74.4711C93.439 74.5796 90.9522 75.2746 88.7187 76.5017C85.5801 78.3586 84.4177 81.0863 85.5284 83.9841C85.8293 84.8721 86.3825 85.653 87.1204 86.2315C87.8583 86.81 88.7488 87.1608 89.683 87.2412C90.8592 87.2939 92.027 87.0184 93.0556 86.4455C94.0842 85.8726 94.9331 85.0249 95.5075 83.9972C96.9887 81.517 97.1244 78.22 95.9834 74.4711H95.9852Z" fill="#292A2E"/>
<path d="M40.8189 67.39C39.8079 67.6937 38.7184 67.5908 37.7823 67.1032C36.8461 66.6157 36.1373 65.782 35.8067 64.7797C35.4761 63.7774 35.5499 62.6857 36.0123 61.737C36.4748 60.7883 37.2894 60.0576 38.2826 59.7004C39.2759 59.3432 40.3694 59.3878 41.3302 59.8247C42.2911 60.2616 43.0434 61.0563 43.427 62.0395C43.8106 63.0227 43.7952 64.1168 43.3841 65.0888C42.9729 66.0609 42.1985 66.834 41.2258 67.2437C41.0929 67.2999 40.9571 67.3487 40.8189 67.39ZM38.8409 60.7807C38.7445 60.8097 38.6498 60.8438 38.5571 60.883C37.8727 61.1716 37.3279 61.7159 37.0389 62.4001C36.7499 63.0843 36.7395 63.8543 37.0098 64.546C37.2802 65.2378 37.81 65.7967 38.4865 66.1037C39.1629 66.4106 39.9324 66.4414 40.6312 66.1895C41.33 65.9376 41.9028 65.4228 42.2276 64.7549C42.5524 64.0869 42.6036 63.3186 42.3702 62.6135C42.1368 61.9084 41.6373 61.3222 40.9781 60.9799C40.3189 60.6376 39.552 60.5661 38.8409 60.7807Z" fill="#292A2E"/>
<path d="M40.8117 58.0696C39.8554 58.3551 38.8274 58.2771 37.9252 57.8505C37.0229 57.424 36.3103 56.679 35.9242 55.7589C35.6146 55.0212 35.5308 54.2083 35.6833 53.423C35.8358 52.6377 36.2178 51.9152 36.781 51.347C37.3442 50.7788 38.0633 50.3903 38.8473 50.2307C39.6313 50.0711 40.4451 50.1476 41.1856 50.4504C41.9262 50.7532 42.5603 51.2689 43.0078 51.932C43.4552 52.5952 43.6959 53.3762 43.6995 54.1761C43.703 54.9761 43.4692 55.7592 43.0276 56.4263C42.586 57.0934 41.9565 57.6146 41.2186 57.9239C41.0856 57.9795 40.9498 58.0282 40.8117 58.0696ZM38.8361 51.4597C38.7386 51.489 38.6427 51.5233 38.5488 51.5626C37.8509 51.8557 37.298 52.4139 37.0115 53.1144C36.7251 53.8149 36.7285 54.6005 37.0211 55.2985C37.2345 55.8073 37.5908 56.2434 38.0469 56.554C38.503 56.8646 39.0393 57.0364 39.5909 57.0487C40.1426 57.0609 40.686 56.9131 41.1554 56.6231C41.6249 56.333 42.0002 55.9132 42.236 55.4144C42.4718 54.9156 42.558 54.3591 42.4841 53.8124C42.4103 53.2656 42.1796 52.7519 41.8199 52.3335C41.4603 51.9151 40.987 51.6098 40.4575 51.4546C39.928 51.2995 39.3648 51.3016 38.8361 51.4597Z" fill="#292A2E"/>
<path d="M39.657 62.2759C42.5784 62.2759 44.9467 60.6943 44.9467 58.7434C44.9467 56.7925 42.5784 55.2109 39.657 55.2109C36.7356 55.2109 34.3673 56.7925 34.3673 58.7434C34.3673 60.6943 36.7356 62.2759 39.657 62.2759Z" fill="white"/>
<path d="M41.9985 62.5357C41.2401 62.7599 40.4532 62.8728 39.6624 62.8712C36.362 62.8712 33.7731 61.063 33.7731 58.7487C33.7731 56.4344 36.3543 54.6197 39.6535 54.6161C41.0919 54.5885 42.507 54.9813 43.7254 55.7462C44.2726 56.0312 44.7313 56.4607 45.0515 56.9881C45.3718 57.5154 45.5414 58.1204 45.5419 58.7373C45.5425 59.3542 45.3739 59.9595 45.0546 60.4874C44.7353 61.0152 44.2775 61.4456 43.7308 61.7316C43.1963 62.0839 42.6125 62.3549 41.9985 62.5357ZM37.6785 56.0888C36.0889 56.5646 34.9622 57.5918 34.9628 58.7457C34.9628 60.338 37.1145 61.6816 39.6624 61.6792C40.8659 61.7046 42.0508 61.3788 43.0722 60.7419C43.4553 60.5654 43.7798 60.2829 44.0071 59.9276C44.2344 59.5724 44.355 59.1595 44.3546 58.7378C44.3542 58.3161 44.2329 57.9033 44.0049 57.5485C43.777 57.1937 43.4521 56.9117 43.0687 56.7359C42.0465 56.1003 40.8611 55.7766 39.6576 55.8045C38.9876 55.8028 38.3209 55.8985 37.6785 56.0888Z" fill="#292A2E"/>
<path d="M40.9545 62.1683L40.8295 55.2985L39.121 55.2295L39.0015 62.2486L40.9545 62.1683Z" fill="#292A2E"/>
<path d="M32.6392 60.238C32.9408 60.238 33.1853 59.9936 33.1853 59.692C33.1853 59.3905 32.9408 59.146 32.6392 59.146C32.3376 59.146 32.0931 59.3905 32.0931 59.692C32.0931 59.9936 32.3376 60.238 32.6392 60.238Z" fill="#292A2E"/>
<path d="M33.0658 57.3166C33.3674 57.3166 33.6119 57.0722 33.6119 56.7706C33.6119 56.4691 33.3674 56.2246 33.0658 56.2246C32.7642 56.2246 32.5197 56.4691 32.5197 56.7706C32.5197 57.0722 32.7642 57.3166 33.0658 57.3166Z" fill="#292A2E"/>
<path d="M209.77 78.9683C209.642 78.9683 209.518 78.9274 209.416 78.8517C209.314 78.776 209.238 78.6695 209.201 78.5478C207.228 71.1805 206.701 63.5008 207.651 55.9333C209.189 44.8702 215.291 30.3507 235.628 23.993C238.49 23.0731 241.425 22.4003 244.401 21.982C245.36 15.9978 249.005 9.50631 257.158 5.02754C276.528 -5.61445 289.613 3.93372 289.743 4.03126C289.869 4.12591 289.952 4.26682 289.975 4.42298C289.997 4.57914 289.956 4.73777 289.862 4.86397C289.767 4.99017 289.626 5.0736 289.47 5.09591C289.314 5.11822 289.155 5.07757 289.029 4.98293C288.905 4.89014 276.401 -4.18695 257.731 6.0708C250.113 10.2563 246.626 16.2637 245.635 21.8405C254.605 20.9572 258.9 23.949 260.828 26.2086C262.021 27.5674 262.788 29.2472 263.033 31.0385C263.277 32.8299 262.99 34.6536 262.205 36.2826C261.585 37.5992 260.58 38.6968 259.323 39.4305C258.066 40.1642 256.616 40.4995 255.165 40.392C250.155 40.0981 246.009 35.8847 244.604 29.6572C244.141 27.5491 244.017 25.3805 244.239 23.2335C241.439 23.6356 238.678 24.2705 235.984 25.1314C220.133 30.0866 210.999 40.5068 208.829 56.1004C207.899 63.4962 208.412 71.0021 210.338 78.2028C210.366 78.2917 210.372 78.3858 210.356 78.4775C210.34 78.5692 210.303 78.6559 210.248 78.7307C210.193 78.8055 210.121 78.8663 210.038 78.9081C209.955 78.95 209.863 78.9718 209.77 78.9719V78.9683ZM245.452 23.0848C245.204 25.1909 245.31 27.3236 245.765 29.3949C247.05 35.0918 250.767 38.9419 255.234 39.2042C256.452 39.2914 257.667 39.0086 258.721 38.393C259.775 37.7774 260.618 36.8576 261.14 35.7544C261.82 34.3339 262.067 32.7448 261.851 31.1849C261.634 29.625 260.963 28.1633 259.922 26.9818C257.14 23.7182 252.064 22.4002 245.452 23.0848Z" fill="#292A2E"/>
<path d="M303.6 10.0429C302.799 10.0412 302.014 9.81299 301.337 9.38465C300.66 8.95632 300.118 8.34527 299.773 7.62205C299.429 6.89883 299.296 6.09292 299.389 5.29732C299.483 4.50172 299.8 3.74887 300.304 3.12565C300.807 2.50244 301.477 2.03427 302.235 1.77518C302.993 1.51608 303.809 1.47663 304.588 1.66136C305.368 1.8461 306.08 2.2475 306.641 2.81923C307.202 3.39097 307.59 4.10973 307.76 4.89256C307.894 5.51312 307.887 6.15564 307.739 6.77307C307.592 7.3905 307.309 7.96721 306.91 8.46098C306.511 8.95475 306.007 9.35306 305.434 9.62677C304.861 9.90048 304.235 10.0426 303.6 10.0429ZM303.609 2.73645C302.976 2.73643 302.359 2.93263 301.842 3.29801C301.326 3.66339 300.935 4.17996 300.725 4.77652C300.514 5.37308 300.494 6.02026 300.667 6.62887C300.839 7.23748 301.196 7.77755 301.689 8.17465C302.182 8.57175 302.785 8.80632 303.417 8.84605C304.048 8.88577 304.676 8.72868 305.215 8.39644C305.753 8.0642 306.175 7.57315 306.423 6.99099C306.671 6.40882 306.732 5.76419 306.597 5.14594C306.452 4.46192 306.076 3.84879 305.532 3.40989C304.987 2.97099 304.308 2.73315 303.609 2.73645Z" fill="#292A2E"/>
<path d="M301.809 19.7503C300.718 19.7502 299.669 19.3322 298.878 18.5823C298.087 17.8324 297.613 16.8076 297.554 15.7191C297.496 14.6305 297.857 13.5609 298.563 12.7305C299.27 11.9001 300.268 11.372 301.352 11.2551C302.436 11.1381 303.523 11.4411 304.391 12.1017C305.258 12.7624 305.839 13.7303 306.014 14.8063C306.189 15.8823 305.945 16.9845 305.332 17.8859C304.719 18.7873 303.783 19.4195 302.718 19.6521C302.419 19.7173 302.114 19.7502 301.809 19.7503ZM301.823 12.4433C301.603 12.4434 301.384 12.4671 301.169 12.514C300.409 12.6809 299.742 13.1326 299.305 13.7763C298.868 14.4199 298.695 15.2065 298.82 15.9742C298.946 16.7419 299.361 17.4323 299.98 17.9034C300.599 18.3745 301.375 18.5904 302.148 18.5068C302.922 18.4231 303.634 18.0462 304.138 17.4536C304.642 16.861 304.9 16.0979 304.858 15.3211C304.816 14.5443 304.479 13.813 303.914 13.2777C303.35 12.7424 302.601 12.4438 301.823 12.4433Z" fill="#292A2E"/>
<path d="M308.197 11.7803C308.572 9.74872 306.41 7.64676 303.368 7.08548C300.326 6.52419 297.556 7.71614 297.181 9.74774C296.806 11.7793 298.968 13.8813 302.01 14.4426C305.052 15.0038 307.822 13.8119 308.197 11.7803Z" fill="white"/>
<path d="M303.508 15.1771C302.969 15.1762 302.432 15.1265 301.902 15.0284C300.406 14.7802 299.015 14.101 297.899 13.0739C297.411 12.6573 297.035 12.1244 296.807 11.5243C296.58 10.9243 296.507 10.2764 296.596 9.64079C296.74 9.01531 297.039 8.43621 297.466 7.95697C297.893 7.47773 298.434 7.11381 299.039 6.8988C300.454 6.36443 301.988 6.22704 303.476 6.5015C304.963 6.77595 306.347 7.45181 307.478 8.45596C307.967 8.87254 308.342 9.4055 308.57 10.0056C308.798 10.6056 308.871 11.2534 308.782 11.8891C308.638 12.5146 308.338 13.0937 307.911 13.5729C307.484 14.0521 306.943 14.4161 306.339 14.6311C305.442 15.0022 304.479 15.188 303.508 15.1771ZM301.865 7.54118C301.057 7.5309 300.256 7.68406 299.509 7.99143C299.086 8.13291 298.705 8.37756 298.401 8.70325C298.097 9.02895 297.878 9.42539 297.766 9.85669C297.717 10.2997 297.779 10.7479 297.947 11.1608C298.115 11.5736 298.384 11.938 298.728 12.221C299.691 13.0607 300.861 13.6261 302.117 13.8579C303.373 14.0897 304.668 13.9794 305.867 13.5384C306.29 13.397 306.67 13.1523 306.975 12.8266C307.279 12.5009 307.497 12.1045 307.61 11.6732C307.659 11.2301 307.597 10.7818 307.429 10.3689C307.261 9.95604 306.992 9.59167 306.647 9.30889C305.7 8.44512 304.522 7.87609 303.257 7.67144C302.798 7.58612 302.333 7.54252 301.867 7.54118H301.865Z" fill="#292A2E"/>
<path d="M302.002 6.94873L300.806 14.1255L302.571 14.5275L304.051 7.24196L302.002 6.94873Z" fill="#292A2E"/>
<path d="M309.173 14.6699C309.493 14.6699 309.751 14.4111 309.751 14.0918C309.751 13.7725 309.493 13.5137 309.173 13.5137C308.854 13.5137 308.595 13.7725 308.595 14.0918C308.595 14.4111 308.854 14.6699 309.173 14.6699Z" fill="#292A2E"/>
<path d="M310.181 11.71C310.5 11.71 310.759 11.4511 310.759 11.1318C310.759 10.8126 310.5 10.5537 310.181 10.5537C309.862 10.5537 309.603 10.8126 309.603 11.1318C309.603 11.4511 309.862 11.71 310.181 11.71Z" fill="#292A2E"/>
</g>
<defs>
<clipPath id="clip0_267_676">
<rect width="332" height="283" fill="white"/>
</clipPath>
</defs>
</svg>
