<svg xmlns="http://www.w3.org/2000/svg" width="255" height="237" viewBox="0 0 255 237">
<g>
<path d="M 98.56,53.12 L 100.16,54.72 L 101.56,56.04 L 102.35,56.77 L 105.74,59.81 L 107.34,61.16 L 113.18,66.07 L 116.93,62.68 L 120.69,59.29 L 131.09,59.76 L 134.05,59.91 L 135.75,60.02 L 136.47,60.08 L 137.84,60.21 L 138.42,60.28 L 139.51,60.44 L 139.97,60.53 L 141.60,60.94 L 142.20,61.22 L 143.27,61.85 L 143.74,62.28 L 145.29,63.55 L 145.76,63.70 L 146.04,63.67 L 146.61,63.52 L 146.98,63.31 L 147.78,62.80 L 148.30,62.39 L 149.43,61.45 L 150.16,60.80 L 151.74,59.38 L 152.73,58.46 L 154.86,56.48 L 156.18,55.26 L 161.85,50.00 L 201.01,50.00 L 200.50,188.50 L 193.59,188.80 L 186.69,189.10 L 154.18,155.80 L 140.27,141.58 L 135.55,136.78 L 133.23,134.42 L 128.63,129.74 L 126.42,127.49 L 122.06,123.07 L 120.02,121.00 L 116.04,116.97 L 114.24,115.15 L 110.77,111.65 L 109.28,110.15 L 107.83,108.68 L 107.17,108.02 L 105.90,106.75 L 105.33,106.19 L 102.27,103.12 L 100.41,101.24 L 99.57,100.37 L 97.93,98.70 L 97.20,97.93 L 95.79,96.44 L 95.17,95.76 L 92.87,93.22 L 92.01,92.17 L 90.49,90.20 L 89.99,89.39 L 89.16,87.88 L 88.98,87.24 L 88.76,86.05 L 88.86,85.53 L 89.18,84.53 L 89.52,84.07 L 90.30,83.14 L 90.83,82.65 L 91.50,82.22 L 92.00,82.12 L 92.34,82.22 L 93.08,82.52 L 93.59,82.87 L 94.72,83.70 L 95.48,84.36 L 97.15,85.85 L 98.24,86.89 L 99.38,87.99 L 100.02,88.61 L 101.36,89.93 L 102.11,90.67 L 103.67,92.22 L 104.53,93.09 L 106.32,94.89 L 107.31,95.89 L 109.36,97.96 L 110.49,99.10 L 112.81,101.46 L 114.08,102.75 L 123.35,112.22 L 129.70,118.78 L 132.73,121.93 L 135.72,125.03 L 137.13,126.51 L 139.89,129.39 L 141.15,130.72 L 143.59,133.29 L 144.65,134.42 L 146.67,136.58 L 147.50,137.47 L 152.97,143.30 L 156.97,147.51 L 158.99,149.61 L 162.99,153.75 L 164.82,155.63 L 166.62,157.46 L 167.45,158.30 L 169.05,159.91 L 169.75,160.61 L 172.96,163.81 L 174.71,165.59 L 175.41,166.33 L 176.72,167.73 L 177.23,168.31 L 178.15,169.41 L 178.49,169.88 L 179.09,170.78 L 179.30,171.19 L 179.65,171.97 L 179.75,172.35 L 180.00,173.88 L 180.00,174.83 L 180.07,177.17 L 180.29,178.15 L 180.56,178.45 L 181.26,178.93 L 181.88,179.09 L 183.33,179.38 L 184.43,179.54 L 187.87,179.82 L 188.81,179.79 L 189.16,179.75 L 189.78,179.63 L 189.93,179.54 L 190.06,179.25 L 190.15,178.83 L 190.19,178.52 L 190.27,177.82 L 190.30,177.36 L 190.38,176.36 L 190.41,175.75 L 190.48,174.46 L 190.51,173.69 L 190.57,172.10 L 190.59,171.18 L 190.65,169.28 L 190.67,168.21 L 190.72,165.99 L 190.74,164.76 L 190.79,162.23 L 190.80,160.84 L 190.84,157.98 L 190.86,156.43 L 190.89,153.25 L 190.90,151.53 L 190.93,148.02 L 190.94,146.14 L 190.96,142.29 L 190.96,140.24 L 190.98,136.05 L 190.98,133.83 L 190.99,129.29 L 191.00,126.90 L 191.00,122.01 L 191.00,60.00 L 164.94,60.00 L 153.82,70.25 L 144.23,79.08 L 141.22,81.83 L 139.95,83.00 L 138.72,84.12 L 138.19,84.61 L 137.18,85.53 L 136.77,85.90 L 130.85,91.31 L 124.91,85.37 L 131.94,78.44 L 134.68,75.68 L 136.28,74.01 L 136.91,73.32 L 138.07,72.03 L 138.43,71.59 L 138.99,70.85 L 138.99,70.75 L 138.45,70.46 L 137.59,70.29 L 136.96,70.22 L 135.59,70.10 L 134.76,70.06 L 133.03,70.00 L 132.08,70.00 L 129.80,70.01 L 128.55,70.04 L 128.04,70.07 L 126.25,70.27 L 125.59,70.53 L 124.38,71.17 L 123.78,71.75 L 123.16,72.37 L 122.81,72.76 L 122.07,73.60 L 121.64,74.11 L 118.12,78.22 L 96.76,58.71 L 86.23,59.36 L 81.87,59.61 L 79.06,59.75 L 77.80,59.81 L 75.41,59.92 L 74.47,59.95 L 72.80,60.00 L 68.98,60.00 L 69.50,179.40 L 99.50,179.50 L 114.90,165.75 L 120.98,160.41 L 122.84,158.81 L 123.71,158.08 L 125.39,156.66 L 126.15,156.04 L 127.60,154.85 L 128.22,154.36 L 129.39,153.43 L 129.86,153.08 L 130.71,152.46 L 130.99,152.28 L 131.48,152.00 L 131.56,152.00 L 132.32,152.37 L 133.09,152.95 L 133.56,153.37 L 135.64,155.32 L 136.74,156.48 L 138.91,158.84 L 139.70,159.83 L 140.42,160.77 L 140.65,161.13 L 141.00,161.77 L 141.00,161.93 L 140.61,162.56 L 140.00,163.31 L 139.56,163.81 L 138.58,164.87 L 137.99,165.48 L 136.76,166.75 L 136.09,167.41 L 134.49,168.97 L 133.60,169.81 L 133.22,170.14 L 131.83,171.24 L 131.23,171.51 L 130.03,171.87 L 129.32,171.87 L 127.77,171.74 L 126.68,171.58 L 122.18,170.90 L 102.92,189.00 L 59.00,189.00 L 59.00,50.00 L 95.63,50.00 M 90.21,108.28 L 90.75,108.75 L 91.13,109.10 L 91.97,109.89 L 92.49,110.39 L 93.59,111.47 L 94.23,112.10 L 95.55,113.42 L 96.29,114.16 L 97.80,115.70 L 98.61,116.53 L 101.99,120.03 L 103.81,121.95 L 117.05,135.90 L 110.28,142.34 L 107.12,145.28 L 104.76,147.44 L 103.55,148.53 L 101.12,150.70 L 99.99,151.70 L 97.80,153.62 L 96.89,154.39 L 95.29,155.72 L 94.58,156.29 L 93.21,157.37 L 92.61,157.81 L 91.47,158.62 L 90.99,158.92 L 90.09,159.47 L 89.73,159.64 L 89.07,159.91 L 88.83,159.95 L 88.42,159.95 L 88.30,159.85 L 88.14,159.58 L 88.15,159.34 L 88.25,158.80 L 88.39,158.42 L 88.51,157.60 L 88.59,156.59 L 88.63,155.88 L 88.70,154.31 L 88.73,153.35 L 88.79,151.31 L 88.82,150.13 L 88.87,147.67 L 88.90,146.32 L 88.94,143.52 L 88.95,142.02 L 89.00,135.78 L 89.00,132.42 L 89.06,122.94 L 89.11,120.09 L 89.13,118.79 L 89.19,116.28 L 89.23,115.17 L 89.30,113.06 L 89.35,112.18 L 89.43,110.55 L 89.48,109.93 L 89.58,108.83 L 89.63,108.50 L 89.73,108.00 L 89.78,108.00 M 170.55,82.22 L 170.62,82.46 L 170.65,82.81 L 170.70,83.68 L 170.72,84.32 L 170.76,85.74 L 170.78,86.64 L 170.81,88.56 L 170.82,89.68 L 170.83,92.02 L 170.84,93.33 L 170.84,96.03 L 170.83,97.49 L 170.80,103.60 L 170.77,106.93 L 170.50,131.16 L 168.08,128.58 L 166.15,126.76 L 165.61,126.33 L 165.40,126.20 L 165.03,126.00 L 164.93,126.00 L 164.17,125.48 L 163.23,124.66 L 162.59,124.05 L 161.21,122.73 L 160.40,121.92 L 158.70,120.22 L 157.77,119.28 L 153.93,115.32 L 152.05,113.30 L 150.19,111.29 L 149.33,110.35 L 147.69,108.51 L 146.98,107.70 L 143.70,103.90 L 145.98,102.30 L 146.66,101.79 L 147.31,101.27 L 147.72,100.94 L 149.59,99.40 L 150.79,98.39 L 153.33,96.25 L 154.75,95.03 L 157.66,92.53 L 159.16,91.23 L 163.44,87.58 L 165.98,85.48 L 167.01,84.67 L 168.00,83.89 L 168.42,83.58 L 169.20,83.00 L 169.51,82.78 L 170.06,82.41 L 170.24,82.32 L 170.52,82.19 Z" fill="rgba(26,48,70,1)"/>
<path d="M 181.26,178.93 L 181.88,179.09 L 183.33,179.38 L 183.33,179.38 L 181.88,179.09 L 181.26,178.93 L 180.69,178.53 M 180.57,178.45 L 180.56,178.45 L 180.50,178.38 M 180.29,178.15 L 180.29,178.15 L 180.19,177.70 M 180.07,177.17 L 180.07,177.17 L 180.05,176.32 M 157.56,148.11 L 161.98,152.69 L 163.98,154.74 L 165.92,156.72 L 166.81,157.62 L 168.51,159.35 L 169.25,160.09 L 172.61,163.47 L 172.64,163.49 L 169.75,160.61 L 169.05,159.91 L 167.45,158.30 L 166.62,157.46 L 164.82,155.63 L 162.99,153.75 L 158.99,149.61 L 156.97,147.51 L 155.58,146.04 M 109.17,97.57 L 113.76,102.28 L 116.96,105.57 L 118.60,107.26 L 125.21,114.10 L 128.42,117.44 L 129.60,118.67 L 123.35,112.22 L 114.08,102.75 L 112.81,101.46 L 110.49,99.10 L 109.36,97.96 L 107.31,95.89 L 106.32,94.89 L 104.53,93.09 L 103.67,92.22 L 102.11,90.67 L 101.36,89.93 L 100.02,88.61 L 99.38,87.99 L 98.24,86.89 L 97.15,85.85 L 95.48,84.36 L 94.72,83.70 L 93.59,82.87 L 93.08,82.52 L 92.34,82.22 L 92.00,82.12 L 91.50,82.22 L 90.83,82.65 L 90.30,83.14 L 89.52,84.07 L 89.18,84.53 L 88.86,85.53 L 88.76,86.05 L 88.98,87.24 L 89.16,87.88 L 89.99,89.39 L 90.49,90.20 L 92.01,92.17 L 92.87,93.22 L 95.17,95.76 L 95.79,96.44 L 97.20,97.93 L 97.93,98.70 L 99.57,100.37 L 100.41,101.24 L 102.27,103.12 L 105.33,106.19 L 105.90,106.75 L 107.17,108.02 L 107.83,108.68 L 109.28,110.15 L 110.77,111.65 L 114.24,115.15 L 116.04,116.97 L 120.02,121.00 L 122.06,123.07 L 126.42,127.49 L 128.63,129.74 L 133.23,134.42 L 135.55,136.78 L 140.27,141.58 L 154.18,155.80 L 140.25,141.57 L 135.53,136.76 L 133.21,134.39 L 128.60,129.70 L 126.38,127.45 L 122.00,123.01 L 119.96,120.93 L 115.96,116.89 L 114.15,115.06 L 110.67,111.54 L 109.16,110.03 L 107.70,108.56 L 107.03,107.89 L 105.75,106.61 L 105.19,106.04 L 88.70,89.59 L 88.20,82.61 L 87.70,75.63 Z" fill="rgba(66,81,96,1)"/>
<path d="M 141.24,81.81 L 139.98,82.97 L 138.75,84.09 L 138.22,84.58 L 137.22,85.50 L 136.81,85.87 L 130.93,91.23 L 130.93,91.23 L 136.77,85.90 L 137.18,85.53 L 138.19,84.61 L 138.72,84.12 L 139.95,83.00 L 141.22,81.83 L 144.23,79.08 L 153.82,70.25 L 144.24,79.07 M 88.20,82.61 L 88.56,87.60 L 88.21,82.68 L 87.71,75.77 M 118.12,78.22 L 121.64,74.11 L 122.07,73.60 L 122.81,72.76 L 123.16,72.37 L 123.78,71.75 L 124.38,71.17 L 125.59,70.53 L 126.25,70.27 L 128.04,70.07 L 128.55,70.04 L 129.80,70.01 L 132.08,70.00 L 133.03,70.00 L 134.76,70.06 L 135.59,70.10 L 136.96,70.22 L 137.59,70.29 L 138.45,70.46 L 138.99,70.75 L 138.99,70.85 L 138.43,71.59 L 138.07,72.03 L 136.91,73.32 L 136.28,74.01 L 134.68,75.68 L 131.94,78.44 L 124.93,85.35 L 119.71,80.23 L 110.06,70.92 L 108.10,69.07 M 100.38,62.02 L 96.67,58.72 L 96.76,58.71 M 75.41,59.92 L 77.80,59.81 L 79.06,59.75 L 81.87,59.61 L 86.23,59.36 L 86.18,59.36 L 81.84,59.61 L 79.04,59.75 L 77.79,59.81 L 75.40,59.92 L 74.47,59.95 L 72.80,60.00 L 74.47,59.95 M 191.00,126.90 L 190.99,129.29 L 190.98,133.83 L 190.98,136.05 L 190.96,140.24 L 190.96,142.29 L 190.94,146.14 L 190.93,148.02 L 190.90,151.53 L 190.89,153.25 L 190.86,156.43 L 190.84,157.98 L 190.80,160.84 L 190.79,162.23 L 190.74,164.76 L 190.72,165.99 L 190.67,168.21 L 190.65,169.28 L 190.59,171.18 L 190.57,172.10 L 190.51,173.69 L 190.48,174.46 L 190.41,175.75 L 190.38,176.36 L 190.30,177.36 L 190.27,177.82 L 190.19,178.52 L 190.15,178.83 L 190.06,179.25 L 189.93,179.54 L 189.78,179.63 L 189.16,179.75 L 188.81,179.79 L 187.87,179.82 L 184.43,179.54 L 183.33,179.38 L 181.88,179.09 L 181.26,178.93 L 180.57,178.45 L 180.29,178.15 L 180.07,177.18 L 180.00,174.86 L 180.00,173.91 L 179.74,172.38 L 179.63,171.99 L 179.26,171.19 L 179.05,170.77 L 178.41,169.84 L 178.06,169.35 L 177.09,168.20 L 176.56,167.59 L 175.19,166.12 L 174.45,165.34 L 172.61,163.47 L 169.25,160.09 L 168.51,159.35 L 166.81,157.62 L 165.92,156.72 L 163.98,154.74 L 161.98,152.69 L 157.56,148.11 L 155.33,145.79 L 150.82,141.06 L 144.56,134.42 L 143.61,133.39 L 141.33,130.97 L 140.13,129.71 L 137.46,126.90 L 136.08,125.45 L 133.11,122.33 L 131.59,120.75 L 128.42,117.44 L 125.21,114.10 L 118.60,107.26 L 116.96,105.57 L 113.76,102.28 L 109.17,97.57 L 88.06,75.99 L 90.19,77.39 L 92.10,78.36 L 92.63,78.51 L 92.82,78.52 L 93.16,78.51 L 93.24,78.43 L 94.94,77.57 L 96.37,77.46 L 97.15,77.62 L 98.73,78.08 L 99.50,78.50 L 101.00,79.48 L 101.64,80.14 L 103.81,82.16 L 104.43,82.63 L 104.66,82.77 L 105.09,83.00 L 105.20,83.00 L 105.68,83.32 L 106.29,83.83 L 106.72,84.23 L 107.67,85.12 L 108.26,85.68 L 109.51,86.89 L 110.24,87.60 L 111.75,89.10 L 112.59,89.94 L 114.33,91.67 L 115.27,92.62 L 119.20,96.60 L 121.35,98.80 L 125.74,103.31 L 128.00,105.65 L 132.52,110.36 L 134.73,112.68 L 139.08,117.27 L 141.07,119.41 L 143.03,121.51 L 143.95,122.50 L 145.74,124.45 L 146.55,125.34 L 148.60,127.57 L 150.14,129.23 L 150.98,130.13 L 154.52,133.90 L 156.43,135.91 L 160.31,139.97 L 162.21,141.95 L 165.96,145.81 L 167.63,147.51 L 179.76,159.84 L 180.44,152.95 L 180.67,150.69 L 180.81,149.47 L 180.88,148.98 L 181.04,148.08 L 181.13,147.73 L 181.33,147.10 L 181.46,146.86 L 182.05,146.11 L 182.54,145.91 L 183.65,145.59 L 184.49,145.44 L 187.15,145.15 L 187.88,145.16 L 188.17,145.20 L 188.66,145.29 L 188.79,145.37 L 189.33,144.96 L 189.49,144.50 L 189.56,144.18 L 189.71,143.45 L 189.78,142.99 L 189.92,142.00 L 189.98,141.40 L 190.11,140.13 L 190.16,139.39 L 190.27,137.84 L 190.32,136.95 L 190.42,135.12 L 190.47,134.09 L 190.55,131.96 L 190.59,130.79 L 190.67,128.36 L 190.70,127.04 L 190.76,124.32 L 190.79,122.84 L 190.84,119.81 L 190.86,118.18 L 190.90,114.83 L 190.92,113.04 L 190.95,109.38 L 190.96,107.43 L 190.98,103.45 L 190.99,101.34 L 190.99,97.03 L 190.99,94.75 L 191.00,60.00 L 191.00,122.01 Z" fill="rgba(112,136,164,1)"/>
<path d="M 140.25,141.57 L 154.18,155.80 L 186.69,189.10 L 154.16,155.80 L 145.05,146.48 L 139.42,140.73 L 136.82,138.07 L 136.02,137.25 M 102.34,79.25 L 104.82,81.75 L 106.82,83.78 L 107.97,84.95 L 110.34,87.37 L 111.64,88.70 L 114.31,91.43 L 115.72,92.88 L 121.56,98.88 L 124.58,102.01 L 130.65,108.27 L 133.53,111.27 L 154.50,133.04 L 158.87,128.91 L 163.23,124.78 L 161.76,123.25 L 162.59,124.05 L 163.23,124.66 L 164.17,125.48 L 164.93,126.00 L 165.03,126.00 L 165.40,126.20 L 165.61,126.33 L 166.15,126.76 L 168.08,128.58 L 170.50,131.16 L 170.77,106.93 L 170.80,103.60 L 170.83,97.49 L 170.84,96.03 L 170.84,93.33 L 170.83,92.02 L 170.82,89.68 L 170.81,88.56 L 170.78,86.64 L 170.76,85.74 L 170.72,84.32 L 170.70,83.68 L 170.65,82.86 L 170.66,82.89 L 170.76,83.90 L 170.80,84.64 L 170.88,86.26 L 170.91,87.26 L 170.98,89.39 L 171.00,90.62 L 171.04,93.17 L 171.05,94.58 L 171.07,97.46 L 171.08,99.00 L 171.08,105.37 L 171.05,108.70 L 170.98,115.40 L 170.92,118.62 L 170.79,124.93 L 170.71,127.69 L 170.62,130.37 L 170.57,131.56 L 170.46,133.85 L 170.41,134.81 L 170.29,136.61 L 170.23,137.30 L 170.10,138.53 L 170.04,138.90 L 169.37,144.04 L 169.29,145.50 L 169.30,146.08 L 169.36,147.11 L 169.43,147.40 L 170.04,148.64 L 170.78,149.80 L 171.27,150.48 L 173.53,153.45 L 174.16,154.14 L 167.63,147.51 L 165.96,145.81 L 162.21,141.95 L 160.31,139.97 L 156.43,135.91 L 154.52,133.90 L 150.98,130.13 L 150.14,129.23 L 148.60,127.57 L 146.55,125.34 L 145.74,124.45 L 143.95,122.50 L 143.03,121.51 L 141.07,119.41 L 139.08,117.27 L 134.73,112.68 L 132.52,110.36 L 128.00,105.65 L 125.74,103.31 L 121.35,98.80 L 119.20,96.60 L 115.27,92.62 L 114.33,91.67 L 112.59,89.94 L 111.75,89.10 L 110.24,87.60 L 109.51,86.89 L 108.26,85.68 L 107.67,85.12 L 106.72,84.23 L 106.29,83.83 L 105.68,83.32 L 105.20,83.00 L 105.09,83.00 L 104.66,82.77 L 104.43,82.63 L 103.81,82.16 L 101.64,80.14 L 101.00,79.48 L 99.50,78.50 L 98.73,78.08 L 97.15,77.62 L 96.37,77.46 L 94.94,77.57 L 93.24,78.43 L 93.16,78.51 L 92.82,78.52 L 92.63,78.51 L 92.10,78.36 L 90.19,77.39 L 87.71,75.77 L 88.21,82.68 L 88.70,89.59 L 105.19,106.04 L 105.30,106.16 L 104.64,105.50 L 103.45,104.33 L 101.17,102.07 L 100.16,101.09 L 98.24,99.22 L 97.40,98.42 L 95.81,96.91 L 95.14,96.28 L 93.85,95.10 L 93.32,94.63 L 92.31,93.75 L 91.90,93.41 L 91.14,92.81 L 90.85,92.60 L 90.31,92.24 L 90.11,92.14 L 89.77,92.00 L 89.66,92.00 L 88.82,92.26 L 88.43,92.77 L 88.31,93.27 L 88.12,94.43 L 88.08,95.32 L 88.02,97.34 L 88.02,98.75 L 88.04,105.50 L 97.50,115.40 L 96.29,114.16 L 95.55,113.42 L 94.23,112.10 L 93.59,111.47 L 92.49,110.39 L 91.97,109.89 L 91.13,109.10 L 90.75,108.75 L 90.21,108.28 L 89.78,108.00 L 89.73,108.00 L 89.63,108.50 L 89.58,108.83 L 89.48,109.93 L 89.43,110.55 L 89.35,112.18 L 89.30,113.06 L 89.23,115.17 L 89.19,116.28 L 89.13,118.79 L 89.11,120.09 L 89.06,122.94 L 89.00,132.42 L 89.00,135.78 L 88.95,142.02 L 88.94,143.52 L 88.90,146.32 L 88.87,147.67 L 88.82,150.13 L 88.79,151.31 L 88.73,153.35 L 88.70,154.31 L 88.63,155.88 L 88.59,156.59 L 88.51,157.60 L 88.39,158.42 L 88.25,158.80 L 88.15,159.34 L 88.14,159.58 L 88.30,159.85 L 88.42,159.95 L 88.83,159.95 L 89.07,159.91 L 89.73,159.64 L 90.09,159.47 L 90.99,158.92 L 91.47,158.62 L 92.61,157.81 L 93.21,157.37 L 94.58,156.29 L 95.21,155.79 L 94.28,156.58 L 91.79,158.72 L 90.63,159.73 L 86.15,163.68 L 83.67,165.92 L 79.83,169.39 L 80.10,164.39 L 80.15,160.58 L 80.10,159.58 L 80.06,159.21 L 79.97,158.58 L 79.91,158.45 L 79.86,158.12 L 79.83,157.68 L 79.82,157.35 L 79.80,156.63 L 79.79,156.17 L 79.77,155.18 L 79.76,154.59 L 79.72,151.98 L 79.71,150.33 L 79.69,146.83 L 79.69,144.78 L 79.68,140.50 L 79.69,138.11 L 79.69,133.17 L 79.70,130.51 L 79.73,125.04 L 79.74,122.16 L 79.78,116.29 L 79.81,113.25 L 80.16,69.00 L 92.12,69.00 M 190.32,136.95 L 190.27,137.84 L 190.16,139.39 L 190.11,140.13 L 189.98,141.40 L 189.92,142.00 L 189.78,142.99 L 189.71,143.45 L 189.56,144.18 L 189.49,144.50 L 189.33,144.96 L 188.79,145.37 L 188.66,145.29 L 188.17,145.20 L 187.88,145.16 L 187.15,145.15 L 184.49,145.44 L 183.65,145.59 L 182.54,145.91 L 182.05,146.11 L 181.46,146.86 L 181.33,147.10 L 181.13,147.73 L 181.04,148.08 L 180.88,148.98 L 180.81,149.47 L 180.67,150.69 L 180.44,152.95 L 180.22,155.15 L 180.44,152.78 L 180.67,150.46 L 180.82,149.18 L 180.89,148.65 L 181.21,146.84 L 181.42,146.28 L 181.90,145.36 L 182.25,145.11 L 183.02,144.71 L 183.58,144.57 L 185.29,143.87 L 186.00,143.28 L 186.00,143.03 L 186.20,142.37 L 186.51,141.70 L 186.73,141.28 L 187.81,139.42 L 188.50,138.40 L 190.40,135.61 M 105.09,147.14 L 104.02,148.11 L 101.92,150.01 L 100.98,150.84 L 99.19,152.41 L 98.95,152.61 L 99.99,151.70 L 101.12,150.70 L 103.55,148.53 L 104.76,147.44 L 105.99,146.32 M 117.07,135.88 L 117.05,135.90 L 111.92,130.50 M 153.33,96.25 L 150.79,98.39 L 149.59,99.40 L 147.72,100.94 L 147.31,101.27 L 146.66,101.79 L 145.98,102.30 L 143.70,103.90 L 146.98,107.70 L 147.57,108.38 L 146.93,107.68 L 146.53,107.24 L 143.60,103.97 L 145.92,102.34 L 146.61,101.82 L 147.27,101.30 L 147.69,100.96 L 149.57,99.41 L 150.77,98.40 L 153.32,96.25 L 154.74,95.04 L 157.66,92.53 L 154.75,95.03 M 165.96,85.47 L 166.99,84.65 L 167.97,83.87 L 168.38,83.55 L 169.16,82.95 L 169.46,82.74 L 170.00,82.36 L 170.18,82.26 L 170.45,82.12 L 170.48,82.15 L 170.49,82.20 L 170.24,82.32 L 170.06,82.41 L 169.51,82.78 L 169.20,83.00 L 168.42,83.58 L 168.00,83.89 L 167.01,84.67 L 165.98,85.48 L 163.44,87.58 L 159.16,91.23 L 163.43,87.57 Z" fill="rgba(140,163,196,1)"/>
<path d="M 120.05,140.60 L 120.27,140.69 L 120.47,140.83 L 120.93,141.16 L 121.25,141.42 L 121.93,141.99 L 122.35,142.36 L 123.23,143.14 L 123.75,143.61 L 125.97,145.69 L 127.32,147.00 L 131.28,150.91 L 133.77,153.42 L 134.84,154.54 L 135.08,154.79 L 133.56,153.37 L 133.09,152.95 L 132.32,152.37 L 131.56,152.00 L 131.48,152.00 L 130.99,152.28 L 130.71,152.46 L 129.86,153.08 L 129.39,153.43 L 128.22,154.36 L 127.60,154.85 L 126.15,156.04 L 125.39,156.66 L 123.71,158.08 L 122.84,158.81 L 120.98,160.41 L 114.90,165.75 L 99.50,179.50 L 71.82,179.41 L 72.00,178.95 L 72.00,178.57 L 72.29,177.78 L 72.75,177.07 L 73.09,176.67 L 74.69,174.93 L 75.71,174.09 L 77.72,172.27 L 78.62,171.17 L 78.91,170.55 L 79.42,169.21 L 79.58,168.32 L 79.87,166.36 L 80.00,165.00 L 80.11,163.56 L 80.10,164.39 L 79.83,169.39 L 83.67,165.92 L 86.15,163.68 L 90.24,160.08 L 89.46,160.78 L 88.81,161.38 L 87.58,162.54 L 87.06,163.05 L 86.09,164.03 L 85.71,164.45 L 85.01,165.24 L 84.76,165.57 L 84.31,166.19 L 84.19,166.43 L 84.00,166.88 L 84.00,167.03 L 84.22,167.67 L 84.54,167.88 L 84.75,167.83 L 85.32,167.83 L 85.94,167.88 L 86.33,167.93 L 88.10,168.21 L 89.09,168.41 L 92.63,168.62 L 94.94,168.20 L 96.09,167.71 L 97.59,166.83 L 99.04,165.82 L 99.95,165.13 L 101.89,163.66 L 102.99,162.78 L 105.28,160.95 L 106.52,159.93 L 111.68,155.61 L 114.32,153.30 L 119.56,148.65 L 121.87,146.47 L 122.46,145.67 L 122.57,145.09 L 122.46,144.71 L 122.14,143.90 L 121.79,143.35 L 120.99,142.15 L 120.39,141.34 L 120.02,140.76 L 119.97,140.59 M 69.51,177.57 L 69.53,177.99 L 69.58,178.73 L 69.60,178.96 L 69.64,179.31 L 69.67,179.33 L 69.75,179.41 L 69.50,179.40 L 69.49,177.01 M 130.31,171.80 L 130.28,171.80 L 131.16,171.53 M 141.26,162.17 L 136.38,167.16 L 134.78,168.78 L 133.89,169.65 L 133.51,169.99 L 132.14,171.13 L 131.53,171.41 L 131.24,171.50 L 131.83,171.24 L 133.22,170.14 L 133.60,169.81 L 134.49,168.97 L 136.09,167.41 L 136.76,166.75 L 137.99,165.48 L 138.58,164.87 L 139.56,163.81 L 140.00,163.31 L 140.61,162.56 L 141.00,161.93 L 141.00,161.82 M 124.53,171.26 L 122.13,170.95 L 122.18,170.90 M 178.26,69.07 L 178.65,69.27 L 178.81,69.54 L 179.10,70.21 L 179.22,70.81 L 179.44,72.21 L 179.53,73.28 L 179.62,74.42 L 179.66,75.10 L 179.74,76.53 L 179.78,77.37 L 179.85,79.12 L 179.88,80.13 L 179.95,82.25 L 179.99,83.45 L 180.06,85.96 L 180.09,87.37 L 180.16,90.31 L 180.20,91.95 L 180.27,95.34 L 180.32,97.22 L 180.40,101.11 L 180.44,103.25 L 180.60,110.14 L 180.71,114.53 L 180.76,116.58 L 180.88,120.60 L 180.93,122.44 L 181.04,126.00 L 181.09,127.57 L 181.20,130.57 L 181.25,131.83 L 181.35,134.18 L 181.39,135.08 L 181.48,136.68 L 181.52,137.17 L 181.60,137.92 L 181.63,137.96 L 182.13,138.02 L 182.76,137.94 L 183.18,137.85 L 185.13,137.36 L 186.29,136.96 L 190.46,135.51 L 188.50,138.40 L 187.81,139.42 L 186.73,141.28 L 186.51,141.70 L 186.20,142.37 L 186.00,143.03 L 186.00,143.28 L 185.29,143.87 L 183.58,144.57 L 183.02,144.71 L 182.25,145.11 L 181.90,145.36 L 181.42,146.28 L 181.21,146.84 L 180.89,148.65 L 180.82,149.18 L 180.67,150.46 L 180.44,152.78 L 179.73,160.39 L 174.87,154.95 L 173.53,153.45 L 171.27,150.48 L 170.78,149.80 L 170.04,148.64 L 169.43,147.40 L 169.36,147.11 L 169.30,146.08 L 169.29,145.50 L 169.37,144.04 L 170.04,138.90 L 170.10,138.53 L 170.23,137.30 L 170.29,136.61 L 170.41,134.81 L 170.46,133.85 L 170.57,131.56 L 170.62,130.37 L 170.71,127.69 L 170.79,124.93 L 170.92,118.62 L 170.98,115.40 L 171.05,108.70 L 171.08,105.37 L 171.08,99.00 L 171.07,97.46 L 171.05,94.58 L 171.04,93.17 L 171.00,90.62 L 170.98,89.39 L 170.91,87.26 L 170.88,86.26 L 170.80,84.64 L 170.76,83.90 L 170.66,82.89 L 170.48,82.15 L 170.45,82.12 L 170.18,82.26 L 170.00,82.36 L 169.46,82.74 L 169.16,82.95 L 168.38,83.55 L 167.97,83.87 L 166.99,84.65 L 165.96,85.47 L 163.43,87.57 L 159.16,91.23 L 157.66,92.53 L 154.74,95.04 L 153.32,96.25 L 150.77,98.40 L 149.57,99.41 L 147.69,100.96 L 147.27,101.30 L 146.61,101.82 L 145.92,102.34 L 143.60,103.97 L 146.53,107.24 L 146.93,107.68 L 148.21,109.07 L 148.91,109.82 L 150.62,111.64 L 156.35,117.64 L 163.23,124.78 L 158.87,128.91 L 154.50,133.04 L 163.11,124.90 L 154.28,115.58 L 150.61,111.75 L 148.22,109.31 L 147.13,108.23 L 145.07,106.18 L 144.25,105.39 L 143.48,104.65 L 143.16,104.36 L 142.57,103.82 L 142.36,103.65 L 139.78,100.88 L 139.02,99.82 L 138.70,99.31 L 138.13,98.31 L 137.95,97.88 L 137.30,96.10 L 137.13,95.25 L 137.20,94.91 L 137.43,94.27 L 137.72,93.95 L 138.40,93.28 L 138.93,92.86 L 141.27,91.55 L 143.01,91.00 L 143.68,91.00 L 145.29,90.53 L 146.71,89.75 L 147.61,89.11 L 149.53,87.67 L 150.69,86.70 L 153.14,84.60 L 154.58,83.28 L 157.02,81.07 L 158.44,79.83 L 159.05,79.31 L 160.22,78.34 L 160.73,77.95 L 161.71,77.23 L 162.15,76.95 L 163.77,76.02 L 164.49,75.79 L 165.92,75.46 L 166.70,75.44 L 169.43,74.99 L 170.12,74.73 L 170.35,74.58 L 170.75,74.26 L 170.80,74.10 L 171.86,72.37 L 172.97,71.22 L 173.63,70.72 L 174.99,69.79 L 175.67,69.48 L 177.00,69.00 L 177.54,69.00 M 108.02,144.44 L 110.28,142.32 L 117.07,135.88 L 110.28,142.33 M 191.00,134.72 L 190.50,135.46 L 191.00,63.46 M 102.58,63.97 L 102.99,64.34 L 103.11,64.44 L 102.74,64.12 L 100.62,62.24 L 99.44,61.25 L 98.89,60.86 L 97.81,60.16 L 97.24,59.91 L 96.06,59.48 L 95.36,59.34 L 93.89,59.13 L 92.97,59.09 L 91.10,59.06 L 96.67,58.72 M 69.00,60.30 L 69.00,63.64 L 68.98,60.00 L 72.80,60.00 L 74.47,59.95 L 75.23,59.92 Z" fill="rgba(185,192,176,1)"/>
<path d="M 123.00,211.00 L 122.43,210.43 L 121.66,209.13 L 121.34,208.46 L 121.03,207.04 L 120.93,206.32 L 121.05,204.88 L 121.15,204.16 L 121.65,202.79 L 121.94,202.12 L 122.77,200.91 L 123.22,200.33 L 124.35,199.39 L 124.95,198.96 L 126.33,198.37 L 128.64,198.00 L 129.41,198.00 L 130.84,198.41 L 131.53,198.67 L 132.75,199.51 L 133.33,199.98 L 134.30,201.15 L 134.75,201.76 L 135.42,203.14 L 135.71,203.85 L 136.04,205.33 L 136.15,206.07 L 136.08,207.54 L 135.99,208.26 L 135.48,209.60 L 134.17,211.35 L 133.53,211.93 L 131.69,212.62 L 130.72,212.89 L 128.55,212.97 L 127.47,212.94 L 125.43,212.43 L 124.47,212.10 M 47.90,199.94 L 47.75,199.85 L 47.51,199.36 L 47.39,199.05 L 47.19,198.03 L 47.10,197.44 L 46.95,195.73 L 46.88,194.78 L 46.77,192.25 L 46.71,190.87 L 46.64,187.38 L 46.62,186.44 L 46.59,184.36 L 46.58,183.28 L 46.56,180.91 L 46.55,179.68 L 46.53,177.00 L 46.52,175.62 L 46.51,172.61 L 46.51,171.07 L 46.50,167.72 L 46.50,162.28 L 46.50,125.50 L 43.75,122.80 L 42.82,121.88 L 41.66,119.86 L 41.20,118.82 L 40.96,116.63 L 40.96,115.52 L 41.65,113.26 L 43.73,109.91 L 46.46,106.66 L 46.13,72.95 L 46.11,70.63 L 46.08,66.17 L 46.07,63.97 L 46.07,59.82 L 46.07,57.79 L 46.09,54.05 L 46.11,52.24 L 46.15,48.99 L 46.17,47.44 L 46.23,44.79 L 46.27,43.55 L 46.35,41.59 L 46.39,40.70 L 46.49,39.52 L 46.65,38.73 L 46.71,38.69 L 47.34,38.62 L 47.74,38.58 L 49.00,38.50 L 49.70,38.46 L 51.51,38.38 L 52.48,38.34 L 54.77,38.26 L 55.97,38.22 L 58.67,38.14 L 60.06,38.10 L 63.09,38.03 L 73.10,37.86 L 98.70,37.50 L 105.44,43.41 L 112.18,49.33 L 114.99,47.66 L 115.54,47.34 L 116.92,46.85 L 117.68,46.64 L 119.71,46.34 L 120.28,46.28 L 121.59,46.18 L 122.28,46.14 L 123.86,46.08 L 124.69,46.05 L 126.60,46.02 L 129.86,46.00 L 131.60,46.00 L 134.88,46.09 L 136.46,46.14 L 139.22,46.33 L 140.51,46.43 L 142.53,46.69 L 142.97,46.76 L 143.68,46.91 L 144.44,47.16 L 145.03,47.42 L 145.97,47.65 L 146.44,47.69 L 147.43,47.33 L 147.97,47.06 L 149.39,45.93 L 149.79,45.59 L 150.74,44.73 L 152.43,43.16 L 157.88,38.00 L 184.83,38.00 L 211.78,38.00 L 212.33,40.25 L 212.37,40.40 L 212.44,41.36 L 212.48,41.95 L 212.55,43.69 L 212.59,44.65 L 212.65,47.07 L 212.69,48.36 L 212.75,51.38 L 212.78,52.95 L 212.83,56.47 L 212.85,58.28 L 212.89,62.19 L 212.91,64.19 L 212.94,68.41 L 212.97,74.98 L 213.07,107.46 L 215.53,110.03 L 216.39,110.93 L 217.45,112.99 L 217.87,114.05 L 218.04,116.31 L 218.01,117.45 L 217.30,119.77 L 215.25,123.12 L 212.50,126.38 L 212.86,161.56 L 212.89,164.84 L 212.93,170.62 L 212.95,173.40 L 212.96,178.23 L 212.96,180.53 L 212.94,184.48 L 212.92,186.35 L 212.87,189.48 L 212.83,190.94 L 212.74,193.32 L 212.69,194.42 L 212.55,196.12 L 212.48,196.89 L 212.31,197.98 L 212.00,199.00 L 211.70,199.56 L 211.04,200.29 L 210.82,200.44 L 210.22,200.67 L 209.88,200.77 L 208.93,200.91 L 208.40,200.96 L 206.98,201.02 L 206.20,201.03 L 204.18,201.02 L 203.09,201.01 L 200.34,200.94 L 195.28,200.79 L 179.76,200.32 L 165.81,186.16 L 163.89,184.21 L 160.34,180.66 L 159.48,179.82 L 157.90,178.26 L 157.13,177.50 L 155.75,176.16 L 155.09,175.52 L 153.94,174.43 L 153.40,173.92 L 152.53,173.12 L 152.14,172.76 L 151.59,172.29 L 151.17,172.00 L 151.07,172.00 L 150.28,172.51 L 149.81,172.84 L 148.39,173.91 L 147.62,174.50 L 145.77,175.98 L 142.69,178.50 L 141.72,179.31 L 140.11,180.64 L 139.36,181.26 L 138.10,182.25 L 137.50,182.71 L 136.48,183.41 L 135.99,183.72 L 135.09,184.18 L 134.21,184.59 L 132.37,184.90 L 131.87,184.95 L 130.71,184.99 L 128.63,185.00 L 127.26,185.00 L 125.26,185.09 L 124.35,185.15 L 123.02,185.45 L 122.40,185.63 L 121.41,186.24 L 119.92,187.60 L 119.59,187.96 L 118.47,189.01 L 117.86,189.59 L 116.32,190.95 L 111.04,195.35 L 104.59,200.50 L 76.94,200.65 L 73.14,200.67 L 66.10,200.64 L 64.41,200.63 L 61.27,200.59 L 59.75,200.56 L 57.01,200.50 L 55.69,200.47 L 53.42,200.39 L 52.35,200.35 L 50.62,200.26 L 49.84,200.21 L 48.74,200.11 L 48.28,200.05 M 112.53,179.97 L 122.13,170.95 L 126.82,171.55 L 127.96,171.70 L 129.57,171.80 L 130.31,171.80 L 131.53,171.41 L 132.14,171.13 L 133.51,169.99 L 133.89,169.65 L 134.78,168.78 L 136.38,167.16 L 141.26,162.17 L 139.18,159.34 L 139.04,159.14 L 138.56,158.57 L 138.30,158.26 L 137.60,157.48 L 136.86,156.66 L 134.84,154.54 L 133.77,153.42 L 131.28,150.91 L 127.32,147.00 L 125.97,145.69 L 123.75,143.61 L 123.23,143.14 L 122.35,142.36 L 121.93,141.99 L 121.25,141.42 L 120.93,141.16 L 120.47,140.83 L 120.27,140.69 L 120.05,140.60 L 119.97,140.59 L 120.02,140.76 L 120.39,141.34 L 120.99,142.15 L 121.79,143.35 L 122.14,143.90 L 122.46,144.71 L 122.57,145.09 L 122.46,145.67 L 121.87,146.47 L 119.56,148.65 L 114.32,153.30 L 111.68,155.61 L 106.52,159.93 L 105.28,160.95 L 102.99,162.78 L 101.89,163.66 L 99.95,165.13 L 99.04,165.82 L 97.59,166.83 L 96.09,167.71 L 94.94,168.20 L 92.63,168.62 L 89.09,168.41 L 88.10,168.21 L 86.33,167.93 L 85.94,167.88 L 85.32,167.83 L 84.75,167.83 L 84.54,167.88 L 84.22,167.67 L 84.00,167.03 L 84.00,166.88 L 84.19,166.43 L 84.31,166.19 L 84.76,165.57 L 85.01,165.24 L 85.71,164.45 L 86.09,164.03 L 87.06,163.05 L 87.58,162.54 L 88.81,161.38 L 89.46,160.78 L 90.97,159.43 L 91.75,158.73 L 93.54,157.18 L 96.53,154.64 L 97.49,153.83 L 99.77,151.85 L 100.95,150.83 L 103.44,148.61 L 104.69,147.49 L 107.10,145.30 L 110.28,142.33 L 117.07,135.88 L 102.56,120.69 L 88.04,105.50 L 88.02,98.75 L 88.02,97.34 L 88.08,95.32 L 88.12,94.43 L 88.31,93.27 L 88.43,92.77 L 88.82,92.26 L 89.66,92.00 L 89.77,92.00 L 90.11,92.14 L 90.31,92.24 L 90.85,92.60 L 91.14,92.81 L 91.90,93.41 L 92.31,93.75 L 93.32,94.63 L 93.85,95.10 L 95.14,96.28 L 95.81,96.91 L 97.40,98.42 L 98.24,99.22 L 100.16,101.09 L 101.17,102.07 L 103.45,104.33 L 104.64,105.50 L 107.32,108.17 L 108.71,109.56 L 111.81,112.67 L 113.42,114.29 L 116.96,117.87 L 118.79,119.73 L 122.82,123.81 L 124.89,125.92 L 129.42,130.53 L 131.75,132.90 L 136.82,138.07 L 139.42,140.73 L 145.05,146.48 L 154.16,155.80 L 186.69,189.10 L 193.59,188.80 L 200.50,188.50 L 200.76,119.25 L 201.01,50.00 L 181.43,50.00 L 161.85,50.00 L 156.18,55.26 L 154.86,56.48 L 152.73,58.46 L 151.74,59.38 L 150.16,60.80 L 149.43,61.45 L 148.30,62.39 L 147.78,62.80 L 146.98,63.31 L 146.61,63.52 L 146.04,63.67 L 145.76,63.70 L 145.29,63.55 L 143.74,62.28 L 143.27,61.85 L 142.20,61.22 L 141.60,60.94 L 139.97,60.53 L 139.51,60.44 L 138.42,60.28 L 137.84,60.21 L 136.47,60.08 L 135.75,60.02 L 134.05,59.91 L 131.09,59.76 L 120.69,59.29 L 116.93,62.68 L 113.18,66.07 L 107.34,61.16 L 105.74,59.81 L 102.35,56.77 L 101.56,56.04 L 100.16,54.72 L 98.56,53.12 L 95.63,50.00 L 77.31,50.00 L 59.00,50.00 L 59.00,119.50 L 59.00,189.00 L 80.96,189.00 L 102.92,189.00 L 112.53,179.97 M 69.67,179.33 L 69.64,179.31 L 69.60,178.96 L 69.58,178.73 L 69.53,177.99 L 69.51,177.57 L 69.47,176.46 L 69.45,175.86 L 69.41,174.40 L 69.39,173.63 L 69.35,171.85 L 69.33,170.91 L 69.29,168.82 L 69.28,167.73 L 69.24,165.35 L 69.23,164.13 L 69.20,161.48 L 69.17,158.77 L 69.11,152.63 L 69.09,149.46 L 69.05,142.52 L 69.04,138.96 L 69.01,131.39 L 69.00,119.49 L 69.00,60.30 L 79.66,59.65 L 80.75,59.58 L 82.73,59.46 L 83.69,59.40 L 85.42,59.30 L 87.08,59.21 L 89.76,59.09 L 91.00,59.06 L 92.97,59.09 L 93.89,59.13 L 95.36,59.34 L 96.06,59.48 L 97.24,59.91 L 97.81,60.16 L 98.89,60.86 L 99.44,61.25 L 100.62,62.24 L 102.74,64.12 L 103.14,64.47 L 104.13,65.37 L 104.65,65.85 L 105.86,66.97 L 107.12,68.14 L 110.10,70.96 L 119.71,80.23 L 130.93,91.23 L 136.81,85.87 L 137.22,85.50 L 138.22,84.58 L 138.75,84.09 L 139.98,82.97 L 141.24,81.81 L 144.24,79.07 L 153.82,70.25 L 164.94,60.00 L 177.98,60.00 L 191.02,60.00 L 190.76,97.75 L 190.50,135.50 L 186.29,136.96 L 185.13,137.36 L 183.18,137.85 L 182.76,137.94 L 182.13,138.02 L 181.63,137.96 L 181.60,137.92 L 181.52,137.17 L 181.48,136.68 L 181.39,135.08 L 181.35,134.18 L 181.25,131.83 L 181.20,130.57 L 181.09,127.57 L 181.04,126.00 L 180.93,122.44 L 180.88,120.60 L 180.76,116.58 L 180.71,114.53 L 180.60,110.14 L 180.44,103.25 L 180.40,101.11 L 180.32,97.22 L 180.27,95.34 L 180.20,91.95 L 180.16,90.31 L 180.09,87.37 L 180.06,85.96 L 179.99,83.45 L 179.95,82.25 L 179.88,80.13 L 179.85,79.12 L 179.78,77.37 L 179.74,76.53 L 179.66,75.10 L 179.62,74.42 L 179.53,73.28 L 179.44,72.21 L 179.22,70.81 L 179.10,70.21 L 178.81,69.54 L 178.65,69.27 L 178.26,69.07 L 177.54,69.00 L 177.00,69.00 L 175.67,69.48 L 174.99,69.79 L 173.63,70.72 L 172.97,71.22 L 171.86,72.37 L 170.80,74.10 L 170.75,74.26 L 170.35,74.58 L 170.12,74.73 L 169.43,74.99 L 166.70,75.44 L 165.92,75.46 L 164.49,75.79 L 163.77,76.02 L 162.15,76.95 L 161.71,77.23 L 160.73,77.95 L 160.22,78.34 L 159.05,79.31 L 158.44,79.83 L 157.02,81.07 L 154.58,83.28 L 153.14,84.60 L 150.69,86.70 L 149.53,87.67 L 147.61,89.11 L 146.71,89.75 L 145.29,90.53 L 143.68,91.00 L 143.01,91.00 L 141.27,91.55 L 138.93,92.86 L 138.40,93.28 L 137.72,93.95 L 137.43,94.27 L 137.20,94.91 L 137.13,95.25 L 137.30,96.10 L 137.95,97.88 L 138.13,98.31 L 138.70,99.31 L 139.02,99.82 L 139.78,100.88 L 142.36,103.65 L 142.57,103.82 L 143.16,104.36 L 143.48,104.65 L 144.25,105.39 L 145.07,106.18 L 147.13,108.23 L 148.22,109.31 L 150.61,111.75 L 154.28,115.58 L 163.11,124.90 L 158.80,128.97 L 154.50,133.04 L 133.53,111.27 L 130.65,108.27 L 124.58,102.01 L 121.56,98.88 L 115.72,92.88 L 114.31,91.43 L 111.64,88.70 L 110.34,87.37 L 107.97,84.95 L 106.82,83.78 L 104.82,81.75 L 102.34,79.25 L 92.12,69.00 L 86.14,69.00 L 80.16,69.00 L 79.81,113.25 L 79.79,116.29 L 79.75,122.15 L 79.74,125.04 L 79.72,130.49 L 79.71,133.15 L 79.71,138.07 L 79.71,140.45 L 79.73,144.72 L 79.74,146.76 L 79.77,150.24 L 79.78,151.88 L 79.83,154.46 L 79.84,155.04 L 79.87,156.02 L 79.88,156.48 L 79.91,157.19 L 79.93,157.51 L 79.96,157.93 L 80.02,158.24 L 80.09,158.34 L 80.19,159.00 L 80.23,159.39 L 80.24,160.53 L 80.24,161.14 L 80.18,162.60 L 80.00,165.00 L 79.87,166.36 L 79.58,168.32 L 79.42,169.21 L 78.91,170.55 L 78.62,171.17 L 77.72,172.27 L 75.71,174.09 L 74.69,174.93 L 73.09,176.67 L 72.75,177.07 L 72.29,177.78 L 72.00,178.57 L 72.00,178.95 L 71.79,179.48 L 71.66,179.71 L 71.26,179.94 L 71.04,180.01 L 70.51,179.90 L 70.24,179.80 Z" fill="rgba(247,250,249,1)"/>
</g>
</svg>