<svg width="41" height="45" viewBox="0 0 41 45" fill="none" xmlns="http://www.w3.org/2000/svg">
<path d="M13.5 32.625C11.925 32.625 10.5937 32.0812 9.50625 30.9937C8.41875 29.9062 7.875 28.575 7.875 27C7.875 25.425 8.41875 24.0938 9.50625 23.0063C10.5937 21.9188 11.925 21.375 13.5 21.375C15.075 21.375 16.4062 21.9188 17.4937 23.0063C18.5812 24.0938 19.125 25.425 19.125 27C19.125 28.575 18.5812 29.9062 17.4937 30.9937C16.4062 32.0812 15.075 32.625 13.5 32.625ZM4.5 45C3.2625 45 2.2035 44.5597 1.323 43.6792C0.4425 42.7987 0.0015 41.739 0 40.5V9C0 7.7625 0.441 6.7035 1.323 5.823C2.205 4.9425 3.264 4.5015 4.5 4.5H6.75V0H11.25V4.5H29.25V0H33.75V4.5H36C37.2375 4.5 38.2972 4.941 39.1792 5.823C40.0612 6.705 40.5015 7.764 40.5 9V40.5C40.5 41.7375 40.0597 42.7972 39.1792 43.6792C38.2987 44.5612 37.239 45.0015 36 45H4.5ZM4.5 40.5H36V18H4.5V40.5Z" fill="#4AAFE9"/>
</svg>
