<svg width="350" height="150" viewBox="0 0 350 150" fill="none" xmlns="http://www.w3.org/2000/svg">
<g clip-path="url(#clip0_238_100)">
<rect width="350" height="150" rx="20" fill="#36175E"/>
<ellipse cx="270" cy="74.5" rx="129" ry="127.5" fill="#E26EE5"/>
<g clip-path="url(#clip1_238_100)">
<mask id="mask0_238_100" style="mask-type:luminance" maskUnits="userSpaceOnUse" x="-42" y="-12" width="236" height="243">
<path d="M194 -12H-42V231H194V-12Z" fill="white"/>
</mask>
<g mask="url(#mask0_238_100)">
<path d="M139.46 118.2H127.33C126.811 118.2 126.386 117.762 126.386 117.228V95.1146C126.386 94.58 126.811 94.1426 127.33 94.1426H139.46C139.98 94.1426 140.404 94.58 140.404 95.1146V117.228C140.404 117.762 139.98 118.2 139.46 118.2Z" fill="#F8F8F8"/>
<path opacity="0.81" d="M130.186 114.287L134.268 118.224H139.437C139.956 118.224 140.381 117.786 140.381 117.252V109.913L136.652 107.653L130.186 114.287Z" fill="#C1C1C1"/>
<path opacity="0.85" d="M135.732 104.956H130.87C130.351 104.956 129.926 104.519 129.926 103.984V98.9783C129.926 98.4437 130.351 98.0063 130.87 98.0063H135.732C136.251 98.0063 136.676 98.4437 136.676 98.9783V103.984C136.676 104.519 136.251 104.956 135.732 104.956Z" fill="#DDDDDD"/>
<path d="M136.44 114.579H131.578C131.059 114.579 130.634 114.141 130.634 113.607V108.601C130.634 108.066 131.059 107.629 131.578 107.629H136.44C136.959 107.629 137.384 108.066 137.384 108.601V113.607C137.384 114.141 136.959 114.579 136.44 114.579Z" fill="#030303"/>
<path d="M133.844 112.416V122.403C133.844 123.983 135.094 125.271 136.628 125.271H139.862C141.396 125.271 142.646 126.559 142.646 128.138C142.646 129.718 141.396 131.006 139.862 131.006H104.556" stroke="black" stroke-width="8" stroke-miterlimit="10" stroke-linecap="round" stroke-linejoin="round"/>
<path d="M144.157 143.35H13.7196C12.3036 143.35 11.1472 142.159 11.1472 140.701V134.748C11.1472 133.29 12.3036 132.099 13.7196 132.099H144.18C145.596 132.099 146.753 133.29 146.753 134.748V140.701C146.729 142.159 145.573 143.35 144.157 143.35Z" fill="#D17F4D"/>
<mask id="mask1_238_100" style="mask-type:alpha" maskUnits="userSpaceOnUse" x="11" y="132" width="136" height="12">
<path d="M144.157 143.35H13.7196C12.3036 143.35 11.1472 142.159 11.1472 140.701V134.748C11.1472 133.29 12.3036 132.099 13.7196 132.099H144.18C145.596 132.099 146.753 133.29 146.753 134.748V140.701C146.729 142.159 145.573 143.35 144.157 143.35Z" fill="#D17F4D"/>
</mask>
<g mask="url(#mask1_238_100)">
<path d="M89.924 147.359C85.9828 140.41 95.8476 132.682 106.161 131.467" stroke="#C57442" stroke-width="6" stroke-miterlimit="10" stroke-linecap="round" stroke-linejoin="round"/>
<path d="M69.5808 143.326C70.3124 142.573 71.988 141.09 74.4188 140.75C75.2212 140.629 76.3776 140.483 77.6284 141.115C79.3748 141.989 79.9884 143.788 80.13 144.225" stroke="#C57442" stroke-width="6" stroke-miterlimit="10" stroke-linecap="round" stroke-linejoin="round"/>
<path d="M11.6428 129.159C11.9024 129.936 16.3156 133.144 22.5224 135.064C28.7292 136.959 36.234 134.699 39.656 127.312" stroke="#C57442" stroke-width="6" stroke-miterlimit="10" stroke-linecap="round" stroke-linejoin="round"/>
<path d="M8.24438 137.469C11.3596 135.331 15.4896 136.036 17.59 138.806C19.4072 141.187 19.4544 144.711 17.59 147.36" stroke="#C57442" stroke-width="6" stroke-miterlimit="10" stroke-linecap="round" stroke-linejoin="round"/>
<path d="M10.4863 141.309C11.7135 139.899 13.3183 139.389 14.1207 139.875C15.0647 140.458 15.3715 142.742 13.8611 144.857" stroke="#C57442" stroke-width="6" stroke-miterlimit="10" stroke-linecap="round" stroke-linejoin="round"/>
<path d="M23.2304 138.466C22.4044 138.757 21.2244 139.656 21.4132 140.799C21.5784 141.892 22.8764 142.548 23.8912 142.402C25.4488 142.184 27.62 141.455 27.6672 138.927C27.6908 138.077 24.1036 138.15 23.2304 138.466Z" stroke="#C57442" stroke-width="6" stroke-miterlimit="10" stroke-linecap="round" stroke-linejoin="round"/>
<path d="M28.4932 147.894C29.4608 145.95 30.6644 138.636 41.9924 135.598C51.8808 132.925 63.4448 137.518 70.0528 148.258" stroke="#C57442" stroke-width="6" stroke-miterlimit="10" stroke-linecap="round" stroke-linejoin="round"/>
<path d="M39.5851 141.236C35.9035 145.221 40.8123 150.908 46.6651 140.41C48.2935 137.47 54.5711 141.333 56.7895 146.825" stroke="#C57442" stroke-width="6" stroke-miterlimit="10" stroke-linecap="round" stroke-linejoin="round"/>
<path d="M99.5291 148.258C97.2635 147.578 95.9419 141.965 96.1543 140.288C96.3667 138.684 97.9479 137.518 99.2695 137.348C101.7 137.008 104.674 139.802 106.161 144.565" stroke="#C57442" stroke-width="6" stroke-miterlimit="10" stroke-linecap="round" stroke-linejoin="round"/>
<path d="M66.914 127.774C66.6072 128.309 65.38 130.471 66.0408 132.95C66.8904 136.109 70.2888 137.64 72.7904 137.591C76.4248 137.518 79.9176 134.092 80.5784 129.208" stroke="#C57442" stroke-width="6" stroke-miterlimit="10" stroke-linecap="round" stroke-linejoin="round"/>
<path d="M87.5404 127.944C86.3604 129.135 78.9264 136.133 84.968 144.735" stroke="#C57442" stroke-width="6" stroke-miterlimit="10" stroke-linecap="round" stroke-linejoin="round"/>
<path d="M87.3752 136.303C88.7912 134.724 92.4728 131.006 98.1132 130.252C99.6708 130.034 101.063 130.082 102.267 130.252" stroke="#C57442" stroke-width="6" stroke-miterlimit="10" stroke-linecap="round" stroke-linejoin="round"/>
<path d="M100.426 140.458C99.954 140.483 99.2696 141.382 99.6 142.159C99.954 142.985 101.181 143.034 101.488 142.645C101.889 142.135 101.087 140.434 100.426 140.458Z" stroke="#C57442" stroke-width="6" stroke-miterlimit="10" stroke-linecap="round" stroke-linejoin="round"/>
<path d="M49.922 142.038C49.0724 141.941 47.7272 143.374 48.152 144.589C48.5768 145.756 50.3704 146.023 50.984 145.44C51.7628 144.687 50.9368 142.159 49.922 142.038Z" stroke="#C57442" stroke-width="6" stroke-miterlimit="10" stroke-linecap="round" stroke-linejoin="round"/>
</g>
<path d="M96.6972 94.6287H49.9928V79.8543C49.9928 78.5178 51.0548 77.4243 52.3528 77.4243H94.3136C95.6116 77.4243 96.6736 78.5178 96.6736 79.8543V94.6287H96.6972Z" fill="#B3B3B3"/>
<path d="M95.116 94.6287H48.4116V79.8543C48.4116 78.5178 49.4736 77.4243 50.7716 77.4243H92.756C94.054 77.4243 95.116 78.5178 95.116 79.8543V94.6287Z" fill="#D7D7D7"/>
<path d="M95.116 90.2304L90.8444 87.1929V97.5933H95.116V90.2304Z" fill="#C1C1C1"/>
<path d="M88.6968 94.6286H55.8928V70.3529C55.8928 69.4052 56.6244 68.6519 57.5448 68.6519H87.2808C88.0596 68.6519 88.6968 69.308 88.6968 70.1099V94.6286Z" fill="#E7E7E7"/>
<path d="M87.7765 94.6286H54.524V70.3529C54.524 69.4052 55.2556 68.6519 56.176 68.6519H86.3605C87.1393 68.6519 87.7765 69.308 87.7765 70.1099V94.6286Z" fill="#F8F8F8"/>
<path d="M51.9988 97.5933H45.0604V90.1089C45.0604 88.5051 46.3348 87.1929 47.8924 87.1929H51.9988V97.5933Z" fill="#DFE1E0"/>
<path d="M54.406 97.5933H47.4677V90.1089C47.4677 88.5051 48.7421 87.1929 50.2997 87.1929H54.406V97.5933Z" fill="#B3B3B3"/>
<path d="M88.4372 97.5933H81.4988V90.1089C81.4988 88.5051 82.7732 87.1929 84.3308 87.1929H88.4372V97.5933Z" fill="#DFE1E0"/>
<path d="M90.8444 97.5933H83.906V90.1089C83.906 88.5051 85.1804 87.1929 86.738 87.1929H90.8444V97.5933Z" fill="#B3B3B3"/>
<path d="M54.406 87.1929L68.9908 97.5933H58.6776H54.406V87.1929Z" fill="#C1C1C1"/>
<path d="M118.15 117.811H28.2808V125.951H118.15V117.811Z" fill="#030303"/>
<path d="M92.3076 107.896H28.9417V127.677H92.3076V107.896Z" fill="#272727"/>
<path d="M82.9148 131.468H43.786V115.405H80.1064V124.105L82.9148 125.903V131.468Z" fill="black"/>
<path d="M81.4517 111.955H50.4177C47.8689 111.955 45.8157 114.069 45.8157 116.693V126.17H50.0401V117.932C50.0401 116.766 50.9605 115.818 52.0933 115.818H56.0817C56.7189 115.818 57.2381 116.353 57.2381 117.009V117.568H61.8165C62.1233 117.568 62.3593 117.301 62.3593 117.009C62.3593 116.353 62.8785 115.818 63.5157 115.818H68.4009C69.0381 115.818 69.5573 116.353 69.5573 117.009V117.568H74.1357C74.4425 117.568 74.6785 117.301 74.6785 117.009C74.6785 116.353 75.1977 115.818 75.8349 115.818H79.8233C80.9561 115.818 81.8765 116.766 81.8765 117.932V120.362H86.1009V116.693C86.0537 114.069 84.0005 111.955 81.4517 111.955Z" fill="#212121"/>
<path d="M77.7228 111.955H46.6888C44.14 111.955 42.0868 114.069 42.0868 116.693V126.17H46.3112V117.932C46.3112 116.766 47.2316 115.818 48.3644 115.818H52.3528C52.99 115.818 53.5092 116.353 53.5092 117.009C53.5092 117.325 53.7688 117.568 54.052 117.568H58.064C58.3708 117.568 58.6068 117.301 58.6068 117.009C58.6068 116.353 59.126 115.818 59.7632 115.818H64.6484C65.2856 115.818 65.8048 116.353 65.8048 117.009C65.8048 117.325 66.0644 117.568 66.3476 117.568H70.3596C70.6664 117.568 70.9024 117.301 70.9024 117.009C70.9024 116.353 71.4216 115.818 72.0588 115.818H76.0472C77.18 115.818 78.1004 116.766 78.1004 117.932V120.362H82.3248V116.693C82.3248 114.069 80.248 111.955 77.7228 111.955Z" fill="#4C4C4C"/>
<path d="M77.4161 125.198H39.8448V132.099H78.2893H86.5965C82.8205 132.099 78.5489 129.353 77.4161 125.198Z" fill="#272727"/>
<path d="M76.8733 126.218L77.3925 125.198H71.5869L70.9733 126.607L76.8733 126.218Z" fill="#212121"/>
<path d="M76.8732 126.219H39.5852V132.099H78.0296H86.3368C82.5608 132.099 78.006 129.767 76.8732 126.219Z" fill="#4C4C4C"/>
<path opacity="0.2" d="M73.2624 123.643H45.674C42.5588 123.643 40.01 126.243 40.01 129.475V133.994V138.32C40.01 139.535 40.9776 140.531 42.1576 140.531H69.1088C71.398 140.531 73.2624 138.611 73.2624 136.254V130.665C73.2624 127.458 75.7876 124.833 78.9264 124.833H80.7436V123.643H73.2624Z" fill="#020202"/>
<path d="M111.919 94.6528H34.5112C29.9328 94.6528 26.204 98.4922 26.204 103.206V121.116H39.6324V116.304C39.6324 113.947 41.4968 112.027 43.786 112.027H73.9232C76.2124 112.027 78.0768 113.947 78.0768 116.304V121.116H120.226V103.206C120.226 98.4922 116.498 94.6528 111.919 94.6528Z" fill="#3E3E3E"/>
<path d="M120.226 121.14V103.231C120.226 98.5166 116.498 94.6772 111.919 94.6772H99.9776C95.3992 94.6772 91.6704 98.5166 91.6704 103.231V121.14H120.226Z" fill="#2C2C2C"/>
<path d="M118.409 121.14V103.231C118.409 99.9745 115.837 97.3501 112.698 97.3501H100.756C97.594 97.3501 95.0452 99.9988 95.0452 103.231V121.14H118.409Z" fill="#3E3E3E"/>
<path d="M117.63 121.14V103.231C117.63 99.9745 115.058 97.3501 111.919 97.3501H99.9775C96.8151 97.3501 94.2664 99.9988 94.2664 103.231V121.14H117.63Z" fill="#121212"/>
<path d="M144.157 143.35H108.261C106.845 143.35 105.689 142.159 105.689 140.701V134.748C105.689 133.29 106.845 132.099 108.261 132.099H144.157C145.573 132.099 146.729 133.29 146.729 134.748V140.701C146.729 142.159 145.573 143.35 144.157 143.35Z" fill="#A55137"/>
<path d="M57.7808 119.755H54.2644V121.772H57.7808V119.755Z" fill="#212121"/>
<path d="M72.1768 119.755H68.6604V121.772H72.1768V119.755Z" fill="#212121"/>
<path d="M54.6656 119.755H51.1492V121.772H54.6656V119.755Z" fill="#4C4C4C"/>
<path d="M69.038 119.755H65.5216V121.14H69.038V119.755Z" fill="#4C4C4C"/>
<path d="M69.038 121.019H54.6656V121.772H69.038V121.019Z" fill="#4C4C4C"/>
<path d="M87.3281 94.6528H33.9213V95.4061C33.9213 99.9259 37.4849 103.595 41.8745 103.595H79.3513C83.7409 103.595 87.3045 99.9259 87.3045 95.4061V94.6528H87.3281Z" fill="#4C4C4C"/>
<path d="M41.8745 101.748H79.3513C83.3869 101.748 86.7145 98.6623 87.2337 94.6528H33.9921C34.5113 98.6623 37.8389 101.748 41.8745 101.748Z" fill="#0E0E0E"/>
<path d="M45.0605 99.8285H42.9129C42.6297 99.8285 42.3937 99.5855 42.3937 99.2939V99.1967C42.3937 98.9051 42.6297 98.6621 42.9129 98.6621H45.0605C45.3437 98.6621 45.5797 98.9051 45.5797 99.1967V99.2939C45.5797 99.5855 45.3437 99.8285 45.0605 99.8285Z" fill="#17E09C"/>
<path d="M47.4441 99.8285H46.9013C46.6181 99.8285 46.3821 99.5855 46.3821 99.2939V99.1967C46.3821 98.9051 46.6181 98.6621 46.9013 98.6621H47.4441C47.7273 98.6621 47.9633 98.9051 47.9633 99.1967V99.2939C47.9633 99.5855 47.7273 99.8285 47.4441 99.8285Z" fill="#932B3A"/>
<path d="M78.1477 99.1484H60.3533C59.6925 99.1484 59.1497 98.5895 59.1497 97.9091V97.6661C59.1497 96.9857 59.6925 96.4268 60.3533 96.4268H78.1477C78.8085 96.4268 79.3513 96.9857 79.3513 97.6661V97.9091C79.3277 98.5895 78.8085 99.1484 78.1477 99.1484Z" fill="#1F1F1F"/>
<path d="M63.9641 99.1484H60.3533C59.6925 99.1484 59.1497 98.5895 59.1497 97.9091V97.6661C59.1497 96.9857 59.6925 96.4268 60.3533 96.4268H63.9641C64.6249 96.4268 65.1677 96.9857 65.1677 97.6661V97.9091C65.1677 98.5895 64.6249 99.1484 63.9641 99.1484Z" fill="#313131"/>
<path d="M65.1204 103.62H48.2937C47.8453 103.62 47.4677 103.231 47.4677 102.769V102.599C47.4677 102.137 47.8453 101.749 48.2937 101.749H65.1204C65.5688 101.749 65.9464 102.137 65.9464 102.599V102.769C65.9464 103.231 65.5688 103.62 65.1204 103.62Z" fill="#5A5A5A"/>
<path d="M54.8072 103.62H50.6536C50.2052 103.62 49.8276 103.231 49.8276 102.769V102.599C49.8276 102.137 50.2052 101.749 50.6536 101.749H54.8072C55.2556 101.749 55.6332 102.137 55.6332 102.599V102.769C55.6332 103.231 55.2556 103.62 54.8072 103.62Z" fill="#676767"/>
<path d="M39.6324 122.477H26.204V123.546C26.204 128.26 29.9328 132.099 34.5112 132.099H39.6088V122.477H39.6324Z" fill="#3E3E3E"/>
<path d="M37.3432 125.149H28.4932C28.0448 125.149 27.6672 124.761 27.6672 124.299V124.129C27.6672 123.667 28.0448 123.278 28.4932 123.278H37.3432C37.7916 123.278 38.1692 123.667 38.1692 124.129V124.299C38.1692 124.761 37.7916 125.149 37.3432 125.149Z" fill="#4D4D4D"/>
<path d="M81.4988 98.784C81.9812 98.784 82.372 98.3814 82.372 97.8849C82.372 97.3885 81.9812 96.9858 81.4988 96.9858C81.0167 96.9858 80.6256 97.3885 80.6256 97.8849C80.6256 98.3814 81.0167 98.784 81.4988 98.784Z" fill="#BA8F1C"/>
<path d="M70.6665 121.748H43.0781C39.9629 121.748 37.4141 124.348 37.4141 127.58V132.099H54.2645V138.66H66.4893C68.7785 138.66 70.6429 136.741 70.6429 134.384V128.795C70.6429 125.587 73.1681 122.963 76.3069 122.963H80.1301V121.772H70.6665V121.748Z" fill="#F8F8F8"/>
<path opacity="0.85" d="M51.6212 124.882H43.8096C43.4792 124.882 43.2196 124.615 43.2196 124.274V124.153C43.2196 123.813 43.4792 123.545 43.8096 123.545H51.6212C51.9516 123.545 52.2112 123.813 52.2112 124.153V124.274C52.2112 124.615 51.9516 124.882 51.6212 124.882Z" fill="#DDDDDD"/>
<path opacity="0.85" d="M57.3796 124.882H53.5092C53.1788 124.882 52.9192 124.615 52.9192 124.274V124.153C52.9192 123.813 53.1788 123.545 53.5092 123.545H57.3796C57.71 123.545 57.9696 123.813 57.9696 124.153V124.274C57.9696 124.615 57.71 124.882 57.3796 124.882Z" fill="#DDDDDD"/>
<path opacity="0.85" d="M64.1528 124.882H60.2824C59.952 124.882 59.6924 124.615 59.6924 124.274V124.153C59.6924 123.813 59.952 123.545 60.2824 123.545H64.1528C64.4832 123.545 64.7428 123.813 64.7428 124.153V124.274C64.7428 124.615 64.4596 124.882 64.1528 124.882Z" fill="#DDDDDD"/>
<path opacity="0.85" d="M54.0048 127.676H42.3936C42.0632 127.676 41.8036 127.409 41.8036 127.069V126.947C41.8036 126.607 42.0632 126.34 42.3936 126.34H54.0048C54.3352 126.34 54.5948 126.607 54.5948 126.947V127.069C54.5948 127.409 54.3352 127.676 54.0048 127.676Z" fill="#DDDDDD"/>
<path opacity="0.85" d="M62.6424 127.676H57.592C57.2616 127.676 57.002 127.409 57.002 127.069V126.947C57.002 126.607 57.2616 126.34 57.592 126.34H62.6424C62.9728 126.34 63.2324 126.607 63.2324 126.947V127.069C63.2324 127.409 62.9728 127.676 62.6424 127.676Z" fill="#DDDDDD"/>
<path d="M63.138 134.383V133.193C63.138 132.245 62.3828 131.492 61.486 131.492H35.5968C34.6764 131.492 33.9448 132.269 33.9448 133.193V134.383C33.9448 136.741 35.8092 138.66 38.0984 138.66H67.1972C64.9316 138.587 63.138 136.692 63.138 134.383Z" fill="#E7E7E7"/>
<mask id="mask2_238_100" style="mask-type:alpha" maskUnits="userSpaceOnUse" x="105" y="132" width="42" height="12">
<path d="M144.157 143.35H108.261C106.845 143.35 105.689 142.159 105.689 140.701V134.748C105.689 133.29 106.845 132.099 108.261 132.099H144.157C145.573 132.099 146.729 133.29 146.729 134.748V140.701C146.729 142.159 145.573 143.35 144.157 143.35Z" fill="#A55137"/>
</mask>
<g mask="url(#mask2_238_100)">
<path d="M123.389 145.95C123.531 145.221 124.711 139.972 129.265 137.931C129.714 137.737 134.929 135.477 137.219 138.466C138.705 140.41 138.446 143.884 136.18 146.485" stroke="#9D472E" stroke-width="6" stroke-miterlimit="10" stroke-linecap="round" stroke-linejoin="round"/>
<path d="M128.746 147.894C128.699 147.408 128.321 143.228 130.823 141.479C131.696 140.871 133.207 140.361 133.773 140.944C134.339 141.528 133.962 143.131 132.735 144.857" stroke="#9D472E" stroke-width="6" stroke-miterlimit="10" stroke-linecap="round" stroke-linejoin="round"/>
<path d="M129.43 127.044C127.684 128.916 122.822 134.286 123.884 135.768C124.852 137.129 130.351 134.772 132.9 133.46C136.274 131.71 138.658 129.62 140.168 128.114" stroke="#9D472E" stroke-width="6" stroke-miterlimit="10" stroke-linecap="round" stroke-linejoin="round"/>
<path d="M147.437 130.423C144.039 130.155 141.207 131.565 140.334 133.8C139.602 135.696 140.499 137.664 141.018 138.782C142.717 142.475 146.163 144.006 147.414 144.492" stroke="#9D472E" stroke-width="6" stroke-miterlimit="10" stroke-linecap="round" stroke-linejoin="round"/>
<path d="M148.476 135.963C147.154 134.529 145.431 134.456 144.841 135.064C144.251 135.695 144.393 137.518 145.88 138.806" stroke="#9D472E" stroke-width="6" stroke-miterlimit="10" stroke-linecap="round" stroke-linejoin="round"/>
<path d="M116.356 144.954C114.114 144.055 113.123 141.649 113.855 139.875C114.492 138.296 116.427 137.372 117.654 137.834C119.235 138.417 120.227 141.455 119.047 145.221" stroke="#9D472E" stroke-width="6" stroke-miterlimit="10" stroke-linecap="round" stroke-linejoin="round"/>
<path d="M104.084 136.497C106.303 135.987 108.545 136.813 109.701 138.539C111.188 140.75 110.716 144.152 108.309 146.12" stroke="#9D472E" stroke-width="6" stroke-miterlimit="10" stroke-linecap="round" stroke-linejoin="round"/>
<path d="M119.141 129.815C116.521 130.714 115.176 132.707 115.507 133.994C115.861 135.355 118.055 136.181 119.495 135.695C121.548 135.015 122.823 131.394 122.091 126.68" stroke="#9D472E" stroke-width="6" stroke-miterlimit="10" stroke-linecap="round" stroke-linejoin="round"/>
<path d="M121.737 138.101C121.005 138.952 121.501 140.385 122.091 140.604C122.917 140.92 124.593 139.097 124.262 138.295C124.003 137.664 122.516 137.202 121.737 138.101Z" stroke="#9D472E" stroke-width="6" stroke-miterlimit="10" stroke-linecap="round" stroke-linejoin="round"/>
<path d="M112.911 136.57C112.486 135.768 110.267 131.904 105.642 130.592" stroke="#9D472E" stroke-width="6" stroke-miterlimit="10" stroke-linecap="round" stroke-linejoin="round"/>
</g>
<path d="M78.0532 122.477V123.546C78.0532 128.26 81.782 132.099 86.3604 132.099H111.896C116.474 132.099 120.203 128.26 120.203 123.546V122.477H78.0532Z" fill="#3E3E3E"/>
<path d="M91.6469 122.477V123.546C91.6469 128.26 95.3757 132.099 99.9541 132.099H111.896C116.474 132.099 120.203 128.26 120.203 123.546V122.477H91.6469Z" fill="#2C2C2C"/>
<path d="M95.0216 122.477V123.546C95.0216 126.802 97.594 129.426 100.733 129.426H112.674C115.837 129.426 118.386 126.778 118.386 123.546V122.477H95.0216Z" fill="#3E3E3E"/>
<path d="M94.2428 122.477V123.546C94.2428 126.802 96.8152 129.426 99.954 129.426H111.896C115.058 129.426 117.607 126.778 117.607 123.546V122.477H94.2428Z" fill="#121212"/>
<path d="M89.098 125.149H80.248C79.7996 125.149 79.422 124.761 79.422 124.299V124.129C79.422 123.667 79.7996 123.278 80.248 123.278H89.098C89.5464 123.278 89.924 123.667 89.924 124.129V124.299C89.924 124.761 89.5464 125.149 89.098 125.149Z" fill="#4D4D4D"/>
<path d="M60.5893 110.205H57.5921C57.1437 110.205 56.7897 109.84 56.7897 109.379V106.997C56.7897 106.535 57.1437 106.171 57.5921 106.171H60.5893C61.0377 106.171 61.3917 106.535 61.3917 106.997V109.379C61.3917 109.84 61.0377 110.205 60.5893 110.205Z" fill="#0E0E0E"/>
<path d="M59.8105 110.205H56.8133C56.3649 110.205 56.0109 109.84 56.0109 109.379V106.997C56.0109 106.535 56.3649 106.171 56.8133 106.171H59.8105C60.2589 106.171 60.6129 106.535 60.6129 106.997V109.379C60.6129 109.84 60.2589 110.205 59.8105 110.205Z" fill="#B3B3B3"/>
<g opacity="0.54">
<path opacity="0.54" d="M132.593 102.696H131.79C131.672 102.696 131.602 102.599 131.602 102.502V102.162C131.602 102.04 131.696 101.967 131.79 101.967H132.593C132.711 101.967 132.782 102.064 132.782 102.162V102.502C132.782 102.623 132.687 102.696 132.593 102.696Z" fill="#0E0E0E"/>
<path opacity="0.54" d="M134.811 102.696H134.009C133.891 102.696 133.82 102.599 133.82 102.502V102.162C133.82 102.04 133.914 101.967 134.009 101.967H134.811C134.929 101.967 135 102.064 135 102.162V102.502C135.024 102.623 134.929 102.696 134.811 102.696Z" fill="#0E0E0E"/>
</g>
<path opacity="0.54" d="M133.537 99.9258H133.041V100.63H133.537V99.9258Z" fill="#0E0E0E"/>
<path d="M135.732 114.579H130.87C130.351 114.579 129.926 114.141 129.926 113.607V108.601C129.926 108.066 130.351 107.629 130.87 107.629H135.732C136.251 107.629 136.676 108.066 136.676 108.601V113.607C136.676 114.141 136.251 114.579 135.732 114.579Z" fill="#121212"/>
</g>
</g>
<path d="M28.8075 39L22.5646 17.1818H27.6037L31.2152 32.3416H31.3963L35.3807 17.1818H39.6953L43.669 32.3736H43.8608L47.4723 17.1818H52.5114L46.2685 39H41.7727L37.6179 24.7351H37.4474L33.3033 39H28.8075ZM57.8034 39.3089C56.7594 39.3089 55.829 39.1278 55.0123 38.7656C54.1955 38.3963 53.5492 37.853 53.0733 37.1357C52.6046 36.4112 52.3702 35.5092 52.3702 34.4297C52.3702 33.5206 52.5371 32.7571 52.8709 32.1392C53.2047 31.5213 53.6593 31.0241 54.2346 30.6477C54.8098 30.2713 55.4632 29.9872 56.1948 29.7955C56.9334 29.6037 57.7076 29.4688 58.5172 29.3906C59.4689 29.2912 60.236 29.1989 60.8184 29.1136C61.4007 29.0213 61.8233 28.8864 62.0861 28.7088C62.3489 28.5312 62.4803 28.2685 62.4803 27.9205V27.8565C62.4803 27.1818 62.2672 26.6598 61.8411 26.2905C61.4221 25.9212 60.8255 25.7365 60.0513 25.7365C59.2346 25.7365 58.5847 25.9176 58.1017 26.2798C57.6188 26.6349 57.2992 27.0824 57.1429 27.6222L52.9455 27.2812C53.1586 26.2869 53.5776 25.4276 54.2026 24.7031C54.8276 23.9716 55.6337 23.4105 56.6209 23.0199C57.6152 22.6222 58.7658 22.4233 60.0726 22.4233C60.9817 22.4233 61.8517 22.5298 62.6827 22.7429C63.5208 22.956 64.263 23.2862 64.9093 23.7337C65.5627 24.1811 66.0776 24.7564 66.454 25.4595C66.8304 26.1555 67.0186 26.9901 67.0186 27.9631V39H62.7147V36.7308H62.5868C62.324 37.2422 61.9725 37.6932 61.5321 38.0838C61.0918 38.4673 60.5627 38.7692 59.9448 38.9893C59.3269 39.2024 58.6131 39.3089 57.8034 39.3089ZM59.1032 36.1768C59.7708 36.1768 60.3603 36.0455 60.8716 35.7827C61.383 35.5128 61.7843 35.1506 62.0755 34.696C62.3667 34.2415 62.5123 33.7266 62.5123 33.1513V31.4148C62.3702 31.5071 62.1749 31.5923 61.9263 31.6705C61.6848 31.7415 61.4114 31.8089 61.106 31.8729C60.8006 31.9297 60.4952 31.983 60.1898 32.0327C59.8844 32.0753 59.6074 32.1143 59.3588 32.1499C58.8262 32.228 58.361 32.3523 57.9632 32.5227C57.5655 32.6932 57.2566 32.924 57.0364 33.2152C56.8162 33.4993 56.7061 33.8544 56.7061 34.2805C56.7061 34.8984 56.9299 35.3707 57.3773 35.6974C57.8319 36.017 58.4071 36.1768 59.1032 36.1768ZM75.0779 29.5398V39H70.5396V22.6364H74.8649V25.5234H75.0566C75.4189 24.5717 76.0261 23.8189 76.8784 23.2649C77.7306 22.7038 78.764 22.4233 79.9785 22.4233C81.1149 22.4233 82.1056 22.6719 82.9508 23.169C83.796 23.6662 84.4529 24.3764 84.9217 25.2997C85.3904 26.2159 85.6248 27.3097 85.6248 28.581V39H81.0865V29.3906C81.0936 28.3892 80.8379 27.608 80.3194 27.0469C79.801 26.4787 79.0872 26.1946 78.1781 26.1946C77.5673 26.1946 77.0275 26.326 76.5588 26.5888C76.0971 26.8516 75.7349 27.2351 75.4721 27.7393C75.2164 28.2365 75.085 28.8366 75.0779 29.5398ZM97.9055 22.6364V26.0455H88.0511V22.6364H97.9055ZM90.2884 18.7159H94.8267V33.9716C94.8267 34.3906 94.8906 34.7173 95.0185 34.9517C95.1463 35.179 95.3239 35.3388 95.5511 35.4311C95.7855 35.5234 96.0554 35.5696 96.3608 35.5696C96.5739 35.5696 96.7869 35.5518 97 35.5163C97.2131 35.4737 97.3764 35.4418 97.4901 35.4205L98.2038 38.7976C97.9766 38.8686 97.657 38.9503 97.245 39.0426C96.8331 39.142 96.3324 39.2024 95.7429 39.2237C94.6491 39.2663 93.6903 39.1207 92.8665 38.7869C92.0497 38.4531 91.4141 37.9347 90.9595 37.2315C90.505 36.5284 90.2813 35.6406 90.2884 34.5682V18.7159ZM112.471 39.3089C111.427 39.3089 110.497 39.1278 109.68 38.7656C108.863 38.3963 108.217 37.853 107.741 37.1357C107.273 36.4112 107.038 35.5092 107.038 34.4297C107.038 33.5206 107.205 32.7571 107.539 32.1392C107.873 31.5213 108.327 31.0241 108.903 30.6477C109.478 30.2713 110.131 29.9872 110.863 29.7955C111.601 29.6037 112.376 29.4688 113.185 29.3906C114.137 29.2912 114.904 29.1989 115.486 29.1136C116.069 29.0213 116.491 28.8864 116.754 28.7088C117.017 28.5312 117.148 28.2685 117.148 27.9205V27.8565C117.148 27.1818 116.935 26.6598 116.509 26.2905C116.09 25.9212 115.493 25.7365 114.719 25.7365C113.903 25.7365 113.253 25.9176 112.77 26.2798C112.287 26.6349 111.967 27.0824 111.811 27.6222L107.613 27.2812C107.827 26.2869 108.246 25.4276 108.871 24.7031C109.496 23.9716 110.302 23.4105 111.289 23.0199C112.283 22.6222 113.434 22.4233 114.741 22.4233C115.65 22.4233 116.52 22.5298 117.351 22.7429C118.189 22.956 118.931 23.2862 119.577 23.7337C120.231 24.1811 120.746 24.7564 121.122 25.4595C121.498 26.1555 121.687 26.9901 121.687 27.9631V39H117.383V36.7308H117.255C116.992 37.2422 116.64 37.6932 116.2 38.0838C115.76 38.4673 115.231 38.7692 114.613 38.9893C113.995 39.2024 113.281 39.3089 112.471 39.3089ZM113.771 36.1768C114.439 36.1768 115.028 36.0455 115.54 35.7827C116.051 35.5128 116.452 35.1506 116.743 34.696C117.035 34.2415 117.18 33.7266 117.18 33.1513V31.4148C117.038 31.5071 116.843 31.5923 116.594 31.6705C116.353 31.7415 116.079 31.8089 115.774 31.8729C115.469 31.9297 115.163 31.983 114.858 32.0327C114.552 32.0753 114.275 32.1143 114.027 32.1499C113.494 32.228 113.029 32.3523 112.631 32.5227C112.233 32.6932 111.925 32.924 111.704 33.2152C111.484 33.4993 111.374 33.8544 111.374 34.2805C111.374 34.8984 111.598 35.3707 112.045 35.6974C112.5 36.017 113.075 36.1768 113.771 36.1768ZM132.151 45.1364V22.6364H136.625V25.3849H136.828C137.027 24.9446 137.314 24.4972 137.691 24.0426C138.074 23.581 138.571 23.1974 139.182 22.892C139.8 22.5795 140.567 22.4233 141.483 22.4233C142.676 22.4233 143.777 22.7358 144.786 23.3608C145.794 23.9787 146.6 24.9126 147.204 26.1626C147.808 27.4055 148.11 28.9645 148.11 30.8395C148.11 32.6648 147.815 34.206 147.225 35.4631C146.643 36.7131 145.848 37.6612 144.839 38.3075C143.838 38.9467 142.716 39.2663 141.473 39.2663C140.592 39.2663 139.843 39.1207 139.225 38.8295C138.614 38.5384 138.113 38.1726 137.723 37.7322C137.332 37.2848 137.034 36.8338 136.828 36.3793H136.689V45.1364H132.151ZM136.593 30.8182C136.593 31.7912 136.728 32.6399 136.998 33.3643C137.268 34.0888 137.659 34.6534 138.17 35.0582C138.681 35.456 139.303 35.6548 140.034 35.6548C140.773 35.6548 141.398 35.4524 141.909 35.0476C142.421 34.6357 142.808 34.0675 143.071 33.343C143.341 32.6115 143.475 31.7699 143.475 30.8182C143.475 29.8736 143.344 29.0426 143.081 28.3253C142.819 27.608 142.431 27.0469 141.92 26.642C141.409 26.2372 140.78 26.0348 140.034 26.0348C139.296 26.0348 138.671 26.2301 138.159 26.6207C137.655 27.0114 137.268 27.5653 136.998 28.2827C136.728 29 136.593 29.8452 136.593 30.8182ZM151.135 39V22.6364H155.535V25.4915H155.706C156.004 24.4759 156.505 23.7088 157.208 23.1903C157.911 22.6648 158.721 22.402 159.637 22.402C159.864 22.402 160.109 22.4162 160.372 22.4446C160.635 22.473 160.865 22.5121 161.064 22.5618V26.5888C160.851 26.5249 160.556 26.468 160.18 26.4183C159.804 26.3686 159.459 26.3438 159.147 26.3438C158.479 26.3438 157.882 26.4893 157.357 26.7805C156.838 27.0646 156.426 27.4624 156.121 27.9737C155.823 28.4851 155.674 29.0746 155.674 29.7422V39H151.135ZM163.411 39V22.6364H167.949V39H163.411ZM165.691 20.527C165.016 20.527 164.437 20.3033 163.954 19.8558C163.478 19.4013 163.24 18.858 163.24 18.2259C163.24 17.6009 163.478 17.0646 163.954 16.6172C164.437 16.1626 165.016 15.9354 165.691 15.9354C166.365 15.9354 166.941 16.1626 167.416 16.6172C167.899 17.0646 168.141 17.6009 168.141 18.2259C168.141 18.858 167.899 19.4013 167.416 19.8558C166.941 20.3033 166.365 20.527 165.691 20.527ZM176.123 29.5398V39H171.585V22.6364H175.91V25.5234H176.102C176.464 24.5717 177.071 23.8189 177.923 23.2649C178.776 22.7038 179.809 22.4233 181.023 22.4233C182.16 22.4233 183.151 22.6719 183.996 23.169C184.841 23.6662 185.498 24.3764 185.967 25.2997C186.435 26.2159 186.67 27.3097 186.67 28.581V39H182.131V29.3906C182.138 28.3892 181.883 27.608 181.364 27.0469C180.846 26.4787 180.132 26.1946 179.223 26.1946C178.612 26.1946 178.072 26.326 177.604 26.5888C177.142 26.8516 176.78 27.2351 176.517 27.7393C176.261 28.2365 176.13 28.8366 176.123 29.5398ZM198.95 22.6364V26.0455H189.096V22.6364H198.95ZM191.333 18.7159H195.872V33.9716C195.872 34.3906 195.936 34.7173 196.063 34.9517C196.191 35.179 196.369 35.3388 196.596 35.4311C196.83 35.5234 197.1 35.5696 197.406 35.5696C197.619 35.5696 197.832 35.5518 198.045 35.5163C198.258 35.4737 198.421 35.4418 198.535 35.4205L199.249 38.7976C199.021 38.8686 198.702 38.9503 198.29 39.0426C197.878 39.142 197.377 39.2024 196.788 39.2237C195.694 39.2663 194.735 39.1207 193.911 38.7869C193.095 38.4531 192.459 37.9347 192.004 37.2315C191.55 36.5284 191.326 35.6406 191.333 34.5682V18.7159ZM209.124 39.3196C207.47 39.3196 206.039 38.968 204.831 38.2649C203.631 37.5547 202.704 36.5675 202.051 35.3033C201.397 34.032 201.07 32.5582 201.07 30.8821C201.07 29.1918 201.397 27.7145 202.051 26.4503C202.704 25.179 203.631 24.1918 204.831 23.4886C206.039 22.7784 207.47 22.4233 209.124 22.4233C210.779 22.4233 212.207 22.7784 213.407 23.4886C214.615 24.1918 215.545 25.179 216.198 26.4503C216.852 27.7145 217.178 29.1918 217.178 30.8821C217.178 32.5582 216.852 34.032 216.198 35.3033C215.545 36.5675 214.615 37.5547 213.407 38.2649C212.207 38.968 210.779 39.3196 209.124 39.3196ZM209.146 35.804C209.899 35.804 210.527 35.5909 211.031 35.1648C211.536 34.7315 211.916 34.142 212.171 33.3963C212.434 32.6506 212.566 31.8018 212.566 30.8501C212.566 29.8984 212.434 29.0497 212.171 28.304C211.916 27.5582 211.536 26.9687 211.031 26.5355C210.527 26.1023 209.899 25.8857 209.146 25.8857C208.386 25.8857 207.747 26.1023 207.228 26.5355C206.717 26.9687 206.33 27.5582 206.067 28.304C205.811 29.0497 205.683 29.8984 205.683 30.8501C205.683 31.8018 205.811 32.6506 206.067 33.3963C206.33 34.142 206.717 34.7315 207.228 35.1648C207.747 35.5909 208.386 35.804 209.146 35.804ZM230.623 32.0327V22.6364H235.161V39H230.804V36.0277H230.634C230.264 36.9865 229.65 37.7571 228.791 38.3395C227.938 38.9219 226.898 39.2131 225.669 39.2131C224.575 39.2131 223.613 38.9645 222.782 38.4673C221.951 37.9702 221.301 37.2635 220.833 36.3473C220.371 35.4311 220.137 34.3338 220.129 33.0554V22.6364H224.668V32.2457C224.675 33.2116 224.934 33.9751 225.445 34.5362C225.957 35.0973 226.642 35.3778 227.502 35.3778C228.048 35.3778 228.56 35.2536 229.036 35.005C229.512 34.7493 229.895 34.3729 230.186 33.8757C230.485 33.3786 230.63 32.7642 230.623 32.0327ZM247.495 22.6364V26.0455H237.641V22.6364H247.495ZM239.878 18.7159H244.417V33.9716C244.417 34.3906 244.48 34.7173 244.608 34.9517C244.736 35.179 244.914 35.3388 245.141 35.4311C245.375 35.5234 245.645 35.5696 245.951 35.5696C246.164 35.5696 246.377 35.5518 246.59 35.5163C246.803 35.4737 246.966 35.4418 247.08 35.4205L247.794 38.7976C247.566 38.8686 247.247 38.9503 246.835 39.0426C246.423 39.142 245.922 39.2024 245.333 39.2237C244.239 39.2663 243.28 39.1207 242.456 38.7869C241.64 38.4531 241.004 37.9347 240.549 37.2315C240.095 36.5284 239.871 35.6406 239.878 34.5682V18.7159ZM254.351 32.4588V32.0966C254.358 30.8537 254.468 29.8629 254.681 29.1243C254.901 28.3857 255.221 27.7891 255.64 27.3345C256.059 26.88 256.563 26.468 257.153 26.0987C257.593 25.8146 257.987 25.5199 258.335 25.2145C258.683 24.9091 258.96 24.5717 259.166 24.2024C259.372 23.826 259.475 23.407 259.475 22.9453C259.475 22.4553 259.358 22.0256 259.124 21.6562C258.889 21.2869 258.573 21.0028 258.175 20.804C257.785 20.6051 257.352 20.5057 256.876 20.5057C256.414 20.5057 255.977 20.6087 255.565 20.8146C255.153 21.0135 254.816 21.3118 254.553 21.7095C254.29 22.1001 254.148 22.5866 254.127 23.169H249.781C249.816 21.7486 250.157 20.5767 250.803 19.6534C251.45 18.723 252.305 18.0305 253.371 17.576C254.436 17.1143 255.612 16.8835 256.897 16.8835C258.31 16.8835 259.56 17.1179 260.647 17.5866C261.734 18.0483 262.586 18.7195 263.204 19.6001C263.822 20.4808 264.131 21.5426 264.131 22.7855C264.131 23.6165 263.992 24.3551 263.715 25.0014C263.445 25.6406 263.065 26.2088 262.575 26.706C262.085 27.196 261.506 27.6399 260.839 28.0376C260.278 28.3714 259.816 28.7195 259.454 29.0817C259.099 29.4439 258.832 29.8629 258.655 30.3388C258.484 30.8146 258.396 31.4006 258.388 32.0966V32.4588H254.351ZM256.46 39.277C255.75 39.277 255.143 39.0284 254.638 38.5312C254.141 38.027 253.896 37.4233 253.903 36.7202C253.896 36.0241 254.141 35.4276 254.638 34.9304C255.143 34.4332 255.75 34.1847 256.46 34.1847C257.135 34.1847 257.728 34.4332 258.239 34.9304C258.751 35.4276 259.01 36.0241 259.017 36.7202C259.01 37.1889 258.886 37.6186 258.644 38.0092C258.41 38.3928 258.101 38.7017 257.717 38.9361C257.334 39.1634 256.915 39.277 256.46 39.277Z" fill="url(#paint0_linear_238_100)"/>
<path d="M178.384 64.3608C178.388 63.6458 178.156 63.099 177.688 62.7202C177.223 62.3414 176.575 62.152 175.741 62.152C175.145 62.152 174.612 62.2467 174.143 62.4361C173.679 62.6207 173.301 62.8764 173.007 63.2031C172.718 63.5251 172.541 63.892 172.474 64.304C172.413 64.6496 172.444 64.9479 172.567 65.1989C172.695 65.4498 172.877 65.6605 173.114 65.831C173.355 65.9967 173.62 66.1364 173.909 66.25C174.198 66.3589 174.477 66.4489 174.747 66.5199L176.111 66.8892C176.551 67.0028 176.999 67.1567 177.453 67.3509C177.908 67.545 178.317 67.8007 178.682 68.1179C179.046 68.4351 179.319 68.8281 179.499 69.2969C179.679 69.7656 179.714 70.3267 179.605 70.9801C179.463 71.804 179.129 72.5355 178.604 73.1747C178.078 73.8139 177.384 74.3182 176.523 74.6875C175.661 75.0568 174.662 75.2415 173.526 75.2415C172.437 75.2415 171.52 75.0687 170.777 74.723C170.038 74.3774 169.496 73.8873 169.151 73.2528C168.805 72.6136 168.682 71.8561 168.781 70.9801H170.99C170.938 71.5057 171.033 71.9437 171.274 72.294C171.52 72.6397 171.866 72.8977 172.311 73.0682C172.756 73.2339 173.26 73.3168 173.824 73.3168C174.449 73.3168 175.019 73.2197 175.536 73.0256C176.052 72.8267 176.478 72.5521 176.814 72.2017C177.15 71.8466 177.356 71.4323 177.432 70.9588C177.508 70.5279 177.446 70.1752 177.247 69.9006C177.053 69.6259 176.759 69.3987 176.366 69.2188C175.978 69.0388 175.536 68.8802 175.038 68.7429L173.398 68.2741C172.285 67.9569 171.442 67.4905 170.869 66.875C170.296 66.2595 170.09 65.4451 170.251 64.4318C170.393 63.5937 170.744 62.8622 171.303 62.2372C171.861 61.6122 172.557 61.1269 173.391 60.7812C174.224 60.4309 175.128 60.2557 176.104 60.2557C177.089 60.2557 177.927 60.4309 178.618 60.7812C179.309 61.1316 179.821 61.6146 180.152 62.2301C180.483 62.8456 180.599 63.5559 180.5 64.3608H178.384ZM186.063 75.2202C184.993 75.2202 184.107 74.9905 183.407 74.5312C182.711 74.0672 182.223 73.4162 181.944 72.5781C181.664 71.7353 181.619 70.7481 181.809 69.6165C181.993 68.4991 182.365 67.5142 182.924 66.6619C183.482 65.8097 184.178 65.1444 185.012 64.6662C185.85 64.188 186.775 63.9489 187.789 63.9489C188.404 63.9489 188.984 64.0507 189.529 64.2543C190.078 64.4579 190.544 64.7775 190.928 65.2131C191.311 65.6487 191.577 66.2145 191.723 66.9105C191.875 67.6018 191.87 68.4422 191.709 69.4318L191.588 70.1847H182.909L183.158 68.5938H189.749C189.848 68.035 189.822 67.5402 189.671 67.1094C189.519 66.6738 189.259 66.3305 188.89 66.0795C188.525 65.8286 188.066 65.7031 187.512 65.7031C186.944 65.7031 186.413 65.8523 185.921 66.1506C185.428 66.4489 185.016 66.83 184.685 67.294C184.358 67.7533 184.152 68.2268 184.067 68.7145L183.819 70.1705C183.695 70.9659 183.717 71.6051 183.882 72.0881C184.053 72.571 184.351 72.9214 184.777 73.1392C185.203 73.357 185.736 73.4659 186.375 73.4659C186.787 73.4659 187.168 73.4091 187.519 73.2955C187.874 73.1771 188.189 73.0043 188.463 72.777C188.738 72.545 188.968 72.2562 189.152 71.9105L191.098 72.2727C190.838 72.8646 190.464 73.383 189.976 73.8281C189.489 74.2685 188.913 74.6117 188.25 74.858C187.592 75.0994 186.863 75.2202 186.063 75.2202ZM196.363 68.5227L195.298 75H193.174L194.992 64.0909H197.031L196.732 65.8665H196.867C197.213 65.2841 197.684 64.8201 198.281 64.4744C198.882 64.1241 199.592 63.9489 200.411 63.9489C201.15 63.9489 201.77 64.1051 202.272 64.4176C202.779 64.7254 203.136 65.1847 203.344 65.7955C203.558 66.4062 203.591 67.1615 203.444 68.0611L202.279 75H200.156L201.271 68.3168C201.398 67.526 201.294 66.9081 200.958 66.4631C200.627 66.0133 200.099 65.7884 199.374 65.7884C198.882 65.7884 198.425 65.8949 198.004 66.108C197.587 66.321 197.234 66.6335 196.945 67.0455C196.661 67.4527 196.467 67.9451 196.363 68.5227ZM209.19 75.2131C208.304 75.2131 207.554 74.9882 206.938 74.5384C206.327 74.0838 205.894 73.4375 205.638 72.5994C205.388 71.7566 205.359 70.7457 205.553 69.5668C205.752 68.3878 206.119 67.3793 206.654 66.5412C207.189 65.7031 207.838 65.0616 208.6 64.6165C209.362 64.1714 210.184 63.9489 211.065 63.9489C211.742 63.9489 212.267 64.0625 212.641 64.2898C213.02 64.5123 213.299 64.7727 213.479 65.071C213.659 65.3693 213.794 65.6321 213.884 65.8594H214.005L214.907 60.4545H217.031L214.616 75H212.542L212.833 73.3026H212.656C212.49 73.5346 212.26 73.7997 211.967 74.098C211.678 74.3963 211.308 74.6567 210.859 74.8793C210.409 75.1018 209.853 75.2131 209.19 75.2131ZM209.907 73.402C210.518 73.402 211.065 73.241 211.548 72.919C212.035 72.5923 212.44 72.1402 212.762 71.5625C213.089 70.9848 213.316 70.3125 213.444 69.5455C213.572 68.7879 213.569 68.125 213.437 67.5568C213.304 66.9886 213.049 66.5459 212.67 66.2287C212.291 65.9115 211.791 65.7528 211.171 65.7528C210.532 65.7528 209.976 65.9186 209.502 66.25C209.029 66.5814 208.64 67.0336 208.337 67.6065C208.039 68.1795 207.831 68.8258 207.712 69.5455C207.589 70.2746 207.585 70.9304 207.698 71.5128C207.812 72.0952 208.051 72.5568 208.415 72.8977C208.78 73.2339 209.277 73.402 209.907 73.402ZM226.079 75.2415C225.388 75.2415 224.784 75.1136 224.268 74.858C223.752 74.5975 223.371 74.2211 223.124 73.7287C222.878 73.2363 222.814 72.6326 222.933 71.9176C223.037 71.3021 223.24 70.7955 223.543 70.3977C223.851 70 224.225 69.6851 224.665 69.4531C225.106 69.2164 225.584 69.0388 226.1 68.9205C226.616 68.8021 227.137 68.7145 227.663 68.6577C228.326 68.5819 228.863 68.518 229.275 68.4659C229.692 68.4138 230.004 68.3333 230.212 68.2244C230.421 68.1108 230.546 67.9261 230.589 67.6705V67.6207C230.688 67.0052 230.598 66.527 230.319 66.1861C230.044 65.8404 229.566 65.6676 228.884 65.6676C228.174 65.6676 227.577 65.8239 227.094 66.1364C226.616 66.4489 226.263 66.7992 226.036 67.1875L224.133 66.733C224.474 66.0701 224.907 65.535 225.433 65.1278C225.963 64.7159 226.543 64.4176 227.173 64.233C227.802 64.0436 228.446 63.9489 229.104 63.9489C229.54 63.9489 229.992 64.0009 230.461 64.1051C230.93 64.2045 231.356 64.3892 231.739 64.6591C232.128 64.929 232.416 65.3149 232.606 65.8168C232.795 66.3139 232.824 66.9602 232.691 67.7557L231.491 75H229.417L229.673 73.5085H229.587C229.407 73.7831 229.156 74.053 228.835 74.3182C228.517 74.5833 228.129 74.8035 227.67 74.9787C227.21 75.1539 226.68 75.2415 226.079 75.2415ZM226.803 73.5369C227.395 73.5369 227.918 73.4209 228.373 73.1889C228.832 72.9569 229.204 72.6539 229.488 72.2798C229.772 71.901 229.95 71.4962 230.021 71.0653L230.255 69.6591C230.165 69.7348 230.006 69.8035 229.779 69.8651C229.557 69.9266 229.306 69.9811 229.026 70.0284C228.747 70.0758 228.472 70.116 228.202 70.1491C227.937 70.1823 227.717 70.2131 227.542 70.2415C227.125 70.2936 226.735 70.3812 226.37 70.5043C226.01 70.6274 225.71 70.8049 225.468 71.0369C225.227 71.2642 225.075 71.5672 225.013 71.946C224.928 72.4716 225.054 72.8693 225.39 73.1392C225.731 73.4044 226.202 73.5369 226.803 73.5369ZM237.515 68.5227L236.45 75H234.326L236.145 64.0909H238.183L237.885 65.8665H238.02C238.365 65.2841 238.836 64.8201 239.433 64.4744C240.034 64.1241 240.744 63.9489 241.564 63.9489C242.302 63.9489 242.922 64.1051 243.424 64.4176C243.931 64.7254 244.288 65.1847 244.497 65.7955C244.71 66.4062 244.743 67.1615 244.596 68.0611L243.431 75H241.308L242.423 68.3168C242.551 67.526 242.447 66.9081 242.11 66.4631C241.779 66.0133 241.251 65.7884 240.527 65.7884C240.034 65.7884 239.577 65.8949 239.156 66.108C238.739 66.321 238.386 66.6335 238.098 67.0455C237.814 67.4527 237.619 67.9451 237.515 68.5227ZM250.342 75.2131C249.457 75.2131 248.706 74.9882 248.091 74.5384C247.48 74.0838 247.047 73.4375 246.791 72.5994C246.54 71.7566 246.511 70.7457 246.706 69.5668C246.904 68.3878 247.271 67.3793 247.806 66.5412C248.342 65.7031 248.99 65.0616 249.752 64.6165C250.515 64.1714 251.336 63.9489 252.217 63.9489C252.894 63.9489 253.42 64.0625 253.794 64.2898C254.172 64.5123 254.452 64.7727 254.632 65.071C254.812 65.3693 254.947 65.6321 255.037 65.8594H255.157L256.059 60.4545H258.183L255.768 75H253.694L253.985 73.3026H253.808C253.642 73.5346 253.413 73.7997 253.119 74.098C252.83 74.3963 252.461 74.6567 252.011 74.8793C251.561 75.1018 251.005 75.2131 250.342 75.2131ZM251.059 73.402C251.67 73.402 252.217 73.241 252.7 72.919C253.188 72.5923 253.592 72.1402 253.914 71.5625C254.241 70.9848 254.468 70.3125 254.596 69.5455C254.724 68.7879 254.722 68.125 254.589 67.5568C254.457 66.9886 254.201 66.5459 253.822 66.2287C253.443 65.9115 252.944 65.7528 252.324 65.7528C251.684 65.7528 251.128 65.9186 250.654 66.25C250.181 66.5814 249.793 67.0336 249.49 67.6065C249.191 68.1795 248.983 68.8258 248.865 69.5455C248.742 70.2746 248.737 70.9304 248.85 71.5128C248.964 72.0952 249.203 72.5568 249.568 72.8977C249.932 73.2339 250.43 73.402 251.059 73.402ZM277.949 65.1847H275.775C275.766 64.7112 275.678 64.2945 275.512 63.9347C275.347 63.5701 275.119 63.2647 274.831 63.0185C274.547 62.7675 274.213 62.5781 273.829 62.4503C273.446 62.3224 273.031 62.2585 272.586 62.2585C271.729 62.2585 270.924 62.4763 270.172 62.9119C269.419 63.3475 268.777 63.982 268.247 64.8153C267.717 65.6487 267.352 66.6643 267.153 67.8622C266.959 69.027 266.983 70.0047 267.224 70.7955C267.466 71.5862 267.873 72.1851 268.446 72.5923C269.023 72.9948 269.717 73.196 270.527 73.196C271 73.196 271.462 73.1345 271.912 73.0114C272.366 72.8835 272.788 72.6965 273.176 72.4503C273.564 72.2041 273.907 71.9034 274.206 71.5483C274.509 71.1884 274.745 70.7765 274.916 70.3125H277.118C276.881 71.0322 276.547 71.6903 276.116 72.2869C275.685 72.8835 275.176 73.3996 274.589 73.8352C274.002 74.2708 273.358 74.607 272.657 74.8438C271.957 75.0805 271.216 75.1989 270.434 75.1989C269.151 75.1989 268.057 74.8935 267.153 74.2827C266.253 73.6671 265.607 72.7912 265.214 71.6548C264.826 70.5185 264.76 69.1643 265.015 67.5923C265.276 66.063 265.773 64.7514 266.507 63.6577C267.245 62.5592 268.145 61.7187 269.206 61.1364C270.271 60.5492 271.422 60.2557 272.657 60.2557C273.439 60.2557 274.154 60.367 274.802 60.5895C275.451 60.8073 276.01 61.1293 276.478 61.5554C276.952 61.9768 277.316 62.4929 277.572 63.1037C277.828 63.7098 277.953 64.4034 277.949 65.1847ZM283.437 75.2202C282.4 75.2202 281.533 74.9834 280.837 74.5099C280.141 74.0317 279.651 73.3641 279.367 72.5071C279.088 71.6454 279.04 70.6439 279.225 69.5028C279.405 68.3854 279.767 67.41 280.312 66.5767C280.861 65.7434 281.548 65.0971 282.371 64.6378C283.2 64.1785 284.121 63.9489 285.134 63.9489C286.171 63.9489 287.035 64.188 287.727 64.6662C288.423 65.1444 288.913 65.8144 289.197 66.6761C289.481 67.5379 289.531 68.5417 289.346 69.6875C289.166 70.7955 288.799 71.7661 288.245 72.5994C287.696 73.428 287.009 74.072 286.185 74.5312C285.362 74.9905 284.445 75.2202 283.437 75.2202ZM283.558 73.4375C284.239 73.4375 284.834 73.2576 285.34 72.8977C285.852 72.5379 286.268 72.0597 286.59 71.4631C286.912 70.8665 287.132 70.2131 287.251 69.5028C287.36 68.8163 287.357 68.1889 287.244 67.6207C287.135 67.0478 286.898 66.5885 286.533 66.2429C286.169 65.8973 285.662 65.7244 285.013 65.7244C284.332 65.7244 283.733 65.9067 283.217 66.2713C282.705 66.6312 282.289 67.1117 281.967 67.7131C281.649 68.3144 281.434 68.9702 281.32 69.6804C281.211 70.3622 281.211 70.9896 281.32 71.5625C281.429 72.1307 281.666 72.5852 282.031 72.9261C282.395 73.267 282.904 73.4375 283.558 73.4375ZM295.381 60.4545L292.966 75H290.843L293.257 60.4545H295.381ZM300.362 60.4545L297.947 75H295.823L298.238 60.4545H300.362ZM305.477 75.2202C304.407 75.2202 303.521 74.9905 302.821 74.5312C302.125 74.0672 301.637 73.4162 301.358 72.5781C301.078 71.7353 301.033 70.7481 301.223 69.6165C301.407 68.4991 301.779 67.5142 302.338 66.6619C302.896 65.8097 303.592 65.1444 304.426 64.6662C305.264 64.188 306.19 63.9489 307.203 63.9489C307.818 63.9489 308.398 64.0507 308.943 64.2543C309.492 64.4579 309.958 64.7775 310.342 65.2131C310.725 65.6487 310.991 66.2145 311.137 66.9105C311.289 67.6018 311.284 68.4422 311.123 69.4318L311.002 70.1847H302.324L302.572 68.5938H309.163C309.262 68.035 309.236 67.5402 309.085 67.1094C308.933 66.6738 308.673 66.3305 308.304 66.0795C307.939 65.8286 307.48 65.7031 306.926 65.7031C306.358 65.7031 305.827 65.8523 305.335 66.1506C304.842 66.4489 304.431 66.83 304.099 67.294C303.772 67.7533 303.566 68.2268 303.481 68.7145L303.233 70.1705C303.109 70.9659 303.131 71.6051 303.297 72.0881C303.467 72.571 303.765 72.9214 304.191 73.1392C304.618 73.357 305.15 73.4659 305.789 73.4659C306.201 73.4659 306.583 73.4091 306.933 73.2955C307.288 73.1771 307.603 73.0043 307.877 72.777C308.152 72.545 308.382 72.2562 308.566 71.9105L310.512 72.2727C310.252 72.8646 309.878 73.383 309.39 73.8281C308.903 74.2685 308.327 74.6117 307.664 74.858C307.006 75.0994 306.277 75.2202 305.477 75.2202ZM317.148 75.2202C316.087 75.2202 315.218 74.9811 314.541 74.5028C313.864 74.0199 313.393 73.3546 313.128 72.5071C312.863 71.6596 312.82 70.6889 313 69.5952C313.18 68.4872 313.547 67.5095 314.101 66.6619C314.66 65.8097 315.358 65.1444 316.196 64.6662C317.039 64.188 317.974 63.9489 319.001 63.9489C319.83 63.9489 320.543 64.1027 321.139 64.4105C321.736 64.7135 322.188 65.1397 322.496 65.6889C322.804 66.2382 322.936 66.8797 322.893 67.6136H320.827C320.794 67.1023 320.604 66.6619 320.259 66.2926C319.913 65.9233 319.404 65.7386 318.732 65.7386C318.14 65.7386 317.595 65.8949 317.098 66.2074C316.601 66.5152 316.182 66.9555 315.841 67.5284C315.5 68.0966 315.268 68.7689 315.145 69.5455C315.012 70.3409 315.019 71.0275 315.166 71.6051C315.313 72.1828 315.583 72.6302 315.976 72.9474C316.369 73.2647 316.864 73.4233 317.46 73.4233C317.867 73.4233 318.246 73.3499 318.597 73.2031C318.952 73.0516 319.264 72.8362 319.534 72.5568C319.809 72.2775 320.022 71.9413 320.173 71.5483H322.247C322.044 72.2538 321.703 72.8835 321.224 73.4375C320.751 73.9915 320.169 74.4271 319.477 74.7443C318.786 75.0616 318.009 75.2202 317.148 75.2202ZM330.839 64.0909L330.562 65.7955H324.603L324.88 64.0909H330.839ZM326.904 61.4773H329.028L327.309 71.7969C327.243 72.2088 327.255 72.5189 327.345 72.7273C327.435 72.9309 327.572 73.0705 327.757 73.1463C327.946 73.2173 328.157 73.2528 328.389 73.2528C328.559 73.2528 328.708 73.241 328.836 73.2173C328.964 73.1937 329.066 73.1747 329.142 73.1605L329.255 74.9148C329.113 74.9621 328.922 75.0095 328.68 75.0568C328.443 75.1089 328.154 75.1373 327.814 75.142C327.255 75.1515 326.751 75.0521 326.301 74.8438C325.851 74.6307 325.515 74.3087 325.292 73.8778C325.07 73.4422 325.015 72.8954 325.129 72.2372L326.904 61.4773ZM169.918 99H167.588L175.237 84.4545H177.773L180.592 99H178.263L176.139 87.0966H176.026L169.918 99ZM171.253 93.304H178.81L178.497 95.1506H170.94L171.253 93.304ZM185.718 92.5227L184.653 99H182.529L184.348 88.0909H186.386L186.088 89.8665H186.223C186.568 89.2841 187.039 88.8201 187.636 88.4744C188.237 88.1241 188.948 87.9489 189.767 87.9489C190.505 87.9489 191.126 88.1051 191.627 88.4176C192.134 88.7254 192.492 89.1847 192.7 89.7955C192.913 90.4062 192.946 91.1615 192.799 92.0611L191.635 99H189.511L190.626 92.3168C190.754 91.526 190.65 90.9081 190.314 90.4631C189.982 90.0133 189.454 89.7884 188.73 89.7884C188.237 89.7884 187.78 89.8949 187.359 90.108C186.942 90.321 186.59 90.6335 186.301 91.0455C186.017 91.4527 185.823 91.9451 185.718 92.5227ZM194.76 103.091C194.438 103.091 194.151 103.065 193.9 103.013C193.649 102.965 193.462 102.913 193.339 102.857L194.149 101.116C194.523 101.221 194.857 101.261 195.15 101.237C195.449 101.214 195.728 101.09 195.988 100.868C196.249 100.645 196.514 100.295 196.784 99.8168L197.181 99.0994L195.044 88.0909H197.231L198.581 96.5781H198.694L202.87 88.0909H205.235L198.694 100.442C198.386 101.029 198.036 101.517 197.643 101.905C197.255 102.298 196.819 102.594 196.336 102.793C195.858 102.991 195.333 103.091 194.76 103.091ZM212.324 88.0909L212.047 89.7955H206.088L206.365 88.0909H212.324ZM208.389 85.4773H210.512L208.794 95.7969C208.727 96.2088 208.739 96.5189 208.829 96.7273C208.919 96.9309 209.056 97.0705 209.241 97.1463C209.431 97.2173 209.641 97.2528 209.873 97.2528C210.044 97.2528 210.193 97.241 210.321 97.2173C210.449 97.1937 210.55 97.1747 210.626 97.1605L210.74 98.9148C210.598 98.9621 210.406 99.0095 210.164 99.0568C209.928 99.1089 209.639 99.1373 209.298 99.142C208.739 99.1515 208.235 99.0521 207.785 98.8438C207.335 98.6307 206.999 98.3087 206.777 97.8778C206.554 97.4422 206.5 96.8954 206.613 96.2372L208.389 85.4773ZM212.854 99L214.673 88.0909H216.796L214.978 99H212.854ZM216.178 86.3864C215.809 86.3864 215.496 86.2633 215.241 86.017C214.99 85.7661 214.874 85.4678 214.893 85.1222C214.912 84.7718 215.058 84.4735 215.333 84.2273C215.608 83.9763 215.927 83.8509 216.292 83.8509C216.661 83.8509 216.971 83.9763 217.222 84.2273C217.473 84.4735 217.592 84.7718 217.577 85.1222C217.558 85.4678 217.412 85.7661 217.137 86.017C216.867 86.2633 216.548 86.3864 216.178 86.3864ZM217.842 99L219.66 88.0909H221.699L221.4 89.8665H221.535C221.867 89.2652 222.316 88.7964 222.885 88.4602C223.458 88.1193 224.106 87.9489 224.831 87.9489C225.55 87.9489 226.13 88.1193 226.571 88.4602C227.016 88.8011 227.307 89.2699 227.444 89.8665H227.558C227.908 89.2794 228.398 88.813 229.028 88.4673C229.658 88.1217 230.366 87.9489 231.152 87.9489C232.132 87.9489 232.885 88.2614 233.41 88.8864C233.94 89.5066 234.101 90.4394 233.893 91.6847L232.672 99H230.541L231.734 91.8835C231.852 91.1402 231.739 90.6051 231.393 90.2784C231.047 89.947 230.595 89.7812 230.037 89.7812C229.345 89.7812 228.772 89.9943 228.318 90.4205C227.863 90.8419 227.584 91.384 227.48 92.0469L226.308 99H224.199L225.413 91.7486C225.508 91.152 225.399 90.6761 225.086 90.321C224.779 89.9612 224.329 89.7812 223.737 89.7812C223.334 89.7812 222.944 89.8878 222.565 90.1009C222.191 90.3139 221.871 90.6075 221.606 90.9815C221.341 91.3556 221.168 91.7865 221.088 92.2741L219.966 99H217.842ZM240.184 99.2202C239.114 99.2202 238.228 98.9905 237.528 98.5312C236.832 98.0672 236.344 97.4162 236.065 96.5781C235.785 95.7353 235.74 94.7481 235.93 93.6165C236.114 92.4991 236.486 91.5142 237.045 90.6619C237.603 89.8097 238.299 89.1444 239.133 88.6662C239.971 88.188 240.897 87.9489 241.91 87.9489C242.525 87.9489 243.105 88.0507 243.65 88.2543C244.199 88.4579 244.665 88.7775 245.049 89.2131C245.433 89.6487 245.698 90.2145 245.844 90.9105C245.996 91.6018 245.991 92.4422 245.83 93.4318L245.71 94.1847H237.031L237.279 92.5938H243.87C243.969 92.035 243.943 91.5402 243.792 91.1094C243.64 90.6738 243.38 90.3305 243.011 90.0795C242.646 89.8286 242.187 89.7031 241.633 89.7031C241.065 89.7031 240.534 89.8523 240.042 90.1506C239.549 90.4489 239.138 90.83 238.806 91.294C238.479 91.7533 238.273 92.2268 238.188 92.7145L237.94 94.1705C237.817 94.9659 237.838 95.6051 238.004 96.0881C238.174 96.571 238.472 96.9214 238.898 97.1392C239.325 97.357 239.857 97.4659 240.496 97.4659C240.908 97.4659 241.29 97.4091 241.64 97.2955C241.995 97.1771 242.31 97.0043 242.585 96.777C242.859 96.545 243.089 96.2562 243.273 95.9105L245.219 96.2727C244.959 96.8646 244.585 97.383 244.097 97.8281C243.61 98.2685 243.034 98.6117 242.371 98.858C241.713 99.0994 240.984 99.2202 240.184 99.2202ZM252.38 84.4545L250.477 94.8168H248.517L250.044 84.4545H252.38ZM248.978 99.1349C248.581 99.1349 248.249 98.9976 247.984 98.723C247.724 98.4484 247.596 98.1122 247.6 97.7145C247.605 97.3215 247.752 96.9924 248.041 96.7273C248.334 96.4574 248.675 96.3224 249.064 96.3224C249.452 96.3224 249.783 96.4598 250.058 96.7344C250.333 97.009 250.46 97.3357 250.441 97.7145C250.427 97.9796 250.351 98.2211 250.214 98.4389C250.082 98.652 249.906 98.8224 249.689 98.9503C249.471 99.0734 249.234 99.1349 248.978 99.1349Z" fill="url(#paint1_linear_238_100)"/>
<path d="M178.384 64.3608C178.388 63.6458 178.156 63.099 177.688 62.7202C177.223 62.3414 176.575 62.152 175.741 62.152C175.145 62.152 174.612 62.2467 174.143 62.4361C173.679 62.6207 173.301 62.8764 173.007 63.2031C172.718 63.5251 172.541 63.892 172.474 64.304C172.413 64.6496 172.444 64.9479 172.567 65.1989C172.695 65.4498 172.877 65.6605 173.114 65.831C173.355 65.9967 173.62 66.1364 173.909 66.25C174.198 66.3589 174.477 66.4489 174.747 66.5199L176.111 66.8892C176.551 67.0028 176.999 67.1567 177.453 67.3509C177.908 67.545 178.317 67.8007 178.682 68.1179C179.046 68.4351 179.319 68.8281 179.499 69.2969C179.679 69.7656 179.714 70.3267 179.605 70.9801C179.463 71.804 179.129 72.5355 178.604 73.1747C178.078 73.8139 177.384 74.3182 176.523 74.6875C175.661 75.0568 174.662 75.2415 173.526 75.2415C172.437 75.2415 171.52 75.0687 170.777 74.723C170.038 74.3774 169.496 73.8873 169.151 73.2528C168.805 72.6136 168.682 71.8561 168.781 70.9801H170.99C170.938 71.5057 171.033 71.9437 171.274 72.294C171.52 72.6397 171.866 72.8977 172.311 73.0682C172.756 73.2339 173.26 73.3168 173.824 73.3168C174.449 73.3168 175.019 73.2197 175.536 73.0256C176.052 72.8267 176.478 72.5521 176.814 72.2017C177.15 71.8466 177.356 71.4323 177.432 70.9588C177.508 70.5279 177.446 70.1752 177.247 69.9006C177.053 69.6259 176.759 69.3987 176.366 69.2188C175.978 69.0388 175.536 68.8802 175.038 68.7429L173.398 68.2741C172.285 67.9569 171.442 67.4905 170.869 66.875C170.296 66.2595 170.09 65.4451 170.251 64.4318C170.393 63.5937 170.744 62.8622 171.303 62.2372C171.861 61.6122 172.557 61.1269 173.391 60.7812C174.224 60.4309 175.128 60.2557 176.104 60.2557C177.089 60.2557 177.927 60.4309 178.618 60.7812C179.309 61.1316 179.821 61.6146 180.152 62.2301C180.483 62.8456 180.599 63.5559 180.5 64.3608H178.384ZM186.063 75.2202C184.993 75.2202 184.107 74.9905 183.407 74.5312C182.711 74.0672 182.223 73.4162 181.944 72.5781C181.664 71.7353 181.619 70.7481 181.809 69.6165C181.993 68.4991 182.365 67.5142 182.924 66.6619C183.482 65.8097 184.178 65.1444 185.012 64.6662C185.85 64.188 186.775 63.9489 187.789 63.9489C188.404 63.9489 188.984 64.0507 189.529 64.2543C190.078 64.4579 190.544 64.7775 190.928 65.2131C191.311 65.6487 191.577 66.2145 191.723 66.9105C191.875 67.6018 191.87 68.4422 191.709 69.4318L191.588 70.1847H182.909L183.158 68.5938H189.749C189.848 68.035 189.822 67.5402 189.671 67.1094C189.519 66.6738 189.259 66.3305 188.89 66.0795C188.525 65.8286 188.066 65.7031 187.512 65.7031C186.944 65.7031 186.413 65.8523 185.921 66.1506C185.428 66.4489 185.016 66.83 184.685 67.294C184.358 67.7533 184.152 68.2268 184.067 68.7145L183.819 70.1705C183.695 70.9659 183.717 71.6051 183.882 72.0881C184.053 72.571 184.351 72.9214 184.777 73.1392C185.203 73.357 185.736 73.4659 186.375 73.4659C186.787 73.4659 187.168 73.4091 187.519 73.2955C187.874 73.1771 188.189 73.0043 188.463 72.777C188.738 72.545 188.968 72.2562 189.152 71.9105L191.098 72.2727C190.838 72.8646 190.464 73.383 189.976 73.8281C189.489 74.2685 188.913 74.6117 188.25 74.858C187.592 75.0994 186.863 75.2202 186.063 75.2202ZM196.363 68.5227L195.298 75H193.174L194.992 64.0909H197.031L196.732 65.8665H196.867C197.213 65.2841 197.684 64.8201 198.281 64.4744C198.882 64.1241 199.592 63.9489 200.411 63.9489C201.15 63.9489 201.77 64.1051 202.272 64.4176C202.779 64.7254 203.136 65.1847 203.344 65.7955C203.558 66.4062 203.591 67.1615 203.444 68.0611L202.279 75H200.156L201.271 68.3168C201.398 67.526 201.294 66.9081 200.958 66.4631C200.627 66.0133 200.099 65.7884 199.374 65.7884C198.882 65.7884 198.425 65.8949 198.004 66.108C197.587 66.321 197.234 66.6335 196.945 67.0455C196.661 67.4527 196.467 67.9451 196.363 68.5227ZM209.19 75.2131C208.304 75.2131 207.554 74.9882 206.938 74.5384C206.327 74.0838 205.894 73.4375 205.638 72.5994C205.388 71.7566 205.359 70.7457 205.553 69.5668C205.752 68.3878 206.119 67.3793 206.654 66.5412C207.189 65.7031 207.838 65.0616 208.6 64.6165C209.362 64.1714 210.184 63.9489 211.065 63.9489C211.742 63.9489 212.267 64.0625 212.641 64.2898C213.02 64.5123 213.299 64.7727 213.479 65.071C213.659 65.3693 213.794 65.6321 213.884 65.8594H214.005L214.907 60.4545H217.031L214.616 75H212.542L212.833 73.3026H212.656C212.49 73.5346 212.26 73.7997 211.967 74.098C211.678 74.3963 211.308 74.6567 210.859 74.8793C210.409 75.1018 209.853 75.2131 209.19 75.2131ZM209.907 73.402C210.518 73.402 211.065 73.241 211.548 72.919C212.035 72.5923 212.44 72.1402 212.762 71.5625C213.089 70.9848 213.316 70.3125 213.444 69.5455C213.572 68.7879 213.569 68.125 213.437 67.5568C213.304 66.9886 213.049 66.5459 212.67 66.2287C212.291 65.9115 211.791 65.7528 211.171 65.7528C210.532 65.7528 209.976 65.9186 209.502 66.25C209.029 66.5814 208.64 67.0336 208.337 67.6065C208.039 68.1795 207.831 68.8258 207.712 69.5455C207.589 70.2746 207.585 70.9304 207.698 71.5128C207.812 72.0952 208.051 72.5568 208.415 72.8977C208.78 73.2339 209.277 73.402 209.907 73.402ZM226.079 75.2415C225.388 75.2415 224.784 75.1136 224.268 74.858C223.752 74.5975 223.371 74.2211 223.124 73.7287C222.878 73.2363 222.814 72.6326 222.933 71.9176C223.037 71.3021 223.24 70.7955 223.543 70.3977C223.851 70 224.225 69.6851 224.665 69.4531C225.106 69.2164 225.584 69.0388 226.1 68.9205C226.616 68.8021 227.137 68.7145 227.663 68.6577C228.326 68.5819 228.863 68.518 229.275 68.4659C229.692 68.4138 230.004 68.3333 230.212 68.2244C230.421 68.1108 230.546 67.9261 230.589 67.6705V67.6207C230.688 67.0052 230.598 66.527 230.319 66.1861C230.044 65.8404 229.566 65.6676 228.884 65.6676C228.174 65.6676 227.577 65.8239 227.094 66.1364C226.616 66.4489 226.263 66.7992 226.036 67.1875L224.133 66.733C224.474 66.0701 224.907 65.535 225.433 65.1278C225.963 64.7159 226.543 64.4176 227.173 64.233C227.802 64.0436 228.446 63.9489 229.104 63.9489C229.54 63.9489 229.992 64.0009 230.461 64.1051C230.93 64.2045 231.356 64.3892 231.739 64.6591C232.128 64.929 232.416 65.3149 232.606 65.8168C232.795 66.3139 232.824 66.9602 232.691 67.7557L231.491 75H229.417L229.673 73.5085H229.587C229.407 73.7831 229.156 74.053 228.835 74.3182C228.517 74.5833 228.129 74.8035 227.67 74.9787C227.21 75.1539 226.68 75.2415 226.079 75.2415ZM226.803 73.5369C227.395 73.5369 227.918 73.4209 228.373 73.1889C228.832 72.9569 229.204 72.6539 229.488 72.2798C229.772 71.901 229.95 71.4962 230.021 71.0653L230.255 69.6591C230.165 69.7348 230.006 69.8035 229.779 69.8651C229.557 69.9266 229.306 69.9811 229.026 70.0284C228.747 70.0758 228.472 70.116 228.202 70.1491C227.937 70.1823 227.717 70.2131 227.542 70.2415C227.125 70.2936 226.735 70.3812 226.37 70.5043C226.01 70.6274 225.71 70.8049 225.468 71.0369C225.227 71.2642 225.075 71.5672 225.013 71.946C224.928 72.4716 225.054 72.8693 225.39 73.1392C225.731 73.4044 226.202 73.5369 226.803 73.5369ZM237.515 68.5227L236.45 75H234.326L236.145 64.0909H238.183L237.885 65.8665H238.02C238.365 65.2841 238.836 64.8201 239.433 64.4744C240.034 64.1241 240.744 63.9489 241.564 63.9489C242.302 63.9489 242.922 64.1051 243.424 64.4176C243.931 64.7254 244.288 65.1847 244.497 65.7955C244.71 66.4062 244.743 67.1615 244.596 68.0611L243.431 75H241.308L242.423 68.3168C242.551 67.526 242.447 66.9081 242.11 66.4631C241.779 66.0133 241.251 65.7884 240.527 65.7884C240.034 65.7884 239.577 65.8949 239.156 66.108C238.739 66.321 238.386 66.6335 238.098 67.0455C237.814 67.4527 237.619 67.9451 237.515 68.5227ZM250.342 75.2131C249.457 75.2131 248.706 74.9882 248.091 74.5384C247.48 74.0838 247.047 73.4375 246.791 72.5994C246.54 71.7566 246.511 70.7457 246.706 69.5668C246.904 68.3878 247.271 67.3793 247.806 66.5412C248.342 65.7031 248.99 65.0616 249.752 64.6165C250.515 64.1714 251.336 63.9489 252.217 63.9489C252.894 63.9489 253.42 64.0625 253.794 64.2898C254.172 64.5123 254.452 64.7727 254.632 65.071C254.812 65.3693 254.947 65.6321 255.037 65.8594H255.157L256.059 60.4545H258.183L255.768 75H253.694L253.985 73.3026H253.808C253.642 73.5346 253.413 73.7997 253.119 74.098C252.83 74.3963 252.461 74.6567 252.011 74.8793C251.561 75.1018 251.005 75.2131 250.342 75.2131ZM251.059 73.402C251.67 73.402 252.217 73.241 252.7 72.919C253.188 72.5923 253.592 72.1402 253.914 71.5625C254.241 70.9848 254.468 70.3125 254.596 69.5455C254.724 68.7879 254.722 68.125 254.589 67.5568C254.457 66.9886 254.201 66.5459 253.822 66.2287C253.443 65.9115 252.944 65.7528 252.324 65.7528C251.684 65.7528 251.128 65.9186 250.654 66.25C250.181 66.5814 249.793 67.0336 249.49 67.6065C249.191 68.1795 248.983 68.8258 248.865 69.5455C248.742 70.2746 248.737 70.9304 248.85 71.5128C248.964 72.0952 249.203 72.5568 249.568 72.8977C249.932 73.2339 250.43 73.402 251.059 73.402ZM277.949 65.1847H275.775C275.766 64.7112 275.678 64.2945 275.512 63.9347C275.347 63.5701 275.119 63.2647 274.831 63.0185C274.547 62.7675 274.213 62.5781 273.829 62.4503C273.446 62.3224 273.031 62.2585 272.586 62.2585C271.729 62.2585 270.924 62.4763 270.172 62.9119C269.419 63.3475 268.777 63.982 268.247 64.8153C267.717 65.6487 267.352 66.6643 267.153 67.8622C266.959 69.027 266.983 70.0047 267.224 70.7955C267.466 71.5862 267.873 72.1851 268.446 72.5923C269.023 72.9948 269.717 73.196 270.527 73.196C271 73.196 271.462 73.1345 271.912 73.0114C272.366 72.8835 272.788 72.6965 273.176 72.4503C273.564 72.2041 273.907 71.9034 274.206 71.5483C274.509 71.1884 274.745 70.7765 274.916 70.3125H277.118C276.881 71.0322 276.547 71.6903 276.116 72.2869C275.685 72.8835 275.176 73.3996 274.589 73.8352C274.002 74.2708 273.358 74.607 272.657 74.8438C271.957 75.0805 271.216 75.1989 270.434 75.1989C269.151 75.1989 268.057 74.8935 267.153 74.2827C266.253 73.6671 265.607 72.7912 265.214 71.6548C264.826 70.5185 264.76 69.1643 265.015 67.5923C265.276 66.063 265.773 64.7514 266.507 63.6577C267.245 62.5592 268.145 61.7187 269.206 61.1364C270.271 60.5492 271.422 60.2557 272.657 60.2557C273.439 60.2557 274.154 60.367 274.802 60.5895C275.451 60.8073 276.01 61.1293 276.478 61.5554C276.952 61.9768 277.316 62.4929 277.572 63.1037C277.828 63.7098 277.953 64.4034 277.949 65.1847ZM283.437 75.2202C282.4 75.2202 281.533 74.9834 280.837 74.5099C280.141 74.0317 279.651 73.3641 279.367 72.5071C279.088 71.6454 279.04 70.6439 279.225 69.5028C279.405 68.3854 279.767 67.41 280.312 66.5767C280.861 65.7434 281.548 65.0971 282.371 64.6378C283.2 64.1785 284.121 63.9489 285.134 63.9489C286.171 63.9489 287.035 64.188 287.727 64.6662C288.423 65.1444 288.913 65.8144 289.197 66.6761C289.481 67.5379 289.531 68.5417 289.346 69.6875C289.166 70.7955 288.799 71.7661 288.245 72.5994C287.696 73.428 287.009 74.072 286.185 74.5312C285.362 74.9905 284.445 75.2202 283.437 75.2202ZM283.558 73.4375C284.239 73.4375 284.834 73.2576 285.34 72.8977C285.852 72.5379 286.268 72.0597 286.59 71.4631C286.912 70.8665 287.132 70.2131 287.251 69.5028C287.36 68.8163 287.357 68.1889 287.244 67.6207C287.135 67.0478 286.898 66.5885 286.533 66.2429C286.169 65.8973 285.662 65.7244 285.013 65.7244C284.332 65.7244 283.733 65.9067 283.217 66.2713C282.705 66.6312 282.289 67.1117 281.967 67.7131C281.649 68.3144 281.434 68.9702 281.32 69.6804C281.211 70.3622 281.211 70.9896 281.32 71.5625C281.429 72.1307 281.666 72.5852 282.031 72.9261C282.395 73.267 282.904 73.4375 283.558 73.4375ZM295.381 60.4545L292.966 75H290.843L293.257 60.4545H295.381ZM300.362 60.4545L297.947 75H295.823L298.238 60.4545H300.362ZM305.477 75.2202C304.407 75.2202 303.521 74.9905 302.821 74.5312C302.125 74.0672 301.637 73.4162 301.358 72.5781C301.078 71.7353 301.033 70.7481 301.223 69.6165C301.407 68.4991 301.779 67.5142 302.338 66.6619C302.896 65.8097 303.592 65.1444 304.426 64.6662C305.264 64.188 306.19 63.9489 307.203 63.9489C307.818 63.9489 308.398 64.0507 308.943 64.2543C309.492 64.4579 309.958 64.7775 310.342 65.2131C310.725 65.6487 310.991 66.2145 311.137 66.9105C311.289 67.6018 311.284 68.4422 311.123 69.4318L311.002 70.1847H302.324L302.572 68.5938H309.163C309.262 68.035 309.236 67.5402 309.085 67.1094C308.933 66.6738 308.673 66.3305 308.304 66.0795C307.939 65.8286 307.48 65.7031 306.926 65.7031C306.358 65.7031 305.827 65.8523 305.335 66.1506C304.842 66.4489 304.431 66.83 304.099 67.294C303.772 67.7533 303.566 68.2268 303.481 68.7145L303.233 70.1705C303.109 70.9659 303.131 71.6051 303.297 72.0881C303.467 72.571 303.765 72.9214 304.191 73.1392C304.618 73.357 305.15 73.4659 305.789 73.4659C306.201 73.4659 306.583 73.4091 306.933 73.2955C307.288 73.1771 307.603 73.0043 307.877 72.777C308.152 72.545 308.382 72.2562 308.566 71.9105L310.512 72.2727C310.252 72.8646 309.878 73.383 309.39 73.8281C308.903 74.2685 308.327 74.6117 307.664 74.858C307.006 75.0994 306.277 75.2202 305.477 75.2202ZM317.148 75.2202C316.087 75.2202 315.218 74.9811 314.541 74.5028C313.864 74.0199 313.393 73.3546 313.128 72.5071C312.863 71.6596 312.82 70.6889 313 69.5952C313.18 68.4872 313.547 67.5095 314.101 66.6619C314.66 65.8097 315.358 65.1444 316.196 64.6662C317.039 64.188 317.974 63.9489 319.001 63.9489C319.83 63.9489 320.543 64.1027 321.139 64.4105C321.736 64.7135 322.188 65.1397 322.496 65.6889C322.804 66.2382 322.936 66.8797 322.893 67.6136H320.827C320.794 67.1023 320.604 66.6619 320.259 66.2926C319.913 65.9233 319.404 65.7386 318.732 65.7386C318.14 65.7386 317.595 65.8949 317.098 66.2074C316.601 66.5152 316.182 66.9555 315.841 67.5284C315.5 68.0966 315.268 68.7689 315.145 69.5455C315.012 70.3409 315.019 71.0275 315.166 71.6051C315.313 72.1828 315.583 72.6302 315.976 72.9474C316.369 73.2647 316.864 73.4233 317.46 73.4233C317.867 73.4233 318.246 73.3499 318.597 73.2031C318.952 73.0516 319.264 72.8362 319.534 72.5568C319.809 72.2775 320.022 71.9413 320.173 71.5483H322.247C322.044 72.2538 321.703 72.8835 321.224 73.4375C320.751 73.9915 320.169 74.4271 319.477 74.7443C318.786 75.0616 318.009 75.2202 317.148 75.2202ZM330.839 64.0909L330.562 65.7955H324.603L324.88 64.0909H330.839ZM326.904 61.4773H329.028L327.309 71.7969C327.243 72.2088 327.255 72.5189 327.345 72.7273C327.435 72.9309 327.572 73.0705 327.757 73.1463C327.946 73.2173 328.157 73.2528 328.389 73.2528C328.559 73.2528 328.708 73.241 328.836 73.2173C328.964 73.1937 329.066 73.1747 329.142 73.1605L329.255 74.9148C329.113 74.9621 328.922 75.0095 328.68 75.0568C328.443 75.1089 328.154 75.1373 327.814 75.142C327.255 75.1515 326.751 75.0521 326.301 74.8438C325.851 74.6307 325.515 74.3087 325.292 73.8778C325.07 73.4422 325.015 72.8954 325.129 72.2372L326.904 61.4773ZM169.918 99H167.588L175.237 84.4545H177.773L180.592 99H178.263L176.139 87.0966H176.026L169.918 99ZM171.253 93.304H178.81L178.497 95.1506H170.94L171.253 93.304ZM185.718 92.5227L184.653 99H182.529L184.348 88.0909H186.386L186.088 89.8665H186.223C186.568 89.2841 187.039 88.8201 187.636 88.4744C188.237 88.1241 188.948 87.9489 189.767 87.9489C190.505 87.9489 191.126 88.1051 191.627 88.4176C192.134 88.7254 192.492 89.1847 192.7 89.7955C192.913 90.4062 192.946 91.1615 192.799 92.0611L191.635 99H189.511L190.626 92.3168C190.754 91.526 190.65 90.9081 190.314 90.4631C189.982 90.0133 189.454 89.7884 188.73 89.7884C188.237 89.7884 187.78 89.8949 187.359 90.108C186.942 90.321 186.59 90.6335 186.301 91.0455C186.017 91.4527 185.823 91.9451 185.718 92.5227ZM194.76 103.091C194.438 103.091 194.151 103.065 193.9 103.013C193.649 102.965 193.462 102.913 193.339 102.857L194.149 101.116C194.523 101.221 194.857 101.261 195.15 101.237C195.449 101.214 195.728 101.09 195.988 100.868C196.249 100.645 196.514 100.295 196.784 99.8168L197.181 99.0994L195.044 88.0909H197.231L198.581 96.5781H198.694L202.87 88.0909H205.235L198.694 100.442C198.386 101.029 198.036 101.517 197.643 101.905C197.255 102.298 196.819 102.594 196.336 102.793C195.858 102.991 195.333 103.091 194.76 103.091ZM212.324 88.0909L212.047 89.7955H206.088L206.365 88.0909H212.324ZM208.389 85.4773H210.512L208.794 95.7969C208.727 96.2088 208.739 96.5189 208.829 96.7273C208.919 96.9309 209.056 97.0705 209.241 97.1463C209.431 97.2173 209.641 97.2528 209.873 97.2528C210.044 97.2528 210.193 97.241 210.321 97.2173C210.449 97.1937 210.55 97.1747 210.626 97.1605L210.74 98.9148C210.598 98.9621 210.406 99.0095 210.164 99.0568C209.928 99.1089 209.639 99.1373 209.298 99.142C208.739 99.1515 208.235 99.0521 207.785 98.8438C207.335 98.6307 206.999 98.3087 206.777 97.8778C206.554 97.4422 206.5 96.8954 206.613 96.2372L208.389 85.4773ZM212.854 99L214.673 88.0909H216.796L214.978 99H212.854ZM216.178 86.3864C215.809 86.3864 215.496 86.2633 215.241 86.017C214.99 85.7661 214.874 85.4678 214.893 85.1222C214.912 84.7718 215.058 84.4735 215.333 84.2273C215.608 83.9763 215.927 83.8509 216.292 83.8509C216.661 83.8509 216.971 83.9763 217.222 84.2273C217.473 84.4735 217.592 84.7718 217.577 85.1222C217.558 85.4678 217.412 85.7661 217.137 86.017C216.867 86.2633 216.548 86.3864 216.178 86.3864ZM217.842 99L219.66 88.0909H221.699L221.4 89.8665H221.535C221.867 89.2652 222.316 88.7964 222.885 88.4602C223.458 88.1193 224.106 87.9489 224.831 87.9489C225.55 87.9489 226.13 88.1193 226.571 88.4602C227.016 88.8011 227.307 89.2699 227.444 89.8665H227.558C227.908 89.2794 228.398 88.813 229.028 88.4673C229.658 88.1217 230.366 87.9489 231.152 87.9489C232.132 87.9489 232.885 88.2614 233.41 88.8864C233.94 89.5066 234.101 90.4394 233.893 91.6847L232.672 99H230.541L231.734 91.8835C231.852 91.1402 231.739 90.6051 231.393 90.2784C231.047 89.947 230.595 89.7812 230.037 89.7812C229.345 89.7812 228.772 89.9943 228.318 90.4205C227.863 90.8419 227.584 91.384 227.48 92.0469L226.308 99H224.199L225.413 91.7486C225.508 91.152 225.399 90.6761 225.086 90.321C224.779 89.9612 224.329 89.7812 223.737 89.7812C223.334 89.7812 222.944 89.8878 222.565 90.1009C222.191 90.3139 221.871 90.6075 221.606 90.9815C221.341 91.3556 221.168 91.7865 221.088 92.2741L219.966 99H217.842ZM240.184 99.2202C239.114 99.2202 238.228 98.9905 237.528 98.5312C236.832 98.0672 236.344 97.4162 236.065 96.5781C235.785 95.7353 235.74 94.7481 235.93 93.6165C236.114 92.4991 236.486 91.5142 237.045 90.6619C237.603 89.8097 238.299 89.1444 239.133 88.6662C239.971 88.188 240.897 87.9489 241.91 87.9489C242.525 87.9489 243.105 88.0507 243.65 88.2543C244.199 88.4579 244.665 88.7775 245.049 89.2131C245.433 89.6487 245.698 90.2145 245.844 90.9105C245.996 91.6018 245.991 92.4422 245.83 93.4318L245.71 94.1847H237.031L237.279 92.5938H243.87C243.969 92.035 243.943 91.5402 243.792 91.1094C243.64 90.6738 243.38 90.3305 243.011 90.0795C242.646 89.8286 242.187 89.7031 241.633 89.7031C241.065 89.7031 240.534 89.8523 240.042 90.1506C239.549 90.4489 239.138 90.83 238.806 91.294C238.479 91.7533 238.273 92.2268 238.188 92.7145L237.94 94.1705C237.817 94.9659 237.838 95.6051 238.004 96.0881C238.174 96.571 238.472 96.9214 238.898 97.1392C239.325 97.357 239.857 97.4659 240.496 97.4659C240.908 97.4659 241.29 97.4091 241.64 97.2955C241.995 97.1771 242.31 97.0043 242.585 96.777C242.859 96.545 243.089 96.2562 243.273 95.9105L245.219 96.2727C244.959 96.8646 244.585 97.383 244.097 97.8281C243.61 98.2685 243.034 98.6117 242.371 98.858C241.713 99.0994 240.984 99.2202 240.184 99.2202ZM252.38 84.4545L250.477 94.8168H248.517L250.044 84.4545H252.38ZM248.978 99.1349C248.581 99.1349 248.249 98.9976 247.984 98.723C247.724 98.4484 247.596 98.1122 247.6 97.7145C247.605 97.3215 247.752 96.9924 248.041 96.7273C248.334 96.4574 248.675 96.3224 249.064 96.3224C249.452 96.3224 249.783 96.4598 250.058 96.7344C250.333 97.009 250.46 97.3357 250.441 97.7145C250.427 97.9796 250.351 98.2211 250.214 98.4389C250.082 98.652 249.906 98.8224 249.689 98.9503C249.471 99.0734 249.234 99.1349 248.978 99.1349Z" fill="white"/>
<path d="M185.098 119.547H181.987C181.93 119.144 181.814 118.787 181.639 118.474C181.464 118.157 181.239 117.887 180.964 117.665C180.69 117.442 180.373 117.272 180.013 117.153C179.658 117.035 179.272 116.976 178.855 116.976C178.102 116.976 177.446 117.163 176.888 117.537C176.329 117.906 175.896 118.446 175.588 119.156C175.28 119.862 175.126 120.719 175.126 121.727C175.126 122.764 175.28 123.635 175.588 124.341C175.901 125.046 176.336 125.579 176.895 125.939C177.454 126.299 178.1 126.479 178.834 126.479C179.246 126.479 179.627 126.424 179.977 126.315C180.332 126.206 180.647 126.048 180.922 125.839C181.196 125.626 181.424 125.368 181.604 125.065C181.788 124.762 181.916 124.417 181.987 124.028L185.098 124.043C185.018 124.71 184.816 125.354 184.494 125.974C184.177 126.59 183.749 127.142 183.209 127.629C182.674 128.112 182.035 128.496 181.291 128.78C180.553 129.059 179.717 129.199 178.784 129.199C177.487 129.199 176.327 128.905 175.304 128.318C174.286 127.731 173.481 126.881 172.889 125.768C172.302 124.656 172.009 123.309 172.009 121.727C172.009 120.141 172.307 118.792 172.903 117.679C173.5 116.566 174.31 115.719 175.332 115.136C176.355 114.549 177.506 114.256 178.784 114.256C179.627 114.256 180.408 114.374 181.128 114.611C181.852 114.848 182.494 115.193 183.053 115.648C183.611 116.098 184.066 116.649 184.416 117.303C184.771 117.956 184.999 118.704 185.098 119.547ZM200.67 121.727C200.67 123.313 200.369 124.663 199.768 125.776C199.171 126.888 198.357 127.738 197.325 128.325C196.297 128.908 195.142 129.199 193.859 129.199C192.566 129.199 191.406 128.905 190.379 128.318C189.351 127.731 188.539 126.881 187.942 125.768C187.346 124.656 187.048 123.309 187.048 121.727C187.048 120.141 187.346 118.792 187.942 117.679C188.539 116.566 189.351 115.719 190.379 115.136C191.406 114.549 192.566 114.256 193.859 114.256C195.142 114.256 196.297 114.549 197.325 115.136C198.357 115.719 199.171 116.566 199.768 117.679C200.369 118.792 200.67 120.141 200.67 121.727ZM197.552 121.727C197.552 120.7 197.398 119.833 197.09 119.128C196.787 118.422 196.359 117.887 195.805 117.523C195.251 117.158 194.602 116.976 193.859 116.976C193.115 116.976 192.467 117.158 191.913 117.523C191.359 117.887 190.928 118.422 190.62 119.128C190.317 119.833 190.165 120.7 190.165 121.727C190.165 122.755 190.317 123.621 190.62 124.327C190.928 125.032 191.359 125.567 191.913 125.932C192.467 126.296 193.115 126.479 193.859 126.479C194.602 126.479 195.251 126.296 195.805 125.932C196.359 125.567 196.787 125.032 197.09 124.327C197.398 123.621 197.552 122.755 197.552 121.727ZM202.948 114.455H206.74L210.746 124.227H210.917L214.922 114.455H218.715V129H215.732V119.533H215.611L211.847 128.929H209.816L206.051 119.497H205.931V129H202.948V114.455ZM224.324 114.455V129H221.249V114.455H224.324ZM239.02 114.455V129H236.364L230.036 119.845H229.929V129H226.854V114.455H229.553L235.831 123.602H235.959V114.455H239.02ZM251.206 119.156C251.107 118.811 250.967 118.505 250.787 118.24C250.607 117.97 250.387 117.743 250.126 117.558C249.871 117.369 249.577 117.224 249.246 117.125C248.919 117.026 248.557 116.976 248.159 116.976C247.416 116.976 246.762 117.161 246.199 117.53C245.64 117.899 245.205 118.437 244.892 119.142C244.58 119.843 244.423 120.7 244.423 121.713C244.423 122.726 244.577 123.588 244.885 124.298C245.193 125.009 245.628 125.551 246.192 125.925C246.755 126.294 247.42 126.479 248.188 126.479C248.884 126.479 249.478 126.356 249.97 126.109C250.467 125.858 250.846 125.506 251.107 125.051C251.372 124.597 251.504 124.059 251.504 123.439L252.129 123.531H248.379V121.216H254.466V123.048C254.466 124.327 254.196 125.425 253.656 126.344C253.116 127.258 252.373 127.963 251.426 128.46C250.479 128.953 249.395 129.199 248.173 129.199C246.81 129.199 245.612 128.898 244.58 128.297C243.547 127.691 242.742 126.831 242.165 125.719C241.592 124.601 241.305 123.276 241.305 121.741C241.305 120.562 241.476 119.511 241.817 118.588C242.162 117.66 242.645 116.874 243.266 116.23C243.886 115.586 244.608 115.096 245.432 114.76C246.256 114.424 247.148 114.256 248.109 114.256C248.933 114.256 249.7 114.376 250.411 114.618C251.121 114.855 251.75 115.191 252.3 115.626C252.854 116.062 253.306 116.58 253.656 117.182C254.007 117.778 254.232 118.437 254.331 119.156H251.206ZM269.295 118.638C269.239 118.065 268.995 117.62 268.564 117.303C268.133 116.985 267.548 116.827 266.81 116.827C266.308 116.827 265.884 116.898 265.538 117.04C265.193 117.177 264.928 117.369 264.743 117.615C264.563 117.861 264.473 118.141 264.473 118.453C264.464 118.714 264.518 118.941 264.636 119.135C264.759 119.329 264.928 119.497 265.141 119.639C265.354 119.777 265.6 119.897 265.879 120.001C266.159 120.101 266.457 120.186 266.774 120.257L268.081 120.57C268.715 120.712 269.298 120.901 269.828 121.138C270.358 121.375 270.818 121.666 271.206 122.011C271.594 122.357 271.895 122.764 272.108 123.233C272.326 123.702 272.437 124.239 272.442 124.845C272.437 125.735 272.21 126.507 271.76 127.161C271.315 127.809 270.671 128.313 269.828 128.673C268.99 129.028 267.979 129.206 266.795 129.206C265.621 129.206 264.598 129.026 263.727 128.666C262.861 128.306 262.184 127.774 261.696 127.068C261.213 126.358 260.96 125.48 260.936 124.433H263.912C263.945 124.921 264.085 125.328 264.331 125.655C264.582 125.977 264.916 126.221 265.332 126.386C265.754 126.547 266.23 126.628 266.76 126.628C267.281 126.628 267.733 126.552 268.116 126.401C268.505 126.249 268.805 126.038 269.018 125.768C269.232 125.499 269.338 125.188 269.338 124.838C269.338 124.511 269.241 124.237 269.047 124.014C268.857 123.792 268.578 123.602 268.209 123.446C267.844 123.29 267.397 123.148 266.866 123.02L265.283 122.622C264.056 122.324 263.088 121.857 262.378 121.223C261.668 120.589 261.315 119.734 261.32 118.659C261.315 117.778 261.549 117.009 262.023 116.351C262.501 115.693 263.157 115.179 263.99 114.81C264.823 114.44 265.77 114.256 266.831 114.256C267.911 114.256 268.853 114.44 269.658 114.81C270.467 115.179 271.097 115.693 271.547 116.351C271.997 117.009 272.229 117.771 272.243 118.638H269.295ZM287.877 121.727C287.877 123.313 287.576 124.663 286.975 125.776C286.378 126.888 285.564 127.738 284.532 128.325C283.504 128.908 282.349 129.199 281.066 129.199C279.773 129.199 278.613 128.905 277.586 128.318C276.558 127.731 275.746 126.881 275.15 125.768C274.553 124.656 274.255 123.309 274.255 121.727C274.255 120.141 274.553 118.792 275.15 117.679C275.746 116.566 276.558 115.719 277.586 115.136C278.613 114.549 279.773 114.256 281.066 114.256C282.349 114.256 283.504 114.549 284.532 115.136C285.564 115.719 286.378 116.566 286.975 117.679C287.576 118.792 287.877 120.141 287.877 121.727ZM284.759 121.727C284.759 120.7 284.605 119.833 284.297 119.128C283.994 118.422 283.566 117.887 283.012 117.523C282.458 117.158 281.809 116.976 281.066 116.976C280.322 116.976 279.674 117.158 279.12 117.523C278.566 117.887 278.135 118.422 277.827 119.128C277.524 119.833 277.373 120.7 277.373 121.727C277.373 122.755 277.524 123.621 277.827 124.327C278.135 125.032 278.566 125.567 279.12 125.932C279.674 126.296 280.322 126.479 281.066 126.479C281.809 126.479 282.458 126.296 283.012 125.932C283.566 125.567 283.994 125.032 284.297 124.327C284.605 123.621 284.759 122.755 284.759 121.727ZM303.521 121.727C303.521 123.313 303.221 124.663 302.619 125.776C302.023 126.888 301.208 127.738 300.176 128.325C299.149 128.908 297.993 129.199 296.71 129.199C295.418 129.199 294.258 128.905 293.23 128.318C292.203 127.731 291.391 126.881 290.794 125.768C290.197 124.656 289.899 123.309 289.899 121.727C289.899 120.141 290.197 118.792 290.794 117.679C291.391 116.566 292.203 115.719 293.23 115.136C294.258 114.549 295.418 114.256 296.71 114.256C297.993 114.256 299.149 114.549 300.176 115.136C301.208 115.719 302.023 116.566 302.619 117.679C303.221 118.792 303.521 120.141 303.521 121.727ZM300.403 121.727C300.403 120.7 300.25 119.833 299.942 119.128C299.639 118.422 299.21 117.887 298.656 117.523C298.102 117.158 297.454 116.976 296.71 116.976C295.967 116.976 295.318 117.158 294.764 117.523C294.21 117.887 293.779 118.422 293.472 119.128C293.169 119.833 293.017 120.7 293.017 121.727C293.017 122.755 293.169 123.621 293.472 124.327C293.779 125.032 294.21 125.567 294.764 125.932C295.318 126.296 295.967 126.479 296.71 126.479C297.454 126.479 298.102 126.296 298.656 125.932C299.21 125.567 299.639 125.032 299.942 124.327C300.25 123.621 300.403 122.755 300.403 121.727ZM317.966 114.455V129H315.309L308.981 119.845H308.875V129H305.799V114.455H308.498L314.777 123.602H314.904V114.455H317.966ZM324.065 114.455L323.788 124.639H321.188L320.904 114.455H324.065ZM322.488 129.185C322.019 129.185 321.617 129.019 321.281 128.688C320.944 128.351 320.779 127.949 320.783 127.48C320.779 127.016 320.944 126.618 321.281 126.287C321.617 125.955 322.019 125.79 322.488 125.79C322.938 125.79 323.333 125.955 323.674 126.287C324.015 126.618 324.188 127.016 324.192 127.48C324.188 127.793 324.105 128.079 323.944 128.339C323.788 128.595 323.582 128.801 323.326 128.957C323.07 129.109 322.791 129.185 322.488 129.185Z" fill="black"/>
</g>
<defs>
<linearGradient id="paint0_linear_238_100" x1="22" y1="35.5" x2="270" y2="35.5" gradientUnits="userSpaceOnUse">
<stop offset="0.509745" stop-color="#E26EE5"/>
<stop offset="0.518417" stop-color="#36175E"/>
</linearGradient>
<linearGradient id="paint1_linear_238_100" x1="288" y1="89" x2="288.5" y2="89" gradientUnits="userSpaceOnUse">
<stop/>
<stop offset="1" stop-color="white"/>
</linearGradient>
<clipPath id="clip0_238_100">
<rect width="350" height="150" rx="20" fill="white"/>
</clipPath>
<clipPath id="clip1_238_100">
<rect width="236" height="243" fill="white" transform="translate(-81 -12)"/>
</clipPath>
</defs>
</svg>
