<svg width="324" height="142" viewBox="0 0 324 142" fill="none" xmlns="http://www.w3.org/2000/svg">
<path d="M20.754 139.511C2.97962 124.719 -5.5801 99.416 13.6032 82.4101C18.3503 78.2057 24.0958 75.0731 30.2412 72.8401C30.4855 72.7604 30.7262 72.6711 30.9704 72.5913" stroke="#CCDDE2" stroke-width="4.23" stroke-miterlimit="10"/>
<path d="M134.388 14.0161C152.251 15.3878 159.069 22.677 167.618 32.2597C168.326 33.054 169.009 33.8547 169.682 34.6554C177.328 43.7437 183.052 58.0605 198.511 56.2804C210.59 54.8864 220.93 48.0088 231.752 43.5555C249.59 36.2185 271.046 28.9708 290.222 36.7449C310.776 45.074 320.903 67.7836 321.3 86.9395C321.686 106.198 312.616 130.821 291.819 139.511" stroke="#CCDDE2" stroke-width="4.23" stroke-miterlimit="10"/>
<path d="M146.654 51.6461C146.413 60.2272 143.208 68.5269 137.486 75.3892C137.472 75.4001 137.461 75.4128 137.454 75.4275C136.912 75.9539 136.36 76.4802 135.797 76.9874C131.304 81.0521 125.963 84.2763 120.083 86.4745C114.202 88.6724 107.896 89.801 101.53 89.7953H101.399C94.0497 89.7953 86.7042 89.8176 79.3658 89.8176C73.5744 89.8176 67.7157 90.1366 61.9809 89.3806C60.1365 89.1413 58.3948 88.615 56.508 88.6915C49.3147 88.9914 44.3729 95.1258 40.9639 100.086C40.9189 100.151 40.8584 100.205 40.7869 100.246C40.7614 100.189 40.7494 100.128 40.7515 100.067C41.2046 92.5897 39.4063 84.8572 35.268 78.3432C35.1937 78.2156 35.1158 78.0943 35.0379 77.9763C32.7334 74.4673 29.6642 71.4528 27.6889 67.7683C24.2703 61.3631 22.7361 54.2737 23.2331 47.1804C23.7301 40.0871 26.2421 33.228 30.5276 27.2611C34.8135 21.2945 40.7288 16.4205 47.7065 13.1067C54.6842 9.79326 62.4896 8.15136 70.3742 8.33862L101.916 9.10422C114.108 9.40058 125.671 14.0487 134.061 22.0266C142.451 30.0045 146.981 40.6587 146.654 51.6461Z" fill="#DB00FF"/>
<path d="M149.985 46.1206C150.003 56.9379 145.546 67.373 137.486 75.3888C137.472 75.3997 137.461 75.4128 137.454 75.4271C136.912 75.9535 136.36 76.4798 135.797 76.987C131.304 81.0517 125.963 84.2759 120.083 86.4741C114.202 88.672 107.896 89.8006 101.53 89.7949H101.399C94.0497 89.7949 86.7042 89.8172 79.3658 89.8172C73.5743 89.8172 67.7156 90.1362 61.9808 89.3802C60.1365 89.1409 58.3948 88.6146 56.508 88.6911C49.3147 88.991 44.3729 95.1254 40.9639 100.086C40.9189 100.15 40.8584 100.205 40.7869 100.245C40.7058 100.291 40.6123 100.316 40.5168 100.318C40.4212 100.319 40.327 100.297 40.2442 100.255C40.1613 100.211 40.093 100.149 40.0463 100.074C39.9996 99.9987 39.9766 99.9136 39.9797 99.8274C40.224 91.9322 38.0823 83.8423 33.5157 77.0795C33.4378 76.9519 33.3493 76.8211 33.2608 76.7031C30.7226 73.0729 27.4021 69.9722 25.2073 66.1442C21.3958 59.4867 19.549 52.0575 19.8439 44.5712C20.1388 37.0846 22.5658 29.7922 26.8913 23.395C31.2172 16.9978 37.2961 11.7107 44.5439 8.04218C51.792 4.37337 59.9652 2.44629 68.2785 2.44629H101.53C107.894 2.44661 114.195 3.5765 120.075 5.77186C125.954 7.9669 131.296 11.184 135.796 15.2395C140.295 19.2952 143.864 24.1096 146.299 29.4082C148.733 34.7068 149.986 40.3856 149.985 46.1206Z" stroke="#343434" stroke-width="4.23" stroke-miterlimit="10"/>
<path d="M120.851 22.8784H93.324C88.6749 22.8784 84.9059 26.2748 84.9059 30.4642V63.972C84.9059 68.1617 88.6749 71.5581 93.324 71.5581H120.851C125.5 71.5581 129.269 68.1617 129.269 63.972V30.4642C129.269 26.2748 125.5 22.8784 120.851 22.8784Z" fill="#D7E8F0"/>
<path d="M107.335 36.3842C109.22 36.3842 110.748 35.0074 110.748 33.3091C110.748 31.6107 109.22 30.2339 107.335 30.2339C105.451 30.2339 103.923 31.6107 103.923 33.3091C103.923 35.0074 105.451 36.3842 107.335 36.3842Z" fill="white"/>
<path d="M97.8021 47.2186C97.8021 44.94 98.8064 42.7552 100.594 41.1439C102.382 39.5329 104.807 38.6279 107.335 38.6279C109.864 38.6279 112.289 39.5329 114.076 41.1439C115.864 42.7552 116.869 44.94 116.869 47.2186H97.8021Z" fill="white"/>
<path d="M115.509 54.5518H98.6623C96.2675 54.5518 94.3258 56.3012 94.3258 58.4595V60.3767C94.3258 62.5347 96.2675 64.2844 98.6623 64.2844H115.509C117.904 64.2844 119.846 62.5347 119.846 60.3767V58.4595C119.846 56.3012 117.904 54.5518 115.509 54.5518Z" fill="#DB00FF"/>
<path d="M71.0716 38.4033H44.2773" stroke="white" stroke-width="4.23" stroke-linecap="round" stroke-linejoin="round"/>
<path d="M71.0716 44.0508H44.2773" stroke="white" stroke-width="4.23" stroke-linecap="round" stroke-linejoin="round"/>
<path d="M71.0716 49.0898H44.2773" stroke="white" stroke-width="4.23" stroke-linecap="round" stroke-linejoin="round"/>
<path d="M71.0716 54.7373H44.2773" stroke="white" stroke-width="4.23" stroke-linecap="round" stroke-linejoin="round"/>
<path d="M71.0716 33.3643H44.2773" stroke="white" stroke-width="4.23" stroke-linecap="round" stroke-linejoin="round"/>
<path d="M71.0716 59.7803H44.2773" stroke="white" stroke-width="4.23" stroke-linecap="round" stroke-linejoin="round"/>
<path d="M78.5586 96.4237C78.5586 96.4237 66.1509 95.3423 67.4926 83.9827C68.8342 72.6231 71.2733 73.1367 82.4172 68.4123C82.4172 68.4123 91.5186 68.374 94.0567 70.8335C96.5949 73.293 98.0676 68.4219 98.0676 68.4219C98.0676 68.4219 109.927 54.9792 124.731 57.8055C139.535 60.6319 113.176 71.3311 113.176 71.3311C113.176 71.3311 96.1666 71.5417 100.567 77.2295C100.567 77.2295 103.126 81.5072 101.654 85.0705C100.181 88.6337 100.199 94.3502 99.2251 94.5161C98.2516 94.6819 83.727 97.5338 83.727 97.5338L78.5586 96.4237Z" fill="white"/>
<path d="M194.494 139.515H160.028C154.32 139.523 148.667 138.516 143.39 136.553C138.114 134.591 133.319 131.71 129.28 128.076C129.277 128.834 129.188 129.589 129.014 130.331V109.641C117.686 97.7197 104.489 103.784 102.716 104.68C101.93 97.9079 101.236 92.5583 101.236 92.5583C101.236 92.5583 99.3278 78.031 114.267 72.7133C114.387 72.6654 114.507 72.6239 114.621 72.5857C121.612 70.2091 127.945 71.383 133.23 73.7181C133.319 73.766 133.407 73.7979 133.496 73.8457C139.078 76.3722 143.457 80.1715 146.162 82.3885C146.449 82.615 146.714 82.8351 146.966 83.0265C149.748 85.2149 157.005 91.6778 165.158 96.8871L165.292 96.9764C171.282 100.782 177.746 103.915 183.265 104.183C183.275 104.202 197.251 116.869 194.494 139.515Z" fill="#2E2E2E"/>
<path d="M191.669 102.332C188.458 103.477 185.7 104.121 183.02 104.201C181.618 104.243 180.216 104.118 178.85 103.831C174.832 103.037 170.62 100.848 165.044 96.9821L164.913 96.8928C160.103 93.572 154.293 89.0071 146.718 83.0322C146.466 82.8344 146.201 82.6143 145.914 82.3942C145.174 81.8168 144.413 81.2203 143.642 80.6046C140.449 78.0274 136.963 75.7616 133.241 73.845C133.152 73.7972 133.064 73.7653 132.975 73.7174C132.621 73.5292 132.25 73.3602 131.885 73.1911C131.065 72.8102 130.217 72.4807 129.347 72.2054C127.214 71.5182 124.97 71.153 122.706 71.124L121.315 71.1559C103.378 71.6312 99.4269 75.389 99.4269 75.389C101.252 77.6322 102.372 80.277 102.67 83.045C101.19 82.8281 99.7136 83.2428 99.4588 84.7166C99.1508 86.5253 98.6871 88.1841 96.8215 89.2495C95.6841 89.8486 94.3396 90.0429 93.0514 89.795C93.0514 89.795 93.0266 89.795 93.016 89.795C92.6407 89.6961 92.2761 89.6164 91.954 89.5558C91.8106 89.5255 91.6701 89.4859 91.5327 89.4378C87.7732 88.2032 85.5784 88.6817 86.2935 92.3088C87.1325 96.5738 80.9552 97.132 76.8842 96.4749C69.7015 93.5624 67.7368 82.1996 73.4292 75.2008C73.5743 75.0221 73.7371 74.8339 73.9035 74.6425C74.0699 74.4511 74.2575 74.2757 74.4239 74.097C74.8487 73.6814 75.3015 73.2893 75.7797 72.9231C75.9461 72.7955 76.1125 72.6647 76.2859 72.5467C76.4594 72.4287 76.7072 72.2564 76.9161 72.1192C77.1192 71.9735 77.3334 71.8404 77.5568 71.7205C79.4829 70.5788 81.6473 69.802 83.9171 69.4377C86.1873 69.0738 88.5156 69.1296 90.761 69.6023C92.5717 70.1823 94.2723 71.0107 95.802 72.0586C95.802 72.0586 95.9435 71.8608 96.2303 71.5036C96.8962 71.8586 97.5369 72.2507 98.149 72.6775C98.149 72.6775 108.928 57.8631 124.561 58.0322C125.82 58.0421 127.075 58.1757 128.303 58.4309C140.494 62.3164 148.767 76.3141 156.226 78.461C156.792 78.6233 157.366 78.7595 157.947 78.8693C163.717 79.9826 170.17 78.7704 175.898 78.4418C179.672 78.2249 183.544 78.3047 187.194 79.217C187.647 79.3286 188.111 79.4658 188.564 79.6157H188.585C193.683 81.265 198.703 84.9239 199.949 89.7855C201.347 95.1734 196.798 100.214 191.669 102.332Z" fill="#DB00FF"/>
<path d="M298.665 58.5333C298.511 59.0999 298.216 59.6278 297.803 60.077C297.389 60.5261 296.869 60.885 296.279 61.1268L286.35 65.3918L264.232 72.7001L266.356 66.049C267.015 65.1778 267.955 64.5098 269.05 64.135L288.261 57.503L292.98 55.8442C293.917 55.5366 294.944 55.5296 295.886 55.825C296.828 56.1201 297.629 56.6994 298.152 57.4647C298.383 57.7952 298.556 58.1556 298.665 58.5333Z" fill="#DB00FF"/>
<path d="M288.272 55.6046L292.998 53.9299C294.048 53.5831 295.206 53.6163 296.23 54.0227C297.253 54.4288 298.062 55.1765 298.488 56.109C298.912 57.0411 298.92 58.0855 298.509 59.0227C298.098 59.9603 297.3 60.7176 296.283 61.1361L286.353 65.3979L271.591 129.836C270.762 132.613 268.939 135.066 266.406 136.816C263.873 138.565 260.771 139.514 257.58 139.514H159.763C154.055 139.522 148.401 138.516 143.125 136.553C137.849 134.59 133.054 131.709 129.014 128.075" stroke="#343434" stroke-width="4.23" stroke-miterlimit="10"/>
<path d="M254.167 96.2583L253.859 97.0239C248.256 110.514 247.615 118.397 247.615 118.397" stroke="#343434" stroke-width="4.23" stroke-miterlimit="10"/>
<path d="M105.328 130.685L100.97 90.6217C100.967 86.8182 102.199 83.0968 104.515 79.9167C106.83 76.7369 110.128 74.2369 114.001 72.7258C116.832 71.5936 119.908 71.0491 123.004 71.1317C126.099 71.2146 129.134 71.9228 131.885 73.2043C132.239 73.3733 132.611 73.5424 132.975 73.7306C133.064 73.7816 133.152 73.8104 133.241 73.8582C136.96 75.7728 140.444 78.0365 143.634 80.6114C144.406 81.2271 145.167 81.8236 145.907 82.401C146.194 82.6275 146.459 82.8476 146.711 83.039C154.279 89.0139 160.095 93.566 164.906 96.8996L165.037 96.9889C172.56 102.198 177.594 104.355 183.01 104.195C186.429 104.096 189.994 103.063 194.426 101.292C210.976 94.6698 238.79 98.9954 248.344 115.567" stroke="#343434" stroke-width="4.23" stroke-miterlimit="10"/>
<path d="M116.295 139.495C116.529 139.495 116.748 139.514 116.968 139.514C120.16 139.514 123.221 138.372 125.479 136.338C127.736 134.303 129.004 131.545 129.004 128.668V97.77" stroke="#343434" stroke-width="4.23" stroke-miterlimit="10"/>
<path d="M102.659 83.045C101.367 71.2835 86.0457 64.6227 75.2098 71.0761C75.0328 71.1654 74.8558 71.2739 74.693 71.3951L74.5584 71.4844C74.3496 71.6248 74.1407 71.7652 73.9319 71.9119C73.266 72.3853 72.6422 72.9046 72.0663 73.4654C71.8893 73.6441 71.7123 73.8323 71.5459 74.0109C71.3795 74.1896 71.2167 74.3905 71.0715 74.5692" stroke="#343434" stroke-width="4.23" stroke-miterlimit="10"/>
<path d="M76.9091 96.4468C78.9095 98.2443 81.2668 99.6878 83.8581 100.702C94.2515 104.479 99.296 97.3432 99.296 97.3432" stroke="#343434" stroke-width="4.23" stroke-miterlimit="10"/>
<path d="M188.791 103.298C189.109 103.196 189.431 103.097 189.739 103.008L189.839 102.979C189.922 102.957 190.003 102.93 190.083 102.899C190.355 102.82 190.621 102.73 190.897 102.632L191.417 102.443C196.646 100.379 201.372 95.2658 199.963 89.7822C198.597 84.4868 192.759 80.6141 187.219 79.2169C183.569 78.3046 179.696 78.2248 175.923 78.4417C169.611 78.799 162.428 80.2409 156.24 78.4609C147.603 75.9759 137.861 57.5855 122.228 57.4069C106.595 57.2282 95.802 72.0554 95.802 72.0554" stroke="#343434" stroke-width="4.23" stroke-miterlimit="10"/>
<path d="M99.4235 75.3952C99.4235 75.3952 102.659 71.446 121.786 71.127" stroke="#343434" stroke-width="4.23" stroke-miterlimit="10"/>
<path d="M253.859 97.024L263.347 72.9937L264.087 71.1148L266.458 65.1016C266.639 64.6442 266.896 64.2139 267.219 63.8256C267.88 62.9554 268.82 62.2877 269.913 61.9116L288.272 55.5986" stroke="#343434" stroke-width="4.23" stroke-miterlimit="10"/>
<path d="M244.836 57.4073L239.827 64.9133L226.754 80.7613L225.012 73.5518C225.039 72.5049 225.417 71.4895 226.095 70.6394L237.547 56.2429L238.783 54.8521C239.374 54.1267 240.227 53.6083 241.195 53.385C242.163 53.1617 243.187 53.2472 244.093 53.6271C244.576 53.8277 245.012 54.1117 245.374 54.4629C245.504 54.9615 245.523 55.4783 245.43 55.9832C245.338 56.4885 245.136 56.9725 244.836 57.4073Z" fill="#DB00FF"/>
<path d="M255.714 92.3462L239.834 64.9122L244.836 57.4029C245.276 56.7675 245.503 56.0312 245.491 55.2822C245.479 54.5335 245.228 53.8033 244.769 53.1794C244.333 52.5822 243.719 52.1069 242.999 51.8077C242.094 51.429 241.072 51.3429 240.105 51.5636C239.138 51.7844 238.284 52.2986 237.689 53.0199L236.45 54.4234" stroke="#343434" stroke-width="4.23" stroke-miterlimit="10"/>
<path d="M236.439 54.4243L224.987 68.808C224.315 69.6649 223.945 70.6841 223.925 71.7333C223.898 72.2213 223.949 72.7101 224.077 73.1847L225.777 79.3765L226.308 81.316L232.057 102.274" stroke="#343434" stroke-width="4.23" stroke-miterlimit="10"/>
<path d="M75.2063 71.0698C64.7846 76.8948 65.9775 92.4428 74.5939 95.8625C77.8861 97.1704 87.3379 97.4894 86.2759 92.2769C85.5679 88.6627 87.7592 88.1842 91.5222 89.4059C98.0322 91.5305 99.4093 85.8523 99.4093 85.4599" stroke="#343434" stroke-width="4.23" stroke-miterlimit="10"/>
<path d="M97.3632 99.2339L101.622 100.376" stroke="#343434" stroke-width="4.23" stroke-miterlimit="10"/>
<path d="M63.772 117.031L59.694 124.614C59.409 125.142 58.9095 125.552 58.2989 125.759C57.6882 125.966 57.0131 125.953 56.4124 125.724C56.081 125.598 55.783 125.409 55.5384 125.172C55.2937 124.934 55.1079 124.652 54.9932 124.345C54.8785 124.038 54.8374 123.712 54.8725 123.389C54.9079 123.067 55.019 122.754 55.1982 122.473L55.9911 121.226C56.0163 121.162 56.0456 121.099 56.0796 121.038L56.6283 120.039L61.294 111.567C61.859 110.528 62.704 109.633 63.7515 108.965C64.799 108.296 66.0161 107.874 67.2908 107.739H67.397" stroke="#343434" stroke-width="4.23" stroke-miterlimit="10"/>
<path d="M72.7919 116.437L66.7739 118.006C66.4345 118.095 66.0787 118.123 65.7272 118.088C65.3756 118.053 65.0355 117.955 64.7257 117.802C64.416 117.648 64.143 117.44 63.9221 117.192C63.7016 116.943 63.5373 116.657 63.4393 116.351C63.3409 116.045 63.3101 115.724 63.349 115.407C63.3879 115.091 63.4959 114.784 63.6665 114.505C63.8372 114.226 64.0673 113.98 64.3434 113.781C64.6199 113.582 64.9367 113.434 65.2765 113.346L73.815 111.113" stroke="#343434" stroke-width="4.23" stroke-miterlimit="10"/>
<path d="M68.1511 117.64C68.3776 118.463 68.2364 119.334 67.7581 120.065C66.6324 121.727 63.7827 122.298 61.556 121.959" stroke="#343434" stroke-width="4.23" stroke-miterlimit="10"/>
<path d="M56.6212 120.039C54.2919 118.607 53.8176 115.962 54.5362 113.637C57.4602 104.013 69.6626 106.3 77.7586 107.99C82.5836 109.023 87.3169 110.379 91.9186 112.045C95.7276 113.417 99.4552 115.257 103.558 115.765" stroke="#343434" stroke-width="4.23" stroke-miterlimit="10"/>
<path d="M67.7617 120.067C67.7617 120.067 68.6007 120.335 70.0344 120.843C76.2368 123.039 82.1377 125.871 87.6211 129.283C90.3151 130.955 93.7878 132.087 97.696 132.843" stroke="#343434" stroke-width="4.23" stroke-miterlimit="10"/>
<path d="M104.553 125.631C103.281 125.437 101.972 125.63 100.836 126.181C99.6992 126.733 98.7997 127.61 98.2801 128.675C96.0392 132.822 99.1686 137.731 104.231 138.433C108.447 139.05 112.705 139.412 116.975 139.514" stroke="#343434" stroke-width="4.23" stroke-miterlimit="10"/>
<path d="M102.726 104.827L102.528 104.789C102.528 104.789 102.592 104.75 102.726 104.679C102.716 104.728 102.726 104.789 102.726 104.827Z" fill="#2E2E2E"/>
<path d="M87.1017 134.633L36.9558 126.046C35.6882 125.829 34.4654 126.579 34.2244 127.721L34.0102 128.736C33.7695 129.879 34.6017 130.981 35.8694 131.198L86.0153 139.785C87.283 140.003 88.506 139.252 88.7467 138.11L88.9609 137.095C89.202 135.952 88.3694 134.85 87.1017 134.633Z" stroke="#343434" stroke-width="4.23" stroke-miterlimit="10"/>
<path d="M42.0046 132.25V139.514" stroke="#343434" stroke-width="4.23" stroke-miterlimit="10"/>
<path d="M4.65759 139.514H305.494" stroke="#343434" stroke-width="4.23" stroke-miterlimit="10"/>
</svg>
