<svg width="97" height="84" viewBox="0 0 97 84" fill="none" xmlns="http://www.w3.org/2000/svg">
<path d="M62.2596 77.6933L73.2726 79.846C74.016 79.9913 74.5009 80.7118 74.3555 81.4552L74.1985 82.2587C74.0532 83.0021 73.3327 83.487 72.5893 83.3417L61.5763 81.189C60.8329 81.0437 60.348 80.3232 60.4933 79.5798L60.6504 78.7763C60.7957 78.0329 61.5162 77.548 62.2596 77.6933Z" fill="#EBEFF7"/>
<path d="M72.8545 84C73.3192 83.999 73.7691 83.837 74.1277 83.5415C74.4863 83.246 74.7313 82.8354 74.8211 82.3795L74.9773 81.5777C75.0777 81.0562 74.9676 80.5162 74.6711 80.0757C74.3745 79.6353 73.9156 79.3301 73.3947 79.227L62.3801 77.0747C61.8587 76.9743 61.3187 77.0844 60.8782 77.3809C60.4377 77.6775 60.1325 78.1364 60.0295 78.6573L59.8733 79.4591C59.7728 79.9806 59.8829 80.5205 60.1795 80.961C60.476 81.4015 60.935 81.7067 61.4559 81.8098L72.4705 83.962C72.597 83.9871 72.7256 83.9998 72.8545 84ZM61.996 78.3028C62.0424 78.2984 62.089 78.2984 62.1353 78.3028L73.1499 80.4551C73.3417 80.4929 73.5108 80.6051 73.6199 80.7673C73.7291 80.9295 73.7695 81.1283 73.7323 81.3202L73.5762 82.1221C73.5374 82.3133 73.4249 82.4816 73.263 82.5906C73.1011 82.6996 72.9028 82.7405 72.711 82.7044L61.6964 80.5522C61.5046 80.5144 61.3356 80.4021 61.2264 80.2399C61.1173 80.0778 61.0768 79.8789 61.114 79.687L61.2702 78.8852C61.3042 78.7176 61.395 78.5669 61.5272 78.4585C61.6595 78.3501 61.8251 78.2906 61.996 78.2901V78.3028Z" fill="#515862"/>
<path d="M20.199 40.1686C15.1529 39.1823 11.8618 34.292 12.8481 29.2459C13.8345 24.1998 18.7247 20.9087 23.7708 21.8951C28.8169 22.8814 32.108 27.7717 31.1217 32.8178C30.1353 37.8639 25.245 41.155 20.199 40.1686Z" fill="#EB00FF"/>
<path d="M23.7528 41.9772C18.7067 40.9909 15.4156 36.1006 16.402 31.0545C17.3883 26.0084 22.2786 22.7173 27.3247 23.7037C32.3708 24.69 35.6618 29.5803 34.6755 34.6264C33.6891 39.6725 28.7989 42.9636 23.7528 41.9772Z" fill="#EE9FA4"/>
<path d="M70.1789 77.8471L66.2331 77.0748C65.6041 76.9523 65.0095 76.6943 64.4904 76.3187C63.9713 75.943 63.5404 75.4588 63.2275 74.8997C62.9146 74.3406 62.7272 73.72 62.6786 73.0811C62.6299 72.4422 62.721 71.8004 62.9456 71.2003L64.583 66.824C65.3235 64.8389 65.6509 62.7235 65.5449 60.6074C65.439 58.4914 64.902 56.4192 63.9668 54.518L63.203 52.9608C62.9689 52.4844 62.8726 51.9521 62.9249 51.4239C62.9772 50.8957 63.176 50.3926 63.499 49.9714C63.8219 49.5501 64.2561 49.2275 64.7526 49.0399C65.2491 48.8523 65.7882 48.8071 66.309 48.9094L79.3915 51.4626C79.9981 51.5814 80.5709 51.833 81.0687 52.1994C81.5665 52.5658 81.977 53.0378 82.2707 53.5817C82.5644 54.1256 82.7341 54.7277 82.7674 55.3449C82.8008 55.9621 82.6971 56.579 82.4638 57.1514L75.1123 75.1842C74.7263 76.1312 74.0231 76.9146 73.1232 77.4004C72.2232 77.8862 71.1824 78.0441 70.1789 77.8471Z" fill="#EB00FF"/>
<path d="M66.3387 76.5387L70.2972 77.3068C71.3002 77.5035 72.3403 77.3455 73.2396 76.8597C74.1388 76.3739 74.8411 75.5905 75.2264 74.6438L75.2981 74.4666C74.28 74.7781 73.1966 74.8088 72.1625 74.5552C71.0917 74.2732 70.1189 73.7025 69.3502 72.9055C68.5814 72.1085 68.0463 71.1157 67.8031 70.0354C67.322 67.7776 68.1618 65.3046 67.2502 63.1861C66.8832 62.3996 66.3369 61.7101 65.655 61.1731C65.6256 62.9268 65.2959 64.6625 64.6802 66.3048L63.0385 70.6769C62.817 71.2772 62.7286 71.9185 62.7795 72.5563C62.8304 73.1942 63.0193 73.8133 63.3332 74.3709C63.6471 74.9285 64.0785 75.4111 64.5975 75.7854C65.1164 76.1598 65.7105 76.4168 66.3387 76.5387Z" fill="#EE9FA4"/>
<path d="M64.2202 54.9146L81.7634 58.3456C82.1517 56.1554 83.4937 54.1677 81.2064 53.7035L63.9037 50.302C61.781 49.9053 63.6716 52.9438 64.2202 54.9146Z" fill="#B0535C"/>
<path d="M90.6147 35.5206L92.7104 35.9303C94.6548 36.3103 95.9229 38.1946 95.5428 40.1389L93.8718 48.6876C93.4918 50.6319 91.6075 51.9 89.6632 51.5199L87.5674 51.1103C85.6231 50.7302 84.355 48.8459 84.7351 46.9016L86.406 38.353C86.7861 36.4087 88.6704 35.1406 90.6147 35.5206Z" fill="#EB00FF"/>
<path d="M87.0765 52.0534C87.3344 52.1507 87.5997 52.2269 87.8699 52.2813L88.4059 52.3868C89.6171 52.62 90.8714 52.3643 91.8946 51.6755C92.9179 50.9867 93.6269 49.9209 93.8667 48.711L95.6561 40.8784C96.1499 38.3843 94.0735 36.7553 91.5583 36.2742L91.0224 36.1687C90.7511 36.117 90.4756 36.0901 90.1994 36.0885C91.2164 36.4807 92.0629 37.2183 92.5907 38.172C93.1184 39.1256 93.2938 40.2346 93.086 41.3046L91.7187 48.2932C91.5059 49.3635 90.9251 50.3254 90.0772 51.0123C89.2292 51.6991 88.1676 52.0674 87.0765 52.0534Z" fill="#EE9FA4"/>
<path d="M71.1412 78.0243C72.1381 78.016 73.1104 77.7136 73.9362 77.1551C74.762 76.5965 75.4046 75.8067 75.7834 74.8845L83.1645 56.856C83.4332 56.197 83.5527 55.4868 83.5144 54.7762C83.476 54.0656 83.2808 53.3723 82.9427 52.7461C82.6046 52.12 82.132 51.5764 81.5589 51.1546C80.9858 50.7327 80.3263 50.443 79.628 50.3063L66.5455 47.7531C65.9084 47.6272 65.2488 47.6819 64.6413 47.9112C64.0337 48.1404 63.5024 48.535 63.1073 49.0504C62.7122 49.5658 62.4691 50.1814 62.4055 50.8276C62.3419 51.4739 62.4603 52.1251 62.7473 52.7076L63.5112 54.2648C64.4044 56.0921 64.9163 58.0821 65.0157 60.1136C65.1151 62.145 64.7999 64.1755 64.0893 66.0813L62.4604 70.4576C62.2072 71.1438 62.1056 71.8767 62.1627 72.6059C62.2198 73.3351 62.4342 74.0433 62.7911 74.6818C63.148 75.3202 63.639 75.8738 64.2303 76.3043C64.8216 76.7349 65.4991 77.0323 66.2163 77.1761L70.1622 77.9483C70.4853 78.0055 70.8132 78.031 71.1412 78.0243ZM65.866 48.9347C66.0147 48.9346 66.1631 48.9487 66.3091 48.9769L79.3916 51.5301C79.9065 51.6309 80.3926 51.8444 80.8151 52.1554C81.2376 52.4663 81.586 52.8669 81.8353 53.3284C82.0846 53.79 82.2287 54.301 82.2571 54.8248C82.2855 55.3486 82.1976 55.8722 81.9997 56.358L74.6397 74.3865C74.3057 75.1938 73.7036 75.8612 72.9349 76.2763C72.1661 76.6915 71.2778 76.8289 70.4196 76.6654L66.4737 75.8931C65.938 75.7859 65.4316 75.5644 64.9893 75.2437C64.5469 74.9229 64.179 74.5105 63.9106 74.0346C63.6422 73.5586 63.4796 73.0304 63.434 72.4859C63.3884 71.9414 63.4608 71.3935 63.6462 70.8796L65.2836 66.5033C66.0522 64.4379 66.3928 62.2378 66.2847 60.0367C66.1766 57.8356 65.6221 55.6794 64.6548 53.6993L63.891 52.1421C63.7234 51.8046 63.6444 51.43 63.6615 51.0536C63.6786 50.6772 63.7913 50.3114 63.9889 49.9906C64.1864 49.6697 64.4624 49.4044 64.7908 49.2197C65.1192 49.035 65.4892 48.9369 65.866 48.9347Z" fill="#515862"/>
<path d="M90.5539 52.5387C91.5323 52.5383 92.4801 52.198 93.2353 51.576C93.9905 50.954 94.5061 50.089 94.6939 49.1288L96.382 40.5788C96.4881 40.0348 96.4861 39.4753 96.376 38.9322C96.2658 38.389 96.0498 37.8729 95.7403 37.4132C95.4307 36.9535 95.0336 36.5593 94.5716 36.2531C94.1097 35.9469 93.592 35.7347 93.048 35.6285L90.938 35.2065C90.394 35.1004 89.8345 35.1024 89.2913 35.2125C88.7482 35.3227 88.232 35.5387 87.7724 35.8483C87.3127 36.1578 86.9185 36.5549 86.6123 37.0169C86.3061 37.4788 86.0938 37.9965 85.9877 38.5405L84.2997 47.0863C84.1935 47.6302 84.1956 48.1898 84.3057 48.7329C84.4158 49.2761 84.6318 49.7922 84.9414 50.2519C85.251 50.7116 85.6481 51.1058 86.11 51.412C86.5719 51.7182 87.0896 51.9304 87.6336 52.0365L89.7437 52.4585C90.0105 52.5113 90.2819 52.5382 90.5539 52.5387ZM90.1319 36.4051C90.3217 36.4051 90.5111 36.4235 90.6974 36.4599L92.8075 36.8819C93.5764 37.032 94.2542 37.4813 94.6919 38.131C95.1295 38.7808 95.2912 39.5778 95.1412 40.3467L93.4532 48.8925C93.3031 49.6614 92.8538 50.3392 92.2041 50.7769C91.5543 51.2145 90.7574 51.3762 89.9884 51.2263L87.8784 50.8042C87.1095 50.6542 86.4316 50.2049 85.994 49.5551C85.5563 48.9054 85.3947 48.1084 85.5446 47.3395L87.2453 38.8063C87.3735 38.1335 87.7315 37.5261 88.258 37.0881C88.7846 36.6501 89.447 36.4086 90.1319 36.4051Z" fill="#515862"/>
<path d="M21.6682 41.1991C23.5529 41.1985 25.3986 40.6622 26.9901 39.6528C28.5817 38.6434 29.8536 37.2025 30.6576 35.4979C31.4616 33.7933 31.7645 31.8953 31.5311 30.0251C31.2977 28.1549 30.5376 26.3896 29.3393 24.9349C28.1411 23.4802 26.554 22.396 24.7632 21.8088C22.9723 21.2215 21.0514 21.1553 19.2244 21.6179C17.3974 22.0805 15.7395 23.0529 14.4439 24.4217C13.1484 25.7904 12.2685 27.4992 11.907 29.3489C11.627 30.7891 11.6689 32.2734 12.0298 33.6956C12.3906 35.1177 13.0615 36.4424 13.9943 37.5749C14.9272 38.7073 16.0989 39.6195 17.4255 40.2461C18.7522 40.8726 20.201 41.1981 21.6682 41.1991ZM21.6471 22.5713C23.4362 22.5671 25.1829 23.1157 26.6483 24.1421C28.1136 25.1686 29.2261 26.6228 29.8333 28.3056C30.4406 29.9885 30.5131 31.818 30.0408 33.5436C29.5686 35.2693 28.5746 36.8069 27.1951 37.946C25.8155 39.0851 24.1176 39.7702 22.3338 39.9075C20.5499 40.0447 18.7673 39.6274 17.2297 38.7127C15.6921 37.7981 14.4746 36.4306 13.7439 34.7975C13.0132 33.1644 12.805 31.3454 13.1477 29.5895C13.5335 27.6168 14.5915 25.8391 16.1414 24.5593C17.6913 23.2795 19.6371 22.5769 21.6471 22.5713Z" fill="#515862"/>
<path d="M9.52682 35.8523L9.57324 34.5862C8.35381 34.5414 7.20211 34.0141 6.3715 33.1202C5.54089 32.2262 5.09941 31.039 5.14418 29.8195C5.18895 28.6001 5.7163 27.4484 6.61023 26.6178C7.50415 25.7872 8.69142 25.3457 9.91085 25.3905L9.95728 24.1244C9.18722 24.0962 8.41913 24.2199 7.69687 24.4884C6.97461 24.757 6.31232 25.1652 5.74782 25.6897C5.18332 26.2143 4.72766 26.8449 4.40686 27.5455C4.08606 28.2461 3.9064 29.0031 3.87813 29.7731C3.84987 30.5432 3.97355 31.3113 4.24213 32.0335C4.51071 32.7558 4.91891 33.4181 5.44344 33.9826C5.96797 34.5471 6.59855 35.0027 7.29918 35.3235C7.9998 35.6443 8.75676 35.824 9.52682 35.8523Z" fill="#515862"/>
<path d="M9.13433 39.2072L9.18075 37.9412C8.05774 37.9283 6.94868 37.6908 5.91891 37.2426C4.88914 36.7944 3.9595 36.1446 3.18479 35.3315C2.41007 34.5184 1.80595 33.5585 1.40804 32.5083C1.01012 31.458 0.826459 30.3388 0.867869 29.2165C0.90928 28.0942 1.17492 26.9915 1.64916 25.9734C2.12339 24.9554 2.79661 24.0426 3.62913 23.2888C4.46166 22.535 5.43665 21.9555 6.49665 21.5844C7.55665 21.2133 8.68021 21.0581 9.80111 21.1281L9.84753 19.862C7.31328 19.8184 4.863 20.7705 3.02297 22.5136C1.18295 24.2568 0.0999355 26.6521 0.00655365 29.185C-0.0868282 31.7179 0.816866 34.1864 2.52354 36.0603C4.23022 37.9342 6.60375 39.0641 9.13433 39.2072Z" fill="#515862"/>
<path d="M17.6886 50.015C17.351 51.7495 18.6635 53.2012 20.149 52.7328C25.9559 50.8928 38.2492 47.2846 44.9635 47.4365C57.4805 47.7235 69.5924 50.9983 81.7802 53.3785C85.3251 54.0706 88.8658 51.2304 89.7099 47.0862L91.2334 39.2283L92.7695 31.3535C93.5798 27.2093 91.3473 23.2339 87.8066 22.5418C75.6188 20.1574 63.1608 18.6381 51.4583 14.1901C44.3178 11.4765 35.9155 7.91047 30.4884 1.47895C29.3447 0.128496 27.2937 0.871245 26.9181 2.79564L17.6886 50.015Z" fill="#EBEFF7"/>
<path d="M18.4525 46.7276L17.9292 49.4158C17.638 50.9013 18.5622 53.8723 20.0393 53.5051C25.7618 52.083 38.3168 47.6307 44.9973 47.943C57.4552 48.5338 69.5924 51.682 81.7844 54.0664C83.4929 54.3913 85.2604 54.0274 86.7016 53.0542C88.1428 52.081 89.1408 50.5775 89.4778 48.8714L90.0011 46.1832C89.6641 47.8892 88.6661 49.3928 87.2249 50.366C85.7837 51.3392 84.0162 51.703 82.3077 51.3782C70.1157 48.998 57.9785 45.8498 45.5206 45.2547C38.8401 44.9424 26.7113 47.7066 20.9846 49.1288C20.6469 49.2146 20.2931 49.2134 19.956 49.1255C19.6189 49.0376 19.3095 48.8657 19.0568 48.626C18.804 48.3863 18.616 48.0865 18.5103 47.7546C18.4047 47.4226 18.3848 47.0693 18.4525 46.7276Z" fill="#BBD2E6"/>
<path d="M26.6522 4.44153L26.1289 7.12977C26.2031 6.75981 26.377 6.4172 26.632 6.13903C26.8869 5.86086 27.2131 5.65774 27.5752 5.55168C27.9373 5.44561 28.3215 5.44064 28.6862 5.5373C29.0509 5.63396 29.3823 5.82857 29.6443 6.10005C35.2191 11.7762 43.6806 15.0721 50.8548 17.6C62.6164 21.7357 75.0448 23.39 87.2368 25.7702C88.9416 26.1119 90.4422 27.1138 91.4114 28.5573C92.3806 30.0008 92.7398 31.769 92.4108 33.4762L92.9383 30.788C93.2674 29.0807 92.9081 27.3126 91.9389 25.869C90.9697 24.4255 89.4692 23.4237 87.7644 23.082C75.5723 20.7018 63.1228 19.0475 51.3781 14.9075C44.2039 12.3754 35.3415 6.97362 29.7456 1.29751C28.5766 0.103202 26.9729 2.79566 26.6522 4.44153Z" fill="white"/>
<path d="M28.0969 16.8934L28.975 17.065C29.2037 17.1097 29.3529 17.3314 29.3082 17.5602L27.1369 28.6684C27.0922 28.8972 26.8705 29.0464 26.6418 29.0016L25.7637 28.83C25.535 28.7853 25.3858 28.5636 25.4305 28.3349L27.6018 17.2266C27.6465 16.9979 27.8682 16.8487 28.0969 16.8934Z" fill="white"/>
<path d="M25.5872 30.6191L26.464 30.7891C26.6924 30.8334 26.8417 31.0544 26.7974 31.2828L26.6274 32.1596C26.5831 32.388 26.362 32.5373 26.1336 32.493L25.2569 32.323C25.0284 32.2787 24.8792 32.0577 24.9235 31.8293L25.0935 30.9525C25.1377 30.7241 25.3588 30.5748 25.5872 30.6191Z" fill="white"/>
<path d="M86.1818 22.0775C86.7136 22.1746 87.2411 22.2759 87.7728 22.3814C90.9211 23.0144 93.0058 26.3441 92.8075 30.0916L92.837 30.4545L91.993 34.6747L91.0603 39.5574L90.1066 44.4317L89.2077 49.0359H89.1022C88.0472 52.0238 85.6079 54.1001 82.9745 54.3195C82.4978 54.3557 82.0183 54.3302 81.5481 54.2436C81.0164 54.1381 80.4888 54.0368 79.9571 53.9271C76.8089 53.2856 73.6522 52.6019 70.4997 51.9394L76.6738 20.3641C79.8432 20.9339 83.0209 21.5036 86.1818 22.0775Z" fill="#EB00FF"/>
<path d="M76.7033 20.6216L76.18 23.3098C80.0456 24.0357 83.9282 24.7025 87.777 25.4537C89.0301 25.7037 90.1832 26.3134 91.0953 27.2083C92.0075 28.1031 92.6391 29.2444 92.9129 30.4925L93.0859 29.5599L93.0437 29.256C93.0761 27.7226 92.5723 26.2259 91.6193 25.024C90.6664 23.8222 89.3239 22.9906 87.8234 22.6726H87.7896L86.2071 22.3476L84.097 21.9594L81.9869 21.5711L79.0539 21.0394C78.2802 20.91 77.4967 20.7707 76.7033 20.6216Z" fill="#EE9FA4"/>
<path d="M71.2847 48.6815L70.7614 51.3655C74.0911 52.0492 77.425 52.7666 80.7589 53.4419L81.8941 53.6697C82.3358 53.746 82.784 53.7771 83.2319 53.7626C83.4197 53.7565 83.607 53.741 83.7932 53.7162C84.9788 53.572 86.1031 53.1089 87.0462 52.3761C87.9893 51.6433 88.7159 50.6683 89.1486 49.5551H89.2499V49.4791C89.0577 49.4196 88.8702 49.3463 88.6886 49.2597C87.9991 49.9481 87.1648 50.4742 86.2465 50.7998C85.3281 51.1254 84.3488 51.2422 83.3796 51.1419C83.1939 51.1419 83.0083 51.0955 82.8226 51.0617C78.9864 50.3063 75.1377 49.4791 71.2847 48.6815Z" fill="#B0535C"/>
<path d="M83.0378 54.6952C86.5068 54.6952 89.7352 51.7664 90.5413 47.6475L93.6684 31.632C94.5631 27.0363 92.128 22.6895 88.2371 21.9256C85.4433 21.3813 82.5905 20.8706 79.8305 20.3811C70.5461 18.731 60.9622 17.0049 51.9985 13.5824C44.2545 10.6283 36.3839 7.02004 31.3197 0.92191C31.0284 0.552602 30.6357 0.276128 30.1898 0.126245C29.7439 -0.023638 29.264 -0.0404447 28.8087 0.0778773C28.2472 0.241346 27.744 0.561684 27.3583 1.00125C26.9726 1.44082 26.7203 1.98135 26.6311 2.55933L17.2328 50.6692C17.113 51.2041 17.134 51.7611 17.2938 52.2855C17.4536 52.8099 17.7466 53.284 18.1444 53.6613C18.458 53.9461 18.8423 54.1418 19.2571 54.2279C19.672 54.314 20.1024 54.2874 20.5035 54.1508C25.6689 52.4627 38.4012 48.576 45.145 48.7026C54.7459 48.8925 64.275 50.9182 73.4876 52.8805C76.2307 53.4629 79.0624 54.0664 81.8562 54.6108C82.2464 54.6769 82.6421 54.7052 83.0378 54.6952ZM29.4207 1.24686C29.5994 1.25054 29.775 1.29459 29.9343 1.37571C30.0936 1.45683 30.2325 1.57292 30.3407 1.7153C35.5948 8.04554 43.6384 11.734 51.5427 14.7683C60.6203 18.2457 70.2718 19.9675 79.6068 21.6302C82.3626 22.1198 85.2112 22.6262 87.9923 23.1706C91.1996 23.7952 93.1873 27.4794 92.4277 31.3788L89.2963 47.4154C88.5367 51.3149 85.3083 53.9778 82.1009 53.349C79.3156 52.8046 76.4881 52.2053 73.7535 51.6229C64.4691 49.6479 54.8893 47.6096 45.1703 47.4028C38.5024 47.2635 26.6016 50.7789 20.1152 52.9143C19.924 52.9813 19.7181 52.9951 19.5197 52.9542C19.3212 52.9134 19.1376 52.8193 18.9884 52.6822C18.7566 52.4513 18.5882 52.1646 18.4995 51.8497C18.4108 51.5348 18.4048 51.2023 18.482 50.8844L27.8803 2.77456C27.9295 2.43121 28.0743 2.10863 28.2982 1.8437C28.5221 1.57877 28.816 1.38218 29.1464 1.2764C29.2364 1.25621 29.3284 1.2463 29.4207 1.24686Z" fill="#515862"/>
<path d="M76.9053 20.7594L75.6616 20.5224L69.8563 50.9839L71.0999 51.2209L76.9053 20.7594Z" fill="#515862"/>
<path d="M60.9666 72.4166L76.1752 75.3894C77.3189 75.613 78.0649 76.7214 77.8413 77.8651L77.6 79.0993C77.3765 80.243 76.2681 80.989 75.1244 80.7654L59.9158 77.7926C58.772 77.5691 58.0261 76.4607 58.2497 75.317L58.4909 74.0827C58.7145 72.939 59.8229 72.1931 60.9666 72.4166Z" fill="#EBEFF7"/>
<path d="M58.5946 75.0237C58.4581 75.7358 58.6086 76.473 59.0134 77.0746C59.4181 77.6762 60.0443 78.0934 60.7553 78.2353L67.2586 79.5013C67.0223 79.3747 66.7775 79.2692 66.5454 79.151C65.7267 78.729 62.9203 77.3744 63.6377 76.0914C63.9374 75.5555 64.6674 75.4289 65.2625 75.5555C67.7313 76.0872 70.0313 77.1633 72.5676 77.5643C73.6184 77.7288 74.8633 77.7795 75.5512 76.9692C75.8383 76.5877 76.0268 76.1412 76.0999 75.6694C75.9938 75.6332 75.8852 75.605 75.7749 75.585L61.7977 72.8546C61.0857 72.7207 60.3496 72.8735 59.7497 73.2798C59.1498 73.6861 58.7346 74.3129 58.5946 75.0237Z" fill="#BBD2E6"/>
<path d="M75.5385 81.4299C76.1744 81.4292 76.7903 81.208 77.2813 80.804C77.7723 80.3999 78.1079 79.8381 78.231 79.2143L78.4715 77.982C78.6104 77.268 78.4605 76.5281 78.0547 75.9245C77.6488 75.3209 77.0202 74.9028 76.3066 74.762L61.114 71.8079C60.4 71.669 59.6601 71.8189 59.0565 72.2247C58.4529 72.6306 58.0348 73.2592 57.894 73.9728L57.6535 75.2051C57.5146 75.9191 57.6645 76.659 58.0703 77.2626C58.4762 77.8663 59.1048 78.2843 59.8184 78.4251L75.011 81.3792C75.1848 81.4131 75.3615 81.4301 75.5385 81.4299ZM60.5696 72.9895C60.6646 72.9903 60.7593 73.0002 60.8524 73.0191L76.0449 75.9732C76.4289 76.0497 76.7669 76.2751 76.9852 76.6001C77.2035 76.9251 77.2842 77.3233 77.2097 77.7077L76.9692 78.94C76.938 79.1333 76.8687 79.3185 76.7655 79.4849C76.6623 79.6512 76.5271 79.7955 76.3678 79.9093C76.2084 80.0231 76.0281 80.1042 75.8372 80.1479C75.6464 80.1916 75.4487 80.197 75.2558 80.1638L60.0632 77.2097C59.6792 77.1332 59.3412 76.9078 59.1229 76.5828C58.9047 76.2578 58.8239 75.8596 58.8984 75.4752L59.139 74.2429C59.1977 73.9039 59.3726 73.596 59.6337 73.3719C59.8947 73.1478 60.2256 73.0216 60.5696 73.0149V72.9895Z" fill="#515862"/>
</svg>
