<svg width="49" height="49" viewBox="0 0 49 49" fill="none" xmlns="http://www.w3.org/2000/svg">
<path d="M38.2812 43.6406C41.2412 43.6406 43.6406 41.2412 43.6406 38.2812C43.6406 35.3213 41.2412 32.9219 38.2812 32.9219C35.3213 32.9219 32.9219 35.3213 32.9219 38.2812C32.9219 41.2412 35.3213 43.6406 38.2812 43.6406Z" stroke="#00914E" stroke-width="1.5" stroke-linecap="round" stroke-linejoin="round"/>
<path d="M10.7188 43.6406C13.6787 43.6406 16.0781 41.2412 16.0781 38.2812C16.0781 35.3213 13.6787 32.9219 10.7188 32.9219C7.75885 32.9219 5.35938 35.3213 5.35938 38.2812C5.35938 41.2412 7.75885 43.6406 10.7188 43.6406Z" stroke="#00914E" stroke-width="1.5" stroke-linecap="round" stroke-linejoin="round"/>
<path d="M10.7188 16.0781C13.6787 16.0781 16.0781 13.6787 16.0781 10.7188C16.0781 7.75885 13.6787 5.35938 10.7188 5.35938C7.75885 5.35938 5.35938 7.75885 5.35938 10.7188C5.35938 13.6787 7.75885 16.0781 10.7188 16.0781Z" stroke="#00914E" stroke-width="1.5" stroke-linecap="round" stroke-linejoin="round"/>
<path d="M28.3281 5.35938L23.7344 11.4844L28.3281 17.6094M37.5156 31.3906V16.0781C37.5156 13.0156 35.9844 11.4844 32.9219 11.4844H26.7969M11.4844 17.6094V31.3906" stroke="#00914E" stroke-width="1.5" stroke-linecap="round" stroke-linejoin="round"/>
</svg>
